<svg xmlns="http://www.w3.org/2000/svg" xmlns:xlink="http://www.w3.org/1999/xlink" x="0px" y="0px"
	 viewBox="0 0 200 200" style="enable-background:new 0 0 200 200;" xml:space="preserve">
<path data-name="logo" d="M91.8,88.5c0.2-1.9-1-3.7-2.8-4.2L8.3,48c-1-0.5-2.3-0.1-2.8,1c-0.1,0.3-0.2,0.6-0.2,0.9v98.4
	c-0.3,2.2,0.9,4.2,2.9,5.1l80.5,46.3c1,0.6,2.3,0.2,2.9-0.8c0.2-0.3,0.3-0.7,0.3-1L91.8,88.5z M189.8,131.7l-53,28.6
	c-1.6,0.8-3.5,0.3-4.3-1.3c-0.3-0.5-0.4-1-0.4-1.5c0-19,0-37.7,0.1-56.3c0.2-1,0.8-1.9,1.8-2.4l58.6-29.6c0.8-0.4,2-1.3,2-2
	c0.1-5.1,0.1-10.3,0.1-15.6c0-1.8-1.4-3.2-3.2-3.2c0,0,0,0,0,0c-0.5,0-0.9,0.1-1.3,0.3l-79.5,35.8c-1.8,0.6-3,2.4-2.7,4.3v107.4
	c0,1.8,1.4,3.2,3.2,3.2c0.6,0,1.1-0.1,1.6-0.4l79.3-45.7c1.8-0.8,2.9-2.7,2.7-4.7l-0.2-14.1c0-1.8-1.5-3.2-3.2-3.2
	C190.8,131.3,190.3,131.4,189.8,131.7 M154.8,21.6c-1.3-0.4-2.7-0.2-3.9,0.4c-16.1,7.5-32.2,15.1-48.3,22.7c-1.6,0.9-3.5,0.9-5.1,0
	C81.4,37,65.3,29.5,49.2,21.9c-1.5-0.8-3.2-0.8-4.7-0.1L19.8,31.8c-0.9,0.4-1.3,1.3-0.9,2.2c0.2,0.4,0.5,0.7,0.9,0.9l77.1,35.1
	c2,1,4.4,1,6.4,0l77.2-35c0.9-0.4,1.2-1.4,0.9-2.2c-0.2-0.4-0.5-0.7-0.9-0.9L154.8,21.6z" fill="#FFD103"/>
<path data-name="logo" d="M193.3,111.2c0.7-0.4,1.2-1.2,1.3-2c0.1-6.7,0.1-13.4,0.1-20.3c0-0.8-0.6-1.4-1.4-1.4c-0.2,0-0.4,0.1-0.7,0.2
	L149.8,109c-0.9,0.7-1.5,1.7-1.5,2.8l0,21.1c0,0.8,0.6,1.4,1.4,1.4c0.2,0,0.5-0.1,0.7-0.2L193.3,111.2z M101.2,0.2
	c-1-0.3-2-0.2-2.9,0.1L69.7,11.8c-0.4,0.2-0.5,0.6-0.4,1c0,0,0,0,0,0c0.1,0.2,0.2,0.3,0.4,0.4L99,27.3c0.8,0.2,1.7,0.2,2.4-0.2
	l29-13.6c0.4-0.2,0.5-0.6,0.4-1c-0.1-0.2-0.2-0.3-0.4-0.4L101.2,0.2z" fill="#FFD103"/>
</svg>
