<?xml version="1.0" encoding="utf-8"?>
<!-- Generator: Adobe Illustrator 25.0.1, SVG Export Plug-In . SVG Version: 6.00 Build 0)  -->
<svg version="1.1" xmlns="http://www.w3.org/2000/svg" xmlns:xlink="http://www.w3.org/1999/xlink" x="0px" y="0px"
	 viewBox="0 0 170.6 170.6" style="enable-background:new 0 0 170.6 170.6;" xml:space="preserve">
<style type="text/css">
	.st0{fill:#977930;}
	.st1{fill:#FFFFFF;}
	.st2{fill:#1C217D;}
</style>
<path class="st0" d="M145.6,25C112.3-8.1,58.4-8.1,25.3,25.2s-33.1,87.1,0.2,120.3s87.1,33.1,120.3-0.2
	c15.9-15.9,24.8-37.5,24.8-60.1C170.6,62.7,161.6,41,145.6,25z"/>
<path class="st1" d="M143.1,143.1c-31.9,31.8-83.6,31.8-115.5-0.2S-4.1,59.3,27.9,27.5s83.6-31.8,115.5,0.2
	c15.3,15.3,23.8,36,23.8,57.6C167.1,107,158.5,127.8,143.1,143.1L143.1,143.1z"/>
<circle class="st2" cx="85.3" cy="85.3" r="52.2"/>
<path class="st0" d="M97.1,126.1c-0.1,0.1-0.3,0.3-0.4,0.5c-0.1,0.3-0.3,0.7-0.3,1c-0.1,0.4-0.1,0.9-0.1,1.3c0,0.5,0.1,1,0.2,1.5
	c0.1,0.3,0.3,0.6,0.6,0.9c0.2,0.2,0.5,0.3,0.8,0.3c0.4,0,0.8-0.2,1.1-0.5c0.3-0.4,0.4-0.9,0.4-1.4C99.3,128.3,98.6,127.2,97.1,126.1
	z"/>
<path class="st0" d="M70.3,21.2c1.1,0.8,1.2,0.1,1.3,0s0.2-0.5,0.5-0.7c0.2-0.5,0.4-1,0.5-1.5c0.1-0.4,0.3-0.3,0.6-0.2
	s-0.4,1.2-0.4,1.5s0.8,2.2,1.5,2.3c0.4,0,0.7-0.2,0.8-0.6c0.3-0.4,0.4-0.9,0.5-1.5c0-0.5,0.5-0.8,0.8-1.2c0.1-0.2,0.3-0.2,0.5-0.1
	c0.1,0.1,0.1,0.2,0.2,0.3c0,0.2-0.2,2,0.5,2c1,0.1,0.8-0.5,0.9-0.5s0.8-0.3,0.8,0c-0.2,2.3-0.1,5.2,0.1,5.3s0.3,0.8,0.4,0.9
	s0.4,0,0.4-0.1s0-0.6,0-0.8s0.3-0.2,0.3-0.3c0-0.2,0-0.5,0-0.7c0-0.1,0.2-0.3,0.3-0.8c0-0.6,0-1.1,0.1-1.7c0.1-0.3,0.2-0.5,0.5-0.6
	c0.4,0,0.8,0,1.2,0c0.3,0,0.5-0.2,0.7-0.4c0.1-0.1,1.1-2.9,1.2-3c0.2-0.4,0.1-0.8-0.3-1.1c-0.5-0.8-2-0.1-2.4-0.1s-0.7,0.1-0.8-0.1
	c-0.1-0.7-0.1-1.4,0-2.1c0-0.1,0.3-0.9,0.3-0.9s0.4-0.5,0.4-0.6s0-0.2,0.2-0.5c0-0.3,0.4-0.5,0.4-0.5c-0.1-0.2,0.2-0.6,0.4-0.8
	s-0.7-0.6-1.4-0.6s-1.4,0.8-1.5,0.8s-0.4,0.4-0.7,0.4c-0.3,0-0.5,0.2-0.6,0.4c0,0.6,0.4,1.2,1,1.3c0.7,0,0.2,0.9,0.2,0.9
	c-0.2,0.1-0.4,0.2-0.6,0.3c0,0.2-0.1,0.4-0.3,1c-0.6,1.3-0.9,1.7-1.4,2s-0.7,0-0.7-0.1s0.4-2,0.5-2.3s-0.1-0.4-0.4-0.3
	s-0.1,0.4-0.6,0c-0.6-0.4-1.2-0.7-1.8-1c-0.9,0.2-0.8,1-0.8,1.3s-0.9,0.6-0.9,0c-0.2-0.7-0.4-1.3-0.8-1.9c-0.9,0.2-1.6,2.3-1.7,2.4
	s-0.7,2.1-0.8,2.3C69.2,19.7,69.6,20.6,70.3,21.2z M81.3,18.5c1.8-0.9,2-0.5,2-0.5c0.3,0.3,0.4,0.7,0.3,1.1c-0.1,0.3-0.2,0.7-0.3,1
	c-0.1,0.4,0,0.7-0.9,0.5S81,20.1,81,19.9C80.8,19.5,80.9,18.9,81.3,18.5z"/>
<path class="st0" d="M80.6,119.6c-0.2-0.1-0.4-0.2-0.6-0.2c-0.3,0-0.5,0.2-0.7,0.4c-0.3,0.7-0.4,1.4-0.3,2.1
	c-0.1,1.2,0.1,2.4,0.6,3.6c0.2,0.4,0.6,0.6,1,0.6c0.3,0,0.6-0.1,0.9-0.3c0.1-0.7,0.1-1.3,0.1-1.8c0-1.1-0.1-2.1-0.4-3.2
	C81.1,120.4,80.9,120,80.6,119.6z"/>
<path class="st0" d="M148.7,48.1c0.6,0,0.5-0.1,0.6-0.5c-0.1-0.1,0.2-0.5,0.3-0.5c0.1-0.1,0.3-0.2,0.4-0.4c0-0.4,0.2-0.9,0.5-1.2
	c-0.5-0.4-1.1-0.4-1.6-0.1c-0.1,0-0.1,0.4-0.6,0.4c-0.2,0-0.5,0.1-0.6,0.3c0,0-0.3,1.6-0.1,1.8S148.2,48.1,148.7,48.1z"/>
<path class="st0" d="M137.2,59.5c0.1,0.1,0,0.7,0,0.8s0.7,1.3,0.8,1.2c0.6-0.2,0.4,0.1,0.8,0.1c0.1-0.1,0.6,0,0.7-0.1
	c0.2-0.2,0.4-0.2,0.6-0.2c0.4-0.1,0.4-0.3,0.8-0.3c0.7-0.1,0.7,0.6,0.8,0.8s0.2,0.6,0.5,0.8s0.6,0.4,1-0.1s0.1-1.1-0.2-1.4
	c-0.2-0.4-0.4-0.7-0.6-1c-0.4-0.3-0.1-0.7,0-0.8s0.3,0.1,0.3-0.8s0.6-0.9,0.7-0.9s0.6,0.1,0.6,0.1c0.2-0.1,0.3-0.1,0.5-0.2
	c0.3,0,0.3,0.3,0.6,0.1c1-0.1,0.8,0.4,1.2,0.7c1.7,0.8,2.6,0.8,3.6,0c0.9-0.5,1.3-1.6,1-2.6c-0.4-1.1-1.1-2-2-2.7
	c-0.3-0.4,0.7-0.6,0.9-0.4c0.6,0.1,1.1,0.2,1.7,0.2c0-0.1-0.1-0.2,0.4-0.1c0.7,0.1,1.5,0.3,2.2,0.3c0.3,0.2,0.7,0.3,1,0.1
	c0.3,0.2,0.7,0.4,1.1,0.3c0.5,0.2,0.6,0.1,0.8-0.1s-0.1-0.6-0.1-0.7s0.3-0.9-0.2-1.2c-0.7-0.3-1.3-0.7-1.9-1.1
	c-1.2-0.5-2.1-1.4-2.7-2.6c-0.1-0.1-0.6-0.1-1,0.5c0.2,0.6-0.6,0.7-0.6,0.7c-0.4,0.4-0.4,1-0.1,1.4c0,0,0.1,0.1,0.1,0.1
	c0.3,0.2,0.6,0.2,0.9,0.1c0.3-0.1,0.3-0.3,0.4-0.5c0.7-0.4,0.8,0,1.2,0.2s2.3,1.2,2.1,1.6c0.4,0.8-1.2,0.6-1.4,0.7
	c-1.2-0.1-2.5-0.3-3.6-0.7c-1.1-0.4-2.3-0.7-3.6-0.8c-1.2,0-1.1-0.4-1.2-0.4c-0.3,0-0.6,0-0.9,0c-0.4,0.1-0.5-0.6-0.9-0.5
	c-1.1,0.2-2.1,0.6-3,1.1c-0.2,0.1-0.2,0.8-0.2,0.9s0.5,0.2,0.5,0.2s0.3-0.2,0.5-0.1c0.3,0.1,0.6,0,0.8-0.2c0.3-0.2,1.1,0.1,1.3,0.2
	c0.3,0.1,0.6,0.1,0.9,0c0.2-0.2,0.3-0.1,0.5,0c0.5,0.2,1,0.4,1.5,0.5c0.2,0,0.3,0,0.5,0.1c0,0,0.5,0.5,0.9,0.5s0.3,0.2,0.8,0.4
	c1.2,0.8,1.6,1.8,1.5,2c0.5,0.8,0.2,1.9-0.7,2.4c-0.2,0.1-0.3,0.2-0.5,0.2c-1,0-2-0.3-2.8-0.8c-0.4-0.2-0.7-0.5-0.8-0.9
	c-0.1-0.3-0.3-0.8-0.4-0.8s-0.2-0.2-0.8-0.7c-0.3-0.3-0.7-0.3-1.1-0.2c0.4,0.5,0.8,0.9,1.1,1.4c0.4,0.6-1.6,0.7-1.9,0.7
	s-0.4,0.9-0.6,1.5c0.1,0.4-0.6,0.4-0.7,0.3c-0.6-0.6-1.2-1.2-1.7-1.9c-0.1-0.1-0.2-0.3-0.3-0.4c-0.2-0.1-0.3-0.2-0.5-0.4
	c-0.2-0.2-0.4-0.7-0.6-0.5c-0.3,0.4-0.3,0.9,0,1.3c0.3,0.3,0.9,0.6,1.1,0.9c0.3,0.3,0.6,0.6,0.8,0.9c0.4,0.3,0.5,0.6,0.4,0.8
	c0.1,0.4-1,0.6-1.2,0.4c-0.2-0.2-0.3-0.3-0.5-0.4c-0.4-0.2-0.7-0.5-0.8-0.9c-0.1-0.6-0.5-0.5-0.4-0.4S137.2,59.4,137.2,59.5z"/>
<path class="st0" d="M31.1,85.3c-0.1,30,24.2,54.3,54.2,54.3s54.3-24.2,54.3-54.2s-24.2-54.3-54.2-54.3C71,31.1,57.2,36.8,47,47
	C36.8,57.1,31.1,70.9,31.1,85.3z M74.6,131.8h-6.1v-0.4h0.3c0.4,0,0.7,0,1.1-0.2c0.2-0.1,0.4-0.3,0.4-0.5c0.1-0.5,0.1-1,0.1-1.5
	v-6.6c0-0.4,0-0.7-0.1-1.1c-0.1-0.3-0.4-0.5-0.8-0.5c-0.4,0-0.7,0.1-1.1,0.3l-0.1-0.3l4.3-2.1h0.3v10.4c0,0.5,0,1,0.1,1.5
	c0.1,0.2,0.2,0.4,0.4,0.5c0.3,0.2,0.7,0.2,1,0.2h0.3L74.6,131.8z M57.8,112.2l11.9-19.4v19.4H57.8z M83.2,127.9
	c-0.6,1.2-1.5,2.2-2.6,3c-1.2,0.8-2.7,1.2-4.1,1.2v-0.3c0.9-0.2,1.7-0.6,2.4-1c0.6-0.4,1.2-1,1.6-1.7c0.4-0.7,0.7-1.5,0.8-2.4
	c-0.3,0.2-0.6,0.3-0.9,0.4c-0.3,0.1-0.5,0.1-0.8,0.1c-0.8,0-1.7-0.3-2.2-1c-0.6-0.8-0.9-1.8-0.9-2.8c0-0.8,0.2-1.6,0.5-2.3
	c0.3-0.7,0.8-1.2,1.4-1.6c1.1-0.8,2.6-0.8,3.8,0.1c0.6,0.5,1.1,1.1,1.4,1.8c0.4,0.9,0.5,1.8,0.5,2.8
	C84.1,125.4,83.8,126.7,83.2,127.9L83.2,127.9z M92,131.8h-6.8v-0.2c1.4-1.7,2.7-3.6,3.8-5.5c0.4-0.9,0.7-1.8,0.7-2.8
	c0-0.6-0.2-1.2-0.6-1.6c-0.3-0.4-0.8-0.7-1.4-0.6c-0.9,0-1.7,0.6-2,1.4l-0.3-0.1c0.2-1,0.7-1.9,1.4-2.7c1.2-1.2,3.2-1.2,4.4,0
	c0.2,0.2,0.4,0.5,0.6,0.8c0.3,0.4,0.4,0.9,0.4,1.5c0,0.9-0.2,1.7-0.6,2.5c-1,1.8-2.3,3.4-3.8,4.8h2.5c0.4,0,0.8,0,1.2-0.1
	c0.2-0.1,0.3-0.1,0.4-0.3c0.2-0.3,0.4-0.5,0.5-0.9h0.3L92,131.8z M100.6,131c-0.8,0.7-1.8,1.1-2.9,1.1c-1,0.1-1.9-0.3-2.7-0.9
	c-1.1-1.1-1.2-2.8-0.4-4c0.5-0.6,1.1-1.1,1.8-1.4c-0.7-0.5-1.3-1.2-1.8-1.9c-0.3-0.5-0.4-1.1-0.4-1.7c0-0.9,0.4-1.7,1-2.2
	c0.7-0.7,1.7-1,2.7-1c0.9-0.1,1.8,0.3,2.6,0.9c1,0.9,1.2,2.5,0.4,3.6c-0.4,0.5-0.9,0.9-1.5,1.2c0.7,0.5,1.2,1.1,1.7,1.8
	c0.3,0.6,0.5,1.3,0.5,1.9C101.7,129.3,101.3,130.3,100.6,131L100.6,131z M102.8,112.2V92.8l11.9,19.4L102.8,112.2z M85.3,33.7
	c28.5,0,51.6,23,51.6,51.5c0,10.1-3,20.1-8.6,28.5l-27.3-47H90.3V78h-6.2v7.8h6.2v27.4h-8.1v-9.9h3.5v-8.9h-4.2V66.7H71l-29.3,46.1
	c-15.2-24.1-7.9-56,16.2-71.2C66.1,36.5,75.6,33.7,85.3,33.7L85.3,33.7z"/>
<path class="st0" d="M129.3,39.9c0.1,0.6,0.4,1.1,0.9,1.5c0.4,0.3,1,0.2,1.4-0.2c0.4-0.5,0-0.6,0-0.6s0.1-0.5,0.1-0.5
	s-0.1-0.1-0.1-0.4c0.1-0.5-0.2-1-0.7-1.2c-0.4-0.1-0.8-1.2-0.8-1.2c-0.4,0,0,0.5,0,0.7s-0.2,0.1-0.2,0.7
	C129.9,39,129.7,39.5,129.3,39.9z"/>
<path class="st0" d="M86.5,63.6c6.6,0,11.9-5.3,11.9-11.9c0-6.6-5.3-11.9-11.9-11.9s-11.9,5.3-11.9,11.9c0,0,0,0,0,0
	C74.6,58.3,79.9,63.6,86.5,63.6z"/>
<path class="st0" d="M125.3,37.2c0.8,0.2,1.6,0.1,2.2-0.4c0.6-0.3,1.1-0.8,1.5-1.3c0.3-0.4,0.6-0.6,1.2-1c0.3-0.3,0.9-0.4,1.3-0.2
	c0.2,0.1,0.5,0.1,0.7,0.1c0.4,0,0.8,0.1,1.1,0.3c0.2,0.2,0.5,0.2,0.7,0.2c1.3-0.4,0.9-0.9,1-1s0-0.8-0.4-0.7
	c-0.2,0.2-0.5,0.4-0.8,0.3c-0.7,0.1-1.4-0.1-1.8-0.7c-0.4-0.4,0.4-0.7,0.4-0.7c0.5-1,1-2,1.6-3c0.1-0.2,0.6-0.3,0.9-1.1
	c0.3-1-0.8-1.6-0.8-1.6c-0.5,0.1-0.4,1-0.6,1.1c-0.3,0.3-0.6,0.6-0.8,0.9c-0.4,1.1-0.8,1-0.9,1.2c-0.3,0.7-0.7,1.3-1.1,1.9
	c-0.1,0-0.3,0.1-0.4,0.3s-0.4,0.6-0.5,0.5c-0.1-0.1-0.3-0.2-0.4-0.2c-0.2-0.1-0.3,0.1-0.5,0c-0.4-0.3-0.9-0.4-1.4-0.5
	c-0.4-0.3-0.9-0.5-1.4-0.6c-0.6-0.3-0.8,0.3-0.2,0.6c-0.1,0.6,0.5,0.8,1.4,1s1.3,0.4,0.9,1.1c-0.4,0.8-1.2,0.6-1.4,0.9
	c-0.6,0.4-1.3,0.6-2,0.6c-0.7,0-1.4,0.3-2,0.7C122.6,36.8,124.6,37,125.3,37.2z"/>
<path class="st0" d="M97.2,19.2c0.4,0.1,1.4,0,2.2,0.1c0.6-0.1,1.2-0.1,1.7,0.1c0.1,0,0.2,0.2,0.7,0c0.8-0.2,0.5,0.5,0.4,0.6
	c-0.8,0.8-1.4,1.6-2,2.5c-0.4,0.7-0.9,1.4-1.4,2c-0.3,0.3-0.5,0.7-0.9,0.9c-0.1,0.3-0.2,0.7-0.3,1c-0.1,0.1-0.3,1.6,0.3,1.9
	c0.2-0.1,0.5-0.2,0.8-0.3c0.4-0.3,0.8-0.7,1-1.1c0.2-0.4,0.4-0.7,0.7-1c0.1-0.1,0.6-0.5,0.8-0.7s0.8-0.3,0.4,0.3
	c-0.4,0.9-0.5,1.9-0.2,2.9c0.2,0.1,1.5,1.5,1.7,1.6c0.6,0.2,1.2,0.4,1.8,0.6c0,0.1,0.2,0.2,0.4,0.2c0.5,0,1,0,1.5,0.1
	c1.2,0.3,2.5,0.3,3.6,0c0.6-0.5,0.4-2,0.6-2.6c0.1-0.5,0.1-1,0.1-1.5c-0.2-0.4-0.2-0.9-0.1-1.3c0.1-0.3,0-0.5-0.1-0.7
	c-0.1-0.1-0.9-0.1-0.8,1.2c0,1-0.1,2-0.4,3c-0.1,0.6-0.6,1-1.2,1c-0.6,0-1.3-0.1-1.9-0.3c-0.9,0.1-1.8-0.1-2.6-0.5
	c-2.1-0.9-1.8-2.6-1.7-2.7c0.2-0.3,0.4-0.6,0.5-1c0.2-0.4,0.5-0.8,0.8-1.2c0.2-0.1,0.3-0.9,0.8-0.9c0.8,0.5,0,0.8,0.1,1.1
	c0.3,0.5,0.8,0.9,1.4,1c0.5,0,0.3-0.5,0.3-0.5c-0.1-0.3-0.2-0.7-0.3-1c0-0.3,0.1-0.6,0.3-0.8c0.3-0.4,0.6-0.8,0.8-1.2
	c0.2-0.5-0.1-0.7-0.8-0.8s-2.6,0.7-3.1,0.9s-0.5,0.4-1,0.3s0-0.6,0.1-0.7s1-1.2,1.1-1.3s1.7-1.4,1.8-1.5s0.1-0.2,0.6-0.4
	c0.8-0.2,4.2-0.6,4.4-0.6s0.9-0.2,0.9-0.3c0.1-0.2,0.3-0.5,0.5-0.7c0.2-0.2-0.1-0.4-0.2-0.4c-0.4,0.1-0.7,0.3-0.9,0.6
	c-0.3,0.3-0.6,0.4-0.9,0.5c-0.1,0-0.8-0.1-0.9,0c-0.5,0.1-1,0.2-1.4,0.2c-1,0.2-0.6-0.4-0.5-0.6c0.4-0.4,0.9-0.7,1.4-0.9
	c0.6-0.4,1.2-0.7,1.9-0.9c0.4-0.3,0.8-0.7,1.1-1.1c0.1-0.1,0.2-0.3-0.1-0.4c-1.5,0.4-2.9,1.2-4.2,2.1c-0.4,0.4-0.8,0.7-1.3,1
	c-0.2,0.3-0.4,0.5-0.7,0.7c-0.3,0.2-0.6,0.3-0.9,0.1c-0.1,0-0.3,0-0.4,0c0,0-0.4,0.2-0.5-0.1c-0.2-0.5,0.4-1,0.5-1.2
	s0.4-0.5,0.5-0.7c0-0.2,0.1-0.5,0.2-0.7c0.1-0.1,0.5-1.3,0.6-1.4s-0.1-0.3,0-0.5c0.4-1.3-0.1-1.4-0.1-1.4s-0.5,0.6-0.9,1.6
	c0.1,0.5-0.1,1-0.5,1.3c0,0.1-0.5,2-0.5,2.1s-0.1,1.1-1,1.1c-0.3-0.1-0.6-0.1-0.9,0c-0.8,0-1.6,0-2.4-0.1c-0.1-0.1-0.3-0.2-0.4-0.2
	c-0.2,0.2-0.5,0.5-0.7,0.7c-0.2,0-0.4,0.2-0.3,0.4S97,19.3,97.2,19.2z M104.9,22.8c0.1-0.3,0.3-0.4,0.4-0.3s0.3,0.1,0.1,0.4
	S104.8,23,104.9,22.8L104.9,22.8z"/>
<path class="st0" d="M98,119.4c-0.4,0-0.8,0.2-1,0.5c-0.3,0.3-0.4,0.7-0.4,1.1c0,0.5,0.2,1,0.4,1.4c0.5,0.7,1.1,1.2,1.8,1.7
	c0.2-0.3,0.4-0.7,0.5-1c0.1-0.4,0.2-0.8,0.1-1.3c0-0.7-0.1-1.3-0.5-1.9C98.7,119.6,98.4,119.4,98,119.4z"/>
<path class="st0" d="M141.4,125c0.5,0.6,0.9,1.4,0.9,2.2c0,0.8-0.3,1.5-0.8,2.1l-0.4,0.4c-0.1,0.2-0.3,0.3-0.5,0.4
	c-0.1,0-0.3,0-0.4,0c-0.3-0.2-0.6-0.4-0.9-0.6l-2.4-1.9c0.2-0.3,0.5-0.5,0.8-0.7c0.3-0.1,0.7-0.1,1,0c0.5,0.2,1,0.4,1.4,0.7l0.2-0.2
	l-4.4-3.5l-0.2,0.2c0.5,0.4,0.9,1,1.2,1.6c0.2,0.5,0,1-0.3,1.4l-0.1,0.1l-3.4-2.8l0.6-0.8c0.3-0.4,0.6-0.7,1-1
	c0.4-0.2,0.8-0.4,1.2-0.3c0.6,0.1,1.1,0.3,1.6,0.6l0.2-0.2l-2.5-2l-4.9,6l0.1,0l-1.8,1.7l0.2,0.2c0.2-0.2,0.4-0.3,0.7-0.4
	c0.1,0,0.3,0,0.4,0c0.1,0,0.3,0.1,0.4,0.2c0.1,0.1,0.2,0.3,0.3,0.4c0.1,0.2,0.3,0.6,0.5,1.1l1.9,4.8l-5.1-2.6l-1-0.5
	c-0.1-0.1-0.2-0.1-0.3-0.2c-0.1-0.1-0.2-0.2-0.1-0.4c0.1-0.3,0.3-0.5,0.5-0.7l0.1-0.1l-0.2-0.2l-3,2.9l-0.2-0.2l-3.9,3l0.2,0.2
	l0.2-0.2c0.2-0.1,0.4-0.2,0.6-0.2c0.2,0,0.3,0,0.5,0.1c0.3,0.2,0.5,0.5,0.7,0.8l4.3,5.7c0.2,0.3,0.4,0.5,0.5,0.9
	c0.1,0.2,0.1,0.3,0,0.5c-0.1,0.2-0.2,0.4-0.4,0.5l-0.2,0.2l0.2,0.2l3.9-3l-0.2-0.2l-0.2,0.2c-0.2,0.1-0.4,0.2-0.6,0.2
	c-0.2,0-0.3,0-0.5-0.1c-0.3-0.2-0.5-0.5-0.7-0.8l-4.2-5.7c-0.2-0.3-0.4-0.5-0.6-0.8c-0.1-0.2-0.1-0.3,0-0.5c0.1-0.2,0.2-0.4,0.4-0.5
	l0.2-0.2l-0.2,0.2l0.2,0.2c0.2-0.2,0.5-0.3,0.8-0.2c0.6,0.2,1.2,0.5,1.8,0.8l8.2,4.1l0.2-0.2l-3.3-8.2c-0.3-0.6-0.5-1.3-0.6-2
	c-0.1-0.4,0-0.8,0.2-1.1l-0.1-0.1c0.1-0.1,0.3-0.2,0.4-0.2c0.2,0,0.3,0,0.5,0.1c0.3,0.2,0.5,0.3,0.7,0.5l5.5,4.5
	c0.3,0.2,0.5,0.4,0.7,0.7c0.1,0.1,0.1,0.3,0.1,0.5c0,0.2-0.1,0.4-0.3,0.6l-0.2,0.2l0.2,0.2l5.1-6.3l-2.4-2.4L141.4,125z"/>
<path class="st0" d="M119.4,137.3c-0.1-0.2-0.1-0.4,0-0.6c0.1-0.2,0.3-0.4,0.6-0.6l-0.1-0.2l-2.7,1.6l0.1,0.2
	c0.3-0.3,0.8-0.3,1.2-0.2c0.4,0.2,0.7,0.6,0.9,1l2.4,4l-7.4-3.4l-2.7,1.6v-0.1l-3.1,1.1l0.1,0.3c0.3-0.1,0.6-0.2,0.9-0.1
	c0.2,0,0.3,0.1,0.4,0.3c0.2,0.3,0.4,0.6,0.5,0.9l1.5,4.1c0.3,0.7,0.5,1.5,0.6,2.4c0,0.5-0.1,0.9-0.4,1.3c-0.3,0.4-0.6,0.7-1.1,0.8
	c-0.4,0.2-0.8,0.2-1.1,0.1c-0.3-0.1-0.6-0.3-0.9-0.5c-0.4-0.5-0.7-1.1-0.9-1.7l-1.9-5c-0.2-0.4-0.3-0.7-0.3-1.1
	c0-0.2,0.1-0.3,0.1-0.4c0.2-0.2,0.4-0.3,0.7-0.4l0.2-0.1l-0.1-0.3l-4.5,1.7l0.1,0.3c0.2-0.1,0.5-0.2,0.8-0.2c0.2,0,0.3,0.1,0.4,0.2
	c0.2,0.3,0.4,0.7,0.5,1.1l1.8,5c0.2,0.7,0.6,1.3,1.1,1.9c0.5,0.4,1,0.7,1.6,0.8c0.6,0.1,1.3-0.1,1.9-0.3c0.8-0.3,1.5-0.8,1.9-1.5
	c0.3-0.5,0.5-1.2,0.4-1.8c-0.2-0.9-0.4-1.8-0.8-2.6L111,143c-0.1-0.3-0.2-0.6-0.2-0.9c0-0.2,0-0.5,0.2-0.6c0.1-0.2,0.3-0.3,0.6-0.4
	h0.1l0.1,0.1c0.2-0.1,0.4-0.2,0.6-0.2c0.3,0,0.5,0.1,0.7,0.2l0.3,0.1l3.9,6.5c0.3,0.3,0.4,0.8,0.4,1.2c-0.1,0.4-0.4,0.7-0.7,0.9
	l0.1,0.2l2.9-1.7l-0.1-0.2l-0.2,0.1c-0.3,0.2-0.6,0.2-0.9,0.1c-0.3-0.1-0.6-0.4-1-0.9l-3.5-5.9l10,4.5l0.2-0.1l-4.6-7.7
	C119.6,138,119.5,137.6,119.4,137.3z"/>
<path class="st0" d="M149,116.7c-0.4,0.1-0.7,0.1-1.1,0.1l-4.3,0.3c0.1-0.5,0.1-1,0-1.5c-0.2-0.7-0.7-1.3-1.4-1.6
	c-0.5-0.3-1.1-0.4-1.7-0.4c-0.6,0.1-1.1,0.3-1.5,0.7c-0.6,0.6-1,1.3-1.4,2.1l-2,3.9l0.3,0.1c0.1-0.3,0.3-0.5,0.5-0.7
	c0.1-0.1,0.3-0.1,0.5-0.1c0.4,0.1,0.7,0.2,1,0.4l6.2,3.2c0.3,0.1,0.7,0.3,0.9,0.6c0.1,0.1,0.2,0.3,0.2,0.5c0,0.3-0.1,0.6-0.3,0.9
	l0.3,0.1l2.2-4.3l-0.3-0.1c-0.1,0.3-0.3,0.5-0.5,0.7c-0.1,0.1-0.3,0.1-0.5,0.1c-0.4-0.1-0.7-0.2-1-0.4l-2.7-1.4l0.3-0.5l5.8-0.4
	l1.4-2.6l-0.2-0.1C149.5,116.5,149.3,116.6,149,116.7z M142.1,119.4l-0.2,0.4l-4.2-2.2l0.3-0.7c0.2-0.6,0.7-1,1.3-1.1
	c0.6-0.1,1.3,0,1.9,0.4c0.4,0.2,0.8,0.5,1.1,0.9c0.2,0.3,0.3,0.6,0.3,1C142.5,118.5,142.4,118.9,142.1,119.4z"/>
<path class="st0" d="M87.8,154.7l-3.2-8.9h-0.1l-3.6,8.5c-0.2,0.6-0.5,1.1-0.8,1.6c-0.2,0.3-0.5,0.4-0.8,0.5v0.3l3.1,0.1v-0.3
	c-0.3,0-0.6-0.1-0.9-0.2c-0.2-0.2-0.3-0.4-0.3-0.7c0-0.3,0.1-0.6,0.2-0.9l0.4-1l3.3,0.1l0.5,1.4c0.1,0.2,0.1,0.4,0.2,0.6
	c0,0.1,0,0.2,0,0.3c0,0.1-0.1,0.3-0.2,0.4c-0.2,0.1-0.5,0.2-0.8,0.2h-0.2v0.2l4.5,0.1v-0.3c-0.2,0-0.5-0.1-0.7-0.3
	C88.2,155.8,88,155.3,87.8,154.7z M82.1,153.1l1.5-3.7l1.3,3.7L82.1,153.1z"/>
<path class="st0" d="M98.9,152.1c-0.1,0.7-0.3,1.4-0.5,2c-0.2,0.4-0.4,0.7-0.8,1c-0.4,0.3-0.8,0.4-1.2,0.4l-0.8,0.1
	c-0.3,0-0.6,0-0.8,0c-0.2,0-0.3-0.2-0.4-0.3c-0.1-0.3-0.2-0.7-0.2-1l-0.7-6.8c0-0.3,0-0.7,0-1c0-0.2,0.1-0.3,0.2-0.4
	c0.2-0.1,0.4-0.2,0.6-0.2h0.4v-0.3l-5,0.5v0.3h0.3c0.2,0,0.4,0,0.6,0.1c0.2,0.1,0.3,0.2,0.3,0.3c0.1,0.3,0.2,0.7,0.2,1l0.7,7.1
	c0,0.3,0,0.7,0,1c0,0.2-0.1,0.3-0.2,0.4c-0.2,0.1-0.4,0.2-0.6,0.2h-0.3v0.3l8.3-0.8v-3.8L98.9,152.1z"/>
<path class="st0" d="M149.9,108.2c-0.6-0.2-1.3-0.3-2-0.1c-0.9,0.3-1.7,0.8-2.4,1.5c-0.4,0.4-0.9,0.8-1.4,1.1
	c-0.3,0.2-0.6,0.3-0.9,0.4c-0.2,0-0.4,0-0.6-0.1c-0.4-0.1-0.6-0.4-0.8-0.7c-0.2-0.4-0.2-0.8,0-1.2c0.2-0.6,0.7-1.1,1.4-1.3
	c0.8-0.3,1.6-0.4,2.4-0.2l0.1-0.3l-3.4-1.2l-0.1,0.2c0.2,0.1,0.4,0.2,0.5,0.4c0,0.1,0,0.2,0,0.3c-0.1,0.2-0.3,0.4-0.5,0.5
	c-0.2,0.2-0.4,0.4-0.6,0.6c-0.2,0.2-0.3,0.5-0.4,0.8c-0.3,0.7-0.2,1.6,0.1,2.3c0.4,0.7,1,1.3,1.8,1.5c0.4,0.2,0.9,0.2,1.4,0.2
	c0.5,0,0.9-0.2,1.4-0.4c0.6-0.4,1.2-0.8,1.8-1.3c0.4-0.3,0.8-0.6,1.2-0.9c0.3-0.1,0.5-0.2,0.8-0.3c0.3,0,0.5,0,0.8,0.1
	c0.9,0.3,1.3,1.2,1,2.1c0,0,0,0,0,0.1c-0.3,0.7-0.8,1.2-1.5,1.5c-0.9,0.4-1.9,0.4-2.9,0.2l-0.1,0.2l3.8,1.4l0.1-0.2
	c-0.2-0.1-0.3-0.3-0.4-0.5c0-0.1,0-0.3,0-0.4c0.1-0.2,0.2-0.3,0.3-0.5c0.3-0.2,0.5-0.5,0.7-0.8c0.2-0.2,0.3-0.5,0.4-0.8
	c0.3-0.8,0.3-1.7-0.1-2.5C151.5,109.1,150.8,108.5,149.9,108.2z"/>
<path class="st0" d="M157.4,85.2l-0.1,0.5c0,0.2-0.1,0.4-0.2,0.6c-0.1,0.1-0.2,0.2-0.4,0.3c-0.3,0-0.7,0-1,0l-2.6-0.3l-3.6-2.5
	c-0.6-0.4-1.2-0.8-1.7-1.3c-0.1-0.2-0.2-0.5-0.2-0.7h-0.3l-0.3,2.8h0.3c0-0.3,0.1-0.6,0.3-0.8c0.1-0.1,0.2-0.2,0.4-0.1
	c0.5,0.2,1.1,0.4,1.5,0.8l3.1,2l-3.7,1.3c-0.5,0.2-1,0.3-1.5,0.4c-0.1,0-0.2-0.1-0.3-0.2c-0.1-0.2-0.1-0.4-0.1-0.6v-0.2h-0.3
	l-0.5,4.3l0,0l-1.7,8.2l2.9,0.6l0.1-0.3c-0.6-0.2-1.2-0.6-1.6-1.1c-0.3-0.4-0.3-1-0.2-1.4l0.1-0.7l8.1,1.7c0.3,0,0.7,0.1,1,0.3
	c0.1,0.1,0.3,0.2,0.3,0.4c0.1,0.2,0.1,0.5,0,0.7l-0.1,0.3l0.3,0.1l1-4.8l-0.3-0.1l-0.1,0.3c0,0.2-0.1,0.4-0.3,0.6
	c-0.1,0.1-0.3,0.2-0.4,0.2c-0.3,0-0.7,0-1-0.1l-8.1-1.7l0.1-0.7c0-0.3,0.1-0.6,0.3-0.9c0.2-0.3,0.5-0.5,0.8-0.6
	c0.5-0.1,1-0.2,1.5-0.2V92l-2.5-0.5c0-0.2,0.1-0.4,0.3-0.5c0.5-0.3,1.1-0.6,1.7-0.7l4.8-1.7l2.1,0.3c0.3,0,0.7,0.1,1,0.2
	c0.1,0.1,0.3,0.2,0.3,0.3c0.1,0.2,0.1,0.4,0.1,0.7l-0.1,0.5h0.3l0.6-5.2L157.4,85.2z"/>
<path class="st0" d="M79.8,146.2l0.1-0.3l-3.8-0.7l-3.9,6.5l-1.2-7.5l-3.8-0.7l-0.1,0.3l0.3,0c0.2,0,0.4,0.1,0.6,0.3
	c0.1,0.1,0.2,0.3,0.2,0.4c0,0.3,0,0.7-0.1,1l-1.3,6.7c0,0.3-0.1,0.5-0.2,0.8c-0.1,0.2-0.2,0.4-0.3,0.5c-0.1,0.1-0.3,0.2-0.5,0.2
	c-0.2,0-0.4,0-0.6,0h-0.1l-0.1,0.3l3.2,0.6l0.1-0.3c-0.3,0-0.6-0.2-0.9-0.4c-0.2-0.2-0.3-0.5-0.3-0.7c0-0.3,0.1-0.7,0.2-1l1.4-7.5
	l1.7,10.3h0.2l5.4-9l-1.5,7.8c0,0.3-0.1,0.7-0.3,1c-0.1,0.1-0.2,0.3-0.4,0.3c-0.2,0.1-0.5,0.1-0.7,0l-0.3-0.1l-0.1,0.3l4.8,0.9v-0.3
	l-0.3,0c-0.2,0-0.4-0.1-0.6-0.3c-0.1-0.1-0.2-0.2-0.2-0.4c0-0.3,0-0.7,0.1-1l1.4-7c0-0.3,0.1-0.7,0.3-1c0.1-0.1,0.2-0.2,0.3-0.3
	c0.2-0.1,0.5-0.1,0.7,0L79.8,146.2z"/>
<path class="st0" d="M154.4,103.3c0,0.2-0.2,0.4-0.3,0.6c-0.1,0.1-0.3,0.2-0.4,0.2c-0.3,0-0.7-0.1-1-0.2l-6.8-2
	c-0.3-0.1-0.6-0.2-0.9-0.4c-0.1-0.1-0.2-0.2-0.3-0.4c-0.1-0.2-0.1-0.5,0-0.7l0.1-0.3l-0.3-0.1l-1.4,4.7l0.3,0.1l0.1-0.3
	c0-0.2,0.2-0.4,0.3-0.6c0.1-0.1,0.3-0.2,0.4-0.2c0.3,0,0.7,0.1,1,0.2l6.8,2c0.3,0.1,0.7,0.2,1,0.4c0.1,0.1,0.2,0.2,0.3,0.4
	c0.1,0.2,0.1,0.5,0,0.7l-0.1,0.3l0.3,0.1l1.4-4.7l-0.3-0.1L154.4,103.3z"/>
<path class="st0" d="M48.2,134.6c0.2-0.1,0.3-0.2,0.5-0.2c0.3,0.1,0.5,0.2,0.8,0.3l0.2-0.2l-2.4-1.9l-0.2,0.2c0.4,0.2,0.6,0.6,0.6,1
	c-0.1,0.4-0.3,0.9-0.6,1.2l-2.9,3.6l0.5-8.1l-2.6-2l-0.2,0.2c0.2,0.1,0.3,0.3,0.4,0.5c0.1,0.2,0.1,0.5,0.1,0.8v0.4l-4.7,6
	c-0.2,0.4-0.6,0.6-1,0.8c-0.4,0.1-0.8-0.1-1.1-0.4l-0.2,0.2l2.6,2l0.2-0.2l-0.2-0.1c-0.3-0.2-0.4-0.5-0.5-0.8c0-0.5,0.2-0.9,0.5-1.2
	l4.2-5.4l-0.6,11l0.2,0.1l5.6-7C47.7,135.1,47.9,134.8,48.2,134.6z"/>
<path class="st0" d="M20.4,44.8c0.5-0.1,1,0.2,1.2,0.6c0.4,0.6,1,1.2,1.5,1.8c0.7,0.8,0.5,1.4,0.5,1.4c0,0.3,0,0.7-0.1,1
	c0.1,0.5-0.3,0.5-0.4,0.6c-0.5,0.1-1.1,0.2-1.6,0.4c-0.4,0.4,0.1,0.7,0.3,0.9s0.7,1.6,0.9,1.9c0.3,0.5,0.6,1.1,0.9,1.6
	c0,0.1,1.6,1.2,2.2,1.1c0.5,0,0.9-0.3,1.1-0.7c0.2-0.5,0.1-1-0.2-1.4c-0.3-0.3-0.5-0.6-0.6-1c-0.1-0.5-0.1-0.9,0-1.4
	c0.1-0.9,0.6-0.7,0.7-0.5s1.8,1.8,2.2,2c0.3,0.2,0.4,0.5,0.4,0.8c-0.4,0.9-0.8,1.8-1,2.8c0.1,0.4-0.3,1-0.3,1
	c-0.4,1.2-0.7,2.5-0.9,3.8c-0.1,0.7-0.2,1.5-0.3,2.2c-0.1,0.4,0.3,0.7,1,0.3c0.4-0.2,0.7-0.6,0.8-1c0-1,0-2,0.2-3
	c0.1-0.2,0.2-0.4,0.2-0.6c0.4-0.8,0.6-1.7,0.6-2.7c0-0.6,0.2-1.1,0.4-1.6c0.1-0.3,0.5-0.5,0.8-0.4c0.1,0.2,0.4,0.2,0.6,0.2
	c0.3-0.2,0.6-0.3,0.9-0.4c1-0.1,0.1,1.3,0.1,1.4c0,0.2-0.1,0.4-0.2,0.5c-0.3,0.5-0.5,1-0.7,1.6c-0.3,0.9-0.7,1.8-1.3,2.5
	c-0.2,0.1-0.3,0.6-0.1,0.5c0.1-0.2,2.3-1.9,2.4-2s0.8-1.6,1.3-2.3c0.2-0.5,0.4-1,0.5-1.6c0.1-0.2-0.1-1.6,0.2-2.1
	c0.5-0.5,1-0.8,1.7-0.9c0.5-0.2,1-0.4,1.4-0.8c0.7-0.4,1.5-0.7,2.2-1c0.1-0.1,0.9-0.7,0.1-1.1c-0.5-0.2-1.1-0.1-1.5,0.3
	c-0.1,0.2-0.3,0.4-0.5,0.5c-0.2,0.1-0.2,0.1-0.3,0.2s-0.1,0.1-0.3,0.2c-0.1,0-0.2,0.2-0.2,0.3c-0.1,0.3-0.5,0.5-0.6,0.6
	c-0.5,0.2-1.1,0.4-1.6,0.6c-0.2,0.2-0.4,0.1-0.5,0c-0.2-0.1-0.4-0.3-0.5-0.5c-0.2-0.3-1.3-1.3-1.3-1.4c-0.2-0.3-0.4-0.5-0.6-0.7
	c-0.2-0.2-0.2-0.5-0.1-0.7c0-0.1,1.2-1.9,1.4-2.3c0.1-0.2,0.2-0.4,0.4-0.6c0.1-0.1,0.6-0.4,1.1-0.7c0.5-0.2,0.6-0.4,0.5-0.7
	s-0.1-0.4-0.3-0.6s-0.6-0.1-1,0.1c-0.2,0.1-0.5,0.3-0.6,0.5c-0.1,0.3-0.3,0.5-0.6,0.7c-0.4,0.2-0.4,0.5-0.4,0.6c0,0.3,0,0.6,0,0.8
	c-0.3,0.6-0.6,1.1-0.9,1.7c-0.4,0.9-0.6,0.5-1,0.8c-0.3,0.4,0,0.6,0.2,0.6c0.2,0.3,0,0.8,0.1,0.9c0,0.2-0.1,0.4-0.2,0.5
	c-0.1,0.1-0.1,0.3-0.1,0.4c-0.1,0.3-0.2,0.7-0.4,1c-0.3,0.5-0.4,0.4-0.7,0.3c-0.4-0.2-0.7-0.5-1-0.8c0,0-0.3-0.2-0.3-0.3
	c-0.1-0.1-0.2-0.3-0.3-0.4c-0.1-0.1-0.3-0.4-0.3-0.6c0.3-0.6,1-0.3,1.1-0.3s0.6-1,0.4-1.1c-0.2-0.3-0.3-0.7-0.3-1
	c-0.1-0.3-0.1-0.6-0.1-0.9c0.2-0.7,0.1-1.5-0.3-2.1c-0.2-0.8-1.1-1.2-1.8-1c-0.1,0-0.1,0-0.2,0.1c-0.9,0.2-1.7,1.8-2,2.6
	c-0.2,0.4-0.6,0.1-0.7,0s-0.7-0.7-0.9-1.1c-0.4-0.2-0.4-0.7-0.5-0.7c-0.3-0.3-0.5-0.6-0.6-1c-0.2-0.5-0.3-0.5-0.6-0.3
	c-0.4,0.3-0.6,0.8-0.7,1.2C20.1,44.8,20.4,44.9,20.4,44.8z M30.8,51.8c0.2-0.4,0.3-0.8,0.4-1.3c0,0,0.2-0.4,0.5-0.1
	c0.3,0.4,0.6,0.8,0.9,1.2c0.1,0.3,0.2,0.6,0.2,0.9c0,0.2-0.2,0.4-0.4,0.5c-0.2,0.1-1,0.4-1.2,0.3s-0.7,0.1-0.5-0.5
	C30.6,52.5,30.7,52.1,30.8,51.8z M25.9,46.1c0,0,0.1-0.8,0.6-0.6s1,0.9,1.1,1.1c0.2,0.5,0.3,1.1,0.2,1.7c0,0.6-0.5,1.4-0.6,1.4
	c-0.4,0-0.8-0.3-1-0.7c-0.2-0.5-0.4-1.1-0.4-1.7C25.7,46.9,25.8,46.5,25.9,46.1L25.9,46.1z"/>
<path class="st0" d="M15.1,90.5l-0.3,0.1c-0.1,0-0.3,0-0.4-0.1c-0.2-0.2-0.2-0.5-0.2-0.8v-0.2h-0.3l0.5,4.5h0.3
	c0-0.2,0.1-0.5,0.2-0.7c0.4-0.4,0.9-0.7,1.5-1l8.5-4.2V88l-8.9-2.5c-0.6-0.1-1.2-0.3-1.7-0.6c-0.3-0.2-0.5-0.5-0.6-0.8h-0.3l0.3,3.1
	H14c0-0.3,0-0.6,0.1-0.9c0.1-0.2,0.4-0.4,0.6-0.4c0.3,0,0.6,0,0.9,0.1l1.1,0.3l0.3,3.3l-1.3,0.6L15.1,90.5z M21.1,87.6l-3.5,1.8
	l-0.3-2.8L21.1,87.6z"/>
<path class="st0" d="M42.3,30.6c0,0.1,0.4,1.6,0.7,1.4c1.4-1.1,1.5-0.4,1.6-0.1c0.2,0.9,0.1,1.8-0.1,2.6c-0.1,1.3,0.3,1.6,0.3,1.6
	c0.9-0.2,1.9,0,2.6,0.5c0.7,0.6,1.4,1.2,2,1.9c0,0.1,0.3,0.7,0.3,0.7l0.6,0.6c0.2,0.2,0.7,0.7,0.8,0.1c-0.3-1.4-1-2.7-2.1-3.6
	c-0.6,0-0.8-0.4-1-0.6c-0.8-0.2-1.6-0.6-2.3-1c-0.4-0.4-0.2-1.3-0.1-1.5c0.1-0.8,0-1.5-0.3-2.2c-0.3-0.8-0.8-0.6-1.2-0.7
	s-0.4-0.4-0.5-0.5s-0.1-2.9-0.1-3.8c-0.5-0.7-1-0.6-1-0.6c-0.1,0.2-0.2,0.4-0.3,0.6c0,0.2,0.1,2.1,0.1,2.3S42.3,30.5,42.3,30.6z"/>
<path class="st0" d="M26,101.6c0.2,0,0.4,0.1,0.5,0.2c0.2,0.2,0.3,0.4,0.4,0.7l0.3-0.1l-0.8-3l-0.3,0.1c0.2,0.4,0.1,0.8-0.1,1.2
	c-0.3,0.3-0.8,0.5-1.2,0.6l-4.5,1.2l5.3-6.2l-0.9-3.2l-0.3,0.1c0.1,0.2,0.1,0.4,0,0.7c-0.1,0.2-0.2,0.5-0.4,0.6l-0.2,0.3l-7.4,1.9
	c-0.4,0.1-0.8,0.1-1.2,0c-0.3-0.2-0.6-0.6-0.6-1l-0.3,0.1l0.9,3.2l0.3-0.1l-0.1-0.2c-0.1-0.3,0-0.6,0.1-0.9c0.3-0.4,0.7-0.6,1.1-0.7
	l6.6-1.7l-7.1,8.4l0.1,0.2l8.7-2.2C25.2,101.7,25.6,101.6,26,101.6z"/>
<path class="st0" d="M64.1,152.9c-0.1-0.3-0.2-0.7-0.3-1l-0.8-4.2c0.5,0.1,1,0,1.5-0.2c0.7-0.3,1.2-0.9,1.4-1.6
	c0.2-0.6,0.3-1.2,0.1-1.8c-0.1-0.5-0.4-1-0.8-1.4c-0.7-0.5-1.4-0.9-2.2-1.1l-4.1-1.5l-0.1,0.3c0.3,0.1,0.6,0.2,0.8,0.4
	c0.1,0.1,0.2,0.3,0.2,0.5c-0.1,0.4-0.2,0.7-0.3,1.1l-2.5,6.5c-0.1,0.4-0.3,0.7-0.5,1c-0.1,0.1-0.3,0.2-0.4,0.2c-0.3,0-0.6,0-0.9-0.2
	l-0.1,0.3l4.5,1.7l0.1-0.3c-0.3-0.1-0.6-0.2-0.8-0.4c-0.1-0.1-0.2-0.3-0.2-0.5c0.1-0.4,0.2-0.7,0.3-1.1l1.1-2.8l0.6,0.2l1.1,5.7
	l2.8,1l0.1-0.3C64.4,153.3,64.2,153.1,64.1,152.9z M60.7,146.4l-0.4-0.1l1.7-4.4l0.7,0.3c0.6,0.2,1.1,0.6,1.3,1.1
	c0.2,0.6,0.1,1.3-0.2,1.9c-0.1,0.5-0.4,0.9-0.8,1.2c-0.3,0.3-0.6,0.4-1,0.4C61.6,146.7,61.1,146.6,60.7,146.4z"/>
<path class="st0" d="M44.2,25.8c0,0.3,0.1,0.6,0.3,0.8c0.1,0.8,0.5,1.5,1,2.1c0.4,0.7,0.6,0.3,0.7,0.3s0.7-0.8,1.2-1.2
	s0.4,0.5,0.2,1.5c-0.2,0.9-0.1,1.9,0.3,2.8c0.5,0.7,0.9-0.9,0.9-0.9c0.5-0.4,0.8,0.9,0.8,1.1s0.5,0.8,0.8,0.5s0.9,1.1,1.2,1.5
	s0.4,0.1,0.1,1.5c-0.1,0.4-0.3,0.8-0.7,1.1c0,1.1,0.9,1,1.1,0.8s1-0.6,1.2-0.5s0.4-0.1,0.6-0.3s0-0.9,0.3-1.2c0.2-0.2,0.2-0.6,0-0.8
	c0,0,0,0,0,0c-0.1,0-1-0.6-1.2-1s0.4-0.7,0.6-0.7c0.4,0.2,0.9,0.3,1.4,0.4c0.2-0.1,0.4-0.4,0.6-0.5c0.5,0.2-0.3,1.3-0.3,1.5
	s-0.2,0.2-0.2,0.5c0.3,0.6,0.9-0.4,1.1-0.7s0.9-1.4,0.9-1.4c-0.1-0.5,0-1.1,0.2-1.6c0-0.4,0-0.4,0.3-0.7s1.2,0.1,1.2,0.2
	s1-0.1,1.5,0.1s1.4-0.8,2-1.4s0.8-0.8,0.6-0.9c-0.9-0.4-1.6-0.3-3.4,0.1c-0.9,0.3-1.8,0.2-2.6-0.3c-0.2-0.3-0.3-0.6-0.5-0.9
	c-0.2-0.3-0.6-0.8-0.9-1.3s-0.3-0.5-0.6-0.6s-0.6-0.4-0.7-0.5s-1-0.6-0.7-1c0.1-0.4-0.2-0.4-0.5-0.2s-0.4,0.6-0.4,0.7
	s-0.2,0.3-0.6,0.4s-0.5-0.9-0.5-1c-0.6-0.8-1-1.8-1.2-2.7c0-0.8-0.6-1-1-0.6c-0.2,0.3-0.3,0.6-0.1,0.9c0.2,0.2,0.4,0.3,0.5,0.5
	c-0.1,0.3,0.2,0.6,0.2,0.8s0.3,0.3,0.7,1.2s0.5,1.2,0.8,1.8c0,0.6,0.2,1.3,0.5,1.8c0.3,0.4,0.3,0.9,0,1.3c-0.5,0.6,0.2,0.9,0.4,0.8
	s0.4,0.4,0.4,0.4s0.2,0.6,0.4,0.4c0.7-2,1.6-0.8,1.7-0.9c0.4-0.1,0.8,0,1.2,0.3c0.2,0.2,0.2,0.4,0.1,1c0.1,1-0.2,1.2-0.8,1.1
	c-1.4-0.1-1.6-0.6-1.7-0.9s-0.5-0.5-0.6,0.1c0.4,0.6,0,1.4-0.1,1.7s-0.9,0.6-1.4-0.2c0-0.5-1-1.2-1.2-1.4c-0.3-0.4-0.6-0.9-0.7-1.4
	c0-0.4-0.2-0.5-0.4-0.4c-0.3,0.1-0.6,0.1-0.9,0C48,29,48.1,27,48.1,26.8c-0.1-0.8,0-1.5,0.2-2.3c0.2-0.6,0.1-1.3-0.3-1.8
	c-0.4-0.5-0.7-0.5-1.5-0.2c-0.4,0.4-0.7-0.1-1.2-0.1c-0.5,0.1-0.4,0.4-0.2,0.8c0.4,0.9,0.6,0.7,1,0.7c0.7,0.2,0.7,2.1,0.5,2.9
	c-0.2,0.3-0.8,1-1.2,0.4c-0.4-0.1-0.1-1.1-0.1-1.5s-0.9-1.1-0.9-1.1C43.9,24.7,44.2,25.3,44.2,25.8z M55.4,28.4
	c-0.2,0-0.5-0.2-0.6-0.1c-0.1,0-0.3,0-0.4,0c0,0-0.3,0-0.4,0.1s-0.8-0.1-1-0.5s0.4-0.8,0.2-1.1c-0.1-0.3-0.1-0.6,0-0.9
	c0-0.2,0.2-0.3,0.4-0.3c0,0,0,0,0,0c0.2,0.1,0.4,0.2,0.6,0.4c0.5,0.6,0.9,1.2,1.3,1.9C55.6,28.2,55.8,28.3,55.4,28.4L55.4,28.4z
	 M52.8,35.1c0.3,0.1,0.5,0.4,0.4,0.8c-0.1,0.3-0.2,0.6-0.5,0.3c-0.3-0.3-0.3-0.7,0-1C52.7,35.1,52.8,35.1,52.8,35.1L52.8,35.1z
	 M46.8,23.6c0,0,0.1-0.4,0.4-0.3s0.5,0.4,0.3,0.8S47,24.2,46.8,23.6L46.8,23.6z"/>
<path class="st0" d="M56.6,140.4c-0.3-1.4-1.1-2.5-2.4-3.1c-1.1-0.7-2.5-0.9-3.8-0.5c-1.4,0.5-2.5,1.5-3.2,2.8
	c-0.7,1.1-1,2.4-0.9,3.7c0.3,2.6,2.6,4.5,5.3,4.3c0.5-0.1,1.1-0.2,1.5-0.4c1.2-0.6,2.1-1.5,2.7-2.6
	C56.6,143.3,56.9,141.9,56.6,140.4z M54.9,140.5c-0.3,1-0.7,2-1.3,2.9c-0.5,0.9-1.1,1.7-1.8,2.4c-0.4,0.5-1,0.8-1.6,0.9
	c-0.4,0.1-0.9,0-1.2-0.3c-0.6-0.3-1-0.9-1-1.6c0.1-1.4,0.5-2.8,1.3-4c0.6-1.1,1.3-2,2.3-2.8c0.7-0.6,1.6-0.7,2.4-0.3
	c0.4,0.2,0.7,0.6,0.8,1C55,139.3,55.1,139.9,54.9,140.5z"/>
<path class="st0" d="M31.2,129.5l5.6-4.4c0.3-0.2,0.5-0.4,0.8-0.6c0.2,0,0.3,0,0.5,0c0.2,0.1,0.4,0.2,0.5,0.4l0.2,0.2L39,125
	l-3.1-3.8l-0.1,0.1l-1.5-2.5l-0.2,0.1c0.2,0.3,0.3,0.5,0.3,0.9c0,0.2-0.1,0.4-0.2,0.5c-0.2,0.3-0.5,0.5-0.8,0.6l-3.8,2.2
	c-0.7,0.5-1.4,0.8-2.2,1c-0.5,0.1-0.9,0-1.3-0.1c-0.4-0.2-0.8-0.5-1-0.9c-0.2-0.3-0.3-0.7-0.3-1.1c0-0.3,0.1-0.7,0.3-0.9
	c0.5-0.5,1-0.9,1.6-1.2l4.6-2.7c0.3-0.2,0.6-0.4,1-0.5c0.2,0,0.3,0,0.5,0.1c0.2,0.2,0.4,0.4,0.5,0.6l0.1,0.2l0.3-0.1l-2.5-4.2
	l-0.2,0.1c0.2,0.2,0.3,0.5,0.3,0.8c0,0.2-0.1,0.3-0.2,0.5c-0.3,0.3-0.6,0.5-1,0.7l-4.5,2.7c-0.6,0.3-1.2,0.8-1.7,1.4
	c-0.3,0.5-0.5,1.1-0.5,1.8c0.1,0.6,0.3,1.3,0.6,1.8c0.4,0.7,1,1.3,1.8,1.6c0.6,0.2,1.3,0.3,1.9,0.1c0.9-0.3,1.7-0.7,2.5-1.2l3.5-2.1
	c0.3-0.2,0.5-0.3,0.8-0.4c0.2-0.1,0.5,0,0.7,0c0.2,0.1,0.4,0.3,0.5,0.5l0.1,0.2l0.1-0.1c0.1,0.2,0.2,0.4,0.3,0.6
	c0,0.2,0,0.3-0.1,0.5c-0.2,0.3-0.5,0.5-0.8,0.7l-5.6,4.4c-0.3,0.2-0.5,0.4-0.8,0.6c-0.1,0.1-0.3,0.1-0.5,0c-0.2-0.1-0.4-0.2-0.5-0.4
	l-0.2-0.2l-0.2,0.2l3,3.8l0.2-0.2l-0.2-0.2c-0.1-0.2-0.2-0.4-0.3-0.6c0-0.2,0-0.3,0.1-0.5C30.6,130,30.9,129.7,31.2,129.5z"/>
<path class="st0" d="M29.7,112.2c0.2,0,0.3,0,0.5,0.1c0.2,0.1,0.3,0.3,0.4,0.5l0.1,0.3l0.3-0.1l-1.8-4.5l-0.3,0.1l0.1,0.3
	c0.1,0.2,0.1,0.4,0.1,0.6c0,0.2-0.1,0.3-0.2,0.4c-0.3,0.2-0.6,0.3-0.9,0.4l-2.8,1.1l-1.2-3.1l2.8-1.1c0.3-0.1,0.7-0.2,1-0.3
	c0.2,0,0.3,0,0.5,0.1c0.2,0.1,0.3,0.3,0.4,0.5l0.1,0.3l0.3-0.1l-1.8-4.6l-0.3,0.1l0.1,0.3c0.1,0.2,0.1,0.4,0.1,0.6
	c0,0.2-0.1,0.3-0.2,0.4c-0.3,0.2-0.6,0.3-0.9,0.5l-6.7,2.6c-0.3,0.1-0.7,0.2-1,0.3c-0.2,0-0.3,0-0.5-0.1c-0.2-0.1-0.3-0.3-0.4-0.5
	l-0.1-0.3l-0.3,0.1l1.8,4.6l0.3-0.1l-0.1-0.3c-0.1-0.2-0.1-0.4-0.1-0.6c0-0.2,0.1-0.3,0.2-0.4c0.3-0.2,0.6-0.3,0.9-0.5l3.1-1.2
	l1.2,3.1l-3.1,1.2c-0.3,0.1-0.7,0.2-1,0.3c-0.2,0-0.3,0-0.5-0.1c-0.2-0.1-0.3-0.3-0.4-0.5l-0.1-0.3l-0.3,0.1l1.8,4.6l0.3-0.1
	l-0.1-0.3c-0.1-0.2-0.1-0.4-0.1-0.6c0-0.2,0.1-0.3,0.2-0.4c0.3-0.2,0.6-0.3,0.9-0.5l6.6-2.6C29,112.3,29.3,112.2,29.7,112.2z"/>
</svg>
