<?xml version="1.0" encoding="utf-8"?>
<!-- Generator: Adobe Illustrator 25.0.0, SVG Export Plug-In . SVG Version: 6.00 Build 0)  -->
<svg version="1.1" xmlns="http://www.w3.org/2000/svg" xmlns:xlink="http://www.w3.org/1999/xlink" x="0px" y="0px"
	 viewBox="0 0 124 123.8" style="enable-background:new 0 0 124 123.8;" xml:space="preserve">
<style type="text/css">
	.st0{fill-rule:evenodd;clip-rule:evenodd;fill:#0075C1;}
	.st1{fill-rule:evenodd;clip-rule:evenodd;fill:#FFFFFF;}
	.st2{fill-rule:evenodd;clip-rule:evenodd;fill:#CBDA04;}
	.st3{fill-rule:evenodd;clip-rule:evenodd;fill:url(#SVGID_1_);}
	.st4{fill-rule:evenodd;clip-rule:evenodd;fill:url(#SVGID_2_);}
</style>
<path class="st0" d="M62.5,0.5c-34.1,0-62,27.9-62,62c0,34.1,27.9,62,62,62c34.1,0,62-27.9,62-62C124.5,28.4,96.6,0.5,62.5,0.5z"/>
<path class="st1" d="M62.5,123.8c-33.7,0-61.3-27.5-61.3-61.3c0-33.7,27.5-61.3,61.3-61.3c33.7,0,61.3,27.5,61.3,61.3
	C123.8,96.2,96.2,123.8,62.5,123.8z"/>
<path class="st2" d="M26.3,62.9l0.1,0.1C26.4,63,26.3,63,26.3,62.9L26.3,62.9z"/>
<linearGradient id="SVGID_1_" gradientUnits="userSpaceOnUse" x1="94.6123" y1="60.6011" x2="45.677" y2="90.7667">
	<stop  offset="4.049120e-07" style="stop-color:#18379A"/>
	<stop  offset="1" style="stop-color:#0394E0"/>
</linearGradient>
<path class="st3" d="M85,52.7c-16,3.4-32.5,12.2-36.9,27.9c-1.5,7.6,0.3,13.3,10.2,14.3c10.3,1.1,22.3-5.4,26-11.6
	c5.6-8.2-1.8-13-13.3-7.7c6.9-0.4,11.3,0.7,8.7,6.8c-2.1,4.3-6.4,7.3-12.8,9.3c-12.8,2.7-16.3-4.3-9.6-12.1
	c8.1-9.6,22.7-14.2,41.4-15.4C94.3,60.7,89.1,56.5,85,52.7L85,52.7z"/>
<path class="st0" d="M62.5,104.9c23.4,0,42.4-19,42.4-42.4s-19-42.4-42.4-42.4s-42.4,19-42.4,42.4S39.1,104.9,62.5,104.9z
	 M62.5,20.6c23.1,0,41.9,18.8,41.9,41.9c0,23.1-18.8,41.9-41.9,41.9c-23.1,0-41.9-18.8-41.9-41.9C20.6,39.4,39.4,20.6,62.5,20.6z"/>
<path class="st0" d="M48.4,10c0.1-0.2,0.2-0.2,0.2-0.2s0-0.2-0.1-0.4c-0.1-0.2-0.2-0.1-0.2,0.1c0,0.1-0.3,0.2-0.3,0.2
	s0.1,0.2,0.1,0.3C48.1,10.1,48.2,10.2,48.4,10z"/>
<path class="st0" d="M62.1,111.9c-0.2-0.1-0.5-0.1-1-0.2l-1.2,0l-0.2,4.5l1.3,0c0.4,0,0.7,0,0.9-0.1c0.2-0.1,0.4-0.2,0.5-0.3
	c0.2-0.2,0.3-0.4,0.5-0.7c0.1-0.3,0.2-0.7,0.2-1.1c0-0.6-0.1-1.1-0.3-1.4C62.6,112.3,62.4,112.1,62.1,111.9z"/>
<path class="st0" d="M74.8,111.3l-0.1,1.8l1.9-0.6l-1-1.4c-0.3-0.4-0.6-0.8-0.7-1.1C74.9,110.6,74.9,110.9,74.8,111.3z"/>
<path class="st0" d="M32.8,102.1c-0.1-0.4-0.3-0.6-0.6-0.9c-0.4-0.3-0.9-0.5-1.5-0.5c-0.5,0-1.1,0.4-1.7,1.1
	c-0.4,0.6-0.7,1.1-0.6,1.7c0,0.6,0.3,1,0.7,1.4c0.5,0.4,1,0.5,1.5,0.4c0.6-0.1,1.1-0.4,1.5-1c0.3-0.4,0.5-0.8,0.6-1.1
	S33,102.4,32.8,102.1z"/>
<path class="st0" d="M32.5,18.5c0.1-0.4,0.2-0.9,0-1.4c-0.2-0.5-0.4,0-0.6,0.5c-0.2,0.5-0.2,1-0.2,1s0,0.1,0.2,0.3
	C32.1,19.2,32.3,19,32.5,18.5z"/>
<path class="st0" d="M18.9,40c0,0,0.3,0.4,0.7,0.6c0.4,0.2,0.6,0.2,0.8,0.2c0.2-0.1,0.2-0.2,0.2-0.4c0.1-0.3-0.1-0.4-0.3-0.5
	c-0.2-0.1-0.3-0.1-0.3,0.1c-0.1,0.2-0.1,0.3-0.3,0.1c-0.2-0.2-0.3-0.4-0.6-0.3C18.8,39.9,18.9,40,18.9,40z"/>
<path class="st0" d="M18.5,39.1c0.2,0.1,0.3,0.1,0.4-0.1c0.1-0.3,0.1-0.5-0.1-0.8c-0.1-0.3-0.5-0.4-0.6,0c-0.1,0.3,0,0.8,0,0.8
	S18.4,38.9,18.5,39.1z"/>
<path class="st0" d="M14.7,83l0.8,1.8l1.2-1.2c0.4-0.4,0.7-0.7,0.9-0.9c-0.4,0.1-0.8,0.1-1.2,0.2L14.7,83z"/>
<path class="st0" d="M16.9,40.7c0-0.2,0.1-0.3,0.4-1.5c0.3-1.2,0.3-1.6,0.1-2.3c-0.2-0.7-0.5-0.7-0.6-0.3C16.6,37,17,37.4,17,37.5
	c0.1,0.1-0.2,0.1-0.3,0.3c-0.2,0.2-0.1,0.6-0.2,1.4c-0.1,0.8,0,1.4,0,1.6C16.6,40.8,16.8,40.9,16.9,40.7z"/>
<path class="st0" d="M28.1,98c-0.1-0.2-0.3-0.5-0.6-0.8l-0.8-0.9l-3.3,3.1l0.9,0.9c0.3,0.3,0.5,0.5,0.7,0.6c0.2,0.1,0.4,0.2,0.6,0.2
	c0.3,0,0.5-0.1,0.8-0.2c0.3-0.1,0.6-0.4,0.9-0.7c0.4-0.4,0.7-0.8,0.8-1.2C28.2,98.6,28.2,98.3,28.1,98z"/>
<path class="st0" d="M114.8,37.4c-0.4-0.3-0.5-0.7-0.9-1c-0.4-0.3-1.2-0.3-1.4-0.1c-0.1,0.2-0.1,0.6,0,0.8c0.1,0.2,0.3,0.2,0.7,0.1
	c0.4,0,0.4,0,0.4,0s-0.1,0.3-0.8,0.5c-0.7,0.2-0.8,0.2-1.3,0.6c-0.5,0.4-0.4,0.5,0.1,0.6c0.5,0.1,1.2,0,2.2-0.2
	c0.9-0.1,1.3-0.2,1.7-0.3C115.8,38.3,115.2,37.8,114.8,37.4z"/>
<path class="st0" d="M62.5,1.9C29.1,1.9,1.9,29.1,1.9,62.5c0,33.4,27.2,60.6,60.6,60.6c33.4,0,60.6-27.2,60.6-60.6
	C123.1,29.1,95.9,1.9,62.5,1.9z M109.9,34.8c0.5-0.4,1.1-1.8,1.1-1.8s0.2,0.2,0.1,0.7c-0.1,0.5-0.3,1.2-0.7,1.7
	c-0.4,0.5-1.2,1.1-1.4,0.6C108.7,35.6,109.3,35.2,109.9,34.8z M107,35.1c0.3-0.5,0.8-0.6,1.2-1c0.5-0.3,0.7-0.4,0.7-0.4
	s-0.3,1.6-0.8,2.1c-0.5,0.5-0.7,0.5-0.9,0.4C107,36.1,106.7,35.5,107,35.1z M102.7,34.6c0.4-0.2,1.3,0,1.3,0s-0.3,0.8-0.9,1.2
	c-0.6,0.4-1.1,0.6-1.4,0C101.3,35.2,102.3,34.8,102.7,34.6z M90,24.8c0.4-0.1,1.1-0.3,1.6-0.4s0.9-0.3,0.9-0.5
	c0-0.2-0.8-0.4-1.2-0.8c-0.4-0.3-0.2-1,0-1.2c0.1-0.2,0.9,0.4,1.9,0.9c1.1,0.4,1.6,0.2,3.3-0.7c1.7-0.9,2.2-2.6,2.4-3
	c0.2-0.4,0.5-0.5,0.5-0.5s1,1.2,0.2,2.2c-0.8,1-1.7,1.8-2.1,2.1c-0.3,0.2-0.2,0.5,0.3,0.5c0.5,0,0.8-0.2,0.9,0.3
	c0.1,0.5-0.3,0.9-1.7,1.1c-1.4,0.2-3.1-0.2-3.1-0.2s-0.1-0.1-0.5,0c-0.4,0-1.7,0.5-2.4,0.6C90.4,25.2,89.6,24.9,90,24.8z M94.2,28.3
	c-0.6,0.1-1.3,0-1.5-0.2c-0.2-0.2,0-0.5,0.1-0.8c0.1-0.3,0.3-1,0.3-1.5c0.1-0.5,0.3-0.6,0.5-0.6c0.2,0,0.3,0.3,0.3,0.3
	s0.9,0.9,1,1.5C95,27.5,94.8,28.2,94.2,28.3z M77.7,9.1c-0.1,0.8-0.4,1.2-0.8,1.6c-0.4,0.4-0.5,0.9-0.4,1.4S76.3,13,76,13.3
	c-0.3,0.3,0.1,0.4,0.6,0.2c0.5-0.2,0.8-0.3,0.9-0.5c0-0.2,1.4-3.4,1.8-4.6c0.4-1.3,0.3-1.3,0.5-1.3c0.2,0,1.8,0.9,1.1,1.9
	c-0.7,1-1.4,2.3-1.7,2.9c-0.3,0.6-0.7,0.9-0.4,0.8c0.4-0.1,0.7-0.3,1-0.6c0.3-0.3,0.6-1,0.6-0.7c0.1,0.3,0.1,0.8,0.1,1.2
	c-0.1,0.4-0.3,0.7-0.8,0.8c-0.5,0.1-1.2,0.1-1.4,0.4c-0.3,0.3-1.7,3.9-2.1,4.7c-0.4,0.9-0.9,1.5-1.3,1.6c-0.4,0.2-0.5-0.3-0.2-1.1
	c0.4-0.8,1.9-4.6,1.9-4.6s-0.1-0.2-0.3-0.1c-0.2,0.1-1.1,0.2-1.5,0.3c-0.3,0-0.6-0.3-0.3-0.6c0.3-0.4,0.9-0.7,1.2-1.4
	c0.3-0.7,0.1-0.8,0.2-1.3c0.1-0.5,0.9-1,0.8-1.5c0-0.5-0.3-0.7-0.3-1.4c0.1-0.8,0.2-0.8,0.2-0.8S77.8,8.2,77.7,9.1z M73.1,6.4
	c0.5-0.2,1.3-0.5,2.2-0.6c0.9-0.1,1.7-0.7,1.7-0.7s0.4,0.4,0.3,0.9c0,0.5-0.3,0.8-0.5,0.9c-0.2,0.2-1.1,0-1.9-0.1
	c-0.8-0.2-2.6,0.1-2.6,0.1S72.5,6.6,73.1,6.4z M69,9.8c0,0,2.3-0.4,3.2-0.6c0.9-0.2,1.4-0.3,1.8-0.6c0.3-0.4,0.5-0.7,0.8-0.4
	c0.3,0.3,1,0.9,0.2,1.7c-0.8,0.8-1.5,1.2-1.5,1.5c-0.1,0.3-0.2,0.9,0.2,0.8c0.3-0.2,1-0.5,1.4-0.7c0.3-0.1,0.6,0,0.1,0.4
	c-0.5,0.4-1.8,1-2.1,1.1c-0.3,0.2-0.5,0.7-0.6,0.9c-0.1,0.2-0.3,0.8-0.4,1c-0.1,0.2-0.3,0.3-0.7,0.2c-0.4-0.2-0.2-0.6-0.1-0.8
	c0.1-0.2,0.1-0.4,0.1-0.4s-0.2-0.1-0.4,0c-0.2,0.2-1.1,0.3-1.3,0.3c-0.2,0-0.2-0.4,0-0.7c0.1-0.4,0.3-0.9,0.9-1.1
	c0.6-0.2,1-0.5,0.9-0.3c-0.1,0.2-0.2,0.5,0,0.7c0.2,0.2,0.4,0.1,0.4,0.1s0.6-1,0.9-1.8c0.3-0.8,0.4-1,0.4-1s-0.5-0.2-0.8,0
	c-0.4,0.2-1.4,0.7-2.1,0.8c-0.7,0-0.8-0.3-1-0.6C68.8,9.9,69,9.8,69,9.8z M105.4,62.5c0,23.6-19.3,42.9-42.9,42.9
	c-23.6,0-42.9-19.3-42.9-42.9c0-23.6,19.3-42.9,42.9-42.9C86.1,19.6,105.4,38.9,105.4,62.5z M31.1,28.8c0.2-0.4,0.8-0.8,1-1
	c0,0,0.1,0,0.3-0.3c0.2-0.3,0.2-0.7,0.4-1.2c0.2-0.5,0.3-0.2,0.3,0.2c0,0.4-0.1,1.1-0.3,1.8c-0.1,0.8-0.6,1-1.1,1
	C31.2,29.2,30.9,29.2,31.1,28.8z M50.2,17.5c-0.1-0.4,0-0.6,0-0.6s0.3,0.3,0.6,0.7c0.3,0.4,0.7,1.3,0.3,1.8
	c-0.4,0.5-0.7,0.1-0.8-0.5C50.1,18.3,50.3,17.9,50.2,17.5z M54.6,16c0.2,0.9,0.2,1.8,0.2,2c0,0.3-0.4,0.5-0.7,0.3
	c-0.4-0.2-0.2-0.6-0.2-1.1c0-0.4-0.1-1.5-0.2-2.1c-0.1-0.6-0.5-1.6-0.5-1.6s-0.5,0.1-0.9,0.7c-0.4,0.6-0.6,1.2-0.5,1.6
	c0.1,0.3,0.7,0.4,0.7,0.8c0,0.4-0.2,0.7,0,1.1c0.2,0.3,0.7,0.5,0.7,0.9c0,0.3-0.2,0.7-0.7,0.9c-0.5,0.1-0.8-0.3-0.8-1.1
	c-0.1-0.8,0-1.1-0.2-1.4c-0.2-0.3-0.7-0.2-1-0.4c-0.3-0.2-0.3-0.4-0.4-0.7c-0.1-0.3,0.1-0.5,0.1-0.5s0.6-0.2,0.7-0.2
	c0.1-0.1,0.5-0.3,0.4-0.5c-0.1-0.2-0.2-0.5,0-0.6c0.3-0.1,0.7-0.1,1-0.5c0.2-0.4,0.5-0.6,0.8-0.7c0.3-0.1,0.6,0.2,0.7,0.5
	C54,13.4,54.5,15.1,54.6,16z M51.8,4.2c0.2,0,0.5-0.1,0.7,0.4c0.2,0.5-0.2,1.2-0.1,1.5c0.1,0.4,0.5,0.4,0.9,0.8
	c0.4,0.4,0.4,0.8,0.3,1.4c-0.1,0.6-0.1,1.5-0.2,1.7s0.1,0.4,0.3,0.6c0.2,0.2,0.2,0.2,0.1,0.5c-0.1,0.3-0.4,0.8-1.1,1.3
	c-0.7,0.5-1.7,1.3-2.4,2.2c-0.7,0.9-1.9,2.3-2.5,2.8c-0.6,0.5-1.1,0.1-1-0.2c0.1-0.3,0.6-0.8,1.8-1.9c1.2-1.1,2.2-2.3,2.9-3
	c0.7-0.7,1.4-1.3,1.4-1.4c0-0.2-0.1-0.4-0.3-0.3c-0.3,0.1-0.4,0.4-0.6,0.3c-0.2-0.1,0-0.5,0-0.8c0-0.2-0.3,0-0.7-0.1
	c-0.4-0.1-0.5-0.3-0.3-0.4c0.2-0.2,0.8-0.3,1.2-0.3c0.4-0.1,0.4-0.1,0.6-0.9c0.1-0.8-0.2-1-0.4-1.3C52,7,51.8,6.8,51.7,6.3
	c-0.1-0.5-0.3-1.8-0.3-1.8S51.6,4.2,51.8,4.2z M51.1,6.9c0.4,0.1,0.5,0.2,0.7,0.7c0.2,0.4-0.2,0.9-0.3,1c-0.1,0.1-0.4,0-0.7-0.5
	c-0.2-0.5-0.4-1.1-0.4-1.1S50.8,6.7,51.1,6.9z M48.3,5.5c0.7-0.9,0.8-1,1.1-1c0.2,0,0.6,0,0.3,0.5c-0.3,0.6-0.8,1.3-1.2,2
	c-0.4,0.7-0.5,1.1-0.3,1.2c0.2,0.1,0.6-0.2,0.7,0c0.1,0.1,0.2,0.6,0.4,0.6c0.2,0,0.3-0.2,0.4,0.3c0.1,0.4,0,0.7-0.1,0.9
	c-0.1,0.2-0.2,0.4,0.1,0.5c0.2,0,1,0.1,1,0.6c0.1,0.5-0.1,1.3-0.6,2.1c-0.5,0.8-0.9,1.6-1.4,1.9c-0.5,0.4-0.7,0.3-0.8,0
	c-0.1-0.3-1.2-2.6-1.2-2.9c-0.1-0.2,0.1-0.3,0.3-0.3s0.3,0,0.4,0.4c0.1,0.4,0.3,0.8,0.6,1.3c0.3,0.6,0.5,0.8,0.7,0.7
	c0.2-0.2,1-0.8,1.3-1.8c0.3-1,0.3-1.2-0.1-1.2c-0.4,0-0.5-0.2-0.7,0.1c-0.2,0.3-0.2,0.5-0.4,0.5c-0.2,0-0.3-0.4-0.2-0.7
	c0-0.3,0-0.4,0-0.4s-0.3,0.1-0.5,0.3c-0.3,0.1-0.4,0-0.4-0.3c-0.1-0.3-0.1-0.2-0.3-0.4C47,10.1,47,9.8,47.1,9.5
	c0.2-0.3,0.3-0.7,0.4-1.1c0-0.4,0.3-0.4-0.4-0.1c-0.7,0.3-0.9,0.6-1,0.5c-0.1-0.1-0.2-0.3-0.2-0.3S47.6,6.4,48.3,5.5z M36.3,21.1
	c0.6,0,1.1,0.4,1,0.9c-0.1,0.5-0.5,0.3-0.8,0.1c-0.3-0.2-0.4-0.2-0.8-0.3c-0.4-0.1-0.5-0.3-0.5-0.3S35.6,21.1,36.3,21.1z M28.8,14.2
	c0.6,0.1,0.9,0.8,1.1,1.3c0.2,0.4,0.3,0.8,0.5,0.8c0.2,0,0.2-0.4,0.6-0.9c0.4-0.5,0.6-0.1,0.5,0.4c-0.1,0.4-0.3,1.2-0.2,1.3
	c0.1,0.2,0.2,0.2,0.4-0.4c0.2-0.6,0.8-0.7,1.1-0.3c0.4,0.4,0,1.4-0.1,2.2c-0.1,0.8-0.1,1.4,0,1.6c0.1,0.2,0.2,0.5,0.2,0.4
	c0-0.1,0.1-0.5,0.1-0.7c0-0.2,0.3,0.1,0.5,0.4c0.2,0.3,0.1,0.4,0.1,1s0.1,0.7,0.4,1.2c0.4,0.5,1.5,1.4,1.9,1.9
	c0.4,0.6,0.5,0.8,0.5,1.1c0,0.3-0.3,0.1-0.7,0.1s-0.9,0.1-1.3,0.2c-0.5,0.1-0.4-0.1-0.2-0.3c0.2-0.2,0.5-0.4,0.6-0.6
	c0.1-0.2-0.7-1-1-1.5c-0.4-0.5-0.5-0.6-0.9-0.6c-0.3,0-0.4-0.2-0.3-0.5c0.1-0.3,0.1-0.5,0-0.7c-0.1-0.2-0.9-1.1-1.2-1.4
	c-0.2-0.3-0.3,0.2-0.3,0.9c0,0.7,0,1.2-0.2,1.5c-0.1,0.3-0.5,0.3-0.7-0.1c-0.2-0.4-0.2-1.1-0.1-1.3c0.1-0.3,0.2-0.1,0.4-0.2
	c0.1,0,0.1-0.2,0.3-0.9c0.2-0.7,0.1-0.7,0.1-0.7s-0.3-0.1-0.5-0.2c-0.2-0.1-0.2-0.2,0-0.5c0.1-0.3,0.1-0.2-0.1-0.5
	c-0.1-0.2-0.2,0-0.4,0.5c-0.2,0.4-0.5,1.3-0.6,1.6c-0.1,0.3-0.7,0.7-1.1,0.7c-0.4-0.1-0.4-0.3,0-0.9c0.5-0.6,0.8-1.3,1.3-2.1
	c0.4-0.9,0.2-1,0.2-1s-0.4-0.5-0.9-0.9c-0.5-0.5-0.7-0.8-1-1.1C27.7,14.4,28.2,14.1,28.8,14.2z M21.8,38.6c0,0,0.5-0.7,1.2-0.8
	c0.6-0.1,1.2,0.1,1,0.6c-0.2,0.5-0.3,0.9-1,0.6c-0.7-0.3-0.9-0.2-1.1-0.2C21.7,38.8,21.8,38.6,21.8,38.6z M10.7,34.7
	c0.5-0.5,1.5-1,2-1c0.5,0,0.7,0.3,0.7,0.3s0.3-0.5,0.4-0.3c0.2,0.1,0.6,0.5,0.6,0.5s-0.1,0.4,0.1,1.6c0.2,1.2,0.8,2.1,1,2.5
	c0.2,0.4,0.2,0.1,0.3-0.4c0-0.5,0-0.5-0.3-0.7c-0.2-0.2-0.7-0.5-0.5-0.8c0.2-0.3,0.5-0.2,0.7-0.1c0.2,0.1,0.3,0,0.3-0.1
	c0-0.1,0.1-0.8-0.1-1.4c-0.2-0.7-0.7-0.8-0.5-1.1c0.2-0.3,0.4-0.4,0.9-0.2c0.4,0.1,0.6,0.2,0.5,0.5c-0.1,0.3-0.1,0.6,0.1,1
	c0.2,0.4,0.5,0.9,0.6,0.5c0.1-0.4,0.1-1.1,0.3-1.5c0.1-0.4,0.8-0.7,0.9,0c0.1,0.7-0.1,1.2-0.4,2c-0.3,0.8-0.3,0.9-0.1,1
	c0.1,0.1,0.5,0.4,0.7,0.2c0.2-0.2,0.4-0.7,0.5-0.9c0.1-0.2,0-0.4,0.4-0.6c0.4-0.2,0.8,0.1,0.9,0.5c0.1,0.3,0.6,1.5,0.7,2.2
	c0.1,0.7,0,0.9-0.4,0.3c-0.4-0.6-0.7-1.2-0.9-1.6c-0.2-0.4-0.4-0.3-0.5-0.1s-0.1,0.4,0.1,0.5c0.2,0.1,0.6,0.3,0.5,0.8
	c-0.1,0.5,0,0.6,0.3,0.7c0.3,0.2,0.7,0,0.7,0.2c-0.1,0.3,0.1,0.5,0,0.8c0,0.3,0,1.8,0,2.3c0.1,0.5,0.2,0.8,0.4,0.1
	c0.1-0.7,0-1.1,0.2-1.2c0.2-0.1,0.1,0.3,0.2,0.8c0.1,0.5,0.2,1.5-0.1,1.7c-0.3,0.2-0.9,0.3-1-0.6c-0.1-0.9,0.2-1.7-0.1-1.8
	c-0.3-0.1-1.1,0-1.7-0.7c-0.6-0.6-0.9-1-0.9-0.8c0,0.2-0.1,0.7-0.4,1c-0.3,0.3-0.9,0.3-0.8,0.4c0.1,0.1,0.8,1.6,1.9,3.6
	c1.1,2,1.6,2.5,1.2,3c-0.4,0.4-0.9,0.1-1.3-0.8c-0.4-0.9-1.8-3.6-2.1-4.2c-0.2-0.6-0.1-1-0.5-1.4c-0.4-0.4-0.3-0.2-0.7-1.3
	c-0.4-1-0.7-1.9-1.1-3.1c-0.4-1.2-0.6-1.7-0.7-1.3c-0.1,0.4,0,1.3-0.1,1.8c-0.2,0.5-0.8,0.9-1.2,1.1c-0.4,0.2-0.4-0.4-0.1-1.2
	c0.3-0.8,0.5-1.4,0.8-2.2c0.3-0.8,0.4-1.2,0.1-1c-0.2,0.2-0.5,0.8-0.7,1.1c-0.1,0.2-0.5-0.3-1.3,0c-0.8,0.3-0.7,0.3-0.9,0.3
	c-0.2,0-0.2-0.1-0.2-0.1S10.2,35.2,10.7,34.7z M9.4,74.3C9.2,73.9,9,73.5,9,73.1C8.9,72.5,8.9,72,9,71.5c0.2-0.5,0.5-0.9,0.9-1.2
	c0.4-0.3,0.9-0.5,1.5-0.6c0.6-0.1,1.1-0.1,1.6,0.1c0.5,0.1,1,0.4,1.3,0.8c0.3,0.4,0.5,0.9,0.6,1.5c0.1,0.4,0.1,0.8,0,1.2
	c-0.1,0.4-0.2,0.7-0.4,0.9s-0.5,0.4-0.9,0.6L13.3,74c0.3-0.1,0.5-0.3,0.6-0.4c0.1-0.2,0.2-0.4,0.3-0.6c0.1-0.3,0.1-0.5,0-0.8
	c-0.1-0.4-0.2-0.6-0.3-0.9c-0.2-0.2-0.3-0.4-0.5-0.5c-0.2-0.1-0.4-0.2-0.6-0.3c-0.4-0.1-0.8-0.1-1.2,0c-0.5,0.1-0.9,0.3-1.3,0.5
	c-0.3,0.2-0.5,0.5-0.6,0.9c-0.1,0.4-0.1,0.7-0.1,1.1c0.1,0.3,0.2,0.6,0.4,0.9c0.2,0.3,0.4,0.5,0.5,0.6l1.1-0.2l-0.3-1.7l0.7-0.1
	l0.4,2.5l-2.2,0.4C9.9,75,9.6,74.7,9.4,74.3z M10.5,79.3c-0.2-0.5-0.2-1-0.1-1.4c0.1-0.4,0.3-0.7,0.6-1c0.3-0.3,0.7-0.5,1.3-0.7
	l3.2-1.1l0.2,0.7L12.5,77c-0.5,0.2-0.8,0.3-1,0.5c-0.2,0.2-0.3,0.4-0.4,0.6c-0.1,0.3,0,0.6,0.1,0.9c0.2,0.5,0.4,0.9,0.8,1
	c0.3,0.2,0.8,0.1,1.5-0.1l3.2-1.1l0.2,0.7l-3.2,1.1c-0.6,0.2-1,0.3-1.4,0.2c-0.4,0-0.7-0.2-1-0.4C11,80.2,10.7,79.8,10.5,79.3z
	 M13.6,86.7l1.4-1.4L14,83l-1.9,0.1l-0.3-0.8l6.3-0.3l0.3,0.8L14,87.5L13.6,86.7z M16.4,91.8l2.6-5l-4.1,2.2l-0.4-0.7l5.2-2.9
	l0.4,0.7l-2.5,5l4-2.2l0.4,0.7l-5.2,2.9L16.4,91.8z M20.5,97c-0.4-0.2-0.7-0.5-1-0.8c-0.4-0.5-0.6-0.9-0.7-1.5c-0.1-0.5,0-1,0.2-1.5
	c0.2-0.5,0.6-0.9,1-1.3c0.5-0.4,0.9-0.6,1.5-0.7c0.5-0.1,1-0.1,1.5,0.1c0.5,0.2,0.9,0.5,1.2,1c0.3,0.3,0.4,0.7,0.5,1
	c0.1,0.4,0.1,0.7,0,1c-0.1,0.3-0.2,0.6-0.5,0.9l-0.6-0.4c0.2-0.3,0.3-0.5,0.4-0.7c0.1-0.2,0-0.4,0-0.7c-0.1-0.3-0.2-0.5-0.4-0.7
	c-0.2-0.3-0.5-0.5-0.7-0.6s-0.5-0.2-0.7-0.2c-0.2,0-0.5,0-0.7,0.1c-0.4,0.1-0.7,0.3-1.1,0.6c-0.4,0.3-0.7,0.7-0.9,1
	c-0.2,0.4-0.2,0.7-0.1,1.1c0.1,0.4,0.2,0.7,0.5,1c0.2,0.3,0.5,0.5,0.8,0.7c0.3,0.2,0.6,0.3,0.8,0.3l0.9-0.7l-1.1-1.4l0.5-0.4l1.5,2
	l-1.7,1.3C21.3,97.4,20.9,97.3,20.5,97z M25.9,101.7c-0.3,0-0.5,0-0.8,0c-0.2-0.1-0.5-0.2-0.7-0.3c-0.2-0.2-0.5-0.4-0.7-0.6
	l-1.5-1.6l4.3-4l1.4,1.5c0.3,0.3,0.5,0.6,0.7,0.8c0.2,0.3,0.3,0.6,0.3,0.9c0,0.4-0.1,0.8-0.3,1.2c-0.2,0.4-0.5,0.8-0.9,1.1
	c-0.3,0.3-0.7,0.5-1,0.7C26.5,101.6,26.2,101.7,25.9,101.7z M30.1,106c-0.5-0.1-0.9-0.3-1.3-0.6c-0.4-0.4-0.7-0.8-0.9-1.2
	c-0.2-0.5-0.2-1-0.1-1.5c0.1-0.5,0.3-1,0.7-1.4c0.6-0.8,1.3-1.2,2.1-1.3c0.8-0.1,1.5,0.1,2.1,0.6c0.4,0.3,0.7,0.8,0.9,1.2
	c0.2,0.5,0.2,1,0.1,1.5c-0.1,0.5-0.4,1-0.7,1.4c-0.4,0.5-0.8,0.8-1.3,1C31.1,106,30.6,106.1,30.1,106z M35.5,109.8l-0.4-5.6l-2.3,4
	l-0.6-0.4l2.9-5.1l0.7,0.4l0.4,5.6l2.3-4l0.6,0.4l-3,5.1L35.5,109.8z M44.3,109.4l-0.7-0.1c0-0.3,0-0.6,0-0.8c0-0.2-0.2-0.4-0.3-0.6
	c-0.2-0.2-0.4-0.4-0.7-0.5c-0.3-0.2-0.6-0.2-0.9-0.2c-0.3,0-0.5,0-0.8,0.1c-0.2,0.1-0.4,0.2-0.6,0.4c-0.3,0.3-0.5,0.6-0.7,1
	c-0.2,0.5-0.3,0.9-0.3,1.3c0,0.4,0.1,0.7,0.4,1c0.2,0.3,0.5,0.5,0.9,0.7c0.3,0.1,0.6,0.2,1,0.2c0.3,0,0.6,0,0.8-0.1l0.5-1l-1.6-0.7
	l0.3-0.6l2.3,1.1l-0.9,2c-0.5,0.1-0.9,0.2-1.4,0.1c-0.4,0-0.8-0.1-1.2-0.3c-0.5-0.2-1-0.6-1.3-1c-0.3-0.4-0.5-0.9-0.5-1.4
	c0-0.5,0.1-1.1,0.3-1.6c0.2-0.5,0.6-1,1-1.3c0.4-0.4,0.9-0.5,1.4-0.6c0.5,0,1,0.1,1.6,0.3c0.4,0.2,0.7,0.4,1,0.7
	c0.3,0.3,0.4,0.6,0.5,0.9C44.4,108.6,44.4,109,44.3,109.4z M51.2,116l-0.7-0.2l1.4-4.7l-3,4.3l-0.7-0.2l-0.3-5.3l-1.4,4.8l-0.7-0.2
	l1.6-5.7l1.1,0.3l0.2,4.4c0,0.4,0,0.7,0,0.9c0.1-0.2,0.3-0.5,0.6-0.8l2.5-3.6l1,0.3L51.2,116z M58,111.6l-3.5-0.5l-0.3,1.8l3.2,0.5
	l-0.1,0.7l-3.2-0.5l-0.3,2l3.6,0.5l-0.1,0.7l-4.4-0.6l0.8-5.8l4.2,0.6L58,111.6z M63.7,115.3c-0.1,0.3-0.3,0.6-0.4,0.8
	c-0.2,0.2-0.4,0.4-0.6,0.5c-0.2,0.1-0.4,0.2-0.7,0.3c-0.3,0.1-0.6,0.1-1,0.1l-2.1-0.1l0.2-5.9l2,0.1c0.5,0,0.8,0.1,1,0.1
	c0.3,0.1,0.6,0.2,0.8,0.5c0.3,0.3,0.5,0.6,0.7,1c0.1,0.4,0.2,0.9,0.2,1.4C63.8,114.5,63.8,114.9,63.7,115.3z M65.4,116.9l-0.5-5.9
	l0.8-0.1l0.5,5.9L65.4,116.9z M72,115.7c-0.4,0.4-0.9,0.6-1.5,0.7c-0.6,0.1-1.2,0-1.6-0.2c-0.4-0.2-0.8-0.5-1.1-1
	c-0.3-0.5-0.4-1-0.5-1.5c-0.1-0.6,0-1.2,0.1-1.6c0.2-0.5,0.5-0.9,0.8-1.2c0.4-0.3,0.9-0.5,1.4-0.6c0.6-0.1,1.1,0,1.5,0.2
	c0.4,0.2,0.8,0.6,1,1.1l-0.7,0.3c-0.2-0.4-0.4-0.7-0.7-0.8c-0.3-0.2-0.6-0.2-1-0.2c-0.4,0.1-0.8,0.2-1.1,0.5c-0.3,0.3-0.4,0.6-0.5,1
	c-0.1,0.4-0.1,0.8,0,1.1c0.1,0.5,0.2,0.9,0.4,1.3c0.2,0.4,0.5,0.6,0.8,0.7c0.3,0.1,0.7,0.2,1,0.1c0.4-0.1,0.8-0.2,1-0.5
	c0.3-0.3,0.4-0.7,0.5-1.2l0.8,0.1C72.6,114.8,72.4,115.3,72,115.7z M78.2,114.7l-1.2-1.5l-2.4,0.7l-0.1,1.9l-0.8,0.2l0.6-6.3
	l0.8-0.2l3.9,5L78.2,114.7z M80.1,114.2l-2.2-5.5l0.7-0.3l2,4.8l2.7-1.1l0.3,0.6L80.1,114.2z M89.3,109.7c-0.2,0.4-0.6,0.7-1.1,0.9
	c-0.5,0.3-0.9,0.4-1.3,0.4c-0.4,0-0.7-0.1-1.1-0.4c-0.3-0.2-0.6-0.6-0.9-1.2l-1.6-3l0.7-0.4l1.6,3c0.2,0.5,0.5,0.8,0.7,0.9
	c0.2,0.2,0.4,0.3,0.7,0.3c0.3,0,0.5-0.1,0.8-0.2c0.5-0.3,0.8-0.6,0.9-0.9c0.1-0.3,0-0.8-0.4-1.5l-1.6-3l0.7-0.4l1.6,3
	c0.3,0.5,0.4,1,0.5,1.3C89.6,109,89.5,109.3,89.3,109.7z M94.9,106.3l-5.2-1.9l2.7,3.7l-0.6,0.4l-3.5-4.8l0.6-0.5l5.2,1.9l-2.7-3.7
	L92,101l3.5,4.8L94.9,106.3z M97,104.7l-3.9-4.5l0.6-0.5l3.9,4.5L97,104.7z M100.3,101.8l-5.7-2.7l0.6-0.6l4.1,2
	c0.3,0.2,0.6,0.3,0.9,0.5c-0.2-0.3-0.3-0.6-0.4-0.9l-1.8-4.2l0.6-0.6l2.4,5.8L100.3,101.8z M103.3,98.7l-4.6-3.6l2.6-3.4l0.5,0.4
	l-2.1,2.7l1.4,1.1l2-2.6l0.5,0.4l-2,2.6l1.6,1.2l2.2-2.9l0.5,0.4L103.3,98.7z M109.2,90.5l-1.5,0c-0.4,0-0.8,0-1,0
	c-0.2,0-0.4,0.1-0.5,0.1c-0.1,0.1-0.2,0.1-0.3,0.2c-0.1,0.1-0.1,0.2-0.3,0.4l-0.5,0.8l2.2,1.4l-0.4,0.7l-5-3.1l1.4-2.2
	c0.3-0.4,0.5-0.8,0.8-0.9s0.5-0.3,0.8-0.3c0.3,0,0.6,0.1,0.9,0.3c0.4,0.2,0.6,0.5,0.7,0.9c0.1,0.4,0,0.8-0.2,1.4
	c0.2-0.1,0.4-0.2,0.5-0.2c0.3-0.1,0.6-0.1,1-0.1l1.9,0L109.2,90.5z M111.5,86.7c-0.2,0.5-0.5,0.8-0.8,1.1c-0.3,0.3-0.6,0.4-1,0.4
	c-0.4,0-0.7,0-1.1-0.2l0.3-0.7c0.3,0.1,0.5,0.1,0.8,0.1c0.2,0,0.5-0.1,0.7-0.3c0.2-0.2,0.4-0.4,0.6-0.7c0.1-0.3,0.2-0.5,0.2-0.8
	c0-0.2,0-0.5-0.1-0.6c-0.1-0.2-0.2-0.3-0.4-0.4c-0.2-0.1-0.3-0.1-0.5-0.1c-0.2,0-0.4,0.1-0.5,0.3c-0.1,0.1-0.4,0.4-0.7,0.8
	c-0.4,0.4-0.6,0.7-0.8,0.8c-0.3,0.2-0.5,0.3-0.8,0.3c-0.3,0-0.5,0-0.7-0.2c-0.3-0.1-0.5-0.3-0.6-0.6c-0.2-0.3-0.2-0.6-0.2-0.9
	c0-0.4,0.1-0.7,0.3-1.1c0.2-0.4,0.4-0.7,0.7-0.9c0.3-0.2,0.6-0.4,0.9-0.4c0.3,0,0.6,0,1,0.2l-0.3,0.7c-0.4-0.1-0.7-0.1-0.9,0
	c-0.3,0.1-0.5,0.4-0.7,0.8c-0.2,0.4-0.3,0.8-0.2,1c0.1,0.3,0.2,0.5,0.4,0.6c0.2,0.1,0.4,0.1,0.6,0c0.2-0.1,0.5-0.4,0.9-0.9
	c0.4-0.5,0.7-0.8,0.9-1c0.3-0.2,0.6-0.4,0.9-0.4c0.3,0,0.6,0,0.9,0.2c0.3,0.1,0.5,0.4,0.7,0.6c0.2,0.3,0.2,0.6,0.2,1
	C111.8,85.9,111.7,86.3,111.5,86.7z M112.9,83.1l-5.5-2.1l0.3-0.7l5.5,2.1L112.9,83.1z M115.8,73.8l-2.5-0.4l-3.5,1.5l0.3,0.1
	l-0.6,1.9l4.9,1.6l-0.2,0.7l-4.9-1.6l-0.6,1.8l-0.7-0.2l1.4-4.4l0.1,0l0.1-0.8l2-0.8c0.4-0.2,0.7-0.3,1.1-0.4
	c-0.3-0.2-0.6-0.5-0.9-0.8l-1.5-1.4l0.2-0.9l2.9,2.9l2.5,0.4L115.8,73.8z M115.3,39.7c-0.8,0-2.3,0.1-2.6,0.1
	c-0.3-0.1-0.8,0.1-0.6,0.3c0.1,0.2,0.4,0.2,0.8,0.8c0.4,0.6,0.2,1.1,0,1.1c-0.1,0.1-1-0.1-2.1-0.8c-1.1-0.7-1.9-1.1-2.3-1.3
	c-0.4-0.3-0.5-0.1-0.6,0s-0.1,0.7-0.2,0.9c-0.2,0.2-0.7,0.1-0.8,0.2c-0.2,0.1,0.3,0.4,0.6,0.6c0.3,0.3,0.8,0.5,1.3,1.2
	c0.5,0.7,0.2,1-0.2,1c-0.4-0.1-1.5-0.4-2.4-0.8s-1-0.7-1-0.7s0.9,0,1.5,0.1c0.7,0.1,0.5-0.2,0-0.5c-0.4-0.4-1-0.5-1.2-0.6
	c-0.3-0.1-0.8,0.6-1.3,1.1c-0.4,0.5-1,0.8-1.3,0.9c-0.4,0.1-0.8,0-1.1-0.8c-0.3-0.7-0.6-1.4-0.4-1.3c0.2,0.1,0.8,0.6,1,0.9
	c0.2,0.3,0.3,0.1,0.8-0.1c0.5-0.2,1.1-0.7,1.3-1c0.2-0.2-0.1-0.4-0.4-0.6c-0.2-0.2-0.8-0.2-1.6-0.9c-0.8-0.7-0.3-1.8-0.3-1.8
	s0.8,0.6,1.6,1.2c0.8,0.7,1.7,1.2,2.2,1.3c0.5,0.1,1-0.6,1.2-0.9c0.2-0.2,0.2-0.5,0.5-0.5c0.2,0,1.1,0.4,1.6,0.5
	c0.5,0.1,0.1-0.6-0.4-0.8c-0.4-0.2-1.4-0.7-1.7-1c-0.4-0.3-0.7-0.9-0.6-0.9c0.1,0.1,0.8-0.1,2.1-0.1c1.3,0,2.6-0.2,3-0.3
	c0.4-0.1-0.1-0.5-0.2-0.8c-0.2-0.3-0.2-0.7,0.1-0.5c0.3,0.2,1.1,0.3,1.8,0.3c0.6,0.1,1.8-0.3,1.8-0.3s0.1,0.8,0,1.1
	c-0.2,0.3-0.5,0.5-0.6,0.5c-0.1,0,0.2,0.4,0.5,0.7c0.4,0.3,0.8,0.5,1.1,1.2C116.6,39.4,116.1,39.7,115.3,39.7z"/>
<path class="st0" d="M109.8,37.9c-0.2,0.3-0.1,0.5,0.1,0.4c0.3,0,0.6-0.2,0.9-0.3c0.3-0.2,0.3-0.3,0.3-0.3s-0.3-0.2-0.6-0.2
	C110.3,37.4,110,37.6,109.8,37.9z"/>
<path class="st0" d="M105.4,88.5c-0.2-0.1-0.5-0.2-0.7-0.1c-0.3,0.1-0.5,0.3-0.7,0.7l-1,1.6l1.7,1l0.9-1.4c0.2-0.3,0.3-0.6,0.3-0.8
	c0-0.2,0-0.4-0.1-0.6C105.7,88.7,105.6,88.6,105.4,88.5z"/>
<path class="st0" d="M109,37.3c0,0-0.6,0.4-0.5,0.4c0.1,0,0.2,0.1,0.5,0.1c0.2,0,0.2,0,0.2-0.2C109.2,37.6,109,37.3,109,37.3z"/>
<linearGradient id="SVGID_2_" gradientUnits="userSpaceOnUse" x1="26.2506" y1="60.0776" x2="81.813" y2="60.0776">
	<stop  offset="4.049120e-07" style="stop-color:#C6D807"/>
	<stop  offset="1" style="stop-color:#0BAA39"/>
</linearGradient>
<path class="st4" d="M72.3,53.3c-0.2,0.1-0.3,0.1-0.5,0.2c-0.3,0.1-0.7,0.3-1,0.4c-0.5,0.2-0.9,0.4-1.4,0.6c0,0-0.1,0-0.1,0
	c-0.3,0.1-0.6,0.3-0.9,0.4c-0.2,0.1-0.4,0.2-0.6,0.3c-1,0.5-1.9,1-2.8,1.5c-0.3,0.2-0.7,0.4-1,0.6c-0.1,0.1-0.3,0.2-0.4,0.2
	c-0.9,0.6-1.8,1.2-2.7,1.8c-0.4,0.3-0.9,0.6-1.3,1c-0.9,0.7-1.7,1.4-2.5,2.2c-0.8,0.8-1.6,1.6-2.3,2.4c-0.1,0.1-0.1,0.1-0.1,0.2
	c-0.3,0.4-0.6,0.8-1,1.2c-0.2,0.3-0.4,0.5-0.6,0.8c-0.1,0.2-0.3,0.4-0.4,0.6c-0.6,0.8-1.2,1.7-1.8,2.6c-0.4,0.6-0.8,1.2-1.2,1.9
	c-0.3,0.5-0.6,1-0.9,1.5c-0.1,0.1-0.2,0.3-0.2,0.4c-0.1,0.2-0.2,0.4-0.3,0.6c-0.1,0.1-0.1,0.2-0.2,0.3c-0.1,0.2-0.2,0.4-0.3,0.6
	c-0.1,0.3-0.3,0.6-0.4,1c0,0.1-0.1,0.1-0.1,0.2c-0.1,0.2-0.2,0.5-0.3,0.7c-0.1,0.4-0.3,0.8-0.4,1.2c0,0,0,0,0,0.1
	c-0.1,0.4-0.2,0.7-0.3,1.1c0,0.1,0,0.1,0,0.2c-0.1,0.3-0.1,0.6-0.2,1c0,0.1,0,0.1,0,0.2C46,81.5,46,81.9,46,82.2c0,0.1,0,0.1,0,0.2
	c0,0.2,0,0.4,0,0.6c0,0.1,0,0.2,0,0.3c0,0.2,0,0.4,0,0.6c0,0.1,0,0.2,0,0.3c0,0.2,0,0.4,0,0.5c0,0.1,0,0.2,0,0.3
	c0,0.2,0,0.4,0.1,0.5c0,0.1,0,0.2,0,0.2c0,0.1,0,0.2,0.1,0.4c0,0.2,0.1,0.4,0.1,0.6c0,0.1,0,0.2,0.1,0.3c0.1,0.3,0.1,0.5,0.2,0.8
	c0,0,0,0.1,0,0.1c0.1,0.3,0.2,0.6,0.3,0.8c0,0.1,0.1,0.2,0.1,0.2c0.1,0.2,0.2,0.4,0.3,0.6c0,0.1,0.1,0.2,0.1,0.2
	c0.1,0.2,0.2,0.4,0.4,0.6c0,0,0,0.1,0.1,0.1c0.2,0.2,0.3,0.5,0.5,0.7c0,0.1,0.1,0.1,0.2,0.2c0.1,0.2,0.3,0.3,0.4,0.5
	c0.1,0.1,0.1,0.1,0.2,0.2c0.2,0.2,0.3,0.3,0.5,0.5c0,0,0.1,0,0.1,0.1c0.2,0.2,0.4,0.3,0.6,0.4c-0.1-0.1-0.3-0.1-0.4-0.2
	c-0.1,0-0.1-0.1-0.2-0.1c-0.2-0.1-0.3-0.2-0.5-0.2c-0.1-0.1-0.3-0.1-0.4-0.2c-0.2-0.1-0.3-0.2-0.4-0.3c-0.1-0.1-0.3-0.2-0.4-0.2
	c-0.1-0.1-0.3-0.2-0.4-0.3c-0.1-0.1-0.2-0.2-0.4-0.3c0,0,0,0-0.1,0C47,91.1,47,91,46.9,91c-0.2-0.2-0.4-0.3-0.6-0.5
	c-0.1-0.1-0.2-0.2-0.2-0.2c-0.2-0.2-0.3-0.3-0.5-0.5c-0.1-0.1-0.1-0.2-0.2-0.3c-0.1-0.2-0.3-0.4-0.4-0.6c-0.1-0.1-0.1-0.2-0.2-0.3
	c-0.1-0.2-0.2-0.4-0.4-0.6c-0.1-0.1-0.1-0.2-0.2-0.3c-0.1-0.2-0.2-0.5-0.3-0.7c0-0.1-0.1-0.2-0.1-0.2c-0.3-0.7-0.5-1.3-0.7-2.1
	c0-0.1-0.1-0.2-0.1-0.3C43,84,43,83.8,42.9,83.5c0,0,0-0.1,0-0.1c0-0.2-0.1-0.4-0.1-0.6c0-0.1,0-0.1,0-0.2c0-0.3-0.1-0.6-0.1-1
	c0-0.1,0-0.2,0-0.3c0-0.2,0-0.5,0-0.7c0-0.1,0-0.2,0-0.4c0-0.2,0-0.4,0-0.7c0-0.1,0-0.2,0-0.2c0,0,0-0.1,0-0.1c0-0.4,0-0.8,0-1.2
	c0-0.1,0-0.2,0-0.3c0-0.3,0.1-0.7,0.1-1c0-0.1,0-0.2,0-0.3c0,0,0-0.1,0-0.1c0-0.3,0.1-0.6,0.1-0.9c0-0.1,0-0.2,0-0.3
	c0.1-0.4,0.2-0.9,0.2-1.3c0,0,0,0,0-0.1c0.1-0.3,0.1-0.6,0.2-0.9c0-0.1,0-0.1,0-0.2c0.1-0.4,0.2-0.8,0.3-1.2c0,0,0,0,0,0
	c0.1-0.3,0.2-0.6,0.3-0.9c0,0,0-0.1,0-0.1c0.1-0.4,0.2-0.7,0.4-1.1c0,0,0,0,0,0c0,0,0,0,0-0.1c0.2-0.6,0.5-1.2,0.7-1.8
	c0,0,0,0,0-0.1c0,0,0,0,0,0c0.3-0.6,0.6-1.2,0.9-1.8c0,0,0,0,0,0c0.3-0.5,0.6-1,0.9-1.5c0,0,0-0.1,0.1-0.1c0.2-0.4,0.5-0.7,0.7-1.1
	l0.3-0.4c0.4-0.6,0.8-1.2,1.3-1.7c0.6-0.8,1.3-1.7,1.9-2.5c0.7-0.9,1.5-1.8,2.2-2.6c0.7-0.8,1.5-1.6,2.3-2.5
	c0.3-0.3,0.6-0.6,0.9-0.8c0.1-0.1,0.2-0.2,0.3-0.3c0.5-0.5,1-1,1.6-1.5c0.6-0.6,1.3-1.1,1.9-1.7c0.1,0,0.1-0.1,0.2-0.1c0,0,0,0,0,0
	c0.8-0.7,1.7-1.3,2.6-2c0.4-0.3,0.9-0.6,1.3-1c0,0,0,0,0,0c0.5-0.3,0.9-0.7,1.4-1c0.8-0.6,1.7-1.1,2.6-1.7c0.9-0.6,1.8-1.1,2.8-1.7
	c0.4-0.2,0.8-0.5,1.3-0.7c0,0,0.1,0,0.1-0.1c0.1,0,0.1-0.1,0.2-0.1c0.4-0.2,0.8-0.4,1.2-0.7l0.4-0.2c0.3,0.3,0.5,0.7,0.8,1
	c0.1,0.1,0.2,0.2,0.2,0.3c0.2,0.3,0.4,0.6,0.6,0.9c0.1,0.1,0.1,0.2,0.2,0.3c1.2,1.6,2.4,3.4,3.5,5l0,0c0.6,0.9,1.3,1.7,1.9,2.5
	c-0.5,0.2-0.9,0.3-1.3,0.5c-0.7,0.3-1.5,0.5-2.1,0.8c-0.5,0.2-1,0.4-1.5,0.6c-0.5,0.2-1,0.4-1.5,0.6c-0.5,0.2-1,0.4-1.5,0.6
	C73.3,52.9,72.8,53.1,72.3,53.3z M43.1,86.6c0-0.1-0.1-0.2-0.1-0.3c-0.2-0.4-0.3-0.7-0.4-1.1c0,0,0,0,0,0c-0.1-0.4-0.2-0.7-0.3-1.1
	c0-0.1-0.1-0.2-0.1-0.3c-0.1-0.4-0.2-0.8-0.3-1.2c0,0,0,0,0,0c-0.1-0.4-0.1-0.8-0.2-1.2c0-0.1,0-0.2,0-0.3c0-0.2,0-0.4-0.1-0.6
	c0-0.3-0.1-0.6-0.1-0.9c0-0.2,0-0.4,0-0.6c0-0.3,0-0.6,0-0.9c0-0.2,0-0.4,0-0.6c0-0.4,0-0.8,0.1-1.2c0-0.1,0-0.2,0-0.3
	c0-0.5,0.1-1,0.2-1.5c0.1-0.3,0.1-0.7,0.2-1c0-0.1,0-0.1,0-0.2c0.1-0.4,0.2-0.8,0.3-1.3c0.1-0.2,0.1-0.5,0.2-0.7
	c0-0.1,0.1-0.2,0.1-0.4c0.1-0.4,0.2-0.7,0.3-1.1c0.1-0.3,0.2-0.5,0.3-0.8c0-0.1,0-0.1,0.1-0.2c0.1-0.3,0.3-0.7,0.4-1
	c0,0,0-0.1,0.1-0.1c0.2-0.5,0.5-1.1,0.7-1.6c0,0,0-0.1,0.1-0.1c0.3-0.6,0.6-1.2,0.9-1.7c0.3-0.6,0.6-1.1,0.9-1.7
	c0.3-0.5,0.6-1.1,1-1.6c0.3-0.5,0.6-1,1-1.6c0.3-0.4,0.6-0.9,0.9-1.3c0.2-0.3,0.4-0.5,0.5-0.8c0.2-0.3,0.5-0.7,0.7-1
	c0.3-0.4,0.6-0.8,0.9-1.3c0,0,0,0,0,0c0.4-0.5,0.7-0.9,1.1-1.4c0.2-0.3,0.5-0.6,0.7-0.8c0.1-0.2,0.3-0.3,0.4-0.5
	c0.1-0.1,0.2-0.2,0.3-0.3c0.3-0.3,0.6-0.6,0.8-0.9c0.4-0.4,0.8-0.8,1.2-1.2c0,0,0,0,0,0c0.6-0.6,1.3-1.3,1.9-1.9
	c0.3-0.3,0.6-0.6,0.9-0.8c0.5-0.4,1-0.9,1.5-1.3c0.2-0.2,0.4-0.3,0.5-0.5c0,0,0,0,0.1-0.1c0.4-0.3,0.8-0.7,1.2-1
	c0.4-0.4,0.9-0.7,1.3-1c0.4-0.3,0.9-0.7,1.3-1c0.2-0.1,0.3-0.3,0.5-0.4c0.3-0.2,0.5-0.4,0.8-0.6c0.5-0.4,1.1-0.8,1.6-1.1
	c0.4-0.3,0.7-0.5,1.1-0.7c0,0,0.1-0.1,0.1-0.1c0.4-0.3,0.8-0.5,1.2-0.8c0.5-0.3,1-0.6,1.4-0.9c0.3-0.1,0.5-0.3,0.8-0.4
	c0,0,0.1,0,0.1-0.1c0.2-0.1,0.5-0.2,0.7-0.3c-1.7-3-3.7-6.6-5.5-9.8c0,0.1-0.1,0.1-0.2,0.2c0,0,0,0-0.1,0.1
	c-0.1,0.1-0.1,0.1-0.2,0.2c0,0-0.1,0.1-0.1,0.1c-0.1,0.1-0.1,0.1-0.2,0.2c0,0-0.1,0.1-0.1,0.1c-0.1,0.1-0.2,0.2-0.4,0.3
	c-0.6,0.6-1.4,1.3-2.4,2.3c-0.6,0.6-1.3,1.2-2.1,2c-0.1,0.1-0.2,0.2-0.3,0.3c0,0,0,0,0,0c0,0,0,0,0,0.1c-0.3,0.3-0.7,0.7-1.1,1.1
	c0,0,0,0,0,0c0,0,0,0,0,0c-0.7,0.7-1.5,1.6-2.3,2.4c-0.4,0.4-0.7,0.8-1.1,1.2c0,0,0,0,0,0c-0.3,0.3-0.6,0.6-0.8,1
	c-0.1,0.1-0.2,0.2-0.3,0.3c-0.4,0.4-0.7,0.8-1.1,1.3c0,0,0,0,0,0c-0.3,0.3-0.5,0.6-0.8,1c-0.1,0.1-0.2,0.2-0.3,0.4
	c-0.7,0.9-1.4,1.8-2.2,2.7c-0.4,0.4-0.7,0.9-1.1,1.4c0,0,0,0,0,0c-0.1,0.1-0.2,0.2-0.3,0.4c-0.3,0.3-0.5,0.7-0.8,1
	c-0.7,0.9-1.4,1.9-2.1,2.9c-0.1,0.2-0.3,0.4-0.4,0.6c-0.2,0.4-0.5,0.8-0.7,1.2c-0.2,0.4-0.4,0.7-0.7,1.1c0,0.1-0.1,0.1-0.1,0.2
	c-0.3,0.5-0.6,1.1-0.9,1.6c0,0,0,0,0,0c-0.1,0.2-0.3,0.5-0.4,0.7c0,0,0,0,0,0.1c-0.1,0.3-0.3,0.6-0.5,0.9c0,0,0,0,0,0
	c-0.1,0.2-0.2,0.4-0.3,0.6c-0.2,0.4-0.4,0.8-0.6,1.2c-0.1,0.3-0.2,0.5-0.3,0.8c-0.2,0.4-0.3,0.7-0.5,1.1c-0.3,0.6-0.5,1.3-0.7,2
	c0,0,0,0,0,0c-0.4,1.2-0.8,2.5-1.2,3.9c0,0.2-0.1,0.3-0.1,0.5c0,0,0,0,0,0c-0.3,1.2-0.5,2.4-0.8,3.7c0,0.2-0.1,0.4-0.1,0.5
	c0,0.2-0.1,0.5-0.1,0.7l0,0.2c0,0.3-0.1,0.6-0.1,0.9c0,0.1,0,0.2,0,0.3c0,0.2,0,0.5,0,0.7c0,0.1,0,0.1,0,0.2c0,0.2,0,0.5,0,0.7
	c0,0,0,0.1,0,0.1c0,0.1,0,0.2,0,0.3c0,0.2,0,0.4,0.1,0.6c0,0.1,0,0.2,0,0.3c0,0.3,0.1,0.5,0.1,0.8c0,0.1,0,0.2,0.1,0.3
	c0,0.2,0.1,0.4,0.1,0.6c0,0.1,0,0.2,0.1,0.3c0.1,0.2,0.1,0.5,0.2,0.7c0,0.1,0.1,0.2,0.1,0.3c0.1,0.2,0.1,0.5,0.2,0.7
	c0,0,0,0.1,0,0.1c0,0,0,0,0,0.1c0.1,0.2,0.1,0.4,0.2,0.6c0,0.1,0.1,0.2,0.1,0.3c0,0.1,0.1,0.3,0.1,0.4c0,0.1,0.1,0.2,0.1,0.3
	c0,0.1,0.1,0.2,0.1,0.4c0,0.1,0.1,0.2,0.1,0.2c0.1,0.2,0.1,0.3,0.2,0.4c0,0.1,0.1,0.2,0.1,0.2c0.1,0.1,0.1,0.3,0.2,0.4
	c0,0.1,0.1,0.1,0.1,0.2c0.1,0.1,0.1,0.2,0.2,0.3c0,0.1,0.1,0.1,0.1,0.2c0.1,0.1,0.1,0.2,0.2,0.3c0,0.1,0.1,0.1,0.1,0.2
	c0.1,0.2,0.2,0.3,0.3,0.5c0,0,0,0,0,0c0.1,0.1,0.2,0.3,0.2,0.4c0,0,0.1,0.1,0.1,0.1c0.1,0.1,0.1,0.2,0.2,0.3c0,0,0.1,0.1,0.1,0.1
	c0.1,0.1,0.1,0.2,0.2,0.3c0,0,0,0,0,0.1c0.2,0.2,0.3,0.5,0.5,0.6c0,0,0,0,0,0c0.1,0.1,0.1,0.2,0.2,0.2c0,0,0,0,0,0
	c0.3,0.3,0.5,0.6,0.6,0.6c0,0,0,0,0,0C43.4,87.4,43.3,87,43.1,86.6z M38.3,79.5c-0.1-0.6-0.3-1.3-0.4-1.9c0,0,0-0.1,0-0.1
	c-0.1-0.6-0.2-1.1-0.2-1.7c0-0.1,0-0.2,0-0.3c-0.1-0.5-0.1-1.1-0.1-1.6c0-0.1,0-0.2,0-0.3c0-0.4,0-0.9,0-1.3c0-0.1,0-0.3,0-0.4
	c0-0.6,0-1.1,0.1-1.7c0-0.4,0.1-0.9,0.1-1.3c0,0,0-0.1,0-0.1c0.1-0.5,0.1-1,0.2-1.5c0-0.3,0.1-0.6,0.2-0.9c0-0.1,0-0.2,0.1-0.3
	c0.1-0.4,0.2-0.8,0.3-1.2c0-0.1,0.1-0.2,0.1-0.3c0.1-0.3,0.2-0.7,0.3-1c0-0.1,0.1-0.3,0.1-0.4c0.1-0.4,0.3-0.8,0.4-1.2
	c0.2-0.7,0.2-0.7-0.1-1.3c-0.1-0.2-0.2-0.3-0.3-0.5c0,0,0-0.1-0.1-0.1c-0.1-0.1-0.2-0.3-0.4-0.4c0,0,0,0-0.1-0.1
	c-0.1-0.1-0.3-0.2-0.4-0.4c0,0,0,0,0,0c-0.2-0.1-0.3-0.2-0.5-0.3c0,0-0.1,0-0.1-0.1c-0.1-0.1-0.3-0.2-0.5-0.2c0,0,0,0-0.1,0
	c0,0-0.1,0-0.1-0.1c-0.1-0.1-0.3-0.1-0.4-0.2c-0.1,0-0.1,0-0.2,0c-0.2-0.1-0.4-0.1-0.6-0.1c0,0,0,0,0,0c-0.2,0-0.4,0-0.6-0.1
	c0,0-0.1,0-0.1,0c-0.1,0-0.1,0-0.2,0c-0.1,0-0.1,0-0.2,0c-0.1,0-0.2,0-0.3,0c0,0-0.1,0-0.1,0c-0.3,0-0.6,0.1-0.9,0.1c0,0,0,0,0,0
	c0,0,0,0-0.1,0c-0.2,0.1-0.4,0.1-0.6,0.2c0,0,0,0-0.1,0c-0.2,0.1-0.4,0.2-0.6,0.3c0,0-0.1,0-0.1,0.1c0,0-0.1,0-0.1,0.1
	c-0.1,0.1-0.2,0.1-0.3,0.2c-0.1,0-0.1,0.1-0.2,0.1c-0.2,0.1-0.4,0.3-0.5,0.5c-0.2,0.2-0.4,0.4-0.5,0.6c-0.1,0.1-0.1,0.1-0.2,0.2
	c-0.2,0.2-0.4,0.4-0.7,0.6c-0.1,0.1-0.3,0.2-0.4,0.3c-0.3,0.3-0.7,0.5-1.1,0.8c-0.2,0.1-0.3,0.2-0.5,0.3c-0.1,0.1-0.2,0.1-0.3,0.2
	c-0.2,0.1-0.3,0.2-0.5,0.3c0.1,0,0.1,0,0.2,0.1l0,0c0.1,0,0.2,0.1,0.3,0.1c0,0,0.1,0,0.1,0c0.2,0.1,0.3,0.1,0.5,0.2
	c0.1,0,0.2,0,0.2,0.1c0.1,0,0.2,0.1,0.3,0.1c0.1,0,0.2,0.1,0.4,0.1c0,0,0,0,0,0c0.1,0,0.2,0,0.3,0.1c0.3,0.1,0.5,0.1,0.8,0.2
	c0,0,0,0,0.1,0c0.3,0.1,0.5,0.1,0.8,0.2c3,7.2,6,13.7,8.6,17.3C38.6,80.8,38.5,80.2,38.3,79.5C38.3,79.5,38.3,79.5,38.3,79.5z"/>
</svg>
