<svg xmlns="http://www.w3.org/2000/svg" xmlns:xlink="http://www.w3.org/1999/xlink" viewBox="0 0 280.35 280.35"><defs><style>.cls-1{fill:url(#gradient5);}.cls-2{fill:url(#gradient6);}.cls-12,.cls-3{fill:#22436d;}.cls-10,.cls-13,.cls-3,.cls-6,.cls-7,.cls-8{fill-rule:evenodd;}.cls-4,.cls-7{fill:#fff;}.cls-5{mask:url(#mask);}.cls-6{fill:url(#gradient12);}.cls-8{fill:#fefefe;}.cls-9{mask:url(#mask-2);}.cls-10{fill:url(#gradient13);}.cls-11{fill:none;}.cls-13{fill:url(#gradient14);}</style><linearGradient id="gradient5" x1="10447.68" y1="3381.74" x2="10447.68" y2="-32615.95" gradientTransform="matrix(0.03, 0, 0, -0.03, 522.75, 337.43)" gradientUnits="userSpaceOnUse"><stop offset="0" stop-color="#fff"/><stop offset="1" stop-color="#fff" stop-opacity="0.56"/></linearGradient><linearGradient id="gradient6" x1="9796.03" y1="1168.97" x2="13041.66" y2="2588.93" gradientTransform="matrix(0.03, 0, 0, -0.03, 522.75, 337.43)" gradientUnits="userSpaceOnUse"><stop offset="0" stop-color="#fff"/><stop offset="1" stop-color="#fff"/></linearGradient><mask id="mask" x="45.54" y="45.54" width="189.27" height="189.27" maskUnits="userSpaceOnUse"><g transform="translate(-678.73 -178.82)"><g id="id8"><rect class="cls-1" x="724.27" y="224.36" width="189.27" height="189.27"/></g></g></mask><radialGradient id="gradient12" cx="14175.44" cy="-9389.3" r="3328.57" gradientTransform="matrix(0.06, 0, 0, -0.06, -27.16, -161.54)" gradientUnits="userSpaceOnUse"><stop offset="0" stop-color="#fefcfd"/><stop offset="0.24" stop-color="#e5eaec"/><stop offset="1" stop-color="#155877"/></radialGradient><mask id="mask-2" x="54.54" y="86.42" width="166.52" height="64" maskUnits="userSpaceOnUse"><g transform="translate(-678.73 -178.82)"><g id="id10"><rect class="cls-2" x="733.27" y="265.25" width="166.52" height="64"/></g></g></mask><linearGradient id="gradient13" x1="536.74" y1="443.79" x2="537.58" y2="444.23" gradientTransform="matrix(166.3, 0, 0, -63.79, -88526.42, 28624.72)" gradientUnits="userSpaceOnUse"><stop offset="0" stop-color="#22436d"/><stop offset="0.87" stop-color="#f4f4f7"/><stop offset="1" stop-color="#fefefe"/></linearGradient><radialGradient id="gradient14" cx="15773.49" cy="-3726.54" r="182.35" gradientTransform="matrix(0.05, 0, 0, -0.05, 16.33, 52.6)" gradientUnits="userSpaceOnUse"><stop offset="0" stop-color="#fefefe"/><stop offset="0.37" stop-color="#90a0b5"/><stop offset="1" stop-color="#22436d"/></radialGradient></defs><path class="cls-3" d="M818.9,178.82h0A140.18,140.18,0,1,0,959.08,319,140.19,140.19,0,0,0,818.9,178.82Z" transform="translate(-678.73 -178.82)"/><circle class="cls-4" cx="818.9" cy="319" r="134.69" transform="translate(-664.44 493.66) rotate(-45)"/><g class="cls-5"><path class="cls-6" d="M818.9,413.35A94.36,94.36,0,1,1,913.26,319,94.35,94.35,0,0,1,818.9,413.35Z" transform="translate(-678.73 -178.82)"/></g><polygon class="cls-7" points="145.98 164.77 151.68 168.08 151.77 173.29 146.45 171.56 145.98 164.77"/><path class="cls-7" d="M864.81,287.58h0V264.49h-5.93l0,3.79-27,5.87,0,12.67H815.08V247.08h-6l-2,3.53-29.45,15.59.3,103.94H771.9l-.19,21.8,6.31-.15h0l3-5.69c11.88-20.73,23.06-42.41,41-49.07,5.81-2.16,11.14-2.88,17.18-.92,10.55,3.41,10.37,17.57.92,20.09C833,357.51,830,350,830.27,347c-1.44,3.43-1,7.67.49,11.16.59,1.42,0,4.24,1.93,5,4.44,1.69,5.35,2.36,13.7,3.54,15.16-2.22,18.41-16.1,18.43-21.75Z" transform="translate(-678.73 -178.82)"/><path class="cls-3" d="M771.71,392V262.7l37.42-15.61v36.64L826,282.12,826,269l32.91-4.5v77.28c0,5.66-1.79,21.46-18.37,22.41-13,.93-16.17-9-16.89-12.55a15.58,15.58,0,0,1,.21-5.52,8.26,8.26,0,0,1,.89-2.54,8.54,8.54,0,0,0,1,4.57,8.9,8.9,0,0,0,2.52,2.92,7.88,7.88,0,0,0,5.15,1.61c10.44-.11,14.39-16.8,2.83-22.29-4.31-1.53-10.71-1.37-19.69,1.88-20.19,8.13-32.51,37.67-42.21,54.89l-2.63,4.8Z" transform="translate(-678.73 -178.82)"/><path class="cls-8" d="M769,320.63c-18.17-.83-22.57-5-20.4-10.8,1.81-4.81,5.27-8.25,16-16.52-24.63,9.9-28,19.72-25.52,26.95,1.84,5,8.61,5.59,16.56,5.73,1.78,0,3.17.08,4.79,0C762.29,325.07,771.83,320.76,769,320.63Z" transform="translate(-678.73 -178.82)"/><g class="cls-9"><path class="cls-10" d="M764.52,293.34c-23.7,8.64-33.12,20.54-30.8,27.46,1.76,4.79,6.94,7.64,14.42,8.13a101.83,101.83,0,0,0,22-1c13.39-1.86,28.34-6.07,46.22-12.05,38.72-12.95,57.06-27.23,57.56-27.54,5.29-3.3,20.44-13.41,25.77-19.79.12-.29-1.48-3.53-1.89-3.17-.83.73-3,2.16-3.77,2.83-7.87,6.5-15,10.74-23.48,16-22.68,14.15-54.4,26.52-84.8,33.59-10.53,2.45-21.58,4.6-33.46,2.56-5.85-1-10.19-4.59-8.12-10.07,1.15-3,5.43-7.27,9.65-10,6.53-4.2,10.71-7,10.71-7Z" transform="translate(-678.73 -178.82)"/></g><path class="cls-3" d="M801.34,397.36h-2.57v-9a9.62,9.62,0,0,1-1.22.87h0a8.83,8.83,0,0,1-1.71.77l-.2.07v-2.54l.1,0a4.74,4.74,0,0,0,1-.43,9,9,0,0,0,1-.72h0a4.55,4.55,0,0,0,.9-.91,3.65,3.65,0,0,0,.57-1l0-.1h2.23v13Zm7.14-3.24,2.35-.26.15,0,0,.15a2,2,0,0,0,.14.59,1.16,1.16,0,0,0,.26.38h0a1,1,0,0,0,.36.22h0a1.42,1.42,0,0,0,.48.08,1.16,1.16,0,0,0,.61-.16,1.65,1.65,0,0,0,.53-.47,2.88,2.88,0,0,0,.4-1,10.21,10.21,0,0,0,.2-1.36,3.17,3.17,0,0,1-.77.52,3.08,3.08,0,0,1-1.33.28,3.55,3.55,0,0,1-1.45-.3,3.75,3.75,0,0,1-1.23-.9,3.94,3.94,0,0,1-.85-1.38,5.23,5.23,0,0,1-.28-1.73,5.09,5.09,0,0,1,.3-1.79,4,4,0,0,1,.89-1.42,4.21,4.21,0,0,1,1.35-.92,4.55,4.55,0,0,1,1.67-.3,4.18,4.18,0,0,1,1.82.39,4.1,4.1,0,0,1,1.46,1.15h0a5,5,0,0,1,1,2,12.26,12.26,0,0,1,.31,3,12.62,12.62,0,0,1-.32,3,5.16,5.16,0,0,1-1,2.09,4.24,4.24,0,0,1-1.53,1.19,4.47,4.47,0,0,1-1.93.4,4.6,4.6,0,0,1-1.38-.2,3.21,3.21,0,0,1-1.11-.63,3.16,3.16,0,0,1-.78-1,4.8,4.8,0,0,1-.44-1.43l0-.16ZM813.8,389a3.37,3.37,0,0,0-.13-1,2,2,0,0,0-.37-.72h0a1.91,1.91,0,0,0-.53-.44,1.27,1.27,0,0,0-.6-.15,1.19,1.19,0,0,0-.54.12,1.28,1.28,0,0,0-.45.36h0a1.43,1.43,0,0,0-.3.63,3.68,3.68,0,0,0-.11,1,3.86,3.86,0,0,0,.12,1,1.66,1.66,0,0,0,.33.68,1.51,1.51,0,0,0,.49.39,1.38,1.38,0,0,0,.59.12,1.37,1.37,0,0,0,.58-.12,1.41,1.41,0,0,0,.48-.37,1.88,1.88,0,0,0,.33-.63A3.33,3.33,0,0,0,813.8,389Zm7.89,4.85,2.42-.25.15,0,0,.15a2.32,2.32,0,0,0,.2.69,1.59,1.59,0,0,0,.37.52,1.45,1.45,0,0,0,.5.33,1.56,1.56,0,0,0,.57.11,1.53,1.53,0,0,0,.64-.14,1.62,1.62,0,0,0,.53-.43,1.87,1.87,0,0,0,.36-.72,3.68,3.68,0,0,0,.13-1.05,3.14,3.14,0,0,0-.13-1,1.7,1.7,0,0,0-.36-.68h0a1.49,1.49,0,0,0-.54-.4h0a1.75,1.75,0,0,0-.7-.13,2.11,2.11,0,0,0-.93.21,3.07,3.07,0,0,0-.84.65l-.05.07-.08,0-2-.28-.16,0,0-.16,1.23-6.58,0-.12h6.7v2.57h-4.6l-.31,1.74a3,3,0,0,1,.58-.19,3.7,3.7,0,0,1,.87-.11,3.85,3.85,0,0,1,1.56.31,4.18,4.18,0,0,1,2.17,2.32,5,5,0,0,1,.29,1.76,5.1,5.1,0,0,1-.23,1.53,4.66,4.66,0,0,1-.71,1.36,4.16,4.16,0,0,1-3.55,1.74,5.28,5.28,0,0,1-1.64-.24,3.82,3.82,0,0,1-1.32-.74h0a3.65,3.65,0,0,1-.92-1.15h0a4.58,4.58,0,0,1-.46-1.48l0-.16Zm21.49-6-2.35.26h-.16l0-.15a2,2,0,0,0-.14-.59.89.89,0,0,0-.26-.38,1,1,0,0,0-.36-.23,1.36,1.36,0,0,0-.47-.08,1.41,1.41,0,0,0-.64.16h0a1.79,1.79,0,0,0-.54.47,2.82,2.82,0,0,0-.4,1,10.21,10.21,0,0,0-.2,1.36,3.11,3.11,0,0,1,.76-.52,3,3,0,0,1,1.31-.28,3.65,3.65,0,0,1,1.47.3h0a3.89,3.89,0,0,1,1.24.9h0a4,4,0,0,1,.84,1.38,5,5,0,0,1,.28,1.72,4.43,4.43,0,0,1-1.18,3.23,3.86,3.86,0,0,1-1.36.92,4.49,4.49,0,0,1-1.68.3,4.05,4.05,0,0,1-3.27-1.55,5.11,5.11,0,0,1-.95-2,12.07,12.07,0,0,1-.32-3,12.35,12.35,0,0,1,.33-3h0a5.22,5.22,0,0,1,1-2.09,4.24,4.24,0,0,1,1.53-1.19,4.5,4.5,0,0,1,1.93-.4,4.22,4.22,0,0,1,1.36.21,3.37,3.37,0,0,1,1.93,1.68,4.86,4.86,0,0,1,.45,1.41l0,.16-.16,0ZM837.82,393a3.37,3.37,0,0,0,.13,1h0a1.88,1.88,0,0,0,.38.73,1.54,1.54,0,0,0,.53.44h0a1.2,1.2,0,0,0,.59.15,1.23,1.23,0,0,0,.55-.12,1.37,1.37,0,0,0,.45-.35h0a1.6,1.6,0,0,0,.31-.64h0a4.17,4.17,0,0,0,.1-1,4,4,0,0,0-.11-1,1.88,1.88,0,0,0-.33-.68,1.62,1.62,0,0,0-.49-.39h0a1.32,1.32,0,0,0-.6-.13,1.37,1.37,0,0,0-.58.12h0a1.58,1.58,0,0,0-.49.38h0a1.74,1.74,0,0,0-.33.62,3.46,3.46,0,0,0-.11.9Z" transform="translate(-678.73 -178.82)"/><line class="cls-11" x1="92.98" y1="137.17" x2="92.98" y2="184.12"/><line class="cls-11" x1="92.98" y1="83.88" x2="92.98" y2="121.29"/><line class="cls-11" x1="92.98" y1="83.88" x2="125.94" y2="70.13"/><polygon class="cls-7" points="160.59 95.05 162.44 100.7 168.43 100.23 163.58 104.2 165.43 109.86 160.58 106.66 155.74 110.63 157.59 104.68 152.75 101.47 158.74 101 160.59 95.05"/><polygon class="cls-7" points="138.9 108.89 140.52 114.3 146.17 113.98 141.52 117.64 143.14 123.04 138.65 119.9 134 123.56 135.87 117.96 131.38 114.81 137.03 114.49 138.9 108.89"/><polygon class="cls-7" points="121.74 126.58 123.01 131.6 128.14 131.53 123.8 134.71 125.07 139.74 121.12 136.68 116.78 139.87 118.67 134.79 114.72 131.73 119.85 131.65 121.74 126.58"/><polygon class="cls-7" points="109.48 145.95 110.67 150.66 115.47 150.59 111.41 153.57 112.6 158.28 108.9 155.41 104.83 158.4 106.61 153.64 102.91 150.77 107.71 150.7 109.48 145.95"/><polygon class="cls-7" points="102.61 165.81 103.6 169.68 107.7 169.65 104.21 172.08 105.2 175.95 102.06 173.58 98.57 176.01 100.11 172.11 96.97 169.74 101.06 169.7 102.61 165.81"/><path class="cls-12" d="M696.44,309.68l13.78.48-.1,2.79-5.42-.19-.19,5.45,5.42.19-.1,2.78-13.77-.48.1-2.79,6,.22.19-5.45-6-.21.09-2.79Zm-.2,15.2,13.74-1,.72,10.19-2.33.17-.52-7.42-3.05.21.49,6.91-2.32.16-.48-6.9-3.74.26.53,7.68-2.31.16Zm1.28,14.06L711,336.07l.57,2.65-7.83,7.43,9-1.91.54,2.53-13.48,2.86-.58-2.73,7.63-7.3-8.79,1.87ZM705,365.71l-.94-2.88,2.61-2.11L705,355.48l-3.33-.11-.91-2.81,14.77.84.91,2.8L705,365.71Zm3.6-6.56,4.28-3.38-5.44-.19Zm-2.38,9.12L718.5,362l1.23,2.42-5.64,9.2,8.2-4.18,1.17,2.31L711.18,378l-1.27-2.49,5.49-9-8,4.08-1.17-2.3Zm22.95,12.9,1.72,2.19L725,388a17.16,17.16,0,0,0-1.76,1.5,2.23,2.23,0,0,0-.54,1.51,2.93,2.93,0,0,0,.72,1.76,2.73,2.73,0,0,0,1.49,1.11,1.87,1.87,0,0,0,1.38-.16,15,15,0,0,0,1.92-1.34l6-4.7,1.71,2.19-5.71,4.46a18.2,18.2,0,0,1-2.9,2,3.76,3.76,0,0,1-1.87.41,4.18,4.18,0,0,1-1.88-.58,7,7,0,0,1-2-1.84,7.51,7.51,0,0,1-1.48-2.64,4.23,4.23,0,0,1-.06-2,3.87,3.87,0,0,1,.72-1.56,17,17,0,0,1,2.59-2.37l5.79-4.52Zm-1.27,20.18L738,392l1.85,2L737,404.33l6.73-6.27,1.76,1.89-10.08,9.4-1.91-2,2.79-10.2-6.57,6.13ZM738.73,412l9-10.4,2.1,1.83-9,10.4-2.1-1.83Zm8.14,6.46L751,404.36l2.44,1.78-3.17,10.3,8.72-6.27,2.39,1.73-12.09,8.25Zm8.72,5.89,6.89-11.93,8.85,5.11-1.17,2-6.44-3.72-1.53,2.65,6,3.46-1.16,2-6-3.45-1.87,3.24,6.66,3.85-1.16,2-9.07-5.25Zm12.54,6.57,5.16-12.78,5.43,2.2a10,10,0,0,1,2.84,1.54,3.18,3.18,0,0,1,1,1.83,4,4,0,0,1-.26,2.24,3.7,3.7,0,0,1-1.8,2,4.38,4.38,0,0,1-3,.16,6.31,6.31,0,0,1,.95,1.63,15.1,15.1,0,0,1,.63,2.67l.56,3.12-3.09-1.24-.74-3.54a19.53,19.53,0,0,0-.6-2.43,2.25,2.25,0,0,0-.56-.84,4.55,4.55,0,0,0-1.25-.67l-.52-.21-2.15,5.33-2.58-1Zm5.56-6.33,1.91.77a10.52,10.52,0,0,0,2.38.78,1.47,1.47,0,0,0,.94-.25,1.79,1.79,0,0,0,.65-.85,1.63,1.63,0,0,0,.07-1.18,1.66,1.66,0,0,0-.77-.9c-.19-.11-.81-.38-1.86-.8l-2-.81-1.31,3.24Zm9.31,7.27,2.68.49a3.28,3.28,0,0,0,.4,2.2,3,3,0,0,0,1.76,1.17,3.09,3.09,0,0,0,2.11,0,1.69,1.69,0,0,0,1-1.09,1.26,1.26,0,0,0-.05-.88,2.21,2.21,0,0,0-.8-.85c-.28-.2-.94-.59-2-1.19a7.54,7.54,0,0,1-2.64-2.18,3.56,3.56,0,0,1-.46-3,3.45,3.45,0,0,1,1.12-1.73,3.71,3.71,0,0,1,2-.87,7,7,0,0,1,2.74.29,5.81,5.81,0,0,1,3.45,2.17,4,4,0,0,1,.48,3.3l-2.71-.65a2.31,2.31,0,0,0-.31-1.68,2.79,2.79,0,0,0-1.57-.94,3.14,3.14,0,0,0-2,0,1,1,0,0,0-.66.7,1,1,0,0,0,.17.92,7.23,7.23,0,0,0,2.2,1.59,13.42,13.42,0,0,1,2.61,1.78,3.85,3.85,0,0,1,1.08,1.77,4.3,4.3,0,0,1-1.32,4.21,3.94,3.94,0,0,1-2.21,1,7.82,7.82,0,0,1-3-.34,6,6,0,0,1-3.53-2.27,5.22,5.22,0,0,1-.64-3.84Zm13.18,7.83,2.63-13.53,2.74.53-2.63,13.53Zm9.69,1.49,1-11.4-4.07-.36.2-2.32,10.91.95-.2,2.32-4.07-.35-1,11.4-2.78-.24Zm13.63.59-.2-5.8-5.32-7.8,3.26-.11,3.43,5.33,3-5.56,3.21-.11-4.79,8.17.21,5.78Zm17.46-7.8a9,9,0,0,1-.18-3.59,6.47,6.47,0,0,1,.83-2.13,5.52,5.52,0,0,1,1.45-1.61,7.68,7.68,0,0,1,2.78-1.2,6.46,6.46,0,0,1,5.17.75,7.26,7.26,0,0,1,3,4.71,7.18,7.18,0,0,1-.6,5.49,6.4,6.4,0,0,1-4.3,2.93,6.52,6.52,0,0,1-5.19-.72,7.16,7.16,0,0,1-2.93-4.63Zm2.78-.74a5.18,5.18,0,0,0,1.85,3.22,3.71,3.71,0,0,0,5.34-1.23,5.27,5.27,0,0,0,.23-3.74,5.2,5.2,0,0,0-1.81-3.21,3.84,3.84,0,0,0-5.39,1.26A5.22,5.22,0,0,0,839.74,433.18ZM855,436.43l-4.49-13,8.94-3.08.76,2.2-6.3,2.17,1.06,3.09,5.44-1.88.76,2.21L855.68,430l1.9,5.54-2.63.91Zm23.28-9.88-5.72-9.91-3.54,2-1.17-2,9.49-5.48,1.16,2-3.53,2,5.73,9.92-2.42,1.39Zm8.61-5.12-8.11-11.15,8.27-6,1.37,1.88-6,4.37,1.79,2.48,5.6-4.07,1.36,1.88-5.59,4.06,2.2,3,6.23-4.53,1.36,1.88-8.47,6.16Zm14.37-18.2,2.53-1.26a6.08,6.08,0,0,1,.85,3.85,6.52,6.52,0,0,1-6.42,5.12,7.24,7.24,0,0,1-4.84-2.47,7.52,7.52,0,0,1-2.43-5.08,6.08,6.08,0,0,1,2-4.61,5.75,5.75,0,0,1,4-1.78,5.45,5.45,0,0,1,2.78.85l-1.53,2.39a2.82,2.82,0,0,0-1.91-.51,2.91,2.91,0,0,0-1.78.86,3.13,3.13,0,0,0-1,2.52,5.37,5.37,0,0,0,1.79,3.22,5.78,5.78,0,0,0,3.26,2,3.06,3.06,0,0,0,2.53-.9,2.79,2.79,0,0,0,.88-1.83,4.11,4.11,0,0,0-.71-2.4Zm8.08-.92-10.56-8.86,1.79-2.13,4.16,3.48,3.5-4.18L904,387.14l1.78-2.13,10.56,8.86L914.58,396,910,392.12l-3.51,4.18,4.62,3.87-1.79,2.14Zm9.7-11.88-11.69-7.3,1.44-2.3,10.79.09-7.8-4.87,1.37-2.2,11.69,7.31-1.49,2.37-10.56,0,7.62,4.76L919,390.43Zm1.68-15a8.73,8.73,0,0,1-3-2,6.57,6.57,0,0,1-1.2-1.94,5.27,5.27,0,0,1-.41-2.13,7.56,7.56,0,0,1,.71-2.94,6.45,6.45,0,0,1,3.71-3.68,8.43,8.43,0,0,1,9.58,4.25,6.44,6.44,0,0,1-.25,5.19,6.53,6.53,0,0,1-3.71,3.71A7.14,7.14,0,0,1,920.67,375.4Zm1.08-2.65a5.18,5.18,0,0,0,3.68.45,3.5,3.5,0,0,0,2.22-2,3.46,3.46,0,0,0,0-3,5.27,5.27,0,0,0-2.85-2.43,5.18,5.18,0,0,0-3.65-.5,3.86,3.86,0,0,0-2.23,5.07,5.21,5.21,0,0,0,2.82,2.41Zm12.13-10-13-4.23.86-2.64,10.79,3.5,2.14-6.58,2.21.72-3,9.23ZM931,349.36a8.79,8.79,0,0,1-3.33-1.35,6.36,6.36,0,0,1-1.58-1.65,5.35,5.35,0,0,1-.84-2,7.57,7.57,0,0,1,.08-3,6.48,6.48,0,0,1,2.86-4.37,8.45,8.45,0,0,1,10.26,2.16,7.26,7.26,0,0,1-2,9.53A7.08,7.08,0,0,1,931,349.36Zm.5-2.82a5.24,5.24,0,0,0,3.7-.32,3.73,3.73,0,0,0,1.15-5.36,5.32,5.32,0,0,0-3.3-1.79,5.2,5.2,0,0,0-3.67.28,3.53,3.53,0,0,0-1.72,2.46,3.59,3.59,0,0,0,.58,3,5.23,5.23,0,0,0,3.26,1.77Zm4.89-19.07-2.32-.17.42-6,5.48.38a7.64,7.64,0,0,1,1.31,2.64,9.17,9.17,0,0,1,.4,3.39,7.6,7.6,0,0,1-1.16,3.7,5.77,5.77,0,0,1-2.76,2.23,8.41,8.41,0,0,1-3.72.55,8.08,8.08,0,0,1-3.76-1.16,6.13,6.13,0,0,1-2.37-2.82,7,7,0,0,1-.45-3.34A6.49,6.49,0,0,1,928.8,323a4.86,4.86,0,0,1,3.1-1.65l.32,2.79a3,3,0,0,0-1.68,1,3.3,3.3,0,0,0-.72,2,3.74,3.74,0,0,0,.95,3,4.84,4.84,0,0,0,3.35,1.31,5.37,5.37,0,0,0,3.75-.83,3.65,3.65,0,0,0,1.42-2.76,5,5,0,0,0-.22-1.78,5.93,5.93,0,0,0-.73-1.56l-1.74-.12-.22,3.18Zm5.24-13-5.8.2L928,320l-.11-3.26,5.34-3.43-5.56-3-.11-3.2,8.17,4.78,5.78-.2.09,2.78Z" transform="translate(-678.73 -178.82)"/><path class="cls-13" d="M867.78,249.65a7.52,7.52,0,1,1-7.52,7.51A7.51,7.51,0,0,1,867.78,249.65Z" transform="translate(-678.73 -178.82)"/><path class="cls-3" d="M704.17,258.17c-.48-.66,5.66-2.06,8.6-.85s2.06,1.05,2.5,1.47,1.4-2.24,1.4-2.24a14.43,14.43,0,0,0,.66-2.64c.11-1.13,2.32-5.6,2.52-6a25.38,25.38,0,0,0,.37-4.38c.07-1.77,1.46-2.09,2.28-2.4s2,1.16,1.68,1.7a9.15,9.15,0,0,0-1.13,3.58,8.23,8.23,0,0,1-1.3,4.27c-.82,1,.59-.3,1.82.46.4.24,1.82,1.84,3.83,3.49,4.13,3.39,9.89,7.14,10.25,7.72a2.07,2.07,0,0,1-.42,2.55,10.81,10.81,0,0,1-5.3.92c-.48-.55,1.88-1.48,1.18-2.65s-5.64-4.57-6.34-5.13,1.1,3.84-.43,4.05c-.81.11-.15.47,0,1.19-.46.63-.66,1.22-1.51,1.48s-3.14-1.61-3.71-2.35.68-1.4.75-1.92-.41-3.32,0-3.93.63-1.08,1.42-1.41a20.41,20.41,0,0,0-2.47-2.17,8.73,8.73,0,0,0-1.09,3.09c0,1.09.12,2.76-.3,3s-.86,1.49-1.51,1.43,1.9,1.68,2.43,2.87,5.76,6.82,6.49,9.1.08,2.57-1.27,2.41a7.06,7.06,0,0,1-3.69-1.38c.07-1.18,1.55-.94,1.31-1.94s-1.29-2.4-2-4-.56,1.11-.13,2.69-1.29-1.59-2.22-1.51a13.62,13.62,0,0,1-4.84-.79c-.29-.18-1.11-.47-1.08-.71a3.16,3.16,0,0,1,2.17-.87c1,.15,3.4-1.61,4.42-1s1,.36.61.08-2.65-4.31-3.18-3.94.26-1,.26-1-1.64.22-1.88-.52-1.12.89-1.4,1.39.11,3.33-.27,3-2-2.84-2.23-3.06c-1.87-1.59-5-1.22-7.29-3.11Zm19.36,2.7s.1-1.78.5-1.71.76.85.77,1.34-.44,1.21-.39,1l-.88-.6Zm200.13-9.56s1.5,1.94.32,2.43a6.16,6.16,0,0,1-3.19.78c-1.34-.09-.78.34,0,.64a2.86,2.86,0,0,0,2.46-.43c.48-.43,3.17-1.08,3.43-1.85s1.4-1.7,2-1.51a1.83,1.83,0,0,1,.72,2.19c-.4.61-.49,2.09-1.59,2.26a12.79,12.79,0,0,0-3.58.71c-.64.41-.4.45-.4.45s1.17.76,1.65.49.16-.25.76-.63,1.2-.54,1.45.3a4.53,4.53,0,0,0,.91,1.73c.26.29,4.34.89,5.59,0,1.6-.35,1.19,3.15-.81,3.52s-3.43-1.17-4-1.46-1.41-.34-1.21.31.17.07.76.41,2.1,2.22,2.76,2.23A2.52,2.52,0,0,1,934,266.7c-.28,2-1.75,1.34-2.81.9s-5.28-1.81-6.33-2,.07.55.47,1,1.59,2.47.58,3.65-1.7.16-2.42-.49-3.39-1.84-3.69-3.31-.6,1.12-1.44,1a4.26,4.26,0,0,1-2.24-1.16c-.86-.66-1.2,0-1,.29s.45,1.15,1,1.31a2.19,2.19,0,0,1,1.14,2.13c0,1.12-.25,1.41-1.27,1.86s-1.31-.86-1.69-1.69-1.25-2.51-1.68-2.15a46.63,46.63,0,0,1-4.68,2.09c-.87.14-2.64-.76-2.67-2.07a15.55,15.55,0,0,1,1.6-4.52c.59-.73.21,3.27,1.49,2.84a11.56,11.56,0,0,0,2.39-1c.59-.33-.65-1.74-.91-2.24s-1.78-1.6-1.79-2.89,2.24-2.74,2.37-1.5,2.47,4.43,3,4.79.91-.51,1.19.07,1.22.52,1.07,0c0,0-1-1-.6-1.69s.84-1.46,1.22-.53a17.39,17.39,0,0,0,2.87,3.47c.4.21.83.74,1.6,1.25s1.52,1.32,1.78.89a1.47,1.47,0,0,0-.92-1.76c-.8-.27-1-.86-1.79-1.91s-2.13-2.32-2.58-2.82-1.7-1.57-.9-2.84,1-1.06,1.68.14a6.4,6.4,0,0,0,2.15,2.77c.94.55,1.66.9,1.63.47a1.54,1.54,0,0,0-1.1-1.62c-1.11-.4-1.12-1.79,0-1.69s2.26.71,2.1,0-.19-.44-.47-.76-.34-.3-1.18-.54-2.28,0-3.14-.71-1.12-.92-.74-1.49,1.59-1.5,2.62-1a2.54,2.54,0,0,0,2.61-.73l1.21-1.06Zm-7,1.09a5.08,5.08,0,0,1-3.23,1.38c-2.08.14.22,1.17.72,1.48s-1.09.74-2.21.33-1.88.27-3.07-.48-.18-2.37.58-2.83,1.89-2,3.06-.95a15.32,15.32,0,0,0,4.15,1.07Zm7,5.6c.14-.9.91.14,1.34.56s.25,1-.67,1-.8-.69-.67-1.6Zm4.38,4.87c.61-.11,1,.87.94,1.38s-3.29.25-3.1,0a4.59,4.59,0,0,1,2.16-1.36Zm-3.4-1.8s.92,1.2.26,1.35-.85.26-1.23-.54,1-.81,1-.81Zm-2.18,1.38.84.68s.73.55.18.67C922.48,263.88,922.23,262.24,922.48,262.45Zm-73-67.26a2.29,2.29,0,0,1,2.65.68c1.17,1.35.54,2.07.05,2.53a2.56,2.56,0,0,0-1,1.63c0,.63.74.72,1.52.91s2.35-1.05,3.59-1.7,2.08.42,2.53.91.78,2.62-.18,2.9a25.19,25.19,0,0,0-3.32.79c-.73.37-.46.73,1.8.68.54,0,1.64-.09,1.64-.09a2.77,2.77,0,0,1,2.19.84c.66.93-.69,2.54-1,2.6-1.41-.27-.37-.87-3.79-1.32s-1.52-.24-2-.32-5-.71-7-.13.61,1.07.61,1.07c.25-.1,1.88-.81,1.8-.5s-1.08.93-1.66,1.58-.93.37-.68.68.61.51,1-.05a18.13,18.13,0,0,1,1.93-1.77l.67-1s2.31-.27,3.16.69-.35,2.84-1.13,2.65c-3-.71-4.52.67-3.89.67h.63c.13,0,1-.13,1,.24,0,1.25-.12,1.69-1.31,1.73l-.87,0-.39.7,1.28,0s.5-.06.31.39-.32,1.14-1,1.12a2.28,2.28,0,0,0-1.15.28l-.13.41,1.63,0,.41-.4s.24,2.64-1,2.38a2,2,0,0,0-1.66.19s-1.63,4.78-2,5.06a4.85,4.85,0,0,1-2.4.89c-.75-.07-1.43-1.35-1.33-1.81s-.17-3-.6-2.43c-1.25.7-2.77,1.73-3.44,1.62a2.83,2.83,0,0,1-2.06-2.18c-.27-1.32.32-2.25,1-2s1.07.82,2.37.81,1.65,0,2-.29,1.64-.88,1.17-.75-1.19,0-1.23-.45.11-2.32,1.29-1.77a6,6,0,0,0,2.15.56l.26-.56c-2.19-.51-1.39-1.48-1.23-1.46l1.57.2.18-.55c.08-.24-.39.06-1.26-.31s-.74-.94-.74-.94-.54-1.06.43-1a4.13,4.13,0,0,0,1.95-.38l-1.24-.82v-1.45a21.58,21.58,0,0,0-4.23,1.26,3.17,3.17,0,0,1-3.8-.92c-1.1-1.27-1.48-2.6-.77-3s1.39-.23,2.49.46,3.57.36,4.23.11a40.29,40.29,0,0,1,4.29-.61l1.12-2.63-1.18.33s-2.29,2.08-3,1.49-1.51-1.52-.2-3.31,1.55-1.14,1.82-.54.38,1.08,1.16,1.08,1.32.29,1.81-.45a51.52,51.52,0,0,0,1.94-5.22Zm.61,6.59s0,.51.77,1a1.22,1.22,0,0,1,.62,1.16s-1.67.52-2.15.27.76-2.43.76-2.43Zm3,.28c-.13,0,1.12-1.29,1.81-1s.52.7,0,1-1.4.69-1.4.69-.27-.6-.39-.65Zm-5.28,15.83a6.84,6.84,0,0,1,3.6,1.79c1.12,1.39,1.29,2.86.25,3.91-.93.61-2.31,1.15-2.84.42s-1-.68-.67-1.64a2.77,2.77,0,0,0-.08-2.94,2.87,2.87,0,0,1-.26-1.54Zm-5.26-1.34.77.24s-.69,2.13-.86,2.58-.86-.7-1.32-1.31a9.81,9.81,0,0,0,1.41-1.51Zm-100.25,1.58s1.34-2.57,2.65-2.4,2.18-.75,4.06,1c.75.52.6-1.68,1.53-.65s1.5,1.09,1.13,2.66-.39,1.38-.48,1.9a10.26,10.26,0,0,0,.54,2.31c.11.57-.32,1.28.24,1s.47-5.65.91-6.39.19-1.75,1.18-2.3,2.6-.36,3,.79,3.36,4.64,5.18,6.42,5.43,4.58,5.6,5.5.36,1.93-1.47,2.78c-.49.2-5.24.89-6,1.21s-.77.43-.77.43.9,1.14,1.59.3a1.83,1.83,0,0,1,.81,2.28c-.86,1.34-1.53,1.53-2,1.32a8.43,8.43,0,0,1-1.78-1.4.74.74,0,0,1-.91.74c-.79-.13-.86-.7-.86-.7s1.1-1.55.12-1.16c-.33.13-.68,1-.72.93s-1.64-.45-1.17-1.12.68-.69.32-1.42.57-1.36.22-1.66a12.76,12.76,0,0,1-1-2.75l-.44,0a4.47,4.47,0,0,0,.76,2.54c.64.66-.47,1.9-.82,2.26l-1-.39s-.21,1.56-.82,1.71-2.26.2-2.09-.71c.53-.93,1.64-3.88,1.18-4.4-1.27-1.44-.53,1.8-2.43,2.89a3.09,3.09,0,0,1-3.84-.73c-.35-.42.88-1.29,1.65-2.49a6.91,6.91,0,0,0,1-4.34,10.07,10.07,0,0,0-2.72-3.8c-.65-.6-2.49-2.22-2.49-2.22Zm11.72,6.31c-.63.17.17-6,.67-6.28s.68,2.2,2.65,4.23,5.37,5.32,6.44,5.75.15,1.22-.65,1.61l-3,1.48s.21-1-.54-1.26a1.41,1.41,0,0,0-1.58.16s.29-.51-.43-.83c-.33-.15-.92-.51-1-.19-.07.48-.49.65-.45.39a17.9,17.9,0,0,1,.07-3.36c.69-1.08-1-2-1-2l-1.23.34Zm-4.16,12s.84-1.25,1.58-1.43c1.09-.27,2.88.27,4.5,1.09,2.75,1.39,1.55,2.64,1.35,3.37-.37.75-2.34,1.09-2.81.94a9.86,9.86,0,0,1-2.56-2.5,6.2,6.2,0,0,0-2.06-1.47Zm39.5-31.89a16.19,16.19,0,0,0,4.59-1.08,20.36,20.36,0,0,0,4.73-3.69,2.8,2.8,0,0,1,2.5-.49,4.46,4.46,0,0,1,2,1.95c0,.16.24,2.23-.45,2.6s-3.26,5.18-3.6,5.93c-.67,1.51,1.09-.27,2-.84.43-.54.78-.93,2.18-.85,1.64.61,1.56,2.6,1.19,2.85a16.39,16.39,0,0,0-1.81.59,19.81,19.81,0,0,0-4.73,3.61,7.41,7.41,0,0,0-2.46,2.92c-2,3.25-7.42,2.47-8.26-.76-.44-1.69,2.47-1,4.34-2.11s5-8.21,6-9.68c-.55.07-3,2.18-3.36,2.55a2.54,2.54,0,0,1-3-.06c-.78-.74-2.06-.8-2.25-1.6a1.33,1.33,0,0,1,.45-1.84Zm108.08,15c1-1,2.44.22,2.3,1.93s-1.21,3.6-2.19,4-5.25,2.7-5.25,3.24,2,1.25,2.7,1.57,2.56-1.09,2.41-.75.89,2.93.19,3.69-1.51,1.44-3.13.38c-1.63-1.45-3.91-2.17-4.71-2.7s-.84.52-.84.52a7.93,7.93,0,0,0,0,1.64c.12,1-.06,2.31.07,3.71a5.68,5.68,0,0,0,1.94,3.64c1.24,1.26-.49,1.48-1.37,1.53s-3.19-.16-4.1-1.08-.28-1.5-.1-2.69c.37-4.14,1.66-5,1.53-6.06.36-1.09-3.45,1.14-6.2.4s-2.84-1-3.79-2.45a3,3,0,0,1,.2-3.39c.36-.53.95,1.76,2.14,2.37a7.07,7.07,0,0,0,6-.38c.82-.54-1-1-.87-1.13s-2-.37-2.42-.85-2-1.15-1.7-2.61,1.16-3,2.55-1.23,5.71,3.92,6.24,3.59c.92-.38,7.4-5.84,8.4-6.84Z" transform="translate(-678.73 -178.82)"/></svg>