<svg xmlns="http://www.w3.org/2000/svg" viewBox="0 0 123.48 123.48"><defs><style>.cls-1,.cls-3{fill:#003b90;}.cls-1,.cls-2{fill-rule:evenodd;}.cls-2{fill:#fff;}</style></defs><path class="cls-1" d="M250.28,187.91h0A61.76,61.76,0,0,1,312,249.65h0a61.76,61.76,0,0,1-61.74,61.74h0a61.75,61.75,0,0,1-61.73-61.74h0a61.75,61.75,0,0,1,61.73-61.74h0Z" transform="translate(-188.53 -187.91)"/><path class="cls-2" d="M250,191.43a58.23,58.23,0,1,0,58.23,58.23A58.34,58.34,0,0,0,250,191.43Z" transform="translate(-188.53 -187.91)"/><rect class="cls-3" x="296.87" y="233.68" width="1.88" height="1.88" transform="translate(-240.98 -98.41) rotate(-15.73)"/><polygon class="cls-1" points="107.47 58.18 111.07 55.3 114.13 54.91 114.17 54.91 114.18 54.91 114.18 54.89 114.18 54.86 114.05 53.96 114.05 53.92 114.05 53.91 114.03 53.91 114 53.92 111.04 54.28 106.69 52.39 106.64 52.37 106.61 52.35 106.62 52.38 106.62 52.44 106.76 53.44 106.76 53.46 106.76 53.47 106.77 53.47 106.79 53.48 110.1 54.91 107.28 57.14 107.26 57.15 107.26 57.16 107.26 57.16 107.26 57.18 107.39 58.15 107.4 58.2 107.4 58.23 107.42 58.21 107.47 58.18"/><polygon class="cls-1" points="108.27 59.28 108.21 61.69 114.4 61.83 114.43 61.83 114.45 61.83 114.45 61.84 114.45 61.87 114.42 62.79 114.42 62.82 114.42 62.84 114.41 62.83 114.38 62.83 108.19 62.69 108.13 65.1 108.13 65.13 108.13 65.15 108.11 65.15 108.08 65.14 107.25 65.13 107.21 65.13 107.2 65.12 107.2 65.11 107.2 65.08 107.34 59.26 107.34 59.23 107.34 59.21 107.36 59.21 107.39 59.21 108.22 59.23 108.25 59.23 108.27 59.23 108.27 59.25 108.27 59.28"/><polygon class="cls-1" points="107.18 66.34 106.86 69.03 106.85 69.06 106.85 69.08 106.87 69.08 106.9 69.08 107.61 69.16 107.64 69.17 107.66 69.17 107.66 69.15 107.67 69.12 107.77 68.28 113.27 68.9 113.17 69.75 113.16 69.78 113.16 69.79 113.18 69.8 113.21 69.8 113.92 69.88 113.95 69.88 113.97 69.89 113.97 69.87 113.98 69.84 114.3 67.15 114.3 67.12 114.3 67.1 114.29 67.1 114.25 67.09 113.54 67.01 113.51 67.01 113.49 67.01 113.49 67.02 113.49 67.05 113.39 67.9 107.89 67.28 107.99 66.43 107.99 66.4 107.99 66.38 107.98 66.38 107.94 66.38 107.23 66.3 107.2 66.29 107.18 66.29 107.18 66.31 107.18 66.34"/><path class="cls-1" d="M301.64,260.51h0a.25.25,0,0,0,0,.07l0,.06a3.47,3.47,0,0,1,.18,1.57c0,.13,0,.25,0,.36a5.44,5.44,0,0,1-.33,1.26l-.12.29-.15.3-.15.29,0,0h0l-1.17-.11h-.05v-.1h0l.23-.24.2-.27h0l.06-.08a.22.22,0,0,1,.05-.08,4,4,0,0,0,.49-1.15,3.41,3.41,0,0,0,.1-.54h0V262a.45.45,0,0,0,0-.11,2.14,2.14,0,0,0,0-.52h0s0-.07,0-.1a.19.19,0,0,1,0-.08,1.59,1.59,0,0,0-.16-.4.8.8,0,0,0-.15-.21,1.07,1.07,0,0,0-1-.31h0l0,0h0a.49.49,0,0,0-.19.1h0l0,0,0,0a1.73,1.73,0,0,0-.15.2h0a2.86,2.86,0,0,0-.29.72h0v.05l0,.07-.06.25h0v.07l0,.06a2.68,2.68,0,0,1-.07.27l0,.09,0,.06,0,.09-.06.2h0v0h0l0,0v0a2.41,2.41,0,0,1-.78,1.21h0l-.08.06-.07.05a1.77,1.77,0,0,1-.45.18h0l-.09,0h-.1a2.31,2.31,0,0,1-.53,0h-.08l-.17,0-.06,0H296l-.11,0h0l-.16-.07-.15-.08a2,2,0,0,1-.63-.63h0l0,0,0,0-.09-.16h0l0,0h0v0a3.15,3.15,0,0,1-.25-1.63h0s0-.06,0-.1,0-.06,0-.1a5.89,5.89,0,0,1,.69-2.15v0h0l1.1.11h.05v.1h0a1.66,1.66,0,0,0-.18.19c-.05.07-.11.14-.16.22h0l-.05.07,0,.07a4.12,4.12,0,0,0-.55,1.67h0v.06c0,.05,0,.09,0,.14h0v.19h0a.49.49,0,0,1,0,.12s0,.08,0,.12a1.55,1.55,0,0,0,.18.55h0l0,.06a.21.21,0,0,1,0,.06.9.9,0,0,0,.77.38.72.72,0,0,0,.26,0h.1a.78.78,0,0,0,.2-.11h0c.38-.29.53-1.06.66-1.53v0h0l0-.15h0l0-.13,0-.1,0-.08h0l0-.09c0-.12.08-.23.11-.33h0a.42.42,0,0,0,0-.1.93.93,0,0,1,.05-.1,2.38,2.38,0,0,1,.24-.45h0l.05-.08.06-.07a1.47,1.47,0,0,1,.86-.55h0l.09,0h.09A2.09,2.09,0,0,1,301.64,260.51Z" transform="translate(-188.53 -187.91)"/><path class="cls-1" d="M294.14,267.05h0l0,0,0,0h0a1.73,1.73,0,0,0-.42.58l0,0c0,.07-.07.15-.1.23l-.39,1,2.36,1,.33-.82h0l0-.05,0-.06.09-.27h0a.43.43,0,0,0,0-.05l0-.05c0-.07,0-.15,0-.22v0h0v-.09a1.23,1.23,0,0,0-.37-1h0l0,0,0,0a1.09,1.09,0,0,0-.17-.13h0l0,0a1.12,1.12,0,0,0-1.26-.09Zm6.51-.06-.45,1.1h0l-3.42,1-.46,1.13,2.53,1.09h0v0l-.35.85v0h0l0,0L292,269.52l0,0h0v-.05l.73-1.78h0l0-.08,0-.06v0l0-.07,0-.07h0l0-.1.05-.09c.75-1.5,2.61-2,3.62-.29h0v0h0v0a2.37,2.37,0,0,1,.3,1.17l3.75-1.16.07,0h0v0Z" transform="translate(-188.53 -187.91)"/><polygon class="cls-1" points="108.92 86.76 106.72 90.74 106.7 90.77 106.69 90.79 106.68 90.78 106.65 90.76 106.65 90.76 100.58 87.21 100.58 87.21 100.56 87.2 100.54 87.19 100.55 87.18 100.56 87.15 102.77 83.17 102.78 83.14 102.79 83.12 102.81 83.13 102.83 83.15 102.83 83.15 103.55 83.57 103.58 83.58 103.59 83.59 103.58 83.6 103.57 83.63 101.83 86.77 103.41 87.69 105.15 84.56 105.16 84.53 105.17 84.52 105.19 84.52 105.21 84.54 105.93 84.96 105.96 84.97 105.97 84.98 105.96 85 105.95 85.02 104.21 88.16 106.39 89.43 108.12 86.29 108.14 86.27 108.14 86.25 108.16 86.26 108.19 86.28 108.9 86.7 108.93 86.71 108.94 86.72 108.94 86.73 108.92 86.76"/><polygon class="cls-1" points="96.22 93.41 103.44 95.51 103.44 95.51 103.46 95.52 103.47 95.52 103.47 95.51 103.49 95.5 104.23 94.52 104.25 94.5 104.26 94.49 104.25 94.48 104.24 94.46 100.09 88.35 100.07 88.32 100.06 88.3 100.04 88.32 100.02 88.35 99.41 89.14 99.4 89.16 99.39 89.17 99.4 89.17 99.41 89.19 103.01 94.42 96.82 92.58 96.8 92.57 96.79 92.57 96.78 92.58 96.77 92.59 96.2 93.34 96.2 93.34 96.17 93.38 96.16 93.39 96.18 93.4 96.22 93.41"/><polygon class="cls-1" points="95.14 94.21 93.22 96.17 93.19 96.19 93.18 96.2 93.19 96.22 93.22 96.24 93.74 96.72 93.76 96.74 93.77 96.75 93.78 96.74 93.81 96.72 94.41 96.1 98.42 99.81 97.81 100.43 97.79 100.45 97.78 100.46 97.79 100.47 97.82 100.5 98.34 100.98 98.36 101 98.37 101.01 98.38 101 98.4 100.98 100.33 99.02 100.35 98.99 100.36 98.98 100.35 98.97 100.33 98.95 99.81 98.47 99.78 98.44 99.77 98.43 99.76 98.44 99.74 98.47 99.13 99.08 95.13 95.37 95.73 94.76 95.75 94.73 95.77 94.72 95.75 94.71 95.73 94.69 95.21 94.21 95.19 94.19 95.17 94.17 95.16 94.19 95.14 94.21"/><polygon class="cls-1" points="96.19 103.06 95.29 103.77 95.28 103.78 95.27 103.79 95.26 103.79 95.24 103.78 89.09 100.95 92.7 105.77 92.72 105.8 92.73 105.81 92.72 105.82 92.69 105.84 92.02 106.38 91.99 106.4 91.98 106.41 91.97 106.39 91.95 106.37 87.78 100.81 87.77 100.78 87.76 100.77 87.77 100.76 87.79 100.74 88.92 99.84 88.94 99.83 88.94 99.83 88.95 99.83 88.97 99.84 94.57 102.42 91.28 98.03 91.26 98 91.25 97.99 91.27 97.98 91.29 97.96 91.97 97.42 92 97.4 92.01 97.39 92.02 97.41 92.04 97.43 96.2 102.99 96.22 103.02 96.23 103.03 96.22 103.04 96.19 103.06"/><path class="cls-1" d="M272.36,296.06h0v0h0l0,0,.07.12h0l0,0v0a.83.83,0,0,1,.08.12h0l.08.12a.76.76,0,0,1,.08.11,2.43,2.43,0,0,0,2.41,1.09h.07l.1,0h0l.11,0h0c2-.58,2.89-2.18,1.71-4.22l-2.07-3.58,0,0H275l-.82.45h0v0l2.1,3.63a4.65,4.65,0,0,1,.32.63,1.4,1.4,0,0,1-.14,1.42h0l0,0,0,0a1.34,1.34,0,0,1-.21.2h0l0,0a2,2,0,0,1-1.61.45l-.24-.08h0l0,0,0,0h0l-.05,0h0a2.81,2.81,0,0,1-.85-1L271.18,292v0h0l0,0-.82.45h0l0,0,2.08,3.58Z" transform="translate(-188.53 -187.91)"/><polygon class="cls-1" points="76.25 113.84 78.92 113.05 78.94 113.04 78.96 113.04 78.96 113.02 78.95 112.99 78.73 112.32 78.72 112.29 78.72 112.28 78.7 112.28 78.68 112.29 77.83 112.54 76.2 107.4 77.04 107.15 77.07 107.14 77.09 107.14 77.08 107.12 77.08 107.09 76.86 106.42 76.85 106.39 76.85 106.38 76.83 106.38 76.8 106.39 74.14 107.19 74.11 107.19 74.09 107.2 74.09 107.22 74.1 107.25 74.32 107.92 74.33 107.94 74.33 107.96 74.35 107.95 74.38 107.95 75.22 107.7 76.85 112.83 76.01 113.08 75.98 113.09 75.96 113.1 75.97 113.11 75.98 113.14 76.19 113.81 76.19 113.81 76.2 113.84 76.2 113.86 76.22 113.85 76.25 113.84"/><polygon class="cls-1" points="73.88 114.46 68.44 115.37 68.41 115.37 68.39 115.38 68.39 115.36 68.38 115.33 68.25 114.49 68.25 114.48 68.25 114.47 68.25 114.47 68.26 114.46 71.67 108.68 67.66 109.35 67.63 109.36 67.61 109.36 67.61 109.35 67.61 109.31 67.48 108.51 67.47 108.48 67.47 108.47 67.49 108.46 67.52 108.46 72.7 107.59 72.73 107.59 72.74 107.58 72.75 107.6 72.75 107.63 72.88 108.45 72.88 108.46 72.88 108.47 72.88 108.47 72.87 108.48 72.87 108.48 69.42 114.28 73.74 113.56 73.77 113.56 73.78 113.56 73.78 113.57 73.79 113.6 73.92 114.41 73.92 114.44 73.92 114.45 73.91 114.46 73.88 114.46"/><polygon class="cls-1" points="65.94 115.44 64.78 115.43 64.76 115.43 64.75 115.43 64.75 115.42 64.74 115.4 61.56 109.38 61.48 115.34 61.47 115.37 61.47 115.38 61.46 115.38 61.43 115.38 60.55 115.37 60.52 115.37 60.5 115.37 60.5 115.35 60.5 115.32 60.6 108.45 60.6 108.42 60.61 108.41 60.62 108.41 60.65 108.41 62.11 108.43 62.13 108.43 62.14 108.43 62.14 108.44 62.15 108.45 65.04 113.94 65.12 108.52 65.12 108.49 65.12 108.47 65.14 108.47 65.17 108.47 66.05 108.48 66.08 108.48 66.1 108.48 66.1 108.5 66.09 108.53 65.99 115.4 65.99 115.43 65.99 115.45 65.97 115.45 65.94 115.44"/><path class="cls-1" d="M243.57,299.91l1.62-3,.71,3.32-2.33-.33Zm-2.44,2.48,1,.14h0v0l1-1.77,3,.41.4,2v0h0l.94.13h.07v-.07L246,296.07v0h0l-1.24-.17h0v0h0l-3.54,6.44,0,0v0h.06Z" transform="translate(-188.53 -187.91)"/><polygon class="cls-1" points="47.9 113.36 50.6 114.08 50.63 114.08 50.64 114.09 50.65 114.07 50.65 114.04 50.84 113.37 50.85 113.33 50.86 113.32 50.84 113.32 50.81 113.31 49.96 113.08 51.42 107.9 52.27 108.13 52.3 108.14 52.31 108.14 52.31 108.13 52.32 108.09 52.51 107.42 52.52 107.39 52.52 107.37 52.51 107.37 52.48 107.36 49.78 106.64 49.75 106.63 49.74 106.63 49.73 106.64 49.73 106.67 49.54 107.35 49.53 107.38 49.52 107.4 49.54 107.4 49.57 107.41 50.42 107.64 48.96 112.82 48.12 112.59 48.09 112.58 48.07 112.58 48.07 112.59 48.06 112.62 47.87 113.3 47.87 113.3 47.86 113.33 47.86 113.34 47.87 113.35 47.9 113.36"/><path class="cls-1" d="M219.19,290.64h0l0,0,0,0-.1.12h0l0,0v0a.47.47,0,0,0-.09.12h0l-.09.11a.44.44,0,0,1-.08.11,4.75,4.75,0,0,0-.32.57h0v0h0v0h0l0,.1h0V292h0l0,.1h0l0,.11a.36.36,0,0,0,0,.11,2.78,2.78,0,0,0,1.58,2.71h0l.07,0,.07,0a2.36,2.36,0,0,0,1.89.19h0l.08,0,.07,0a4,4,0,0,0,1.37-1.1l2.73-3.13,0,0h0v0l0,0-.72-.59,0,0h0v0l0,0-2.76,3.17h0s0,0-.05.05l0,.06-.24.25h0l-.14.13-.14.11h0l0,0,0,0a1.56,1.56,0,0,1-.78.27H221a2.21,2.21,0,0,1-1.6-1.12h0l0,0,0,0a1.39,1.39,0,0,1,.11-1.19l.09-.16.11-.17h0l0,0,0-.05a2.47,2.47,0,0,1,.21-.27l2.77-3.18,0,0h0l0,0-.72-.59,0,0h0l0,0h0Z" transform="translate(-188.53 -187.91)"/><polygon class="cls-1" points="26.65 92.19 26.1 91.45 26.08 91.42 26.07 91.41 26.06 91.42 26.03 91.44 23.26 93.38 21.25 90.68 24.02 88.74 24.05 88.72 24.06 88.71 24.05 88.7 24.03 88.67 23.48 87.93 23.46 87.91 23.45 87.89 23.44 87.9 23.42 87.92 17.68 91.94 17.65 91.96 17.64 91.97 17.65 91.99 17.67 92.01 18.22 92.75 18.24 92.78 18.25 92.79 18.26 92.78 18.29 92.76 20.5 91.21 22.51 93.91 20.3 95.46 20.27 95.48 20.26 95.49 20.27 95.5 20.29 95.53 20.84 96.27 20.84 96.27 20.86 96.3 20.86 96.31 20.88 96.3 20.9 96.28 26.64 92.26 26.66 92.24 26.68 92.23 26.67 92.22 26.65 92.19"/><polygon class="cls-1" points="16.24 89.83 13.84 85 13.82 84.97 13.81 84.96 13.83 84.95 13.86 84.94 14.62 84.53 14.63 84.53 14.64 84.52 14.64 84.52 14.65 84.53 21.16 85.81 19.39 82.24 19.37 82.22 19.37 82.2 19.38 82.19 19.41 82.18 20.14 81.79 20.14 81.79 20.17 81.78 20.18 81.77 20.19 81.78 20.21 81.81 22.5 86.41 22.51 86.43 22.52 86.45 22.5 86.45 22.48 86.47 21.73 86.86 21.72 86.87 21.71 86.87 21.71 86.87 21.7 86.87 15.15 85.56 17.06 89.39 17.07 89.42 17.08 89.44 17.07 89.44 17.04 89.46 16.3 89.84 16.28 89.86 16.26 89.87 16.25 89.85 16.24 89.83"/><path class="cls-1" d="M200.71,269.1a4.67,4.67,0,0,1-.55-2.74h0v-.05a.78.78,0,0,0,0-.14h0v-.06h0c.53-2.85,5.1-3.83,6.69-1.38a4.1,4.1,0,0,1,.58,1.46h0l0,.08s0,.06,0,.08a3.18,3.18,0,0,1,.06.43h0s0,.06,0,.09a.28.28,0,0,0,0,.09h0a6.51,6.51,0,0,1-.2,1.86v0h0l-1.09.26h0v-.05l0-.08h0l0-.09a5.3,5.3,0,0,0,.34-1,3.87,3.87,0,0,0,0-1.66h0a2.23,2.23,0,0,0-2-1.85h-.34c-1.34,0-2.87.71-3.12,2.18h0s0,.09,0,.14a3.23,3.23,0,0,0,.14,1.27l0,.08a4.44,4.44,0,0,0,.52,1.1l1.61-.38L203,267h0v0H203l.8-.19h.05v0l.57,2.7v0h0l-2.95.69h0A8.28,8.28,0,0,1,200.71,269.1Z" transform="translate(-188.53 -187.91)"/><polygon class="cls-1" points="9.92 74.05 9.73 72.94 9.73 72.94 9.73 72.92 9.73 72.91 9.73 72.9 9.75 72.89 9.75 72.89 15.28 68.69 9.24 69.76 9.21 69.77 9.2 69.77 9.19 69.75 9.19 69.72 9.05 68.88 9.04 68.85 9.04 68.84 9.05 68.83 9.09 68.83 16.05 67.59 16.08 67.59 16.09 67.58 16.1 67.6 16.1 67.63 16.34 69.03 16.34 69.05 16.34 69.06 16.33 69.06 16.32 69.07 11.29 72.89 16.78 71.92 16.81 71.92 16.82 71.91 16.83 71.93 16.83 71.96 16.98 72.8 16.98 72.83 16.98 72.85 16.97 72.85 16.94 72.86 9.97 74.09 9.94 74.1 9.93 74.1 9.93 74.08 9.92 74.05"/><path class="cls-1" d="M200.24,252.44l3.23-1.26-3.32-1,.09,2.28Zm-2.8,2.1,0-1v0h0l1.92-.73-.11-2.91-2-.58h0v0l0-.92v-.07h.07l7.16,2.23h0v0l0,1.22v0h0l-7,2.76,0,0h0v-.07Z" transform="translate(-188.53 -187.91)"/><polygon class="cls-1" points="16.05 58.86 16.17 57.95 16.17 57.92 16.17 57.9 16.16 57.9 16.13 57.9 12.74 57.49 13.17 54.18 16.55 54.59 16.59 54.59 16.6 54.6 16.6 54.58 16.61 54.55 16.73 53.64 16.73 53.61 16.73 53.6 16.72 53.59 16.68 53.59 16.68 53.59 9.67 52.74 9.63 52.73 9.62 52.73 9.62 52.75 9.61 52.78 9.5 53.69 9.49 53.72 9.49 53.73 9.51 53.73 9.54 53.74 12.24 54.07 11.81 57.37 9.11 57.05 9.08 57.04 9.06 57.04 9.06 57.05 9.05 57.09 8.94 57.99 8.93 58.02 8.93 58.04 8.95 58.04 8.98 58.05 16 58.9 16.03 58.9 16.04 58.9 16.04 58.89 16.05 58.86"/><path class="cls-1" d="M300.49,222.94c-.14.13-.2.11-.37.19a4,4,0,0,1-.53.25c-.16,0-.33.06-.5.09-.42.09-.54.38-.51.77a1,1,0,0,1-.18.74,1.81,1.81,0,0,1-.91.44l-.45.06c-.44.08-.34.14-.1.39a3.63,3.63,0,0,1,.59.66c.18.34,0,.59-.32.7-.66.2-1.58-.31-2.23-.37a3.69,3.69,0,0,1-.92-.25c-.16-.06-.21-.1-.36-.16-.34-.14-.37,0-.31.28a1.1,1.1,0,0,1-.28.62c-.12.12-.27.17-.36.26-.45.44.15.75.44,1s.36.53.11.76a1,1,0,0,1-.94.08c-.25-.11-.5-.19-.76-.29a.64.64,0,0,0-.89.45.85.85,0,0,1-.59.56,1.18,1.18,0,0,1-.49.08.86.86,0,0,1-.29,0,2.7,2.7,0,0,1-1.06-.64,1.69,1.69,0,0,1-.45-.72c0-.17,0-1-.05-1.08a7.71,7.71,0,0,0,0-.82c0-.35.25-.42.53-.44a2.92,2.92,0,0,1,1.14,0c.21.06.48.14.64.2.33.14,1,.49,1.33.17a1.9,1.9,0,0,0,.23-.45c.08-.26.17-.43.42-.48a5.36,5.36,0,0,1,1-.12h.24a6,6,0,0,1,1.42.38,12.12,12.12,0,0,0,1.17.32,1.9,1.9,0,0,0,.48,0c.41-.06.16-.29,0-.44a5.18,5.18,0,0,0-.89-.57c-.54-.29-1-.7-1.53-1a7.11,7.11,0,0,1-.61-.39,8.59,8.59,0,0,1-1-.84c-.29-.29-.51-.43-.75-.67l-.16-.18,0,0,0,0c.12-.09.56.12.77.16a1.65,1.65,0,0,1,.44.16,2.2,2.2,0,0,1,.3.19l.16.11c.32.16.54.34.87.51.57.29,1.16,1.08,1.81,1.18a6.18,6.18,0,0,0,.67,0,2.84,2.84,0,0,0,.5-.06c.25-.07.79-.62.7-.92,0-.07,0-.2-.07-.3s-.11-.21-.31-.25a5,5,0,0,0-.77.06,7,7,0,0,1-1.06,0,.76.76,0,0,1-.34,0,.9.9,0,0,1-.22-.11.55.55,0,0,1-.32-.54,1.81,1.81,0,0,1,.42-.75,1.37,1.37,0,0,1,.17-.19l.06-.06a1.4,1.4,0,0,0,.34-.58c.1-.21.2-.07.34.05a1.25,1.25,0,0,1,.46.71,2.17,2.17,0,0,1-.05.62.29.29,0,0,0,.17.35,1.87,1.87,0,0,0,.73.06,3.48,3.48,0,0,0,.86-.21l.57-.13c.36-.1.62-.28.94-.39a1.12,1.12,0,0,1,.49,0A.56.56,0,0,1,300.49,222.94Z" transform="translate(-188.53 -187.91)"/><path class="cls-1" d="M287.47,222.64A1,1,0,0,1,288,222a3,3,0,0,1,.48-.21,4.49,4.49,0,0,1,.86-.33l.15,0c.28-.1.24-.14.36,0a.45.45,0,0,0,0,.08,1.5,1.5,0,0,1,.05.26.91.91,0,0,1,0,.32,3.77,3.77,0,0,1-.2.63,6.68,6.68,0,0,1-.39.81c-.14.24-.42.2-.66.19a1,1,0,0,1-.6-.18c-.16-.17-.28-.26-.45-.43A.52.52,0,0,1,287.47,222.64Z" transform="translate(-188.53 -187.91)"/><path class="cls-1" d="M291.8,221.52a.71.71,0,0,1,.25-.49,3.47,3.47,0,0,1,.47-.39,3.77,3.77,0,0,1,.57-.38l.23-.14.33-.21c.33-.23.51-.43.63.14a2.07,2.07,0,0,1,0,.55,2.42,2.42,0,0,1-.06.48,1.38,1.38,0,0,1-.24.55,1.44,1.44,0,0,1-1.72.54A1.23,1.23,0,0,1,291.8,221.52Z" transform="translate(-188.53 -187.91)"/><path class="cls-1" d="M283.62,218.19c.08-.18.24-.2.26-.4s.09-.26.11-.39,0-.21.05-.32a2.81,2.81,0,0,0,.1-.31,1.08,1.08,0,0,0,0-.4.13.13,0,0,1,0-.09c-.05,0,0-.25.07-.28s.1,0,.21,0a1.1,1.1,0,0,1,.4.45c.11.19.24.39.37.58a1.15,1.15,0,0,1,.18.48,3,3,0,0,1,.05.56.68.68,0,0,1-.36.66.76.76,0,0,1-.18.06,1.35,1.35,0,0,1-.78-.19,3.26,3.26,0,0,1-.4-.24A.17.17,0,0,1,283.62,218.19Z" transform="translate(-188.53 -187.91)"/><path class="cls-1" d="M278.52,214.63c0-.07-.08-.14.09-.28a2.06,2.06,0,0,1,.65-.35,5.69,5.69,0,0,0,1.15-.22.75.75,0,0,0,.18-.08,4.36,4.36,0,0,1,.74-.39c.24-.1.44-.2.69-.28a.3.3,0,0,0,.22-.35c0-.11-.07-.14-.14-.21a.72.72,0,0,1-.16-.34,1.88,1.88,0,0,0-.14-.42.2.2,0,0,1,0-.27.11.11,0,0,1,.15,0c.13.08.28.09.41.18a4.8,4.8,0,0,0,.67.23c.24.11.18,0,.49,0s.54.09.74-.21c.09-.13.32-.19.44-.33s.46-.43.68-.66.57-.41.57-.47l.08-.12c.09-.12.06-.18.08-.33s0-.12.06-.18a.42.42,0,0,1,.61.13c.11.15.25.23.34.4a1.15,1.15,0,0,1,.1.35c.06.4-.06.35-.26.7-.06.09-.11.2-.19.31s-.39.39-.38.66c.29.19.6.15.88.45.13.13.31.17.45.34a1.59,1.59,0,0,0,.39.34.63.63,0,0,1,.26.48c0,.31,0,.51-.19.64s-.16,0-.25.08a6.8,6.8,0,0,1-1.21-.12c-.21,0-.39-.13-.59-.16a5.62,5.62,0,0,0-1.65-.21,2.53,2.53,0,0,0-.8.23c-.17.11-.23.25-.44.32a10.74,10.74,0,0,1-1.13.22c-.49.12-1,.09-1.44.18s-.48,0-.82,0a1.35,1.35,0,0,1-.45,0,2.3,2.3,0,0,1-.79-.18A.36.36,0,0,1,278.52,214.63Z" transform="translate(-188.53 -187.91)"/><path class="cls-1" d="M273.62,211.4a1.66,1.66,0,0,0-.22-.3.83.83,0,0,1-.17-.26,1.72,1.72,0,0,1-.07-.21,1.24,1.24,0,0,0-.12-.32c0-.1-.11-.24-.23-.25h-.23a.65.65,0,0,1-.28,0l-.11-.05a.07.07,0,0,0-.08,0,.25.25,0,0,1-.12,0l-.08-.08s-.08-.1-.07-.1a.76.76,0,0,1-.11-.33c0-.06.09-.06.16-.07s.14,0,.22,0l.05,0c.16-.11.23-.12.33-.33s.09-.21.16-.23h.09l.38.09a.69.69,0,0,0,.49,0,2.3,2.3,0,0,0,1.06-.52c.11-.1.19-.13.26-.28s-.12-.49-.16-.72a2.83,2.83,0,0,0-.32-.87,2.91,2.91,0,0,1-.13-.47c-.05-.2,0-.3-.18-.36a2.41,2.41,0,0,0-.78.13l-.2.08-.36.12c-.3.09-.6.14-.9.22a3.49,3.49,0,0,0-.57.2.66.66,0,0,0-.31.25c-.1.14-.15.31-.24.45s-.19.38-.28.55a3.54,3.54,0,0,1-.82.9,2.21,2.21,0,0,1-.79.48.69.69,0,0,0-.27.16c-.15.1-.27,0-.41,0l-.17-.05c-.11,0-.29-.14-.23-.28l.08-.09a.37.37,0,0,1,.32-.1.25.25,0,0,0,.12,0,3.9,3.9,0,0,0,.61-.48,1.66,1.66,0,0,0,.46-.59c.06-.12.4-.51.37-.67s-.12-.06-.17,0a.59.59,0,0,1-.13.05,2.66,2.66,0,0,0-.39.07,1.66,1.66,0,0,1-.29.1.63.63,0,0,0-.36.16l-.11.08a.33.33,0,0,1-.29,0c-.13-.06-.19,0-.26-.07l-.07,0c-.08,0-.16-.08-.12-.16a.4.4,0,0,1,.17-.14,1.45,1.45,0,0,0,.26-.17,2.88,2.88,0,0,1,.38-.22c.17-.08.33-.1.49-.17s.13-.09.28-.08a3.18,3.18,0,0,0,.62-.2l.09-.06A.33.33,0,0,1,270,206c.15-.05.32-.38.39-.51l0-.07a1.38,1.38,0,0,0,.17-.52c0-.06-.06-.09-.13-.12-.23-.09-.47-.16-.67-.25s-.32-.05-.47-.48l0-.16c-.05-.15-.08-.18,0-.33a.2.2,0,0,1,.12-.08c.14,0,.31-.1.44,0a3.25,3.25,0,0,0,.77.07l.52-.07c.12-.06.12-.22.19-.36s.19-.55.31-.62.16-.05.22-.18.17-.1.26-.06.24.11.23.31a.71.71,0,0,0,0,.29c0,.11.1.14.22.09a1.2,1.2,0,0,1,.62-.08c.14,0,.12.09.1.21a1.82,1.82,0,0,1-.26.74.49.49,0,0,1-.15.13.22.22,0,0,0-.12.11c0,.09-.13.09-.21.14s-.27.11-.39.17a.91.91,0,0,0-.35.35l-.15.32a1.44,1.44,0,0,0-.12.32c0,.22.1.17.21.14.28-.09.63-.12.93-.19l.82-.19a1.13,1.13,0,0,0,.46-.17,1.79,1.79,0,0,0,.47-.48,1.58,1.58,0,0,0,.28-.51.85.85,0,0,1,.24-.38,4,4,0,0,1,.35-.37,4.23,4.23,0,0,0,.53-.51,1.76,1.76,0,0,1,.28-.26.85.85,0,0,1,.51-.2.3.3,0,0,1,.19,0,1.22,1.22,0,0,0,.59.24c.11,0,.17,0,.28,0,.29,0,.49,0,.42.35,0,.09-.06.08-.1.16a.75.75,0,0,1-.24.32,1.05,1.05,0,0,0-.29.34,2.89,2.89,0,0,1-.94.9,4.23,4.23,0,0,0-.48.23,3.38,3.38,0,0,0-.27.26l-.12.1c-.08.07-.27.13-.31.22a.41.41,0,0,0,0,.09.75.75,0,0,0,0,.55,5,5,0,0,0,.31.72,3.54,3.54,0,0,1,.37,1.45,1.54,1.54,0,0,1-.61,1,3.71,3.71,0,0,1-.57.43c-.33.31,0,.59.28.81a.9.9,0,0,1,.29.38.44.44,0,0,1,0,.43,2.36,2.36,0,0,1-.31.49.81.81,0,0,1-.3.17.32.32,0,0,0-.21.15.36.36,0,0,1-.29.13c-.09,0-.1,0-.15-.11s-.17-.16-.23-.24Z" transform="translate(-188.53 -187.91)"/><path class="cls-1" d="M260.19,208s0-.08,0-.16a.5.5,0,0,1,0-.21c0-.15.11-.29.14-.44.08-.3.21-.58.28-.88.13-.48.27-.89.37-1.35s.14-.75.24-1.18.09-.59.15-.92c0-.16.08-.3-.08-.34a.44.44,0,0,0-.39.09c-.31.17-.61.34-.91.53a1.6,1.6,0,0,1-1.1.13c-.14,0-.2-.31-.24-.44-.13-.39.27-1,.44-1.4a5.55,5.55,0,0,0,.45-1c.05-.17.13-.27.06-.48s-.11-.15-.16-.21c-.18-.21,0-.58,0-.81a3.56,3.56,0,0,1,.25-.61,5,5,0,0,0,.39-.81,4.27,4.27,0,0,0,0-.62c0-.13.15-.24.26-.32a1.28,1.28,0,0,1,.9-.11c.18,0,.24.09.32.29.16.42-.23.65-.34,1a2.4,2.4,0,0,1-.21.38,2.73,2.73,0,0,1-.33.58.58.58,0,0,0-.14.24c0,.18-.12.18,0,.35s.19.11.25.23a1.36,1.36,0,0,1,0,.75,2.32,2.32,0,0,1-.42.73.89.89,0,0,0-.19.39c0,.36.83,0,.95,0,.46-.08.57-.24.64-.47s.05-.34.11-.55.15-.59.23-.94.15-.56.24-.93c0-.22.09-.38.16-.65s.19-.39.25-.64.17-.25.21-.44a.31.31,0,0,1,.26-.26c.09,0,.13,0,.2,0a.58.58,0,0,0,.19,0c.15-.07.14-.1.24-.09s.09.09.12.17a.25.25,0,0,1,0,.19c-.05.2-.08.38-.11.56s0,.14-.05.21-.07.39-.13.62c-.14.57-.17,1.17-.31,1.73,0,.17-.09.34-.13.52s0,.31.2.32.52-.24.67-.35a.75.75,0,0,0,.25-.5,1.71,1.71,0,0,1,0-.25c0-.09,0-.2.11-.25s.13-.24.28,0a1.19,1.19,0,0,1,.08.2,3.89,3.89,0,0,1,.11.9c.05.62-.49.73-.9,1a8.84,8.84,0,0,0-.85.48.69.69,0,0,0-.11.13,8.26,8.26,0,0,0-.76,2.58c-.08.34-.19.76-.28,1.1a.58.58,0,0,1-.08.22c-.12.14-.18.29-.29.44a5.05,5.05,0,0,0-.25.45l-.15.19a5.54,5.54,0,0,0-.3.53c-.08.16-.18.57-.42.51l-.07,0c-.05,0-.06,0-.11.05S260.27,208.05,260.19,208Z" transform="translate(-188.53 -187.91)"/><path class="cls-1" d="M255.38,204.56a1,1,0,0,1,0-.72c0-.16,0-.34-.2-.29a1,1,0,0,0-.31.16c-.23.16-.93.26-.81-.22a1.61,1.61,0,0,1,.35-.51c.33-.32.54-.78.85-1.12a1.62,1.62,0,0,0,.38-.51c.06-.18.19-.27.23-.44s-.21-.12-.3-.09c-.37.12-.73.18-1.11.28a2.27,2.27,0,0,1-.82.13c-.23,0-.41.09-.62,0s-.44-.23-.46-.41.38-.34.62-.4.37-.16.54-.19a4.08,4.08,0,0,0,.77-.17c.35-.12.75-.15,1.11-.27s.69-.22.78-.46a.77.77,0,0,1,.26-.38.89.89,0,0,1,.26-.1c.32.09.7-.32,1-.35.12,0,.25-.1.37-.06s.29,0,.28.17a1,1,0,0,1-.06.33,1.81,1.81,0,0,1-.53.75c-.25.26-.53.36-.63.75-.05.17,0,.27-.08.42-.09.35-.27.55-.34.85-.2.79-.34,1.6-.54,2.39,0,.22-.14.61-.37.69S255.49,204.86,255.38,204.56Z" transform="translate(-188.53 -187.91)"/><path class="cls-1" d="M256.73,197.13a.78.78,0,0,0,0-.5c0-.17-.11-.16-.08-.33a.3.3,0,0,1,.12-.21.61.61,0,0,1,.26,0h.1l.1,0c.36-.09.32-.26.7-.08l.13.05c.5.2.44.43.43.81a.64.64,0,0,1-.1.36l-.06.06a.38.38,0,0,1-.33,0,.61.61,0,0,0-.47.07,1.13,1.13,0,0,1-.7.1C256.64,197.38,256.69,197.3,256.73,197.13Z" transform="translate(-188.53 -187.91)"/><path class="cls-1" d="M243.15,205.43s0-.06,0-.08a2.11,2.11,0,0,0,1.34-.59,3,3,0,0,0,.8-1.15,3,3,0,0,1,.25-.43V203c-.1-.33-.63-.4-.91-.4s-.69,0-.94,0a7.29,7.29,0,0,1-.89-.2c-.12,0-.24-.08-.24-.14s0-.12.11-.18.26-.16.42-.25l.31-.19a3.84,3.84,0,0,1,.85-.48,2.64,2.64,0,0,0,.5-.15,1.38,1.38,0,0,0,.41-.39c.27-.38.15-.34,0-.71a2.64,2.64,0,0,1-.12-1c0-.5-.25-.49-.62-.5l-.92,0v0a.39.39,0,0,1-.27-.17,1.15,1.15,0,0,1-.22-.81.63.63,0,0,1,.65-.64l.83.06c.21,0,.36-.09.58-.08a1.13,1.13,0,0,0,.46-.15.8.8,0,0,1,1.23.44,2.25,2.25,0,0,1,.08.24,1,1,0,0,1,0,.66,3.7,3.7,0,0,0-.15,1.1,2,2,0,0,0,.18,1.1c.14.16.52.18.86.18a1.25,1.25,0,0,1,1,.28.85.85,0,0,1-.3,1.59,1.84,1.84,0,0,0-1,.46c-.14.15-.17.61-.2.61a2.36,2.36,0,0,1-.56,1.48c-.66.84-2,.8-3,.78C243.45,205.52,243.15,205.5,243.15,205.43Z" transform="translate(-188.53 -187.91)"/><path class="cls-1" d="M235.44,209.13a1.84,1.84,0,0,1-1-.71,1.18,1.18,0,0,0-.27-.32.59.59,0,0,0-.81.06.54.54,0,0,1-.17.17,1.28,1.28,0,0,1-.51.18c-.6.09-1-.51-1.3-.93a3.3,3.3,0,0,1-.69-1.22.42.42,0,0,1,.1-.33c.09-.1,0-.18.08-.28s.22-.23.27-.32a.36.36,0,0,1,.37-.17c.18,0,.36.18.42.16a.85.85,0,0,1,.17.44,1.33,1.33,0,0,0,.37.77.86.86,0,0,1,.33.34c.06,0,.15.1.22.22s.28.42.49.1c0,0,.07-.16.12-.25s.1-.07,0-.3-.07-.24-.11-.23-.2-.14-.31-.17a.16.16,0,0,1-.1-.12c-.05-.22.11-.23.09-.42a2.28,2.28,0,0,1,.06-.39.28.28,0,0,0-.1-.3c-.1-.1-.13-.13-.25,0a.77.77,0,0,1-.29.1c-.13,0-.26,0-.28-.08s0-.06,0-.09l.25-.3a2.91,2.91,0,0,1,.93-.62l.54-.16a3.37,3.37,0,0,1,2.32.12.29.29,0,0,1,.19.31,1.23,1.23,0,0,1-.19.44,4.42,4.42,0,0,0-.52,1.07c-.09.2-.27.47-.36.68a3.13,3.13,0,0,0-.31.64c0,.16,0,.3,0,.44s0,.14,0,.24c0,.3.53.35.75.33s.4-.31.63-.43a2.08,2.08,0,0,1,.9-.29c.27,0,.27.27.29.45s-.07.19-.1.29,0,.12-.16.23a4.18,4.18,0,0,0-.42.41.92.92,0,0,1-.45.33,1.76,1.76,0,0,1-1.28-.06Zm-5.68-4.19c.11.06.19,0,.32,0s.21-.16.27-.24a1.37,1.37,0,0,0,.17-.68c0-.09.08-.25.11-.37a1.39,1.39,0,0,1,.06-.19,5.55,5.55,0,0,1,.92-1.31c.14-.16.22-.39.4-.52,0,0,.37-.07.29,0a2,2,0,0,1,.15.59.64.64,0,0,1,0,.39c-.06.11-.37.34-.36.48s.06.11.14.09.05,0,.09,0,0-.1.15-.12h.1c0,.06.06,0,0,.13a.48.48,0,0,0,0,.42c.14,0,.13.07.31,0l.29-.08c.17,0,.18-.16.18-.34s0-.12,0-.19.38-.15.51-.18a.24.24,0,0,1,.25.06c.09.1,0,.19,0,.27s0,.23.08.21h.11c.16,0,.25-.18.39-.25a1.36,1.36,0,0,1,.27-.14.25.25,0,0,0,.14-.27,2,2,0,0,1-.1-.32c-.13-.16-.39-.18-.44-.22a1.89,1.89,0,0,1-1.05-.23.57.57,0,0,1-.22-.44c0-.22-.12-.63,0-.8a.93.93,0,0,1,.33-.21,11.75,11.75,0,0,1,2.16-.6c.13,0,.36-.09.4.17s.09.13.16.11.29,0,.3,0,.22-.24.22-.31.06-.36,0-.39-.23-.26-.34-.31A1,1,0,0,0,236,199c-.13,0-.14,0-.27,0a3.78,3.78,0,0,0-1.56.48,1,1,0,0,1-.27.17,2.3,2.3,0,0,1-.9.08c-.14,0-.16-.23-.19-.36s0-.13-.05-.2c-.06-.29.21-.62.43-.78a1.52,1.52,0,0,0,.42-.42c.17-.28.19-1-.25-1a.12.12,0,0,1-.07,0,.36.36,0,0,0-.13-.11,1,1,0,0,0-.78,0l-.23.1c-.25.11-.4.37-.76.53l-.13.05c-.07,0-.36.28-.36.34a.43.43,0,0,1-.23.18c0,.09-.11.16,0,.22s.33.14.52.27.58.17.64.44.18.61.23.94a.68.68,0,0,1-.23.7,4.46,4.46,0,0,0-.49.57,1.53,1.53,0,0,1-.41.24c-.24.17-.39.43-.67.48s-.23-.23-.34-.34a1.9,1.9,0,0,1-.37-.86c.07,0-.12-.24-.15-.28s-.16-.09-.2,0-.05.11-.06.2a1.09,1.09,0,0,1,0,.26c-.08.33-.13.63-.19,1a9.22,9.22,0,0,0-.19,1.57,4.35,4.35,0,0,0,.14,1.12h0c.12.31.61.37.88.49Zm4.52.13a1,1,0,0,0,.45-.14c.08-.07.09-.16,0-.22l-.46.11c-.05,0-.09.07-.09.08l0,.16S234.24,205.07,234.28,205.07Z" transform="translate(-188.53 -187.91)"/><path class="cls-1" d="M224.5,212.13a3.22,3.22,0,0,1-1.37.42c-.1,0-.19-.11,0-.23l.24-.21c.16-.14.22-.23.38-.36a.65.65,0,0,0,.24-.35c0-.07,0-.15,0-.3a1.4,1.4,0,0,0-.35-1,4.75,4.75,0,0,0-1.44-1.64,4,4,0,0,1-.33-.24c-.18-.15-.15-.19-.38-.25s-.19,0-.18.2a4.54,4.54,0,0,1-.2.89,3.29,3.29,0,0,0-.05,1.17,8.75,8.75,0,0,1,.09,1,.77.77,0,0,1-.26.46c-.27.23-.3.25-.58.2l-.51-.07a2.87,2.87,0,0,0-.46.07c-.27.07-.61.22-.68.48a.28.28,0,0,0,0,.09,1.61,1.61,0,0,0,.27.54,2.76,2.76,0,0,1,.49,1.17c0,.17,0,.33,0,.47a2.57,2.57,0,0,1,.05.79c-.05.4-.17.46-.39.72s-.54.08-.71-.07a.9.9,0,0,1-.19-.23,4.2,4.2,0,0,1-.17-.5c-.18-.47-.39-.91-.57-1.38a7.61,7.61,0,0,0-.88-1.44c-.18-.26-.31-.49-.49-.74s-.68-.39-.3-.72l.1-.09s.14,0,.24,0a1.31,1.31,0,0,1,.86.08c.19.07.26.21.43.27.35.13.45-.22.58-.5A1.43,1.43,0,0,0,218,210a3.22,3.22,0,0,1,0-.69,1.43,1.43,0,0,1,.54-.78c.14-.12.34-.42.54-.34a1.32,1.32,0,0,1,.56.49c.18.28.27.84.47,1.06s.27,0,.22-.23a1.66,1.66,0,0,1-.08-.58c0-.23,0-.45,0-.67a2.3,2.3,0,0,0,0-.28,7.31,7.31,0,0,1,.15-1.75,2.68,2.68,0,0,1,.26-.93,1.23,1.23,0,0,1,.59-.13c.35.06.25.12.58.38a3.32,3.32,0,0,1,.28.24,7.45,7.45,0,0,1,.79.71,13.8,13.8,0,0,1,1.32,1.56c.24.34.28.52.52.85s.51.95.77,1.34a.71.71,0,0,1,.13.76A2.1,2.1,0,0,1,224.5,212.13Z" transform="translate(-188.53 -187.91)"/><path class="cls-1" d="M216.28,215.78l-.08,0a.7.7,0,0,1-.32.06l-.17,0c-.22.05-.29,0-.45,0a.46.46,0,0,1-.32-.17s0,0-.05-.06a1.24,1.24,0,0,1-.15-.52c0-.09.08-.17.07-.26,0-.44.42-.93,1.37-.86a.63.63,0,0,1,.33.15s.22.18.31.21.11.08.26.06h.07c.07,0,.08,0,.13.05s.06.12,0,.18l-.12.11a3.27,3.27,0,0,0-.32.5,2.23,2.23,0,0,1-.24.36A1.58,1.58,0,0,1,216.28,215.78Z" transform="translate(-188.53 -187.91)"/><path class="cls-1" d="M211,228.83a6,6,0,0,1-.53-.59,4.3,4.3,0,0,0-.52-.69l0,0c-.11-.16-.28-.18-.39-.24l-.08.09a1.74,1.74,0,0,1,0,.51.89.89,0,0,0,0,.22c0,.17.18.57,0,.72.05,0-.11.25-.16.3l-.19.21,0,0c-.09.1-.52-.07-.6-.15s-.16-.12-.14-.19,0-.08-.05-.16-.07-.26-.08-.4a4.52,4.52,0,0,0,0-.52c0-.23-.12-.26-.09-.54s-.14-.44-.16-.67a7.09,7.09,0,0,0-.25-1,1.69,1.69,0,0,1-.09-.46c-.13-.12-.35-.62-.4-.37a.87.87,0,0,0-.27.41c0,.08-.06.21-.08.32s0,.28-.05.43,0,.35,0,.53,0,.41,0,.47.06.25.05.31a1.4,1.4,0,0,1-.21.7c-.14.17-.21.31-.31.45a1.93,1.93,0,0,1-.39.42,2.05,2.05,0,0,1-.4.19c-.34.12-.34-.28-.33-.48s0-.26,0-.42.05-.56.05-.66a3.88,3.88,0,0,1,.1-.9c.07-.19.06-.54.13-.74a3.71,3.71,0,0,0,.14-.81,5.49,5.49,0,0,0,.06-1.57c0-.28-.25-.41-.46-.6s-.33-.39-.56-.61a3.63,3.63,0,0,1-.44-.56,7.67,7.67,0,0,0-.73-.89s-.29-.27-.32-.23c-.21-.19-.44-.36-.42-.68,0-.12,0-.28,0-.4a.56.56,0,0,1,0-.15c.15-.48.44-.28.56-.41,0,0,.08,0,.14,0a.48.48,0,0,1,.4.19c.31.29.59.5.92.81s.3.36.49.55a1.16,1.16,0,0,0,.55.35c.15,0,.21,0,.27,0a2.67,2.67,0,0,1,.78.63c.28.31.51.63.77.94a17.73,17.73,0,0,0,1.57,2l0,0a14.71,14.71,0,0,1,1.13,1.23c.27.29.51.59.79.89s.59.66.92,1c0,0,.07.11.16.19s.44.27.51.53-.07.41-.31.68a.58.58,0,0,1-.67.22A1.33,1.33,0,0,1,211,228.83Z" transform="translate(-188.53 -187.91)"/><path class="cls-1" d="M214.12,222.08a4,4,0,0,1-1.22.86,1.38,1.38,0,0,1-.77-.17l-.21-.13c-.21-.13-.39-.26-.59-.41s-.34-.22-.53-.38-.11-.08-.18,0a.32.32,0,0,0,0,.3c-.05.06.32,1.38.34,1.52s0,.41,0,.62a5.29,5.29,0,0,1,.08.78.44.44,0,0,1,0,.16c-.1.24-.31.19-.5.14-.35-.1-.39-.22-.58-.59-.06-.13-.13-.28-.1-.31s-.13-.36-.19-.62a3.47,3.47,0,0,1-.06-.8c0-.18-.05-.44-.06-.64a.28.28,0,0,1,0-.13c0-.21-.09-.15-.21-.14s-.22.06-.4.25a.54.54,0,0,1-.8.05,1.36,1.36,0,0,1-.37-1.1.91.91,0,0,1,.21-.49,3,3,0,0,0,.3-1A1.13,1.13,0,0,1,209,219a1.52,1.52,0,0,1,1.07.13c.27.17.21.32.21.59s.15,1,0,1.14c0,.13,0,.37.13.46s.11,0,.15,0a1.08,1.08,0,0,1,.65.17c.19.1.29.19.47.28a.8.8,0,0,0,1-.22c.28-.33.53-.68.82-1a3.88,3.88,0,0,1,.26-.31c.29-.26.62.53.72.7s0,.4,0,.61A1,1,0,0,1,214.12,222.08Z" transform="translate(-188.53 -187.91)"/><path class="cls-1" d="M207,220.1a2.8,2.8,0,0,0-.31-.28l-.39-.34a3.17,3.17,0,0,1-.4-.49,1.39,1.39,0,0,1-.22-.46.52.52,0,0,1,.11-.59,2.13,2.13,0,0,1,.34-.45,1,1,0,0,1,.41-.25.77.77,0,0,1,.77.23.57.57,0,0,1,.19.48c0,.16,0,.3,0,.46s0,.21,0,.33-.09.3-.1.5a4.13,4.13,0,0,1-.13.63C207.09,220.08,207.07,220.13,207,220.1Z" transform="translate(-188.53 -187.91)"/><rect class="cls-3" x="202.58" y="233.68" width="1.88" height="1.88" transform="matrix(0.27, -0.96, 0.96, 0.27, -266.01, 179)"/><path class="cls-1" d="M214,283.62a3.84,3.84,0,0,1,2.85-.72,3.27,3.27,0,0,1,2.19,1.52,3.46,3.46,0,0,1,.57,1.75,3.11,3.11,0,0,1-.44,1.73,4.25,4.25,0,0,1-1.38,1.39,4.08,4.08,0,0,1-1.87.69,2.94,2.94,0,0,1-1.76-.33,3.46,3.46,0,0,1-1.31-1.21,3.39,3.39,0,0,1-.58-1.78,3.21,3.21,0,0,1,.46-1.73,4.07,4.07,0,0,1,1.27-1.31Zm.52.82a2.9,2.9,0,0,0-1.33,1.69,2.44,2.44,0,0,0,1.91,2.93,3,3,0,0,0,2.16-.58,3.75,3.75,0,0,0,1.12-1.08,2.28,2.28,0,0,0,.37-1.27,2.47,2.47,0,0,0-1.91-2.33A3.05,3.05,0,0,0,214.49,284.44Z" transform="translate(-188.53 -187.91)"/><path class="cls-1" d="M228.45,298.74l2.94-6.49,2.24,1a5.76,5.76,0,0,1,1.11.62,2.41,2.41,0,0,1,.74.89,2.87,2.87,0,0,1,.26,1.46,4.72,4.72,0,0,1-.44,1.66,4.88,4.88,0,0,1-.77,1.23,3.57,3.57,0,0,1-.87.74,2.38,2.38,0,0,1-1.78.29,4.47,4.47,0,0,1-1.09-.36l-2.34-1.06Zm1.2-.38L231,299a3.52,3.52,0,0,0,1.06.34,1.56,1.56,0,0,0,.73-.07,2.25,2.25,0,0,0,.85-.61,4.29,4.29,0,0,0,.74-1.17,3.37,3.37,0,0,0,.38-1.71,1.84,1.84,0,0,0-.48-1.1,3.49,3.49,0,0,0-1-.64l-1.37-.62Z" transform="translate(-188.53 -187.91)"/><path class="cls-2" d="M294.66,209.53a59.71,59.71,0,0,1,7.27,9.93c1,1.64,1.85,3.32,2.65,5s1.52,3.49,2.15,5.31a59.56,59.56,0,0,1,3.37,19.39h0v.45h0v.45h0a59.38,59.38,0,0,1-3.05,18.46c-.48,1.45-1,2.88-1.61,4.27a59.73,59.73,0,0,1-10.78,16.93,57,57,0,0,0,16.6-40.11h0a57.13,57.13,0,0,0-16.6-40.12Z" transform="translate(-188.53 -187.91)"/><path class="cls-2" d="M205.89,289.78q-1.14-1.27-2.22-2.61A60.69,60.69,0,0,1,199.9,282a59.56,59.56,0,0,1-9.45-31.84h0v-.45h0v-.45h0a59.67,59.67,0,0,1,3.05-18.46c.48-1.45,1-2.88,1.61-4.28a60,60,0,0,1,10.78-16.93,57.08,57.08,0,0,0-16.59,40.12h0A57.12,57.12,0,0,0,205.89,289.78Z" transform="translate(-188.53 -187.91)"/><path class="cls-1" d="M250.28,290.48a40.83,40.83,0,1,1,40.82-40.82,40.83,40.83,0,0,1-40.82,40.82Zm0-80.17a39.31,39.31,0,0,0-33.92,19.39,38.86,38.86,0,0,1,5.8-7.07,40.49,40.49,0,0,1,28.11-11.19h0a40.46,40.46,0,0,1,28.11,11.19,38.86,38.86,0,0,1,5.8,7.07,39.31,39.31,0,0,0-33.91-19.39Zm33.91,59.3a38.2,38.2,0,0,1-5.8,7.07,40.46,40.46,0,0,1-28.11,11.19h0a40.47,40.47,0,0,1-28.11-11.19,38.53,38.53,0,0,1-5.8-7.07,39.36,39.36,0,0,0,67.83,0Zm-33.91-57.49h0a37.52,37.52,0,0,0-37.53,37.53h0a37.52,37.52,0,0,0,37.53,37.53h0a37.52,37.52,0,0,0,37.53-37.53h0a37.52,37.52,0,0,0-37.53-37.53Z" transform="translate(-188.53 -187.91)"/><path class="cls-3" d="M240.12,281.84m2.94-4.45a1.84,1.84,0,0,0-.41-.06h-.44l-.4.05-.32.08a.67.67,0,0,0-.19.09.86.86,0,0,0,0,.16.72.72,0,0,0,0,.19l1-.12-.92,4h-.56V282l1.62.38.11-.24-.64-.27a.31.31,0,0,1,0-.09l.07-.17c0-.07,0-.15.07-.24Z" transform="translate(-188.53 -187.91)"/><path class="cls-3" d="M243.39,283m.74-.05.05.22a3.59,3.59,0,0,0,1.07-.3,2.91,2.91,0,0,0,1.44-1.44,3.76,3.76,0,0,0,.27-1.11,3.51,3.51,0,0,0,0-.87,2.22,2.22,0,0,0-.19-.63,1.4,1.4,0,0,0-.33-.42,1.42,1.42,0,0,0-.41-.24,1.34,1.34,0,0,0-.44-.1,1.55,1.55,0,0,0-.66.07,1.17,1.17,0,0,0-.48.29,1.45,1.45,0,0,0-.3.47,1.83,1.83,0,0,0-.14.57,1.76,1.76,0,0,0,0,.62,1.39,1.39,0,0,0,.24.47,1.35,1.35,0,0,0,.4.3,1.54,1.54,0,0,0,.49.13,1.59,1.59,0,0,0,.45,0,1.21,1.21,0,0,0,.35-.13,2.14,2.14,0,0,0,.32-.2,2.72,2.72,0,0,1-.21.76,3,3,0,0,1-.35.58,2.91,2.91,0,0,1-.43.43,2.85,2.85,0,0,1-.45.29,2.34,2.34,0,0,1-.41.18,2,2,0,0,1-.31.09Zm1.06-2.22a.69.69,0,0,1-.21-.15,1.48,1.48,0,0,1-.21-.26,1.35,1.35,0,0,1-.14-.37,1.42,1.42,0,0,1,0-.47,3.91,3.91,0,0,1,.07-.39,1.6,1.6,0,0,1,.14-.35.87.87,0,0,1,.23-.27.7.7,0,0,1,.33-.13,1.21,1.21,0,0,1,.45,0,1.5,1.5,0,0,1,.32.35,1.36,1.36,0,0,1,.17.41,2.57,2.57,0,0,1,0,.5c0,.19,0,.39,0,.61l-.26.15a1.77,1.77,0,0,1-.31.15l-.31.13A1,1,0,0,1,245.19,280.74Z" transform="translate(-188.53 -187.91)"/><path class="cls-3" d="M247.7,283.35m2.34-1.91a1.43,1.43,0,0,1-.06.59,1.67,1.67,0,0,1-.27.51,1.89,1.89,0,0,1-.45.39,2.42,2.42,0,0,1-.56.27,2.7,2.7,0,0,1-.64.14l0,.28a5.05,5.05,0,0,0,.68-.08,3.36,3.36,0,0,0,.64-.18,2.39,2.39,0,0,0,.55-.29,1.83,1.83,0,0,0,.43-.4,1.38,1.38,0,0,0,.26-.53,1.92,1.92,0,0,0,.06-.65,1.71,1.71,0,0,0-.17-.58,1.17,1.17,0,0,0-.34-.42,1.35,1.35,0,0,0-.48-.24,1.54,1.54,0,0,0-.57-.05,2.25,2.25,0,0,0-.4.06,1.85,1.85,0,0,0-.31.11,1.34,1.34,0,0,0-.21.11l-.15-1.63,2.06-.1-.05-.6-2.38.21.22,2.55.32,0a.85.85,0,0,1,.26-.15,3,3,0,0,1,.43-.16,3.81,3.81,0,0,1,.51-.12,1.3,1.3,0,0,1,.29.22,1,1,0,0,1,.2.32A1.37,1.37,0,0,1,250,281.44Z" transform="translate(-188.53 -187.91)"/><path class="cls-3" d="M251.88,282.87m1.77-5.46-.11-.2a3.68,3.68,0,0,0-.93.62,3.1,3.1,0,0,0-.63.82,3,3,0,0,0-.29,1,3.53,3.53,0,0,0,.08,1.15,3.45,3.45,0,0,0,.29.81,2.07,2.07,0,0,0,.38.54,1.56,1.56,0,0,0,.44.3,1.27,1.27,0,0,0,.46.1,1.33,1.33,0,0,0,.45,0,1.48,1.48,0,0,0,.61-.26,1.25,1.25,0,0,0,.36-.44,1.35,1.35,0,0,0,.15-.53,2,2,0,0,0,0-.59,1.49,1.49,0,0,0-.24-.57,1.19,1.19,0,0,0-.37-.37,1.14,1.14,0,0,0-.47-.16,1.26,1.26,0,0,0-.51,0,2,2,0,0,0-.42.16,1.37,1.37,0,0,0-.29.24,2.17,2.17,0,0,0-.24.29,2.68,2.68,0,0,1,0-.79,2.28,2.28,0,0,1,.15-.66,2.72,2.72,0,0,1,.27-.54,3,3,0,0,1,.34-.42,4,4,0,0,1,.33-.29l.27-.18Zm-.32,2.43a1.17,1.17,0,0,1,.25.08,1.11,1.11,0,0,1,.27.19,1.28,1.28,0,0,1,.26.3,1.75,1.75,0,0,1,.17.44,2.76,2.76,0,0,1,.06.4,1.14,1.14,0,0,1,0,.37.83.83,0,0,1-.13.32.71.71,0,0,1-.28.23,1.06,1.06,0,0,1-.44.1,1.31,1.31,0,0,1-.4-.23,1.19,1.19,0,0,1-.29-.34,2.78,2.78,0,0,1-.21-.46c-.06-.18-.11-.37-.16-.58a1.77,1.77,0,0,1,.19-.23l.25-.24.26-.21Z" transform="translate(-188.53 -187.91)"/><path class="cls-1" d="M243.52,243.7c-17.08-1.11-27.61,8.18-25,17.63,1.93,7,9.54,11.07,17.18,12.44a52.73,52.73,0,0,0,22.4-1.2c10.24-2.81,19.65-8.3,22.14-15.39-6.52,8.48-18.51,11.4-28.44,11.72-10.52.33-24.06-2.27-25.69-12.15C224.74,248.37,236.52,243.68,243.52,243.7Z" transform="translate(-188.53 -187.91)"/><path class="cls-1" d="M237.45,226.23a31.22,31.22,0,0,1,8.29,3.61c7.91,5.47,11.95,16.15,7.3,24.82a23.19,23.19,0,0,1-11.71,10.07s-2.8.95-4.72,1.74c-.43.17,9.47-3.44,11.8-9.33,3.39-8.59-1.62-18.79-13.71-20Z" transform="translate(-188.53 -187.91)"/><path class="cls-1" d="M253.25,220.2a22.4,22.4,0,0,1,9.57,12.42c2.92,9.21-1.16,20-7.87,26.11-4,3.27-8.93,5.48-14.26,7.29,0,0,5.83-2.87,6.86-3.87a18.5,18.5,0,0,0,8.72-11.78c1.53-6.87-1.68-15.66-7.1-20.17Z" transform="translate(-188.53 -187.91)"/><path class="cls-1" d="M272.68,223.41c4.36,10.55.83,21-3.55,27-4.74,6.49-12.65,11.19-22.17,14.18,8-3.66,13.35-8.46,16.62-16.94a25.28,25.28,0,0,0,.34-17.75Z" transform="translate(-188.53 -187.91)"/></svg>