<?xml version="1.0" encoding="utf-8"?>
<!-- Generator: Adobe Illustrator 25.0.1, SVG Export Plug-In . SVG Version: 6.00 Build 0)  -->
<svg version="1.1" id="图层_1" xmlns="http://www.w3.org/2000/svg" xmlns:xlink="http://www.w3.org/1999/xlink" x="0px" y="0px"
	 viewBox="0 0 113.4 113.4" style="enable-background:new 0 0 113.4 113.4;" xml:space="preserve">
<style type="text/css">
	.st0{fill:#007AC0;}
	.st1{fill:#FFFFFF;}
	.st2{fill-rule:evenodd;clip-rule:evenodd;fill:#007AC0;}
</style>
<path class="st0" d="M25.8,9C23.1,15.4,15.4,23.1,9,25.8c-7.4,3.1-10.9,11.6-7.9,19c2.7,6.5,2.7,17.3,0,23.8
	C-1.9,76,1.6,84.5,9,87.6c6.4,2.7,14.1,10.4,16.8,16.8c3.1,7.4,11.6,10.9,19,7.9c6.5-2.7,17.3-2.7,23.8,0c7.4,3.1,15.9-0.5,19-7.9
	C90.2,98,98,90.3,104.4,87.6c7.4-3.1,10.9-11.6,7.9-19c-2.7-6.5-2.7-17.3,0-23.8c3.1-7.4-0.5-15.9-7.9-19C98,23.1,90.3,15.4,87.6,9
	C84.5,1.6,76-1.9,68.6,1.1c-6.4,2.7-17.3,2.7-23.8,0C37.4-1.9,28.9,1.6,25.8,9"/>
<path class="st1" d="M28,103.5c-2.9-7.1-11-15.2-18.1-18.1c-6.2-2.6-9.2-9.7-6.6-15.9c2.9-7,2.9-18.5,0-25.6
	C0.7,37.7,3.7,30.6,9.9,28C17,25,25.1,16.9,28,9.9c2.6-6.2,9.7-9.1,15.9-6.6c7.1,2.9,18.5,2.9,25.6,0c6.2-2.6,13.3,0.4,15.9,6.6
	c2.9,7.1,11,15.2,18.1,18.1c6.2,2.6,9.1,9.7,6.6,15.9c-2.9,7-2.9,18.5,0,25.6c2.6,6.2-0.4,13.3-6.6,15.9c-7.1,2.9-15.2,11-18.1,18.1
	c-2.6,6.2-9.7,9.2-15.9,6.6c-7.1-2.9-18.5-2.9-25.6,0C37.7,112.6,30.6,109.7,28,103.5"/>
<path class="st0" d="M85.4,56.8c0,15.8-12.8,28.7-28.7,28.7C40.9,85.5,28,72.7,28,56.8C28,41,40.9,28.1,56.7,28.1l0,0
	C72.5,28.1,85.4,41,85.4,56.8C85.4,56.8,85.4,56.8,85.4,56.8"/>
<path class="st0" d="M28.6,13.2c-2.4,5.9-9.5,12.9-15.4,15.4c-6.7,2.8-9.9,10.5-7.2,17.3c2.4,5.9,2.4,15.8,0,21.7
	C3.3,74.3,6.5,82,13.2,84.8c5.9,2.4,12.9,9.5,15.3,15.3c2.8,6.8,10.5,10,17.3,7.2c5.9-2.4,15.8-2.4,21.7,0
	c6.8,2.8,14.5-0.4,17.3-7.2c2.4-5.9,9.5-12.9,15.3-15.3c6.7-2.8,10-10.5,7.2-17.3l0,0c-2.4-5.9-2.4-15.8,0-21.7
	c2.8-6.8-0.4-14.5-7.2-17.3c-5.9-2.4-12.9-9.5-15.3-15.4C82,6.5,74.3,3.2,67.6,6c-5.9,2.4-15.8,2.4-21.7,0
	C39.1,3.2,31.4,6.4,28.6,13.2 M36.5,105.3c-2.7-1.1-4.9-3.3-6-6C27.8,93,20.4,85.6,14,82.9C8.3,80.5,5.7,74,8,68.3
	c2.6-6.4,2.6-16.9,0-23.3c-2.3-5.7,0.3-12.2,6-14.5c6.4-2.7,13.8-10,16.5-16.5c2.4-5.7,8.9-8.3,14.6-6c6.4,2.7,16.9,2.7,23.3,0
	c5.7-2.3,12.2,0.3,14.6,6c2.7,6.4,10,13.8,16.5,16.5c5.7,2.4,8.3,8.9,6,14.6c-2.7,6.4-2.7,16.9,0,23.3c2.3,5.7-0.3,12.2-6,14.6
	C93,85.6,85.6,93,82.9,99.4c-2.4,5.7-8.9,8.3-14.6,6c-6.4-2.7-16.9-2.7-23.3,0C42.3,106.5,39.2,106.5,36.5,105.3"/>
<path class="st2" d="M16.4,36.5c0,0-0.1,0.2-1.2-0.6c-0.2-0.2-0.3-0.5-0.2-0.8c0.8-0.9,1.4-0.8,1.4-0.8c0.1,0.1,0.3,0.1,0.5,0.2
	c0.2,0.2,0.4,0.5,0.5,0.8C17.1,35.7,16.8,36.2,16.4,36.5"/>
<path class="st0" d="M23,31.6c0.4-0.5,1.1,0.1,1.1,0.1l2.3,2.2l0.8,0.8c0.4,0.4,0.8,0.7,1.3,1c0.5,0.4,0.9,0.8,1.4,1.3
	c0.3,0.3,0.6,0.6,0.9,0.9c-0.4,0.2-0.7,0.3-1.1,0.4h0.1c0,0.1-0.2,0.1-0.2,0.2c0.1,0,0.2,0,0.3,0c0,0,0,0.1,0,0.1s0.4-0.1,0.6,0
	c-0.1,0-0.1,0.1-0.1,0.1c0.2,0.1,0.4,0,0.5,0c-0.1,0.1-0.4,0-0.4,0.1c0.2,0.1,0.5-0.1,0.7,0.1c0.2,0,0.4,0.1,0.7,0.1
	c0,0,0.3,0.4,0.7-0.1c0.1-0.3,0-0.7-0.2-1c-0.7-0.7-1.4-1.3-2.2-1.8c-0.5-0.7-1.2-1.3-2-1.7c-0.2-0.2-0.5-0.5-0.7-0.7
	c-0.8-0.9-1.7-1.7-2.6-2.5c-0.7-1.2-1.3-1-1.3-1C23,30.4,23,30.7,22.8,31c-0.2-0.8-0.2-1.6-0.1-2.4c0.8-2.3-0.5-1.9-0.5-1.9
	s-1,0.2-0.8,2.2c0,0-0.6,3.8-0.6,5.2c0,1.5,0.2,3,0.5,4.5c0.2,0.8,0.5,1.6,0.9,2.4c0.2,0.3,0.8,1.2,1.2,1.9
	c-0.2-0.1-0.5-0.2-0.6-0.4c-0.9-0.9-1.7-1.9-2.5-3c0,0,0.4-1.6-0.9-1.9c-0.1,0-0.2,0-0.3,0.1c-0.4,0.2-0.7,0.4-1.1,0.6
	c-0.2,0.1-0.1,0.3-0.1,0.6c0,0,0.1,0.5,1.2,1l0,0c0.1,0.1,2.6,2.9,2.6,2.9c2.6,3.1,3.1,1.1,3.1,1.1c0-0.7-0.1-1.3-0.4-1.9
	c-0.6-0.7-1.4-1.4-1.5-1.5c-1-1-2.1-5.7-0.9-9.2c0.5,1.6,1.1,3.2,1.7,4.8c0.1,0.6,0.4,1.1,0.8,1.4c0.2,0.1,0.5,0,0.6-0.2
	c0.1-0.3,0.1-0.7-0.2-1c-0.6-0.6-0.5-0.9-0.5-0.9c0.4,0.3,1,0.3,1.4,0.1c0.8-0.6-0.2-1.4-0.2-1.4c-0.2-0.1-0.4-0.2-0.6-0.3
	c-0.2-0.1-0.4-0.3-0.6-0.4c-0.3-0.2-0.2,0-0.4-0.1S24,33.1,23.9,33s0,0.1,0,0.2s-0.2-0.2-0.3-0.3c0.2,0.3,0.4,0.6,0.6,1
	c-0.2,0.1-0.2,0.2-0.3,0.4c-0.2-0.5-0.3-0.9-0.5-1.5c-0.2-0.4-0.3-0.9-0.4-1.3C23,31.5,23,31.4,23,31.6"/>
<path class="st0" d="M71.9,25.9c0-0.1,0-0.1,0-0.2c-0.2-0.2-0.1-0.4-0.3-0.5c0-0.1,0.1-0.2,0-0.3s0.1,0,0.1-0.1s0-0.1,0-0.2
	s0.2-0.4,0.4-0.4c0.1,0.1,0.3,0.1,0.4,0.1c0.1,0.1,0.3,0.1,0.3,0.2c0.6,0.7,1.1,1.5,1.6,2.3c0.2,0.3,0.3,0.6,0.3,0.9
	c0,0.6-0.4,1-0.9,1c-0.1,0-0.2,0-0.4,0c-0.1-0.1-0.2-0.2-0.3-0.2C73.1,28.5,72.5,28.2,71.9,25.9"/>
<path class="st0" d="M66.6,26.2c-0.6,0.3-1.3,0.4-2,0.4c-0.6-0.1-0.7-0.2-0.9-0.3l0.2-0.1c0-0.3,0.2-0.5,0.2-0.8
	c0.1-0.1,0.2-0.1,0.3-0.1s0.3,0.1,0.3,0.2c0.8,0.4,2.6-1.1,2.6-1.1c0.9-0.8,1.5-1.7,2-2.8h-0.4c0,0-2.5,0.2-2.8-0.8
	c0-0.1,0-0.2,0-0.2c0-0.1-0.1-0.2-0.1-0.3s0.1-0.1,0.1-0.2c0.1-0.2,0.3-0.3,0.5-0.4c0.1,0,0.2-0.1,0.2-0.1c0,0,0.7-0.1,1,0.2
	c0,0,0,0.1,0,0.1c0,0,1.8,0.6,2.2-0.2c0.5-1.3,0.9-2.6,1.1-4c0.1-0.4,0.2-0.5,0.2-0.9c0,0,0.1-0.4,0.2-0.8c0.1-0.3,0.4-0.4,0.7-0.4
	c0,0,0.2,0,0.2,0c0.2,0.1,0.3,0.4,0.6,0.3c0,0.1,0,0.1,0,0.2s0.1,0,0.1,0s0,0.1,0,0.1s0.1,0,0.1,0.1s0,0.1,0,0.2s0.1,0,0.1,0.1
	c0,0.1,0,0.1,0,0.2c0,0.6-0.1,0.7-0.1,0.7l-0.7,1.1c-0.1,0.2-0.2,0.4-0.3,0.7c-0.2,0.8-0.5,1.5-0.8,2.3c0.5,0,0.9-0.1,1.4-0.3
	c0.5-0.1,1,0.1,1.3,0.6c0.7,1-0.2,1.4-0.2,1.4s-0.2,0.1-0.4,0.1s-0.1,0.1-0.2,0.1s-0.1-0.1-0.2-0.2s-0.1,0.1-0.2,0.1
	s-0.8-0.1-0.9-0.3h-0.1c-0.4-0.1-0.9,0-1.2,0.2c0,0-0.2,0.7-0.9,2C69.2,24.5,68,25.6,66.6,26.2"/>
<path class="st0" d="M95.8,31.4c-0.1,0-0.2,0-0.3-0.1c-0.2,0-0.3,0.2-0.5,0.2s-0.4,0.5-0.7,0.8c-0.3,0.2-0.7,0.4-1,0.5
	c-1,0.5-1.9,1-2.7,1.7c-0.2,0.3,0,0.5,0.3,0.6c0,0,0.1,0,0.1,0s0.4,0.1,0.6,0.3c0.5,0.2,1-0.1,1.6-0.4c0.8-0.5,1.7-0.8,2.6-1
	c-1.1,0.4-2.1,1-3,1.6c-0.2,0.1-0.5,0.3-0.8,0.4c-0.3,0-0.5,0.1-0.7,0.3c-0.4-0.2-0.7-0.4-1-0.8c-0.8-0.7-1.8-1.1-2.6-1.8
	c-0.3-0.2-0.5-0.4-0.7-0.7c0.1,0,0.3,0,0.4,0s0.2-0.1,0.3-0.1c-0.2-0.1-0.3-0.1-0.4-0.2c-0.2-0.1-0.4-0.2-0.6-0.4
	c-0.1,0-0.3,0.1-0.4,0c-0.4,0.1-0.7,0.2-1,0.5c-0.1,0.2,0.2,0.4,0.3,0.5c0.6,0.7,1.3,1.3,2.1,1.8c0.6,0.2,1.1,0.6,1.6,1
	c0.4,0.5,1,0.9,1.5,1.2c0.6,0.4,1.1,0.8,1.5,1c1.4,1,1.6,1.5,1.6,1.5c0,0.2-0.2,0.4-0.4,0.4c-0.6,0.1-1.2-0.5-1.8-1
	c-0.1-0.1-0.2-0.2-0.3-0.3c0-0.1,0-0.1-0.1-0.1c-0.3-0.3-0.7-0.6-1.1-0.7c-0.1-0.1-0.2-0.2-0.4-0.3s-0.1,0-0.2-0.1s-0.1-0.1-0.2-0.2
	s-0.4-0.2-0.5-0.2s-0.1,0.4,0,0.5c0.1,0.2,0.2,0.4,0.3,0.5c0.1,0.1,0.3,0.2,0.4,0.3c-0.5,0-1,0.2-1.4,0.5c-0.1,0.3-0.2,0.6-0.4,0.9
	c-0.1,0.2-0.2,0.5-0.3,0.7c-0.2-0.1-0.4-0.4-0.6-0.6c-0.1-0.1-0.3-0.3-0.5-0.4c-0.3-0.2-0.6-0.4-0.9-0.5l-0.3-0.1l-0.4-0.1h-0.2
	h-0.2h-0.2c-0.3,0-0.5,0-0.8,0.1c-0.1,0-0.2,0-0.2,0s-0.1,0.2-0.2,0.1c0,0.1-0.2,0.2-0.2,0.3c-0.1,0.2-0.2,0.3-0.3,0.5
	c-0.5,1.2,0,1.6,0,1.6c0.4,0.6,1.1,1,1.8,1.2c0.8,0.1,1.6,0,2.3-0.5c0.2,0.4,0.4,0.7,0.8,1c0.1,0,0.2,0.1,0.3,0.1H88
	c0.1,0,0.1,0.1,0.2,0.1c0.2,0,0.3-0.2,0.5-0.2s0.1-0.2,0.2-0.3s0-0.2,0-0.3c0-0.1-0.1-0.2-0.1-0.3c0-0.1,0-0.2,0-0.2
	c0-0.1-0.1-0.2-0.1-0.3c-0.1-0.1-0.2-0.2-0.3-0.3s-0.1,0-0.1,0s-0.2-0.3-0.2-0.4s0.2-0.3,0.2-0.4c0.1-0.2,0.2-0.5,0.3-0.7
	c0-0.1,0.1-0.2,0.2-0.3s0.2-0.6,0.3-0.6s0.2,0,0.3,0c0.1,0,0.3,0,0.4,0c0.2,0,0.4,0,0.6,0c0.1,0.1,0.3,0.1,0.4,0.2
	c0.2,0,0.6-0.3,0.6-0.5c0.1,0.2,0.3,0.4,0.4,0.6c0.2,0.1,0.3,0.3,0.3,0.3c0.1,0,0.2,0.1,0.2,0.2c-0.1,0.3,0.2,0.3,0.3,0.5
	c0.1,0,0.2,0.1,0.3,0.1c0.1,0,0.2,0.1,0.3,0.1s0.2,0,0.3,0.1c0.2,0,0.3,0,0.5,0c0.1,0,0.2,0,0.2-0.1c0.1-0.1,0.4-0.2,0.4-0.3
	c0.2-0.2,0.3-0.4,0.3-0.6c0-0.3-0.1-0.5-0.2-0.8c-0.7-0.8-1.5-1.5-2.4-2.1c0.2,0,0.5-0.1,0.5,0.2c0,0.1-0.1,0-0.2,0
	c0.2,0.1,0.4,0.2,0.6,0.3s0.2,0.1,0.3,0.1h0.2c0.1,0.1,0.2,0.1,0.2,0.2l0.1-0.1c0,0,0.1,0.1,0.1,0.1c0.3,0.1,0.6,0.2,0.9,0.4
	c0.5,0.2,1.1-0.2,1.2-0.7c0-0.1,0-0.1,0-0.2c0,0,0-0.1,0-0.2s0-0.1,0-0.2s-0.1-0.2,0-0.3s0.2,0,0.4,0c0.3,0,0.7,0.1,1,0.2
	c0.2,0.3,0.7,0.4,1,0.2c0.1-0.1,0.1-0.1,0.2-0.2c0-0.1,0.1-0.1,0.1-0.1c0.1-0.1,0.1-0.1,0.1-0.2c0-0.2-0.1-0.4-0.1-0.5
	s0.3-0.4,0.6-0.4h0.3c0.2,0,0.3,0,0.5-0.1c0.2-0.1,0.4-0.2,0.4-0.4c0.1-0.3-0.6-0.6-0.8-0.6c-0.4,0-0.6,0.3-1,0.4c0,0-1,0.3-1.9,0.5
	c-0.1,0-0.3,0-0.4,0h-0.3c-0.1,0-0.2,0-0.3-0.1c-0.1,0-0.2,0-0.3,0h-0.1c-0.5,0-0.9,0-1.4,0.1c0.3-0.1,0.7-0.3,1-0.4s0.7-0.4,1-0.5
	s0.7-0.2,1-0.4s0.5-0.5,0.2-0.8s-0.4-0.4-0.6-0.3c0,0,0,0,0-0.1c-0.4-0.1-0.9-0.2-1.3-0.2c0-0.1,0.1-0.2,0.1-0.3
	S96.4,31.6,95.8,31.4 M95.6,36.3c0,0.1-0.1,0.1-0.1,0.2s0,0.4,0,0.5C95.4,37,95.2,37,95,37c-0.6,0-1.2,0-1.7-0.2
	c0.1-0.1,0.4-0.2,0.5-0.3C95.5,35.8,95.7,36.2,95.6,36.3 M86,41.9c-0.7,0.2-2,0.1-2.3-0.7c-0.2-0.5,0-0.7,0.4-0.8
	c0.7-0.3,1.5-0.2,2.1,0.3c0.2,0.3,0.4,0.6,0.4,0.8C86.6,41.6,86.6,41.8,86,41.9"/>
<path class="st2" d="M40.3,17.9c0.1,0.7-0.2,0.9-0.2,0.9c-0.3,0.2-0.6,0.3-1,0.3C39,19.2,39,19,38.9,19c-0.3-0.1-0.6-0.2-0.8-0.4
	c0,0,0,0,0-0.1c-0.2-0.2-0.3-0.4-0.5-0.6c-0.1-0.2-0.1-0.5,0-0.8c0,0,0.1-0.2,0.7-0.2c0.1,0,0.2,0,0.3,0c0.1,0,0.3,0,0.7,0.1
	C39.9,17.1,40.2,17.5,40.3,17.9"/>
<path class="st2" d="M40.4,22.3c-0.3,0.6-0.4,1.3-0.3,2c0.1,0.4,0.1,0.6,0.1,0.8c0.1,0.3,0.1,0.5,0.3,0.8c0.6-1.2,1-2.6,1-4
	c0.1,0.3-0.1,0.8,0.2,1c0,0.1,0,0.2,0.1,0.2c-0.1,0.1,0,0.4-0.1,0.5c0,0,0,0.1,0.1,0.1c-0.1,0.3,0.1,0.7,0,0.8c0,0.1,0,0.1,0,0.2
	c0.1,0.7,0.1,1.5,0,2.2c-0.4,1.5-0.8,1.7-0.8,1.7c-0.1,0-0.2,0.1-0.3,0.1c0,0-0.8,0-1.1-1.3c0,0,0.2-4.3,0.2-4.4c0-0.3,0-0.7,0-1
	c-0.1-0.3-0.3-0.6-0.4-0.8c-0.1-0.1,0-0.4,0.1-0.6h0.1c0,0,0-0.1,0-0.1c0.6-0.3,1.3,0,1.6,0.5c0,0.2,0,0.5,0,0.7
	C40.8,21.8,40.6,22.1,40.4,22.3"/>
<path class="st0" d="M47.4,16.5c0,0,0.5-0.4,0.4-0.8l0,0c-0.5-1.1-2.4,0.8-2.4,0.8s-1,1.2-1.4,1.3c0,0-0.3-0.1,0.5-2.4
	c0.4-1,0.6-2,0.8-3c-0.1-0.4,0.1-0.7-0.4-1c-0.9-0.1-1.3,1.8-1.3,1.8h0.1c0,0-0.1,0.1,0,0.2c0-0.1,0.1-0.2,0.1-0.2
	c0.2,0,0.2-0.2,0.3-0.2c0,0-0.1,0.9-0.2,1.6c0,0-1.1,3.7-0.3,4.5c0.5,0.3,1.5-1,1.5-1s1.1-1.5,1.4-1.4l-0.8,2.2
	c-0.3,1.1-0.8,3.4-0.8,3.4c-0.3,0.2-0.7,0.2-1.1,0.2c-1.3,0.2-0.3,1-0.3,1c0.4,0.2,1,0,1.3,0c0,1.8,1.3,1.8,1.3,1.8
	c0.6,0,1.1-0.6,1.7-0.7c0.1,0.8,0,1.6-0.3,2.3c-0.1,0-0.2,0-0.2,0c0,0.1,0.1,0.1,0.1,0.2c-0.1,0.5,0,0.9,0.3,1.3
	c0,0,0.1,0.1,0.2,0.1s0.6-0.4,0.7-0.8c0.3-1.3,0.4-2,0.4-2c0.1-0.4,0-1,0.1-1.4c0.2-0.1,0.3-0.2,0.4-0.4c0-0.5-0.4-0.8-0.8-0.9
	c-0.1-0.5-0.1-0.9,0-1.4c0.4-0.1,0.7-0.3,1-0.5c0.2-0.1,0.5-0.1,0.7,0.1c0.3,0.2,0.6,0.2,0.8-0.1c0.3-1.8-1.6-0.8-1.6-0.8
	s-0.9,0.5-1,0.3c0.1-0.7,0-1.5-0.3-2.2c-0.3-0.2-0.7-0.3-1-0.1c-0.7,0.4-0.6,0.8-0.6,0.8c0.2,0,0.4,0.1,0.5,0.2
	c0.2,0.3,0.2,0.7,0.2,1c-0.2-0.1-0.4-0.2-0.6-0.3c0,0-0.8-0.2-0.7,0.8c0,0.3,0.1,0.6,0.1,0.9s-0.5,0.3-0.7,0.2
	C45.8,17.6,47.4,16.5,47.4,16.5 M46.3,23.6c-0.3,0-0.6-0.3-0.5-0.6c0,0,0,0,0,0c0.2-0.1,0.4-0.4,0.7-0.3c0,0.3,0,0.6-0.2,0.7
	C46.2,23.4,46.2,23.5,46.3,23.6 M47.4,23.2c-0.3,0.1-0.7,0.3-1,0.4c0-0.2,0.2-0.2,0.3-0.4c0,0,0.2,0.1,0.4-0.4
	c0.1-0.1,0.2-0.2,0.3-0.3c0.3-0.6,0.4-0.5,0.4-0.5c0,0.3,0,0.6,0,0.9C47.7,22.9,47.8,23.1,47.4,23.2"/>
<polygon class="st0" points="23.3,70.7 16.8,73 16.5,72.2 19.5,71.1 18.4,68 15.4,69.1 15.1,68.3 21.6,65.9 21.9,66.7 19.2,67.7 
	20.3,70.8 23,69.8 "/>
<path class="st0" d="M21.1,74.1c2-1.1,3.6-0.8,4.7,0.8c1,1.7,0.5,3.2-1.4,4.5c-2,1.1-3.5,0.8-4.6-0.8S19.2,75.4,21.1,74.1
	 M21.5,74.8c-1.4,1-1.8,2.1-1.2,3.4c0.8,1.1,2,1.3,3.5,0.4s1.8-2.1,1.2-3.3S23.1,74,21.5,74.8"/>
<polygon class="st0" points="32,82.5 27,87.3 26.4,86.7 28.7,84.5 26.4,82.1 24.1,84.3 23.5,83.7 28.5,78.8 29.1,79.5 27,81.5 
	29.3,83.9 31.4,81.9 "/>
<path class="st0" d="M30,89.8l-0.7-0.5l6-4.3l0.8,0.6l-2.1,7L33.2,92l0.6-2l-2.1-1.5L30,89.8z M35,86.1L32.4,88l1.6,1.2L35,86.1z"/>
<polygon class="st0" points="36.7,94 39.8,87.8 40.5,88.1 37.4,94.3 "/>
<path class="st0" d="M49,95.7c-0.2,1.3-1.5,2.2-2.8,2c-0.1,0-0.2,0-0.3-0.1c-1.2-0.2-2.1-1.4-1.9-2.6c0-0.1,0.1-0.3,0.1-0.4l1.1-4.4
	l0.8,0.2L45,94.5c-0.3,1.2,0.1,2,1.1,2.3c1.1,0.2,1.8-0.3,2.1-1.4l1.1-4.2l0.8,0.2L49,95.7z"/>
<polygon class="st0" points="57,92 56.5,98.9 55.5,98.8 52.6,93.1 52.3,98.6 51.4,98.6 51.9,91.6 52.9,91.7 55.7,97.6 56.1,91.9 "/>
<rect x="59.2" y="92.2" transform="matrix(0.9976 -6.982913e-02 6.982913e-02 0.9976 -6.536 4.4004)" class="st0" width="0.9" height="6.9"/>
<polygon class="st0" points="67.5,90.5 66.7,97.7 65.7,97.9 62,91.6 63,91.4 66,96.9 66.6,90.7 "/>
<polygon class="st0" points="71.5,96.4 68.9,90 73.2,88.2 73.5,89 70,90.4 70.8,92.4 74.1,91.1 74.4,91.9 71.1,93.2 72,95.4 
	75.6,93.9 75.9,94.7 "/>
<path class="st0" d="M78.5,93.4l-3.7-5.9l2.5-1.6c1.2-0.7,2.1-0.6,2.8,0.5c0.4,0.6,0.5,1.3,0.2,1.9c0.5-0.2,1,0.1,1.3,0.7l0.7,1
	c0.2,0.3,0.4,0.4,0.6,0.4l0.1,0.1l-0.9,0.6c-0.4-0.4-0.7-0.8-1-1.3c-0.4-0.7-1-0.9-1.6-0.5l-1.8,1.1l1.6,2.5L78.5,93.4z M78.9,88.7
	c0.6-0.2,0.8-0.9,0.6-1.4c0-0.1-0.1-0.2-0.1-0.2c-0.2-0.5-0.8-0.8-1.3-0.6c-0.1,0-0.2,0.1-0.3,0.2l-1.8,1.2l1.3,2L78.9,88.7z"/>
<path class="st0" d="M82.9,82.5c-0.7,0.7-0.8,1.3-0.3,1.9c0.3,0.3,0.8,0.4,1.1,0.1l1.7-0.9c0.7-0.5,1.7-0.3,2.3,0.3
	c0.8,1,0.7,2-0.5,3.1c-0.5,0.5-1.1,0.8-1.8,0.9c-0.6,0-1.2-0.3-1.6-0.8l0.6-0.5c0.5,0.7,1.5,0.8,2.2,0.2c0.1-0.1,0.1-0.1,0.2-0.2
	c0.8-0.8,0.9-1.4,0.4-2s-0.9-0.5-1.8,0l-1.2,0.6c-0.6,0.5-1.5,0.4-2.1-0.2c-0.8-0.8-0.8-2,0-2.8c0.1-0.1,0.1-0.1,0.2-0.2
	c1.2-1.1,2.3-1.1,3.3-0.1L85,82.5c-0.5-0.6-1.4-0.6-2-0.1C83,82.4,83,82.4,82.9,82.5"/>
<rect x="88.1" y="77" transform="matrix(0.6385 -0.7696 0.7696 0.6385 -29.9568 97.2592)" class="st0" width="0.8" height="6.9"/>
<polygon class="st0" points="90.1,72.2 90.8,72.6 89.7,74.4 94.9,77.7 94.4,78.4 89.2,75.2 88.1,77 87.4,76.5 "/>
<polygon class="st0" points="98,71.4 95.5,70.4 90.7,71.1 91.1,70.2 94.8,69.7 92.4,66.8 92.8,65.8 95.8,69.7 98.3,70.7 "/>
<path class="st1" d="M35,50.5L35,50.5c0,0,1.1,0.4,1.7-1.5c0-0.1,0.1-0.3,0.2-0.4c0.8-2,1.9-3.9,3.2-5.6c4.3-5.4,7.5-6.7,7.5-6.7
	c0.6-0.3,1.1-0.5,0.8-1.1c-0.2-0.4-0.9-0.1-0.9-0.1c-2.6,0.8-5,2.2-6.9,4.1c-2.1,2.2-3.8,4.7-5.1,7.5c-0.5,1-0.8,2.1-0.9,3.2
	C34.4,50.1,34.7,50.4,35,50.5"/>
<path class="st1" d="M43.2,67.8c-2.5-3.4-3.9-7.5-4-11.7c-0.1-3.1,0.6-3.7,1.2-4.4c0.9-0.7,2-1.2,3.1-1.6c2-0.7,4.2-4.1,4.2-4.1
	c1.7-2.5,3.7-4.8,6-6.7c0.7-0.5,1.4-0.9,2.2-1.2c0.4-0.2,0.8-0.9,0.1-1.2c-1.5-0.2-3.5,1.3-3.5,1.3c-3.3,2.5-6.2,5.6-8.5,9
	c-0.3,0.6-0.9,1.2-1.6,1.4c-1,0.4-1.3-0.2-1.3-0.7c0.4-1,0.8-1.9,1.4-2.7c1.1-2,5.3-5.7,5.3-5.7c1.6-1.6,6.3-4.1,6.3-4.1
	s0.8-0.4,0.7-0.9s-1-0.3-1-0.3c-6.4,2.4-11.7,7.3-14.6,13.5c-5.8,12.5,3.9,22,3.9,22c2,2.4,4.6,4.3,7.5,5.5c0.3,0.1,0.3,0-0.1-0.3
	C47.5,73,45.1,70.5,43.2,67.8"/>
<path class="st1" d="M50.6,44.8c-0.7,1.2,1.8,1.3,1.8,1.3l19-0.1c1.1-0.7-1-3.2-1-3.2c-1.6-2.2-4-3.7-6.6-4.1
	c-1-0.1-1.1,0.3-1.1,0.3c-0.2,1.1-1.3,1.8-2.4,1.6c-0.1,0-0.1,0-0.2,0C59,40.3,59,39.7,59,39.7c0-0.3,0-0.8-0.4-1
	c-0.7-0.4-2.9,0.9-2.9,0.9C53.6,40.8,51.9,42.6,50.6,44.8"/>
<path class="st0" d="M55.5,42.4h11.8c1.2,1.3,0,1.4,0,1.4H54.6l0.1-1.2C54.8,42.3,55.5,42.3,55.5,42.4"/>
<path class="st1" d="M63.2,54.2L79.7,54c0.2-0.9,0.2-1.8-0.1-2.6c-0.1-0.4-0.4-0.6-0.8-0.5c-0.1,0-0.2,0.1-0.3,0.1
	c-0.6,0.5-1.3,0.7-2,0.7H62.8c-0.6,0-1-0.4-1-1c0,0,0-0.1,0-0.1c0-1.1,1.3-1.1,1.3-1.1h15.8c-0.3-1.2-0.6-2.2-0.6-2.2
	c-2.4-7.6-10.5-11.5-10.5-11.5c-2.3-1.1-4.8-1.9-7.4-2.2c-1.7-0.2-1.8,0.8-1.8,0.8s-0.2,1.2,2,1.8c1.4,0.3,2.7,0.7,4,1.1
	c2.5,1,4.7,2.5,6.7,4.3c3.5,3.1,3.9,5.7,3.9,5.7H49c-1.6,0-2.1,0.5-2.2,0.7l-0.6,1.1c-0.3,0.7,0.7,0.7,0.7,0.7h10.9
	c0.5,0,1,0.3,1,0.8c0,0,0,0,0,0.1c0.1,0.5-0.2,0.9-0.7,1c0,0,0,0-0.1,0h-7.8c-1.9,0-2.5-0.6-2.5-0.6l-0.9-0.7
	c-0.8-0.5-1.9-0.2-2.5,0.6c-0.1,0.2-0.2,0.3-0.2,0.5c-0.2,0.6,0.5,1.2,1.1,1.7c0.8,0.4,1.7,0.7,2.5,0.6h9.8c0.5,0.1,0.9,0.5,1.1,1.1
	c0.2,0.6-0.1,1.2-0.7,1.5h-2.5c-0.4-0.6-0.7-0.6-0.7-0.6h-5c-0.7,0-1.4,0-2.1,0.1l0,0l-1.7,0.6c0,0-0.2,3.3,1.6,4.8
	c0.9,0.7,0,1.6,0,1.6c-0.5,0.5-1.1,0.8-1.8,0.9c-0.2-0.2-2-2.3-2.3-9.5c0,0-0.3-1.5-1.5-1.5s-1.3,1.5-1.3,1.5
	c-0.3,8.4,7,15.1,7,15.1c5,4,7.9,4.8,7.9,4.8s0.9,0.3,1.1,0.2c0.2-0.1,0.3-0.3,0.2-0.6c0-0.1-0.1-0.2-0.3-0.2c-0.8-0.4-3.2-2-3.2-2
	c-1.2-0.7-2.2-1.6-3-2.7c0.7-1,1.8-1.5,3-1.3c1.6,0.1,1.5,1.3,1.5,1.3c-1.3,1.8,4.5,4.9,4.5,4.9c1.5,0.5,5.4,0,5.4,0s1.9-0.1,2-0.9
	c0-0.4-0.3-0.8-0.7-0.8c0,0,0,0,0,0h-5.4c0,0-1.7,0-1.8-0.9s1.5-0.8,1.5-0.8l8.2,0.4c1.5,0.3,3,0,4.2-0.8c0.5-0.3,1.1-0.8,0.5-2.2
	c-0.6-1.1-1.5-1.3-2.7-1.6c-1.6-0.2-3.2-0.3-4.9-0.2c-0.6-0.1-1.2-0.4-1.1-0.9c0-1,1.8-0.5,1.8-0.5c0.9,0.2,1.9,0,2.6-0.6
	c0.6-0.5,1.3-0.8,2.1-0.7c1.3,0.2,2.4,0.9,3,2c0,0,1.4,1.2,2.5,0.3c0.5-0.5,0.6-1.3,0.1-1.8c0,0-1.1-0.7-1.3-1.3
	c-0.2-1.1,2.1-2.1,2.1-2.1s2-0.8,2.1-1.5c0-0.3,0-0.6-0.1-0.9c-0.5-0.8-1.4-1.2-2.4-1.2l0,0l-13.7,0c-0.6,0.1-1.2-0.4-1.3-1.1
	c0,0,0-0.1,0-0.1C62,54.8,62.5,54.2,63.2,54.2"/>
<path class="st0" d="M66.7,59.3h7.4c0,0,1.3,1.3-1.8,1.7c-3.4,0.3-5.3-0.2-5.7-0.9L66.7,59.3z"/>
<path class="st0" d="M48.5,59.4c0-1.1,2.3-1,2.3-1s2.2,0,2.9,0.1c0.4,0,0.6,0.3,0.7,0.7c0,0.6-0.2,0.7-0.4,0.9
	c-2.6,1.7-3.9,1.3-3.9,1.3C48.7,60.9,48.5,60.6,48.5,59.4"/>
<path class="st0" d="M51.1,65.9c0,0,0,0.5-2,2.3c-0.9-0.6-1.7-1.4-2.4-2.3c0,0,1.3-1.8,2.8-1.4C51.4,65.1,51.1,65.9,51.1,65.9"/>
<path class="st0" d="M54,64.1c0,0-1,0.2-1.4-0.5c-0.2-0.5,0.1-1.1,0.5-1.3l2.1-0.9c0.4-0.5,0.6-1.2,0.6-1.9c0-0.6,0.6-1.1,1.2-1
	c0,0,0.1,0,0.1,0c1.3-0.2,1.2,1.5,1.2,1.5l-0.2,2.7C56.9,63.7,54,64.1,54,64.1"/>
<path class="st0" d="M67.3,67.6c0,0,1.4-0.1,1.6,1.1c-0.2,1.1-2.5,0.9-2.5,0.9s-7.3-0.7-7.8-0.7c-1.6-0.1-2.9-1.1-2.4-2.5
	s3-0.4,3-0.4c0.8,1.2,3.1,1,4.6,1.2L67.3,67.6"/>
<path class="st0" d="M62.8,58.6c0,0,2,0.2,1.9,1.6c-0.3,2.1-1.7,2.7-2.7,2.6s-2.2-0.3-1.8-2.4C60.6,59.3,61.7,58.5,62.8,58.6"/>
<path class="st1" d="M36.9,64.7c-1.6-3.5-2.1-7.4-1.3-11.2c0,0,0-0.6-0.7-0.7s-0.8,0.4-0.9,0.5c-0.8,4-0.3,8.1,1.4,11.7
	c0,0,3.1,6.5,7.3,9.1c0.5,0.2,0.5,0,0.4-0.1C40.7,71.3,38.6,68.1,36.9,64.7"/>
<path class="st1" d="M70.1,80.6l-0.9-1.7c12.2-6.7,16.7-22.1,10-34.4c-6.7-12.2-22.1-16.7-34.4-10s-16.7,22.1-10,34.4
	c2.3,4.1,5.7,7.6,9.8,9.9l-0.9,1.6c-13.1-7.4-17.7-23.9-10.4-37s23.9-17.7,37-10.4S88,57,80.7,70.1C78.2,74.5,74.5,78.1,70.1,80.6z"
	/>
<path class="st1" d="M51.2,77.1l-1.3,5.6h-1.7l0.8-3.7c-0.6,0.3-1.2,0.5-1.8,0.7l0.3-1.3c0.8-0.3,1.5-0.8,2.2-1.3L51.2,77.1z"/>
<path class="st1" d="M55,80.4c-0.3,0.3-0.8,0.4-1.2,0.4c-0.4,0-0.9-0.2-1.2-0.5c-0.3-0.3-0.5-0.7-0.5-1.2c0-0.6,0.2-1.1,0.7-1.5
	c0.5-0.5,1.1-0.7,1.8-0.7c0.6,0,1.2,0.2,1.7,0.6c0.4,0.4,0.6,1,0.6,1.6c0,0.6-0.1,1.1-0.3,1.7c-0.2,0.5-0.5,1-1,1.3
	c-0.5,0.3-1.1,0.5-1.7,0.5c-0.5,0-0.9-0.1-1.3-0.3c-0.4-0.2-0.6-0.6-0.7-1l1.6-0.1c0.1,0.4,0.2,0.6,0.6,0.6c0.2,0,0.5-0.1,0.6-0.3
	C54.8,81.2,54.9,80.8,55,80.4L55,80.4z M54.4,79.9c0.2,0,0.5-0.1,0.6-0.3c0.2-0.2,0.3-0.6,0.3-0.9c0-0.2-0.1-0.4-0.2-0.6
	C55,78,54.8,78,54.6,78c-0.2,0-0.5,0.1-0.6,0.3c-0.2,0.3-0.3,0.6-0.3,1c0,0.1,0.1,0.3,0.2,0.4C54,79.8,54.2,79.9,54.4,79.9"/>
<path class="st1" d="M61.3,77.1L60,82.7h-1.6l0.8-3.7c-0.6,0.3-1.2,0.5-1.8,0.7l0.3-1.3c0.8-0.3,1.5-0.8,2.2-1.3L61.3,77.1z"/>
<path class="st1" d="M67,77.1l-0.3,1.2h-2.5l-0.3,0.9l0.7-0.2c0.2,0,0.3-0.1,0.5-0.1c0.4,0,0.8,0.1,1.2,0.4c0.3,0.3,0.5,0.7,0.4,1.2
	c0,0.4-0.1,0.8-0.3,1.1c-0.2,0.4-0.5,0.7-0.9,0.8c-0.5,0.3-1.1,0.4-1.7,0.3c-0.5,0-1.1-0.1-1.5-0.4c-0.4-0.3-0.6-0.7-0.6-1.2
	l1.6-0.2l0,0c0,0.2,0.1,0.4,0.2,0.6c0.1,0.1,0.3,0.2,0.5,0.2c0.3,0,0.5-0.1,0.7-0.4c0.2-0.2,0.3-0.5,0.3-0.8l0,0
	c0-0.5-0.2-0.7-0.6-0.7c-0.3,0-0.6,0.1-0.8,0.4L62.2,80l0.9-2.9L67,77.1z"/>
</svg>
