<svg xmlns="http://www.w3.org/2000/svg" viewBox="0 0 180.23 180.23"><defs><style>.cls-1{fill:#eddbc2;}.cls-1,.cls-2{fill-rule:evenodd;}.cls-2{fill:#5c301f;}</style></defs><path class="cls-1" d="M146.51,62.34c-.1.7-.24,1.4-.29,2.1a87.08,87.08,0,0,1-5.71,25A90.84,90.84,0,0,1,78.1,144.53,84.54,84.54,0,0,1,62.37,147a3.16,3.16,0,0,0-.67.18H51.28c-.73-.1-1.46-.23-2.19-.29a88.36,88.36,0,0,1-28.45-7.16,89.29,89.29,0,0,1-27.7-18.9A89.55,89.55,0,0,1-28.51,86.89a91.2,91.2,0,0,1-4.82-22.61c-.15-1.73-.14-3.47-.22-5.2,0-.59-.11-1.18-.17-1.77V57c.09-1.55.18-3.09.25-4.63a86.78,86.78,0,0,1,2.52-16.89A88.55,88.55,0,0,1-15.61,3.26,90.13,90.13,0,0,1,20.87-25.58a86,86,0,0,1,25.62-6.79c2.73-.28,5.48-.36,8.22-.54.48,0,.95-.11,1.42-.16h.54c1.48.08,3,.18,4.47.25A87,87,0,0,1,79.42-30a88.42,88.42,0,0,1,27.24,12.39,91,91,0,0,1,23.4,22.94,88.76,88.76,0,0,1,15.09,36.11c.57,3.2.79,6.46,1.18,9.68a6.79,6.79,0,0,0,.18.78V62.34" transform="translate(33.72 33.07)"/><path class="cls-2" d="M56.52-30.55a86.67,86.67,0,0,0-63,26.78C-23.55,14.05-31.85,35.46-31.14,60.14a87.66,87.66,0,0,0,175.26-4.72c-.77-46.9-39.26-85.86-87.6-86m90,92.89c-.1.7-.24,1.4-.29,2.1a87.08,87.08,0,0,1-5.71,25A90.84,90.84,0,0,1,78.1,144.53,84.54,84.54,0,0,1,62.37,147a3.16,3.16,0,0,0-.67.18H51.28c-.73-.1-1.46-.23-2.19-.29a88.36,88.36,0,0,1-28.45-7.16,89.29,89.29,0,0,1-27.7-18.9A89.55,89.55,0,0,1-28.51,86.89a91.2,91.2,0,0,1-4.82-22.61c-.15-1.73-.14-3.47-.22-5.2,0-.59-.11-1.18-.17-1.77V57c.09-1.55.18-3.09.25-4.63a86.78,86.78,0,0,1,2.52-16.89A88.55,88.55,0,0,1-15.61,3.26,90.2,90.2,0,0,1,20.87-25.58a86,86,0,0,1,25.62-6.79c2.73-.28,5.48-.36,8.22-.54.48,0,.95-.11,1.42-.16h.54c1.48.08,3,.18,4.46.25A87,87,0,0,1,79.42-30a88.42,88.42,0,0,1,27.24,12.39,91,91,0,0,1,23.4,22.94,88.76,88.76,0,0,1,15.09,36.11c.57,3.2.79,6.46,1.18,9.68a6.79,6.79,0,0,0,.18.78Z" transform="translate(33.72 33.07)"/><path class="cls-2" d="M-2.53,19.63c0-.05,0-.14,0-.16l.88-.6c1.92-1.28,2.11-3.07.51-4.72-.35-.37-.65-.79-1-1.13-1.29-1.15-2.54-2.34-3.91-3.4C-7,8.86-7.44,9-8.22,10c-.46.62-.87,1.28-1.29,1.91-.73-.45-1.41-.92-2.14-1.31-.48-.25-1.15-.48-1.41.17s-.61,1.31.17,2l.73-1.14c.81.63,1.6,1.21,2.36,1.83a.73.73,0,0,1,.22.54c-.1,1.13-.25,2.25-.39,3.49-.7-.36-1.25-.71-1.85-1s-1.1-.61-1.6,0c-.63.81-.19,1.57,1,1.73a3.85,3.85,0,0,1,3.56,3.94l-1.61-.5c0,.25-.09.39,0,.47a7.77,7.77,0,0,0,3.76,3.42c.26.12.82-.18,1.09-.44s0-.64-.12-.94a2,2,0,0,0-.55-.7c-.63-.52-.67-1.1-.17-2,.34.42.6.72.84,1s.67.93,1.07,1.34a.75.75,0,0,0,.67,0c.25-.54.64-.56,1.15-.55a1,1,0,0,0,.71-.44,6.54,6.54,0,0,0,.82-1.37c.82-1.9.68-2.09-1.26-1.9M128.15,69.76a7,7,0,0,1,1.34-1.09,12.4,12.4,0,0,1,2.92-1.09,7.18,7.18,0,0,1,2.61.09c.21,0,.3.73.47,1.12,0,0,.15,0,.39.1.14-1.25.28-2.45.41-3.66l-.36-.08a2.81,2.81,0,0,1-.3.63c-.15.2-.37.49-.55.48a5,5,0,0,1-2.17-.36c-1.37-.9-2.95-1.63-3.64-3.31,0-.08-.33-.05-.5-.08l-.3,2.63.32.06c.1-.2.15-.45.3-.57s.55-.3.68-.21c.79.54,1.54,1.15,2.39,1.8l-3.33,1.3c-.06-.43-.11-.75-.17-1.13C128,67,127.78,69.44,128.15,69.76Zm-.83,2.2-1.54,6.71,2.15.44.11-.24a5.14,5.14,0,0,1-1-1.15A5.92,5.92,0,0,1,126.8,76c1.88.44,3.49.84,5.12,1.18.85.18,1.7.27,1.42,1.49,0,0,.12.11.18.16.6-.62,1.09-3.23.68-3.71-.33.46-.39,1.23-1.31,1-1.84-.48-3.71-.87-5.54-1.3-.23-1.64,1.24-1.61,2.39-2.24Zm-3.85,12.59c.35-.11.59-.11.64-.22.4-.76,1-.6,1.59-.33,1.21.5,2.44,1,3.67,1.41.75.27,1.49.51,1.13,1.57,0,0,.12.1.33.27.44-1.16.86-2.25,1.28-3.34l-.22-.16c-.14.1-.36.16-.41.29-.27.68-.75.56-1.25.37-1.5-.58-3-1.18-4.5-1.75a.74.74,0,0,1-.58-.94,1.46,1.46,0,0,0-.12-.6h-.22Zm3.1,11.14,1.24-1.7a2.64,2.64,0,0,0-.06-3.57c-1.08-1-2.18-.86-3.46.33a6.58,6.58,0,0,1-1.27,1c-.79.44-1.43.24-1.73-.43a1.31,1.31,0,0,1,.75-1.76,7.49,7.49,0,0,1,1.66-.14,5.89,5.89,0,0,0,.71-.13,2.46,2.46,0,0,0,0-.28l-2.21-1.06c-.39.55-.66,1-1,1.39a2.46,2.46,0,0,0-.16,3.26,2.16,2.16,0,0,0,3.19,0c.48-.39.92-.85,1.44-1.2a1.28,1.28,0,0,1,1.78.21,2,2,0,0,1,.13,1.54c-.24.81-1.21,1.17-2.41,1.1a3.58,3.58,0,0,0-.8.1l0,.29Zm-7.34,5.75a2.68,2.68,0,0,1-.07-.27c.26-.15.51-.42.78-.44,1-.06,2-.07,3.07-.06a2.22,2.22,0,0,0,1.9-1.8c0-.05-.14-.1-.2-.14-1.39,1.11-3,.54-4.57.81a4.57,4.57,0,0,1,0-.53A2.05,2.05,0,0,0,119,96.57a2,2,0,0,0-2.35.83c-.81,1.06-1.53,2.18-2.38,3.39.3,0,.54.1.59,0,.55-.67,1-.33,1.53.05,1.09.79,2.21,1.54,3.3,2.32.57.4,1.37.72.71,1.66,0,0,.12.18.27.38l2-2.76.06-.45C120.92,103.65,120.35,101.7,119.23,101.44Zm-11.39,7c.34,0,.56.12.64,0,.62-.58,1.08-.19,1.54.22.92.81,1.82,1.64,2.77,2.41.7.58,1.49,1.06.82,2.25a56.6,56.6,0,0,0,4.51-4.81l-1.7-1.59c-.13.1-.22.15-.21.18.12.48.26,1,.39,1.43.17.64-1.06,2.45-1.68,2.46a.89.89,0,0,1-.48-.2l-1.85-1.56c.52-1.25,1.43-1.27,2.54-.78-.48-1.08-2.06-2.25-2.55-2,.62,1.19.55,1.5-.58,2.28l-2.33-2a8.26,8.26,0,0,1,1.71-1.35,7.75,7.75,0,0,1,2.15-.18l-1.63-1.42Zm-.48,8.47-5-2.69c.22-.42.35-.69.49-1l-.24-.24-2.47,2.14c0,.1,0,.21,0,.31,1.41-.63,2.32.34,3.36.86,1.26.62,2.46,1.35,3.71,2a4.24,4.24,0,0,0,1,.26,5.31,5.31,0,0,0-.12-1.07c-.55-1.6-1.14-3.19-1.69-4.79-.27-.8-.77-1.59-.11-2.44,0,0-.12-.18-.19-.27-1.43.93-2.09,1.66-2,2.17,1.1-.47,1.16-.5,1.39.06C106.19,113.68,106.71,115.16,107.36,116.89ZM95,118.9c.19,0,.39.11.5,0,.67-.39,1,0,1.39.49.9,1.27,1.82,2.52,2.74,3.77.31.42.39.78,0,1.17-.13.11-.14.36-.28.74,2.25-1.36,3-2,2.8-2.56-.83.64-1.3.2-1.77-.51-.71-1.07-1.47-2.12-2.27-3.12-.56-.71-.93-1.33.09-2C97.62,116.71,95.69,117.92,95,118.9Zm-10,5.11c.34.17.51.32.62.29.92-.3,1.39.19,1.75.94.49,1,1,2,1.51,2.94.37.73.77,1.47-.1,2.16-.07,0,0,.25,0,.56l3-1.57-.12-.31a2.56,2.56,0,0,1-.73,0c-.35-.09-.82-.17-1-.42-.73-1.25-1.36-2.54-2.13-4,.34.13.47.18.59.24,2,1,3.91,1.94,5.87,2.88a1.72,1.72,0,0,0,.72,0,2.26,2.26,0,0,0-.11-.64c-.8-1.6-1.62-3.19-2.43-4.78-.31-.61-.44-1.18.24-1.65.09-.07.11-.23.17-.35l-.17-.24-2.89,1.48c0,.11.07.22.1.33a3.08,3.08,0,0,1,.8,0c.3.05.73.11.85.32.69,1.18,1.3,2.41,1.94,3.62-2-.8-3.84-1.72-5.69-2.62a1.29,1.29,0,0,0-.89-.14A18.45,18.45,0,0,0,85.09,124Zm-9.9,3.44c1.51.63,1.51.63,2,2.16l.84,2.45a2.36,2.36,0,0,0,2.79,1.82A2.83,2.83,0,0,0,83.49,130c-.31-1-.65-1.92-1-2.88-.23-.72-.47-1.45.48-1.89,0,0,0-.21,0-.32-1.21,0-2.91.74-3,1.41,1.37-.58,1.6.43,1.91,1.33s.63,1.85.93,2.78a1.76,1.76,0,0,1-1.22,2.45,1.67,1.67,0,0,1-2.37-1.2c-.39-1.12-.76-2.26-1.16-3.39-.2-.57-.47-1.13.33-1.48.08,0,0-.29.08-.57ZM61.09,135l-.31-.06a3.48,3.48,0,0,0-.38.64C60,136.8,59,137,57.9,136.93c-.49,0-.68-.23-.69-.72-.05-1.46-.11-2.92-.2-4.38,0-.8-.06-1.55,1-1.79,0,0,0-.15.09-.31H54.71a2.29,2.29,0,0,0-.1.23,3.08,3.08,0,0,1,.43.38c.26.31.66.63.69,1,.11,1.46.09,2.92.16,4.38,0,.77,0,1.43-1,1.57a1.05,1.05,0,0,0,.61.3c1.7,0,3.4-.05,5.1-.12.18,0,.49-.23.5-.37C61.12,136.38,61.09,135.69,61.09,135Zm-9.7,2.57c.09-.11.18-.22.26-.34-1.15-.37-1.23-1.31-1.43-2.19-.41-1.73-.82-3.47-1.25-5.2a3,3,0,0,0-.33-.67c-.21.17-.49.3-.62.53-.91,1.54-1.79,3.1-2.65,4.66-.4.73-.67,1.56-1.7,1.63-.08,0-.15.22-.22.34,1.15.47,2.69.55,3,.17-1.16-.64-1.2-.76-.46-1.91a.91.91,0,0,1,.69-.34,9.69,9.69,0,0,1,1.68.23.63.63,0,0,1,.45.31c.16.56.24,1.13.35,1.68l-1,.3c0,.1,0,.2,0,.31Zm-12.25-8.16.15.07c-.35,1.25-.72,2.5-1,3.76-.22.85-.43,1.67-1.61,1.43,0,0-.05.09-.16.33l3.41.92.35-.32c-1.53-.39-1-1.28-.76-2,.29-1.09.66-2.17,1-3.26.21-.81.29-1.67,1.47-1.52a3.22,3.22,0,0,0,.09-.32l-2.38-.73-3.66,4.85c-.16-1.88-.28-3.51-.47-5.13a1.35,1.35,0,0,0-.5-1,8.42,8.42,0,0,0-1.87-.56c-.14,0-.31.11-.64.24a1.35,1.35,0,0,1,.89,2c-.34,1-.55,2-.84,3-.46,1.56-.47,1.56-1.86,1.87.38.65,2.7,1.25,3,.94-.29-.52-.85-1.05-.78-1.46.29-1.52.79-3,1.21-4.49l.21,0c.18,2.13.35,4.26.53,6.39l.28.11Q37.12,132,39.14,129.41Zm-14.95-2.5.29-.08a3.93,3.93,0,0,1,.52,1c.22,1,.36,2,.54,3a2,2,0,0,0,2.25,1.08c-1.48-1.16-1.09-2.94-1.62-4.46.21,0,.33,0,.45,0a2,2,0,0,0,2.23-1.63c.2-.8-.25-1.6-1.33-2.16s-2.1-1-3.16-1.48a2.81,2.81,0,0,0-.7-.09c.43.63,1,1,.61,1.72-.77,1.45-1.42,3-2.09,4.45-.21.45-.47.66-1,.48-.13,0-.3,0-.45.06s-.06.17-.08.25l3.13,1.48c.06-.74-1-1-.46-1.8A11.44,11.44,0,0,0,24.19,126.91Zm-4.39-5.48a3.82,3.82,0,0,0-3.7-3.74,4.53,4.53,0,0,0-4.17,4.45,3.8,3.8,0,0,0,3.73,3.69A4.54,4.54,0,0,0,19.8,121.43ZM7.44,118c.14-2.1.25-4,.39-5.9A2.3,2.3,0,0,0,6,109.6c0,.19,0,.38,0,.48A1.38,1.38,0,0,1,5.86,112c-.82.91-1.64,1.81-2.42,2.75-.5.61-1,.94-1.76.45-.06,0-.24.07-.57.18l2.59,2.2.2-.17c0-.14,0-.32-.11-.42a1.15,1.15,0,0,1,.07-1.69c.83-1,1.69-2,2.68-3.1,0,2.73-.57,5.25-.37,7.78l.43.24a8.9,8.9,0,0,1,.64-1c1-1.23,2.11-2.44,3.16-3.66.44-.5.9-.89,1.6-.41.09.06.26,0,.39,0,0-.16,0-.37-.1-.46-.61-.55-1.25-1.1-1.9-1.62-.11-.08-.32,0-.57-.07.72,1.35.73,1.39-.23,2.53C8.94,116.34,8.26,117.09,7.44,118ZM-6.06,92.08h-.32c.45,1.63-.88,1.75-1.71,2.27s-1.5.87-2.23,1.32a2.25,2.25,0,0,0-1,3.12c.83,2,2.5,3,4.47,1.56.83-.58,1.76-1,2.64-1.51.56-.32,1.09-.48,1.57.15.09.11.31.11.47.16l.12-.17c-.53-.93-1.07-1.86-1.61-2.79a2.1,2.1,0,0,0-.26.13c0,.1-.11.24-.07.31.45.93-.12,1.39-.81,1.79-1,.57-2,1.15-3,1.67a1.89,1.89,0,0,1-2.57-.89,1.69,1.69,0,0,1,.69-2.44c1-.58,2-1.11,2.94-1.71.67-.41,1.28-.81,1.93,0,0,0,.2,0,.41-.11ZM-7.4,89.41l-2.48-5.58-.27,0a2.72,2.72,0,0,1-.1.57c-.13.31-.22.77-.46.89-1.53.74-3.1,1.4-4.66,2.09a.71.71,0,0,1-1.05-.31c-.07-.13-.24-.2-.4-.33-.12.88.94,3.07,1.39,3.17.12-.43.12-1,.39-1.21a18,18,0,0,1,2.41-1.13A4.07,4.07,0,0,1-12.21,89c-.07.43-.49.8-.75,1.2l.13.27L-10,89.29-9.9,89c-1.16,0-2.1-.31-2.16-1.66l2.67-1.17a6.9,6.9,0,0,1,.71,2.09,6.6,6.6,0,0,1-.82,2.07Zm-5.76-16.14c-.25.34-.4.45-.39.55.1.76-.38.94-1,1.09-1.16.3-2.3.64-3.44,1-1.66.5-2.29,1.75-1.78,3.5a2.61,2.61,0,0,0,3.38,2c1.21-.33,2.43-.64,3.63-1a.9.9,0,0,1,1.2.46c.08.15.33.21.5.32l.13-.17-1-3.14c-.36.73-.5,1.53-.88,1.67a26.41,26.41,0,0,1-4.45,1.22c-1,.18-1.61-.53-1.82-1.68a1.5,1.5,0,0,1,1.18-1.9c1.1-.37,2.22-.67,3.34-1,.71-.21,1.45-.58,1.89.43,0,0,.21,0,.45,0C-12.5,75.58-12.79,74.54-13.16,73.27Zm-8.59-4.13c1.89,2.15,3.79,2.62,5.85,1.5A3.67,3.67,0,0,0-14,66.35a3.89,3.89,0,0,0-4.14-2.72c-2.68.31-3.92,1.87-4,4.08-1.46.66-1.8,1.32-1.49,2.91.15.82.24.93.78.95C-23,69.82-22.91,69.57-21.75,69.14Zm97-86.78.08.17c.48-.17,1-.35,1.44-.5,1.44-.45,1.53-.6,1.13-2a.59.59,0,0,1,0-.26c.88-.23,1.92-.15,2.3-1.33-.7-.74-1.56-.4-2.48-.25.15-.18.21-.29.31-.34.51-.32.89-.8.52-1.32s-.93-.11-1.33.18c-1.46,1-2.88,2.12-4.35,3.13a23.49,23.49,0,0,1-2.15,1.18l-.2-.33c.62-.42,1.25-.82,1.85-1.27a7.93,7.93,0,0,0,.82-.82,4.21,4.21,0,0,0-1.29-.38,4.24,4.24,0,0,0-1.24.48l-.88.36a16.49,16.49,0,0,0,1.31-1.74c.11-.19-.12-.57-.19-.86a2.76,2.76,0,0,0-.79.38c-.48.47-.89,1-1.35,1.5s-.83.78-1.2,1.21a2.26,2.26,0,0,0-.24.72,3.22,3.22,0,0,0,.73.22,11.9,11.9,0,0,0,1.2,0c-.34,1.27-.13,1.5,1.07,1.31.14,0,.28-.09.43-.13a12.16,12.16,0,0,0,4.4-2.68c.34-.27.7-.52,1.18-.87-.32.58-.54,1-.75,1.39l1.06.3a6.88,6.88,0,0,1-.44,1.42A6.48,6.48,0,0,1,75.2-17.64ZM99.06-1.1c-.08.15-.21.28-.2.4C99,.36,98.66,1,97.47,1.12a.41.41,0,0,0,0,.8,4,4,0,0,0,2,.23A1.38,1.38,0,0,0,100.4.43,1.74,1.74,0,0,0,99.06-1.1ZM8.32-12.6c3-1.84,5.93-3.81,9-5.49A77.58,77.58,0,0,1,36-25.23l.54-.12a2.94,2.94,0,0,1-.32,2.8,16.25,16.25,0,0,0-1,2,.6.6,0,0,0,0,.47c0,.06.28.06.4,0,1.1-.38,2.57-3.55,2.15-4.64a5.33,5.33,0,0,0-.58-.9,84.8,84.8,0,0,1,51.33,4.21c19.47,8,33.29,22.49,40.19,34.48-1.38.43-2.13.27-4.63-1l.43-.93c-1.71-.12-2.69,1.83-4.46,1.3a14,14,0,0,0,1.27-.88c.13-.11.1-.4.15-.61a1.49,1.49,0,0,0-.55,0c-1,.3-2.07.64-3.1,1l-.09.27,5.09,2.55-.22,1c-1.72-.38-3-1.55-4.49-2.31a23.57,23.57,0,0,0-3.57-1.34.88.88,0,0,0-.77.42,2.7,2.7,0,0,0-.08,1.51,1.78,1.78,0,0,0,1,.8c1.7.65,3.42,1.23,5.13,1.85a1.66,1.66,0,0,1,.8.68,3.52,3.52,0,0,1-.58-.09,1.89,1.89,0,0,0-2.33.6c-.63.81-1.28.59-2,.22A16.89,16.89,0,0,0,112.89,17a1.85,1.85,0,0,0-1.33.43c-.13.09,0,.79.25,1.08a15.32,15.32,0,0,0,1.94,2.31c.87.8,1.19.7,2-.22.1-.12.22-.2.41-.38a10.46,10.46,0,0,0,.91,1,.71.71,0,0,0,.6.16.74.74,0,0,0,.25-.6,7.16,7.16,0,0,0-.19-1c.59-.52,1-.94,1.49-1.29a1.33,1.33,0,0,1,.73-.13,15.49,15.49,0,0,0,1.67,0,.85.85,0,0,0,.64-.45.88.88,0,0,0-.18-.79,20.75,20.75,0,0,0-2.52-1.67c-1.29-.68-2.63-1.25-3.94-1.87,0-.07.05-.15.07-.23a27.73,27.73,0,0,1,3.13,1.13c1.38.69,2.63,1.67,4,2.28a32.37,32.37,0,0,0,5,1.64c.38.1,1-.32,1.34-.67.16-.15,0-.72-.11-1-.33-.71-.76-1.38-1.67-1.43a3.14,3.14,0,0,0-.73.14,3,3,0,0,0,.29.68,5.67,5.67,0,0,0,.77.73c-.82.07-1.42.42-1.71-.51,0-.15-.6-.18-.92-.17-.61,0-1.21.07-1.82.11,0-.17,0-.34-.08-.5.91-.26,1.83-.51,2.74-.78.33-.1.63-.29,1-.36a15,15,0,0,0,1.52-.23c1-.34,1.46.15,1.92,1a85.53,85.53,0,0,1,8.93,23.06,87,87,0,0,1,1.92,13.45,84.34,84.34,0,0,1-5.64,36.08,84.45,84.45,0,0,1-14.69,24.38,85,85,0,0,1-29.21,22,83.12,83.12,0,0,1-23.22,6.82,85.35,85.35,0,0,1-17,.67A84.48,84.48,0,0,1,3.17,123,85,85,0,0,1-14.9,102.89,84.2,84.2,0,0,1-26.37,75.42,85.06,85.06,0,0,1-28.32,54a83.15,83.15,0,0,1,3.92-22.5A85,85,0,0,1-7,.91,87.46,87.46,0,0,1,8-12.49a1.55,1.55,0,0,1,.32-.14c0,1.22,0,2.43,0,3.65s-.09,2.37-.14,3.56l.19.1L9.89-6.89c.62,1.1,1.19,2.1,1.75,3.11a8.24,8.24,0,0,0,.77,1.51c.22.26.73.28,1.12.4a2.69,2.69,0,0,0,.06-.93,4.53,4.53,0,0,0-.52-1c-.77-1.38-1.69-2.7-1.79-4.34-.06-.87-.38-1.81.4-2.61a12,12,0,0,1,.25,1.87c.05.63-.08,1.39.94,1.42.13,0,.24.36.36.55s.38.56.55.84c.35.58.94,1.15,1,1.75A9.53,9.53,0,0,1,13,1.12c-.55.93-.69,1.53,0,2.2.56-.73,1.16-1.42,1.66-2.18s.95-1.59,1.49-2.51L18.49,2.2C2.25,14.11-7.62,29.78-9.79,49.85S-6.06,87.58,7.57,102.4A66.35,66.35,0,0,0,102.84,105C117,91.19,124,74.14,123.07,54.38,122,31.06,110.93,13.25,91.7.34a13.67,13.67,0,0,0,1.66-.6C94.91-1.09,96.42-2,98-2.83a3.78,3.78,0,0,1,2.54-.61,11.31,11.31,0,0,0,2.85.1,1.64,1.64,0,0,0,1-.68c.14-.18,0-.6,0-.92l-.88.19-2.22.55c0-.1-.06-.2-.08-.29.44-.2,1-.27,1.3-.6a30.84,30.84,0,0,0,2.76-3.59c.46-.73-.08-1.59-1-2a18.93,18.93,0,0,1-.77,1.85,7,7,0,0,1-3.55,3,3.65,3.65,0,0,1-2.14.18,21,21,0,0,1-3-1.14c-.17.89.41,1.22.92,1.52a16.83,16.83,0,0,0,1.9.86c-1.38.86-2.57,1.65-3.81,2.36a5.38,5.38,0,0,1-3.36.7c-.27,0-.7-.1-.78,0-.32.5-.56.18-.85,0A66.46,66.46,0,0,0,72.53-7.65c-1.5-.37-3-.68-4.52-1,.58-2.53,1.54-3.61,3.38-3.81-.21.79-.41,1.56-.63,2.32s.11,1.14.72,1.54c1.45,1,4-.46,4.7-1.58.07-.11,0-.42-.05-.45a.89.89,0,0,0-.56,0c-.87.29-1.71.63-2.59.9-.59.18-.93-.17-1-.71a6.82,6.82,0,0,1,.08-1.28,1.31,1.31,0,0,0,2.14,0c.38-.37.74-.77,1.11-1.17s.9-.79.42-1.26a2.14,2.14,0,0,0-1.46-.37,8.18,8.18,0,0,0-1.71.41,5.22,5.22,0,0,0-.79.26c-.61.3-1.21.64-1.81,1,.56-1.36.5-1.58-.62-2a10.31,10.31,0,0,0,2-.94A2.16,2.16,0,0,0,72-17.16c0-.21-.58-.74-.66-.7a17.3,17.3,0,0,0-3,1.91c-.53.46-.72,1.31-1.11,1.94s-.73,1-1.09,1.43l.16.29,1.87-.31c0,.09.08.18.11.27-1,1-2.59,1-3.58,2.06,1,.7,1.84.08,2.71-.26A1.56,1.56,0,0,1,65.68-9c-1.84-.19-3.68-.49-5.52-.51-3.1-.05-6.21,0-9.31.15-1.86.09-3.71.4-5.54.61a13,13,0,0,0,0-1.77,28,28,0,0,0-.63-3.16,1.71,1.71,0,0,1,.49-1.92,6.55,6.55,0,0,0,1.62-4.06c.06-.32-.09-.89-.3-1a2.06,2.06,0,0,0-1.16.11,1.45,1.45,0,0,0-.51.36c-.52.46-.94.61-1.26-.23-.09-.24-.4-.39-.67-.64.66-.53,1.36-1,2-1.64.32-.3.78-1,.68-1.11-.49-.63-1.06-.17-1.57.11-.12.07-.2.22-.31.32-2.11,2.17-3.92,4.5-4.46,7.6-.06.35-.49.63-.76.94L38.12-15c.21-.61.38-1.22.62-1.82s.11-.93-.55-1-.7-.41-.35-.94a4.16,4.16,0,0,0,.65-1.34c.14-.65-.27-.94-.84-.61a8.35,8.35,0,0,0-3.2,3.8h.84c.05,1,.11,1.9.14,2.86a7.23,7.23,0,0,1,0,2.18c-.26.93-.16,1.37.85,1.77.08-.15.23-.3.22-.45-.14-2-.28-3.92-.49-5.88,0-.17-.48-.3-.74-.45l1.23-1.61c.27.46.4,1,.72,1.15.74.42.56.89.34,1.5-.13.38-.22,1.07,0,1.2.72.5.47,1.14.43,1.76s-.44,1.35.31,1.46.69-.8.83-1.35L40-16.22c.35.77.67,1.25,1.23.67a9.47,9.47,0,0,0,.86-1.32c2.38,2.5,1.26,5.63,2.09,8.38A71.11,71.11,0,0,0,31.39-4.71,73.49,73.49,0,0,0,19.64,1.47c-.63-1-1.16-2-1.82-2.95a2,2,0,0,1-.39-2.28c.27-.58,0-1-.66-1.07l-.66-.12c.25-1.54.25-1.54-1.34-1.18a6.17,6.17,0,0,1-.72-1.11c-.43-1.14-1.63-1.95-1.3-3.45a1.71,1.71,0,0,0-1-1.39c-.6-.18-1.06.46-1.13,1.12-.12,1.17-.18,2.35-.27,3.53-.76,0-.71,0-.69-.72,0-1.23.37-2.47-.13-3.7C9.31-12.47,9-12.81,8.32-12.6Z" transform="translate(33.72 33.07)"/><path class="cls-2" d="M123,12.88l.71-.39,2,1.68c-1.29.38-1.79-.81-2.69-1.29" transform="translate(33.72 33.07)"/><path class="cls-2" d="M115.39,19.19c-1.06.7-1.54.51-2.16-.8l2.16.8" transform="translate(33.72 33.07)"/><path class="cls-2" d="M42.34,70.94c.86.56,1.67,1.16,2.54,1.64a12.35,12.35,0,0,1,2.67,2,1.66,1.66,0,0,1,.27,2.08,1.61,1.61,0,0,1-1.71,1.17,11.21,11.21,0,0,1-2.53-.38,39.67,39.67,0,0,1-4.77-1.81,15.86,15.86,0,0,1-2.47-1.82c-.31-.22-.67-.37-1-.61-1.2-1-2.36-2-3.59-3-1-.76-1.57-.61-2.12.5a15,15,0,0,0-1.37,5.79,1,1,0,0,0,.09.46,13.58,13.58,0,0,1,1.74-.06c.75.07,1-.27,1.07-1s.09-1.34.17-2.27l2.08,2.25c0-.42,0-.55,0-.73l.32.18a22.42,22.42,0,0,0,3.1,2.2,48.6,48.6,0,0,0,6.37,2.69A20.42,20.42,0,0,0,48,81a2.5,2.5,0,0,0,2.6-1.26A11.06,11.06,0,0,0,51.7,76,5.08,5.08,0,0,0,49,70.9c-1.66-.94-3.14-2.23-4.87-3a25.5,25.5,0,0,1-4.41-2.59c-1.18-.82-2.41-1.62-2.83-3.2a6.89,6.89,0,0,1,.93-5.06c.51-1,1.25-1.1,2.2-.41.25.17.54.56.7.51.86-.28,1.27.33,1.72.79s.79,1.08,1.26,1.54c.73.72,1.51,1.37,2.28,2l1.33,1.13,1,1-.42.29,3.3,3.62.2-.12c-.06-.32-.12-.65-.19-1l.22,0c.14.33.27.65.44,1l.76-1,1.66.41a3.25,3.25,0,0,0-.19-.76A8.68,8.68,0,0,0,53.44,65a51.15,51.15,0,0,0-3.9-5.59c-2.25-2.51-4.75-4.79-7.2-7.11-.88-.84-1.54-1.62-.92-2.89a2,2,0,0,0,0-.26c.33-1.19-.54-2.63.79-3.61.06,0,.06-.24,0-.35a29,29,0,0,0-1.54-5.72c-.68-1.41-1.83-2.65-2.59-4.09A2.11,2.11,0,0,0,37,34.32a5,5,0,0,0-3.79.47c-.72.44-.83,1.14-.16,1.62a6.65,6.65,0,0,1,2.66,4.29,24.42,24.42,0,0,0,1,2.66,12.93,12.93,0,0,1,.91,3c.09.89.14,1.88-1.26,2.31s-2,2.47-1.42,4.34a2.19,2.19,0,0,1-.12,1.77,18.73,18.73,0,0,0-1.43,3.84,10.71,10.71,0,0,0,.27,5.52c.24.79.53,1.11,1,1.29-.1.41-.36.92-.24,1,.47.44.79,1.22,1.48,1,.89,1.55,2.65,1.7,3.91,2.54a2.93,2.93,0,0,0,2.43.53l-1-.51.09-.17,1.62.51-.57.5m23.14-7.5c.33-.31.68-.63,1-1s.61-.66.93-1c.58-.57,1.17-1.13,1.76-1.69.1-.1.24-.17.35-.26l1-.82c.66-.59,1.28-1.25,2-1.78a10.27,10.27,0,0,1,1.58-.71c.88-.42,1.47-.36,1.85.54a15.19,15.19,0,0,1,1.14,3.81,3.45,3.45,0,0,1-1.37,3.24c-1.06.81-2.15,1.59-3.24,2.38a6.18,6.18,0,0,1-.83.62c-.79.42-1.61.78-2.4,1.2s-1.65.88-2.44,1.38a17.06,17.06,0,0,0-3.08,2.1c-2.46,2.4-1.86,5.63-.47,8.09a1.84,1.84,0,0,0,1.11.85,10.86,10.86,0,0,0,3.25.26,20.55,20.55,0,0,0,4.22-1.06,36.4,36.4,0,0,0,4.92-2.14,31.77,31.77,0,0,0,3.41-2.4,3.5,3.5,0,0,1,.37-.2c-.1.23-.15.36-.2.48l.15.15,1.85-1.9.26.09c0,.64,0,1.29,0,1.93s.26,1.25,1,1a1.72,1.72,0,0,1,1.82.45A4.8,4.8,0,0,0,85.48,76c-.29-1.55-.57-3.1-1-4.63-.48-1.9-1.57-2.21-3.08-.93-.09.08-.17.18-.26.25C79,72.35,76.84,74,74.64,75.59a6,6,0,0,1-1.4.43c-1.25.47-2.49,1-3.75,1.46-1.87.67-3.23,0-3.74-1.81-.32-1.12.68-1.62,1.18-2.09a19,19,0,0,1,3.31-2,13.17,13.17,0,0,0,1.2-.92L71,70.26l1-.44A1.74,1.74,0,0,0,72,70l-.34.52a2.42,2.42,0,0,0,.71,0,22.56,22.56,0,0,1,2.07-.93A13.18,13.18,0,0,0,79,66.76c.56-.47.78-.92.06-1.38l1.14-.64a3.64,3.64,0,0,1-.06-.9c.17-1,.46-1.88.55-2.83.22-2.43-.8-4.55-1.75-6.68a2.59,2.59,0,0,1-.09-1.15,23,23,0,0,0,.27-2.47,2.5,2.5,0,0,0-1.69-2.23c-.79-.25-1.07-.69-1.1-1.2a8.91,8.91,0,0,1,.29-2.87c.41-1.36,1.17-2.61,1.52-4a7.54,7.54,0,0,1,2.68-4.31c.28-.21.42-1.18.23-1.33A5.36,5.36,0,0,0,77.49,34a2,2,0,0,0-1.12.5c-1.52,1.21-2.06,3.12-3.2,4.63-1,1.29-1.16,3.19-1.58,4.86a1.84,1.84,0,0,0,.64,2.25c.13.09.09.48.1.73a8.37,8.37,0,0,0,.1,2.36,2.2,2.2,0,0,1-.8,2.64c-2.86,2.76-6,5.26-8.29,8.58q-1.91,2.77-3.78,5.56c-.09.15,0,.41,0,.61l1.6-.41.77,1a3.34,3.34,0,0,1,.22-.62,2.57,2.57,0,0,1,.42-.38,2.46,2.46,0,0,0-.11.45c0,.19,0,.38,0,.81l3.46-3.87ZM18.88,43.78l.86,0a5.77,5.77,0,0,1-.07-.63c0-.21,0-.41,0-.64l-1.25-.18a2,2,0,0,1-.07-.23l.8-.59-.26-.08c.07-.24.06-.62.22-.71a2.45,2.45,0,0,0,1.51-1.78L19,38.82c.3-.92.61-1.86,1-3l-.78.13c-.14-.83-.13-.84,1-.87-.49-.69,0-1.46,1.13-1.77-.1-.3-.19-.59-.31-.87s-.27-.55-.41-.82l1-.38c-.45-.71,0-1.71-.62-2.51a.91.91,0,0,1,.08-.84c.5-.64,1.08-1.21,1.61-1.82a3.42,3.42,0,0,0,.27-.47c-.59-.4-.78,0-1.07.35s-.58.32-.88.47a5,5,0,0,1,.25-1,9.31,9.31,0,0,1,1.21-2.22,2,2,0,0,0,.4-1.88,1.33,1.33,0,0,0-.17-.47,1.68,1.68,0,0,1,.47-2.37l.53.47c.51-.44,1-.8,1,.32,0,.13.24.27.46.39-.62-.86-.29-1.35.47-1.81.49-.3.87-.19,1,.26.27.91.82.61,1.21.27.56-.48.93-.41,1.45.06.67.63,1.61.27,2-.72a6,6,0,0,0,1,.14,6,6,0,0,0,1-.2c.21.59.49.95,1.21.84a9.71,9.71,0,0,1,1.51.09,2.32,2.32,0,0,0,1.16-.2c1-.7,2-.24,3.17-.26l-.54.91a2.25,2.25,0,0,1,.08.24l4.64-1.62c.05-.47.15-1.26.26-2.2a1.5,1.5,0,0,1-.32-1.85,4.65,4.65,0,0,0,.1-1.42c0-.26,0-.61.18-.76.82-.77.6-1.48,0-2.23,0-.07,0-.23,0-.35a3.82,3.82,0,0,1,1.45-2.25c-.26-.62-.55-1.26-.81-1.93-.4-1-.17-1.34.92-1.42l-.44-1c.62-1,1,.42,1.76,0L45.44.81c.22-1.06.45-2.13.69-3.28a1.7,1.7,0,0,0,2.13-.07c.14-.13.59,0,.84.07.53.26,1,.6,1.59,1l.39-1.09,1.58.08c-.41.46-1.3.49-.54,1.32.36-.25.76-.49,1.11-.78a1.66,1.66,0,0,1,1.93.18c.48.14.8.26,1.12.32a5.21,5.21,0,0,0,.94.08c.18-1,1.13-.5,1.64-.84A2.65,2.65,0,0,1,60-2.48a1.74,1.74,0,0,1,.59.1c.13,0,.33.19.36.16.69-.75,1.06.16,1.58.27a14.72,14.72,0,0,0,2.3.14,3.29,3.29,0,0,0,.7-.11.91.91,0,0,1,1.48-.5c.26.28.48.59.75.92-.1.21-.22.44-.32.64l.71.84L67,.52c.4.3,1.48-.37,1.33.78-.07.59-.25,1.18-.4,1.86.87.31.85,1.18.81,2s.4,1.57-.29,2.31c-.51.56-.12,1.19.21,1.76.64,1.1.62,1.1-.44,1.41v1c0,.43,0,.8.63.51.11,0,.47.2.54.38a5.57,5.57,0,0,1,.22,1.16L68.76,13l-.16.13c.14.2.28.41.41.62a1.21,1.21,0,0,1-.33,1.85,4,4,0,0,0-.61.79,2.09,2.09,0,0,1,.22.2l1.35-.13L71.35,18l1.81.09a16.79,16.79,0,0,0,1.87.07c.75,0,1.35,0,1.19,1,1.37-.1,2.68-.2,4-.27.69,0,1.42-.55,2.08.14,0,0,.3-.12.44-.22a4.81,4.81,0,0,0,.57-.44c1.42-1.21,1.86-.81,2.76.48,1,.38,1.65-.1,2.39-.57.53-.34,1.13-.12,1.11.47a9.38,9.38,0,0,1,1.77.49c.15.07.06.63.21.92a4,4,0,0,1,.31.86c.09.61-.24,1.31.46,1.81.08,0-.16.56-.28,1a1.51,1.51,0,0,0,.35.25c.94.48,1,1,.16,1.64s-.76.73,0,1.38a2,2,0,0,1,.73,1.75,22.38,22.38,0,0,0,0,2.59s0,.06,0,.08c-.44,1.22.31,1.74,1.2,2.3.2.12.12.87,0,1.27a3.68,3.68,0,0,1-.75,1c1,.68,1,.71,0,1.51.39.33.73.67,1.12.94.75.54.79,1,.11,1.69a6.33,6.33,0,0,0-.6.79c.26.78,1.5,1.27.64,2.51,1.14.32.83,1.37,1,2.14A2.63,2.63,0,0,1,95.2,48c-.57.52,0,.93.29,1.16A1.43,1.43,0,0,1,96,51c0,.12-.11.29-.21.34-.78.37-.56.79-.08,1.24a1.52,1.52,0,0,1,.21,2.15l.68.27-.71.65a4.58,4.58,0,0,0,.48.59c1,.84,1,.84.26,1.87l.36.52c.08-.23.13-.38.19-.53.48.14.16,2.28-.36,2.68-.09.07-.22.08-.33.15a3.63,3.63,0,0,0-.41.35l1.79.75-.68.47c.05.6.1,1.1.18,1.85.41.47.41.47-.93,1l1.76,2.73-1.38.44c.1.37.21.81.33,1.24,0,.12.14.25.11.34a2.4,2.4,0,0,0,.44,2.11c.34.54-.21.94-1,.94a2.48,2.48,0,0,1,.73,2.39c-.06.24.21.56.33.86l-.43.47c.72.59,1.54,1,1.68,2.35-.57-.37-.94-.62-1.36-.91-.08,1.07-.55,2.18.59,3.05a.7.7,0,0,1,.19.64c-.24.57-.56,1.1-.88,1.7l.53.39c0,.06,0,.14,0,.17a1.89,1.89,0,0,0,.6,3c.15.09.28.53.2.63a4.25,4.25,0,0,1-.91.63,11.43,11.43,0,0,1,.14,1.39c0,1.38,0,1.38,1,2.3,0,0,.07.1,0,.05-.12.81-.23,1.52-.36,2.42-.08-.08,0,0,.11.14s.38.57.33.82a.92.92,0,0,1-.64.55c-1.25.22-1.27.25-.93,1.37a1.12,1.12,0,0,1-.2.79,7.14,7.14,0,0,1-.84.89c-.32-.76-.6-1.43-.9-2.17l-.57,1.8c-.35-1.08-2.34-.42-1.6-2.22a8.31,8.31,0,0,1-1.23,0c-.55-.08-1.17-.13-.92-1,0-.11-.4-.34-.62-.52-.66.84-.74,0-1-.35l-.22-.36-.75.27.34-1.2-.75.23C88.27,92,86.76,92.39,85.7,92c-.3.87-.44.91-1.12.3a9.07,9.07,0,0,1-1-1.1c-.58-.81-1.12-.74-2.1-.67a8.57,8.57,0,0,1-2.81-.77l.68-.89c-.92-1-1.51-1-2.55.11a1.2,1.2,0,0,1-1.2,0A3.21,3.21,0,0,0,72.92,88c-.38,0-.73-.48-1.26-.85l-.57.34L68,86.06c-.31.5-.58,1-.85,1.4l-1.85-1.32c-.47.17-1.26.52-2.09.77a.78.78,0,0,1-1.1-.6,4.78,4.78,0,0,1-.07-.59,4.36,4.36,0,0,1-3.75.38c-.79.94-.88.93-2.26-.16-.92.82-1.15.79-2.32-.35l-1.41,1c-.55.21-1.33.46-1.38-.47a20.7,20.7,0,0,1-2.08.42c-.19,0-.48-.27-.6-.48a14.56,14.56,0,0,1-.63-1.32l-.25.08a2.94,2.94,0,0,1-.12.74c-.11.26-.3.66-.5.68-.88.12-1.77.13-2.62.17.13.42-.6,1.25-1.55,1.6a1.86,1.86,0,0,1-2.46-1.08l-.93.1.84.45c-1.05,1.41-2.58,2.26-6.36,1a2,2,0,0,0,.22.57c.5.59.5,1.06-.26,1.41a15,15,0,0,1-1.84.82,4.62,4.62,0,0,1-1.23,0,1,1,0,0,0-.51.13,11.7,11.7,0,0,1-1.7,1.06c-.26.1-.7-.24-1-.35,0,.3.15.83,0,1a5.61,5.61,0,0,1-1.52,1c-.09,0-.41-.2-.52-.38A3.19,3.19,0,0,1,25,93c-.19-.66-.3-.71-1.16-.5.21.24.38.47.58.67.39.41.69.79,0,1.23-.1.07,0,.36-.13.45a9.28,9.28,0,0,1-.87.64c-.17-.25-.5-.52-.49-.77,0-1,.07-1-1-.92A2,2,0,0,1,21,96.64c-.58.31-1.14.64-1.84,1L18.38,97c-.34.83.17,1.3.83,1.74l-1.36,1.08c.48-2.12-1.46-1.77-2.34-2.81.13,1.08.23,1.95.33,2.85.55-.19,1.17-.93,1.95.16-.39.09-.71.16-1,.25a3.75,3.75,0,0,1-.43.16c-.39.06-.95.27-1.15.09s-.24-.78-.33-1.19c-.06-.24-.09-.48-.15-.72a2,2,0,0,1,.61-2.26,1.06,1.06,0,0,1-.25-1.64c.14-.2.12-.52.27-.7a3.25,3.25,0,0,1,1-.89c.12-.06.51.5.78.77s.38.49.62.54.45-.2.53-.24a6.42,6.42,0,0,0-.86-1.32,1.69,1.69,0,0,0-1.21-.48c-1.25.31-1.24.37-1.54-1l.79.43c-.22-.51.16-1.32-.74-1.43-.06,0-.06-.42-.09-.64,1.06-.18,1-.31.66-1.25-.2-.53.1-1.24.18-1.87l.26,0c-.35-.59-.69-1.2-1-1.8l.21-.28L17,85.2c0-1.13-.1-2.08-1.22-2.68-.59-.32-.46-.93.13-1.34,0-.49,0-1-.07-1.62l1.51.86c.21-.37.41-.79.67-1.19s.54-.8-.07-1.25a6.37,6.37,0,0,1-.22.66c-.14.33-.36.93-.46.91A2.17,2.17,0,0,1,16,79a1.92,1.92,0,0,1-.3-1.45A20.47,20.47,0,0,1,16.83,75c-1,.18-1-.49-.82-1a1.53,1.53,0,0,0-.29-1.86c-.13-.14-.06-.48-.09-.82l1.62,1.32.51-2.41c-.55-.56-1.25-1.18-1.85-1.88-.4-.47-.22-.9.39-1.07s1.24-.54,1.26-1.43c0-.35.38-.7.73-1.28L17,65.21c.54-.88-1.65-1-.25-2-.5-.35-.79-1.66-.38-1.85s.84.09,1.23.15c0-.21,0-.65-.07-1.2-.86-.56-.85-1,.1-1.82a1.23,1.23,0,0,0,.22-.72c0-.44,0-.88,0-1.35a2.67,2.67,0,0,1-.79-.29c-.1-.07-.13-.53,0-.6a1.3,1.3,0,0,0,.48-1.63c-.06-.19.26-.51.44-.76a7,7,0,0,1,.47-.54l-1.06-.73,1-.64-.49-.59.57-.45a1.67,1.67,0,0,1,.76-2.6,3.69,3.69,0,0,0,.53-.43l-.15-.18-.67.61c-.17-.53-.33-1-.48-1.49l-.36.48.81-2.75ZM56.53-4.36C22.94-4.62-6,23.42-5,59A61.51,61.51,0,1,0,56.53-4.36Zm63.93,61.51a64,64,0,1,1-64-64A64.14,64.14,0,0,1,120.46,57.15Z" transform="translate(33.72 33.07)"/><path class="cls-2" d="M45.76-19.62c-.27,1.17-.28,2.28-1.34,3-.56-1.3-.17-2.25,1.34-3" transform="translate(33.72 33.07)"/><path class="cls-2" d="M74.55-13.78c-.45.73-.61,1.44-1.46,1.36-.21,0-.39-.28-.59-.43.15-.17.26-.42.44-.49a14.18,14.18,0,0,1,1.61-.44" transform="translate(33.72 33.07)"/><path class="cls-2" d="M41.52-18.94c.4,1.12.33,1.42-.48,2.09a2.05,2.05,0,0,1,.48-2.09" transform="translate(33.72 33.07)"/><path class="cls-2" d="M15.22-2.86c.46.66.24,1.25-.78,2.19.25-.7.5-1.39.78-2.19" transform="translate(33.72 33.07)"/><path class="cls-2" d="M-1.87,16.3A2.09,2.09,0,0,1-3.2,18.25a.67.67,0,0,1-.6-.19c-.39-.5-.7-1.07-1.09-1.59a12.42,12.42,0,0,0-1-1.07c-.2-.21-.41-.41-.62-.61a10,10,0,0,0-.86-.86c-.38-.29-1.08-.4-.8-1.07a6.08,6.08,0,0,1,1.18-2c.15-.16,1,.22,1.46.52a10.76,10.76,0,0,1,3.31,3.93,5.3,5.3,0,0,1,.34,1" transform="translate(33.72 33.07)"/><path class="cls-2" d="M-7.77,19c-.92-.52-1-1.13-.56-3.52.61.21,1,.53.83,1.23s-.17,1.46-.27,2.29" transform="translate(33.72 33.07)"/><path class="cls-2" d="M-4.68,22-6,20.39c1-.44,1.48.08,1.31,1.57" transform="translate(33.72 33.07)"/><path class="cls-2" d="M-3.73,22l-.43-1.77c.92.27,1,.62.43,1.77" transform="translate(33.72 33.07)"/><path class="cls-2" d="M-18.59,70A8.21,8.21,0,0,1-21,68.88c-1.07-1-.53-2.7,1-3.33a5.63,5.63,0,0,1,3.92-.3A1.94,1.94,0,0,1-14.54,67a1.91,1.91,0,0,1-1.09,2.07,28.49,28.49,0,0,1-3,.9" transform="translate(33.72 33.07)"/><path class="cls-2" d="M116.07,99.13c.52-.73.89-1.48,1.84-1.35A1.62,1.62,0,0,1,119.3,99a1.88,1.88,0,0,1-.69,1.93l-2.54-1.8" transform="translate(33.72 33.07)"/><path class="cls-2" d="M24.49,126.26l1.31-2.8c.78.23,1.57.48,1.63,1.32a2.32,2.32,0,0,1-.63,1.55c-.66.7-1.46.38-2.31-.07" transform="translate(33.72 33.07)"/><path class="cls-2" d="M16.46,118.56c1.41,0,2.31.85,2.22,2a5.36,5.36,0,0,1-2.32,4,2,2,0,0,1-2.42.12,1.94,1.94,0,0,1-.84-2.17,5.3,5.3,0,0,1,2.51-3.71,2.47,2.47,0,0,1,.85-.24" transform="translate(33.72 33.07)"/><path class="cls-2" d="M48.64,133.84l-2.08-.26L48,131c.25,1,.45,1.87.68,2.8" transform="translate(33.72 33.07)"/><path class="cls-2" d="M49.92,101.66a13.47,13.47,0,0,0,.31,1.66,1.26,1.26,0,0,0,1.42,1c.5-.1,1.25-.55,1.32-.94A11.9,11.9,0,0,0,53,100c-.07-.67-.68-1-1.4-1a1.38,1.38,0,0,0-1.42,1,12.83,12.83,0,0,0-.28,1.59m-.33,5.54a2.08,2.08,0,0,0,2.45.32c1.27-.81,1.23-2.14,1.24-3.59a2.14,2.14,0,0,1-2.46.77,3.89,3.89,0,0,1-1.72-1.3,3.33,3.33,0,0,1,1.34-4.6A2.67,2.67,0,0,1,54,100a6.54,6.54,0,0,1-.37,6.74,3.05,3.05,0,0,1-3.18,1.39,1.54,1.54,0,0,1-1.5-1.68,1.34,1.34,0,0,1,.64-.9c.19-.08.8.29.84.52s-.29.66-.47,1C49.91,107.11,49.78,107.12,49.59,107.2Z" transform="translate(33.72 33.07)"/><path class="cls-2" d="M57.62,106.56a1.54,1.54,0,0,0,1.64,1.2,2,2,0,0,0,2-1,3.42,3.42,0,0,0,0-3.27,1.82,1.82,0,0,0-1.89-.93,1.53,1.53,0,0,0-1.43,1.15,3.06,3.06,0,0,1-.34.54l-.24-.09c.17-1.8.33-3.59.5-5.39h4.63c-1,1.72-2.58,1.52-4.19,1.32-.09.84-.18,1.63-.23,2.18a16,16,0,0,1,2.76-.05,2.47,2.47,0,0,1,2.06,2.21,2.78,2.78,0,0,1-.91,2.76,3.51,3.51,0,0,1-3.58.8,1.83,1.83,0,0,1-1.3-1.66c-.06-.66.11-1.26.85-1.33a1,1,0,0,1,.82.6c.14.76-.47.9-1.15,1" transform="translate(33.72 33.07)"/><path class="cls-2" d="M65.84,106.6c.17.85.82,1.08,1.53,1.15a1.93,1.93,0,0,0,2.08-.92,3.41,3.41,0,0,0-.08-3.5,1.77,1.77,0,0,0-1.88-.76,1.42,1.42,0,0,0-1.33,1.13c0,.19-.26.33-.39.49a1.85,1.85,0,0,1-.13-.59c.13-1.63.29-3.26.43-4.84h4.62c-1,1.73-2.56,1.53-4.19,1.31-.08.84-.17,1.63-.24,2.28a12,12,0,0,1,2.34-.26,2.81,2.81,0,0,1,2.58,2.58,3.2,3.2,0,0,1-1.54,2.93,3.57,3.57,0,0,1-3.1.37,2,2,0,0,1-1.23-2.07c.1-.56.4-1,1-.92a1,1,0,0,1,.68.68c.07.56-.33.84-.9.86a.9.9,0,0,0-.25.08" transform="translate(33.72 33.07)"/><path class="cls-2" d="M46,108H41.22c.28-.19.42-.38.57-.38,1,0,1.3-.53,1.26-1.5-.07-1.55,0-3.11,0-4.66,0-1.38,0-1.38-1.51-1.78l2.75-1.07a4.34,4.34,0,0,1,.09.63c0,2.33,0,4.67,0,7,0,1,.35,1.31,1.21,1.37a1.86,1.86,0,0,1,.46.13,2.17,2.17,0,0,1,0,.26" transform="translate(33.72 33.07)"/><path class="cls-2" d="M98.52,71.85c-1.07-.48-1.21-1.17-.72-2.14l.72.23v1.91" transform="translate(33.72 33.07)"/><path class="cls-2" d="M98,101.48l-1.13-1.29,1.55-.47c.23.8.19,1.42-.42,1.76" transform="translate(33.72 33.07)"/><path class="cls-2" d="M18.88,43.78h0l-1,.27c.18-.5.28-.86.44-1.19,0,0,.43,0,.44.05a4.92,4.92,0,0,1,.09.86" transform="translate(33.72 33.07)"/></svg>