<svg id="图层_1" data-name="图层 1" xmlns="http://www.w3.org/2000/svg" viewBox="0 0 48 48"><defs><style>.cls-1{fill:#fff;}.cls-2{fill:#0097da;}</style></defs><title>同济大学</title><circle class="cls-1" cx="24" cy="24" r="24"/><path class="cls-2" d="M7.48,11.74c-.27-.33-.94-1-.33-1.3,0,.25,1.17-.89.91-1,.14-.15.18-.2.24-.22.7-.22,1.7,1,2.06,1.51.1.33.33,1,.21,1.17-1.14-.54-.4-.5-.41-.77-.3-.64-1.29-1.53-1.68-1.41-.18.18-.49.83-.8,1-.25.53,1.3,1.91,1.68,2.41a.45.45,0,0,1-.42.07Z"/><path class="cls-2" d="M8.09,11s.11.12.15.08c.31-.27.48-.45.37-.54s-.08-.08-.14-.07a.91.91,0,0,0-.24.2C8.13,10.79,8,10.86,8.09,11Z"/><path class="cls-2" d="M9,11.66c.5.46-.15.47-.42.32-.69-.68,1.31-1.54,1-.47C9.44,12,9,11.27,9,11.66Z"/><path class="cls-2" d="M17.23,3.19c-.22.27.09.56.43.47s-.11-.24-.15-.35,0-.18-.09-.2S17.2,3.15,17.23,3.19Z"/><path class="cls-2" d="M17.48,3.83a.38.38,0,0,1,.09.47c-.1.23-.4.33-.28,0a1.1,1.1,0,0,0-.08-.4C17.16,3.78,17.49,3.78,17.48,3.83Z"/><path class="cls-2" d="M17.86,7.27c-.18-.06-.26-.16-.4-.42a5.85,5.85,0,0,0-.24-2.16h.17A3.33,3.33,0,0,1,17.75,6a2.18,2.18,0,0,0,.19.75C18,7.06,18,7.28,17.86,7.27Z"/><path class="cls-2" d="M18.27,3.72a.38.38,0,0,0,.13.51h0c.08.22-.24.66-.34.87a.4.4,0,0,0,.07.52c.35-.06.42-.24.48-.53s.12-.52.16-.8c0,0,.13-.34.29-.37.19.23-.24.36-.07.72.28.13.25-.54.25-.62,0-.29.16-.69.3-.35a1.7,1.7,0,0,0,.34.6c.18.13.44-.08.26-.28s-.3,0-.48-.54c0-.1,0,0,.2-.27,0,0,.13-.3-.13-.21,0,0-.5.76-.65.6s.26-.52.34-.71a.34.34,0,0,0,0-.28c-.18,0-.62.3-.45-.25,0-.2-.45.08-.46.12a1.71,1.71,0,0,0-.42.81c0,.44.18.2.38.06a.84.84,0,0,1,.41-.44c.31-.06-.1.7-.07.79s.05.23,0,.28C18.61,4.26,18.45,3.56,18.27,3.72Z"/><path class="cls-2" d="M20.21,3.11c.27.15.26.1.12.38-.06.13.46,0,.49,0s.89-.25.65.25-.95.24-1.18.13c-.07,0-.5-.16-.42-.33A1,1,0,0,1,20.21,3.11Z"/><path class="cls-2" d="M19,4.83c-.12,0-.06.53,0,.68a4.91,4.91,0,0,0,.17.63c.09.26.35.2.27,0a1.63,1.63,0,0,1-.12-.65c0-.24.27-.17.33.16.16.57.23,0,.35-.23,0-.07.13-.83.41-.49s0,1.24.09,1.28.29-.74.31-.91a1,1,0,0,0-.34-.8c-.23-.11-.35,0-.45.2,0,0,0,.53-.16.47s-.08-.33-.22-.32-.2.42-.35.41A.59.59,0,0,1,19.17,5C19.06,4.76,19,4.81,19,4.83Z"/><path class="cls-2" d="M31.8,3.72a2.9,2.9,0,0,0-.77.71c-.12.25-.21.55-.4.49s-.48-.2-.62-.13-.65.34-.4.43a.71.71,0,0,0,.57.06c.35,0,.44,0,.23.21s-.44.42-.69.64-.41.37-.17.53a7.52,7.52,0,0,0,1-.56,2.38,2.38,0,0,0,.4-.5c.08-.25.15-.1.52,0s.35.19.6-.26c0-.23-.32,0-.42,0s-.41-.1-.43-.19c0-.26.71-.89.83-1.21S31.91,3.7,31.8,3.72Z"/><path class="cls-2" d="M31.21,6.79a.89.89,0,0,0,.39.4c.1,0,.29-.52.22-.57a1.35,1.35,0,0,1-.28-.35C31.18,5.84,31,6.42,31.21,6.79Z"/><path class="cls-2" d="M39.72,10.74c.16-.27,1.25-.87,1-1.05s-.8.71-1,.76-.13-.52-.42-.3-.27.3-.43.44c-.55.39,0,.36.27.24s.6.27.9.5c.33.38.65.38.88.76.11.11-.56.07.15.41.08,0,.64-.05.54-.2s-.47-.38-.67-.58c-.76-.53.17-.23.83-.31.28-.08.37-.15.42-.38s-.3-.32-.33-.31a.86.86,0,0,1-.47-.1c-.12-.1.09-.08.09-.16-.18-.23-.24.07-.33-.09s.17-.13,0-.31-.23,0-.35.07-.08-.07-.14,0,.15.1,0,.2-.29.12-.38.2c-.23.28,0,.39.15.2s.79-.41.55-.08c-.2.07-1,.47-.34.45A1.76,1.76,0,0,0,41,11c.26-.09.28-.41.74,0,0,.13-.72.17-.92.22A1,1,0,0,1,39.72,10.74Z"/><path class="cls-2" d="M39,11.65c.46-.53.76.3,1.18.34.17,0,.06.47-.13.47-1-.13.16.5-.11.68s-.3-.22-.54-.26c-.17.2-1.75.79-1.41-.24.28-.07.22.52,1,.19s-.22-.41-.34-.53c-.7-.7.15-.54.56-.09.27.27.69-.19.35-.22S39.17,11.84,39,11.65Z"/><path class="cls-2" d="M24,0A24,24,0,1,0,48,24,24,24,0,0,0,24,0Zm0,46.61A22.61,22.61,0,1,1,46.61,24,22.61,22.61,0,0,1,24,46.61Z"/><path class="cls-2" d="M24,6.44A17.56,17.56,0,1,0,41.56,24,17.56,17.56,0,0,0,24,6.44Zm0,34A16.39,16.39,0,1,1,40.39,24,16.39,16.39,0,0,1,24,40.39Z"/><path class="cls-2" d="M35.49,22.2a.49.49,0,0,1,.68.13.41.41,0,0,1,0,.09c.35.78-.1,2.2,0,3.23a.51.51,0,0,0,.57.11,25.81,25.81,0,0,0,1-5.37c-.56-3.2-5.42-8.15-7.5-8-.37,0-.57.35-.07.58,1.82.91,3.52,2.72,5.27,6.46a3.9,3.9,0,0,0-2.12,2.64c-.09,2.29-.21,4.83-.3,7.12a.91.91,0,0,0-.6-.48,10.77,10.77,0,0,1-1.5.08c.2-1.05.5-2.16.7-3.2a2.42,2.42,0,0,1,.55-.68c.08,0,.16,0,.19-.09a1.61,1.61,0,0,0,0-.69L32.09,24c.46-1.61.66-2.27,1-3.45q.33-.07.66-.18c.29-.3.35-.56-.21-.8-.73-.29-1.12,0-2.11.05a8.07,8.07,0,0,0-1.35-1.26c-.59-.08-1.17-.15-1.56.28-.07.14-.2.32.14.87.44.3.86,0,1.84.67-.58.5-1.35.74-1.92,1.56-.95,1.73-2,3-2.42,5.08a8,8,0,0,0,.19,3.44c.2.87,1.19,1.55,1.2,2.39a3.87,3.87,0,0,1-.91.85,15.33,15.33,0,0,0-.45-2.32c-.48-.6-1.58-1-2.25-1.61.2-1.36.74-2.9.94-4.26l.61-.11a2.3,2.3,0,0,0,0-.74l-.33-.08c.47-1.27.79-2.54,1.26-3.8.29-.07.78-.23,1.07-.3a1.63,1.63,0,0,0,0-.82c-1.57-.46-2.39-.2-4.39.2A5.64,5.64,0,0,0,22,18.25a1.2,1.2,0,0,0-1.12.1c-.23,1.88.85.79,1.5,1.73-1.69,1.79-3.21,4.34-3.11,6.87.43,2.33,1.77,3.38,1.58,4.65a3.63,3.63,0,0,1-1.23.06c-.19-.76-.23-1.6-.93-1.89H17.43c-.07,0-.17-.26-.17-.32.35-1.38.84-2.66,1.2-4,.08-.07.35,0,.43-.1a3.74,3.74,0,0,0,.1-1h-.24c.28-1,.57-1.82.86-2.8,1.24,0,1.12-.89.59-1.23a16.82,16.82,0,0,1-2.75-.07c-1.27-2.79-2.81-.81-.87.43C15.11,22.14,13.32,23,13,25.45c-.37,2.88-.06,3.6,2.17,5.38l-2,.17A3,3,0,0,1,12,28c1.06-3.33.68-4.2.53-8.09a1.08,1.08,0,0,1,1.12-.62c.48,0,1.21.78,1.83.54.33-1-.82-1.8-1.94-2.28,2.14-1.27,1-3.22-1.08-3.08.37.78.69,1.44.46,2-.87.72-2.19,1.58-2.44,2.59,1,7.27-1,8,.07,11.83a31.64,31.64,0,0,0,3.75,4.88c-.11.2-.35.63-.26.76s.15.3.61.25c.29-.11.36-.15.58-.52a11,11,0,0,0,5.41,1.84,1.58,1.58,0,0,0-.15,1,.5.5,0,0,0,.65.16,4.14,4.14,0,0,0,.51-1.16,40.16,40.16,0,0,0,5.7.11,2.17,2.17,0,0,0,.08.84c.36.36.64,0,.81-.19a1.31,1.31,0,0,0,.19-.86c3.28-.73,7.86-3.72,8.55-8.67C36.7,27.11,35,23.92,35.49,22.2Zm-9.88-2c-.35,1.4-.93,3-1.29,4.45a3.52,3.52,0,0,1-1.06-.32C20.74,21.87,24,19.89,25.61,20.23Zm-4.55,4.13h0c1.21.24,1,.64,1.49,1a7.76,7.76,0,0,0,1.34.27c-.33,1.23-.49,2.58-.82,3.82C22,28.61,20.17,27.74,21.06,24.36ZM22.84,31c-.07.34-.12.71-.42.88a7.39,7.39,0,0,1,0-1.33h0A1,1,0,0,1,22.84,31ZM19,21a29.25,29.25,0,0,0-1,3.43,1.91,1.91,0,0,1-.95,0,5.38,5.38,0,0,1-.95-1.53l0,0A2.75,2.75,0,0,1,19,21Zm-4.54,5.19a3.16,3.16,0,0,1,.82-2.27h0v0l1.09,1.31a2.21,2.21,0,0,0,1.27.13c-.41,1.33-.77,2.67-1.18,4C15.39,29.35,14.48,27.94,14.48,26.21Zm1.09,5.6a1.77,1.77,0,0,1-.39,1.06,1.3,1.3,0,0,1-1-1.1,1.84,1.84,0,0,1,1.42,0ZM17,34.25a2.79,2.79,0,0,1-1-.58c.12-.45.38-1.12.54-1.53a1.83,1.83,0,0,1,.66,0s.57-.18-.31-1.41a2.26,2.26,0,0,1,1.4.22C19.71,32.32,18.09,34.2,17,34.25Zm1.41.87a4,4,0,0,1,.7-1.29c.41.14.54,1.22.9,1.42A2.59,2.59,0,0,1,18.45,35.12Zm2.69.21c-.25-.77-.71-1.68-.92-2.45a4.31,4.31,0,0,1,1.66.82C21.82,34.23,21.89,35,21.14,35.33Zm1.05.47c.43-1.49,1-3.24,1.43-4.73v0c.54.2,1.34.51,1.4,1a15.6,15.6,0,0,0,.63,2.32C25.13,35.09,24.55,36.13,22.19,35.8Zm3.57,0c-.05,0-.06-.1-.11-.15a2,2,0,0,0,.53-.43c.12.08.12.06.18.17A1.14,1.14,0,0,1,25.76,35.8Zm6.47-15.4c-.36,1.23-.84,2.88-1.21,4.11C28.67,23.4,30.33,20.93,32.23,20.4Zm-3.43,4c.72.24.9.67,1.34.87a1.36,1.36,0,0,0,.66.15c-.22,1.16-.54,2.39-.76,3.56a3.89,3.89,0,0,1-1.36-.06C27.33,28.23,28.08,25.66,28.8,24.4Zm-.58,11.34a8.45,8.45,0,0,1-1.48-.87A9.25,9.25,0,0,1,29,33.13,19.71,19.71,0,0,1,28.22,35.74Zm.27-4.84a1.11,1.11,0,0,1,.25-.6v0c.53-.27.67-.08.87.16a3.31,3.31,0,0,1-.44,1.46C28.79,31.81,28.49,31.15,28.49,30.9Zm.83,4.25c.43-2,.74-3.24,1-4.55.23-.2.59-.38.81-.58h0C33.12,28.74,34.78,33.77,29.32,35.15ZM34.42,32a18.16,18.16,0,0,0,.42-5.3C35.13,27.39,35.9,31.39,34.42,32Zm.11-10.15a5.31,5.31,0,0,0,.93-1.23C35.69,21.26,35.19,21.71,34.53,21.84Z"/><polygon class="cls-2" points="2.27 24.75 5.27 24.43 5.16 23.29 5.56 23.29 5.83 26 5.43 26.05 5.31 24.9 2.31 25.22 2.31 24.76 2.27 24.75"/><path class="cls-2" d="M6.48,28.66a1.59,1.59,0,0,0-.81-1,1.75,1.75,0,0,0-1.4-.05h0a2.08,2.08,0,0,0-.76.44A1.47,1.47,0,0,0,3,28.8a1.57,1.57,0,0,0,0,.91,1.74,1.74,0,0,0,.44.75,1.42,1.42,0,0,0,.77.39,2,2,0,0,0,1-.07,2,2,0,0,0,.82-.47,1.58,1.58,0,0,0,.43-.75A1.72,1.72,0,0,0,6.48,28.66Zm-.4.82a1.1,1.1,0,0,1-.35.53,1.87,1.87,0,0,1-.62.3A1.42,1.42,0,0,1,4,30.3a1,1,0,0,1-.57-.71,1.1,1.1,0,0,1,.1-.92,1.34,1.34,0,0,1,.83-.61l0,0a1.46,1.46,0,0,1,1.16,0,1.13,1.13,0,0,1,.54.72A1.2,1.2,0,0,1,6.08,29.48Z"/><polygon class="cls-2" points="4.33 33.27 7.33 31.63 7.55 32.05 6 35 8.37 33.71 8.57 34.1 5.57 35.74 5.35 35.32 6.88 32.42 4.49 33.66 4.29 33.27 4.33 33.27"/><path class="cls-2" d="M8.92,37.93l.31-.27.93,1.13-1,.83a2.5,2.5,0,0,1-.75-.27,2.21,2.21,0,0,1-.57-.48A2,2,0,0,1,7.41,38a1.43,1.43,0,0,1,.08-.89,2.09,2.09,0,0,1,.56-.76,2.12,2.12,0,0,1,.85-.45,1.37,1.37,0,0,1,.87.05,1.8,1.8,0,0,1,.74.57,1.7,1.7,0,0,1,.34.6,1.28,1.28,0,0,1,.05.58,1.73,1.73,0,0,1-.26.57L10.29,38a1.59,1.59,0,0,0,.19-.42.72.72,0,0,0,0-.41,1.19,1.19,0,0,0-.23-.43,1.32,1.32,0,0,0-.42-.36,1,1,0,0,0-.42-.12.91.91,0,0,0-.4.06,1.84,1.84,0,0,0-.61.34,1.74,1.74,0,0,0-.48.63,1,1,0,0,0-.06.65,1.36,1.36,0,0,0,.3.6,1.46,1.46,0,0,0,.45.37,1.3,1.3,0,0,0,.46.18l.49-.42-.65-.78Z"/><path class="cls-2" d="M10.83,40.36a1.14,1.14,0,0,0-.23.78.89.89,0,0,0,.44.61,1.17,1.17,0,0,0,.51.19.72.72,0,0,0,.47-.13,1.84,1.84,0,0,0,.45-.51l1.26-2-.38-.25-1.28,2a1.27,1.27,0,0,1-.27.34.41.41,0,0,1-.26.09.63.63,0,0,1-.29-.1.45.45,0,0,1-.22-.32,1,1,0,0,1,.17-.54l-.37-.18Z"/><polygon class="cls-2" points="13.83 43.36 15.38 40.26 15.78 40.47 14.23 43.57 13.83 43.36"/><path class="cls-2" d="M20.15,42l.44.1-.41,2a2.76,2.76,0,0,1-.28.79,1,1,0,0,1-.52.4,1.43,1.43,0,0,1-.82,0,1.62,1.62,0,0,1-.73-.33.93.93,0,0,1-.33-.57,2.38,2.38,0,0,1,.05-.88l.41-2,.45.1-.41,2a1.89,1.89,0,0,0-.06.67.65.65,0,0,0,.21.39,1,1,0,0,0,.46.22.91.91,0,0,0,.74-.08,1.35,1.35,0,0,0,.39-.82l.41-2Z"/><polygon class="cls-2" points="22.06 45.8 22.18 42.31 22.64 42.31 24.34 45.11 24.44 42.38 24.87 42.38 24.75 45.86 24.29 45.86 22.59 43.07 22.5 45.8 22.06 45.8"/><polygon class="cls-2" points="27.06 45.68 26.64 42.22 27.09 42.22 27.51 45.67 27.06 45.73 27.06 45.68"/><path class="cls-2" d="M30.64,44.85l-2.26-2.94.47-.15,1.57,2.16c.13.17.24.34.34.49v-.6l.15-2.69.45-.14-.28,3.73-.45.14Z"/><polygon class="cls-2" points="34 43.46 32.4 40.39 34.58 39.2 34.76 39.57 32.98 40.57 33.48 41.51 35.14 40.61 35.33 40.97 33.66 41.88 34.21 42.88 36.06 41.88 36.25 42.24 34 43.46"/><path class="cls-2" d="M39.09,38.6a2.25,2.25,0,0,0-.58-.07,1.14,1.14,0,0,0-.32.07,1.16,1.16,0,0,0,.3-.75.86.86,0,0,0-.25-.61,1,1,0,0,0-.46-.28.72.72,0,0,0-.5,0,2.11,2.11,0,0,0-.56.42l-1.09,1.08L38,41l.33-.32-1.06-1.11.38-.37.19-.17a.54.54,0,0,1,.21-.08,1.82,1.82,0,0,1,.33,0,1.23,1.23,0,0,1,.56.11l.82.2.4-.4ZM38,38.2a1.14,1.14,0,0,1-.3.39l-.7.69h0l-.78-.83.77-.76a.84.84,0,0,1,.51-.28.48.48,0,0,1,.4.17.54.54,0,0,1,.15.29A.47.47,0,0,1,38,38.2Z"/><path class="cls-2" d="M40.37,36.86l.21-.38a.82.82,0,0,0,.43.12.84.84,0,0,0,.41-.14,1.22,1.22,0,0,0,.37-.38,1.4,1.4,0,0,0,.2-.43.77.77,0,0,0,0-.37A.47.47,0,0,0,41.8,35a.43.43,0,0,0-.29-.08.64.64,0,0,0-.34.14c-.08.06-.24.2-.47.42a3.32,3.32,0,0,1-.55.44.87.87,0,0,1-.47.12.71.71,0,0,1-.42-.14.87.87,0,0,1-.31-.4A.86.86,0,0,1,39,35a1.47,1.47,0,0,1,.26-.6,1.86,1.86,0,0,1,.47-.5,1,1,0,0,1,1.09,0l-.22.38a.66.66,0,0,0-.53-.08,1.25,1.25,0,0,0-.68,1,.45.45,0,0,0,.19.37.39.39,0,0,0,.33.06,1.94,1.94,0,0,0,.58-.44,5.88,5.88,0,0,1,.6-.52,1.14,1.14,0,0,1,.54-.17.84.84,0,0,1,.48.16,1,1,0,0,1,.34.42,1.22,1.22,0,0,1,.06.6,1.59,1.59,0,0,1-.26.63,2,2,0,0,1-.54.58A1.16,1.16,0,0,1,41,37a1.1,1.1,0,0,1-.61-.19Z"/><polygon class="cls-2" points="43.78 33.26 40.61 31.95 40.78 31.53 44 32.82 43.83 33.25 43.78 33.26"/><polygon class="cls-2" points="45 29.79 42.12 28.89 41.79 30 41.4 29.87 42.19 27.24 42.58 27.36 42.25 28.46 45.13 29.36 45 29.8 45 29.79"/><polygon class="cls-2" points="45.81 25.31 44.38 25.16 42.28 26.28 42.34 25.73 43.43 25.15 44.04 24.86 43.48 24.42 42.55 23.64 42.61 23.11 44.42 24.7 45.86 24.86 45.81 25.31"/><path class="cls-2" d="M20.22,12.74l-.3.11L19.24,11a1.21,1.21,0,0,1-.2.3l-.26.27-.1-.28a2.41,2.41,0,0,0,.33-.44,1.23,1.23,0,0,0,.14-.42l.19-.07Z"/><path class="cls-2" d="M21.74,11.91l.3-.08a.54.54,0,0,0,.19.28.37.37,0,0,0,.29,0,.41.41,0,0,0,.24-.11.43.43,0,0,0,.15-.2,1.65,1.65,0,0,0,.06-.32,2.41,2.41,0,0,0,0-.38V11a.83.83,0,0,1-.21.28.71.71,0,0,1-.33.15.69.69,0,0,1-.57-.13,1,1,0,0,1-.21-1.21.81.81,0,0,1,1-.28.88.88,0,0,1,.37.32,1.88,1.88,0,0,1,.23.69,2.55,2.55,0,0,1,0,.78.91.91,0,0,1-.24.49.79.79,0,0,1-.46.24.7.7,0,0,1-.51-.08.77.77,0,0,1-.31-.42Zm1.07-1.34a.61.61,0,0,0-.21-.39.49.49,0,0,0-.37-.1.49.49,0,0,0-.33.23.7.7,0,0,0-.08.47.51.51,0,0,0,.22.36.52.52,0,0,0,.38.09.45.45,0,0,0,.33-.22A.61.61,0,0,0,22.81,10.57Z"/><path class="cls-2" d="M25.05,11a2.2,2.2,0,0,1,.22-.7.86.86,0,0,1,.34-.37.73.73,0,0,1,.48-.07.67.67,0,0,1,.56.42,2.59,2.59,0,0,1,.09.4,3.11,3.11,0,0,1,0,.61,2.48,2.48,0,0,1-.22.7,1,1,0,0,1-.35.37.68.68,0,0,1-.48.07.72.72,0,0,1-.52-.36A1.64,1.64,0,0,1,25.05,11Zm.32.06a1.54,1.54,0,0,0,0,.85.42.42,0,0,0,.33.26.41.41,0,0,0,.39-.14,1.56,1.56,0,0,0,.29-.8,1.75,1.75,0,0,0,0-.85.46.46,0,0,0-.32-.27.44.44,0,0,0-.38.12,1.71,1.71,0,0,0-.31.82Z"/><path class="cls-2" d="M28.47,10.53l.1-.28,1.56.57-.09.23a3.28,3.28,0,0,0-.69.48,4.32,4.32,0,0,0-.65.7,2.91,2.91,0,0,0-.35.62L28,12.74a4.09,4.09,0,0,1,.37-.64,4,4,0,0,1,.58-.66A4.36,4.36,0,0,1,29.6,11Z"/></svg>