<?xml version="1.0" encoding="utf-8"?>
<!-- Generator: Adobe Illustrator 25.0.1, SVG Export Plug-In . SVG Version: 6.00 Build 0)  -->
<svg version="1.1" id="图层_1" xmlns="http://www.w3.org/2000/svg" xmlns:xlink="http://www.w3.org/1999/xlink" x="0px" y="0px"
	 viewBox="0 0 170.6 170.6" style="enable-background:new 0 0 170.6 170.6;" xml:space="preserve">
<style type="text/css">
	.st0{fill:#137D3B;}
	.st1{fill:#FFFFFF;}
	.st2{fill-rule:evenodd;clip-rule:evenodd;fill:#137D3B;}
	.st3{fill-rule:evenodd;clip-rule:evenodd;fill:#539735;}
	.st4{fill-rule:evenodd;clip-rule:evenodd;fill:#82AB37;}
	.st5{fill-rule:evenodd;clip-rule:evenodd;fill:#C2CA22;}
	.st6{fill-rule:evenodd;clip-rule:evenodd;fill:#FFFFFF;}
</style>
<circle class="st0" cx="85.3" cy="85.3" r="85.3"/>
<circle class="st1" cx="85.6" cy="85.6" r="59.5"/>
<path class="st2" d="M44.1,53.3h28.4v1c0,0-1.2,2.9-7.9,10.6c-2.4,2.7-10.4,11-14.4,18c-5.6,10.2-5.3,16.8-4.7,22.3
	c0,0-1.2-3.8-1.2-13L44.1,53.3z"/>
<path class="st3" d="M72.6,56.1c0,0-0.4,4.4-9,13.2c-9.5,9.7-16.9,21.6-16.9,34.1s14,28.1,31.3,31c0,0-24.3-10.4-24.3-30.9
	c0-21.1,19.1-30.9,18.9-41.2L72.6,56.1z"/>
<path class="st4" d="M72.6,68.4c0,0-1.3,3.1-8.3,12.3c-7.2,9.6-9.3,20.8-7.3,28.5c0.6,2.4,1.5,4.8,2.7,6.9
	c6.1,10.1,20.5,22.2,41,16.8c0,0-22.7,3.4-35-19.8c0,0-5.9-13.5,1.2-26.3c4.9-8.8,5.7-7.9,5.7-11.4L72.6,68.4z"/>
<path class="st5" d="M72.6,79.6c-2,3.5-3.7,7.1-5.2,10.8c-2.6,7.1-5.3,24.2,12.8,35.9c17.5,11.3,33,1,37-5.3c0,0-17.2,10.7-31.3,1.3
	C77,116.6,72,106.6,72.6,96.1V79.6z"/>
<path class="st2" d="M78.2,109.7c0,0,15.9,9.3,20.6-10.2c0.4-1.6,0-46.3,0-46.3H127v38.8c0,0,0.9,15.7-6.6,24.2
	C113.9,123.5,88.9,132.2,78.2,109.7z"/>
<polygon class="st2" points="73.6,51.4 73.6,50.6 75.7,50.6 75.7,44.6 73.6,45.1 73.6,44.4 76.7,43.5 76.7,50.6 78.8,50.6 
	78.8,51.4 "/>
<path class="st2" d="M82.5,44.2c-0.4,0-0.7,0.2-0.9,0.5c-0.3,0.4-0.4,0.8-0.4,1.3c0,0.5,0.2,0.9,0.4,1.3c0.5,0.6,1.3,0.6,1.9,0.2
	c0.1,0,0.1-0.1,0.2-0.2c0.3-0.3,0.4-0.8,0.4-1.2c0-0.5-0.1-1-0.4-1.4C83.3,44.4,82.9,44.2,82.5,44.2L82.5,44.2z M80.6,51.3v-0.9
	c0.5,0.2,1,0.3,1.5,0.3c0.6,0,1.2-0.3,1.5-0.8c0.4-0.7,0.6-1.5,0.5-2.4c-0.4,0.6-1.1,1-1.8,1c-0.6,0-1.2-0.3-1.5-0.7
	c-0.4-0.5-0.6-1.1-0.6-1.7c0-0.7,0.2-1.4,0.7-2c0.4-0.5,1.1-0.8,1.7-0.8c0.8,0,1.5,0.4,1.9,1c0.5,0.9,0.7,1.9,0.6,2.9
	c0.1,1.1-0.2,2.2-0.8,3.1c-0.5,0.7-1.3,1.2-2.2,1.2C81.6,51.6,81.1,51.5,80.6,51.3L80.6,51.3z"/>
<path class="st2" d="M89.3,50.8c1,0,1.5-1.1,1.5-3.3s-0.5-3.3-1.5-3.3c-1,0-1.6,1.1-1.6,3.3C87.8,49.7,88.3,50.8,89.3,50.8z
	 M89.3,51.5c-0.8,0-1.5-0.4-1.9-1.1c-1-1.9-1-4.1,0-5.9c0.6-1.1,2-1.4,3.1-0.8c0.3,0.2,0.6,0.5,0.8,0.8c0.9,1.9,0.9,4.1,0,5.9
	C90.8,51.1,90.1,51.6,89.3,51.5L89.3,51.5z"/>
<path class="st2" d="M93.7,51.4v-0.9c0.5-0.9,1.1-1.8,1.9-2.5l0.5-0.5c0.6-0.5,0.9-1.2,0.9-1.9c0-0.4-0.1-0.7-0.4-1
	c-0.3-0.3-0.6-0.4-1-0.4c-0.6,0-1.2,0.2-1.8,0.5v-0.9c0.6-0.3,1.3-0.4,2-0.4c0.6,0,1.2,0.2,1.7,0.6c0.4,0.4,0.7,0.9,0.7,1.5
	c0,0.4-0.1,0.8-0.3,1.2c-0.3,0.4-0.6,0.8-1,1.2l-0.4,0.4c-0.7,0.6-1.2,1.3-1.5,2.2h3.2v0.9L93.7,51.4z"/>
<path class="st6" d="M60.2,11.8c0.4,0.9,1,0.8,1.6,1.2c1-0.6,0.8-1.3,1.3-2.1c0.4-0.6,0.9-0.4,1.3-0.9h0.1c0,0.5,0.2,0.9,0.4,1.3
	c0.2-0.2,0.2-0.1,0.3-0.3c1.5-0.7,1.3-2.2,2-3.3c0.2-0.4,1-0.7,1.3-1c-0.3-0.6-0.5-1.4-0.4-2.1C67.6,4.6,67,4.4,66.5,4
	c-0.3,0.1-0.4,0.2-0.5,0.3l-0.4,0.3c0.2,0.5,0.3,0.6,0.8,0.6c0,1.7-2.4,4.2-4.5,4.8c-0.5-0.9-1.3-0.8-2.1-1.2
	c-0.4,0.1-0.7,0.3-1,0.6C59.5,10.6,61,10.7,60.2,11.8L60.2,11.8z M64.3,16.8h0.1v0.1h-0.1c0,0.6-0.3,0.7-0.5,1.2l-0.4,0.1
	C63.2,17.3,63.8,17.3,64.3,16.8L64.3,16.8z M62.9,21.9c2.2-1,2-3.3,2.8-5c-0.4-1.3-1.2-1.3-2.4-0.8c0-0.1,0.1-0.2,0.2-0.4
	c-0.4-1.3-1.1-0.8-1.8-1.3l-0.9,0.3c-0.1,0.7-0.3,1.4-0.7,2c0.3,0.5,0.4,0.4,0.8,0.6c0.5-0.3,0.8-0.8,0.9-1.3h0.1
	c0.4,1.9-1.9,2.4-2.1,3.3c-0.2,1.2,1,2,1.4,2.6c0.7-0.3,0.6-0.4,0.9-0.7c-0.2-0.4-0.5-0.8-0.9-1c0-0.3,0-0.3,0-0.4
	c0.2-0.4,0.6-0.7,1-0.8c-0.6,1.3,0.1,0.6,0.2,1.7c0,0.1-0.1,0.7-0.1,0.9C62.6,21.6,62.8,21.8,62.9,21.9L62.9,21.9z M61.6,23.6
	l-0.6,0.2c-0.3,0.5-0.8,1-1.3,1.4c0.1,0.3,0.2,0.5,0.4,0.7c0.2,0.3,0.6,0.3,0.9,0.1c0,0,0.1-0.1,0.1-0.1c0.8-0.4,0.8-1.1,1.2-1.7
	C62,23.9,61.9,23.9,61.6,23.6L61.6,23.6z M74,16.9c0.4,0.3,1.5,0.9,1.4,1.6c0,0.3-0.1,0.6-0.3,0.8c-0.2,0.3-0.2,0.3-0.7,0.5
	c-1.1-0.8-2.5-1.1-3.9-0.9v0.1h-0.1c0.8,1.6,0.9,3.1,1.7,4.7c-0.3,0.4-0.2,0.6-1,0.9c-0.8-0.5-1.7-0.9-2.6-1.2c0-0.1,0-0.2-0.1-0.3
	c0.3-0.3,0.7-0.5,1.1-0.7c0.3,0.2,0.2,0.1,0.6,0.1c-0.4-1.2-0.7-2.5-1-3.6l-0.3,0.1v0.1c-0.2,0.4-0.3,0.8-0.2,1.2
	c-0.4,0.2-0.2,0-0.3,0.4c0.2,0.1,0.1,0,0.2,0.2c-1.1,0.5-2.9,0.7-3.7,1.4c0.2,0.3,0.4,0.3,0.3,0.5c-0.6,0.9-2.5,1.3-3.1,0.3
	c0.1-0.3-0.1-0.2,0-0.4c0.3-0.2,0.6-0.4,1-0.5c0.3,0.2,0.2,0.2,0.4,0c0.2-0.2,0.1-0.7,0.4-1c0.6-0.8,1.8-0.2,2.4-0.8
	c0.9-0.7,1.4-3,1.4-3.8c-0.4-0.1-0.9-0.4-1.2-0.7l0.1-0.1c0.1-1.1,1.2-0.5,1.2-1.7c0.1-0.3,0-0.3-0.2-0.7c0.2-0.2,0.4-0.5,0.5-0.7
	c0.2,0,0.1,0,0.3,0c0.9-0.1,1.7,0.4,2,1.2c-0.4,0.4-0.4,0.5-0.2,1.2c-0.3,0.1-0.2,0.1-0.3,0.3c-0.3,0.7-0.2,1.5,0.2,2.1
	c1.3-0.5,2.7-0.8,4-0.9L74,16.9z M65.1,13.4c1.2-1,2.2-2.2,2.9-3.6c0.3-0.1,0.6-0.1,1-0.2v0.1H69c0.2,0.4,0.3,0.9,0.6,1.3
	c-1.6,0.8-2.2,2.4-3.7,3.3C65.4,14.1,65.3,14.3,65.1,13.4L65.1,13.4z M37.4,38.1c-0.4,0.2-0.7,0.1-0.9,0.3c-1.3,0.6-2,2.2-3.1,2.4
	C33,40.9,32.7,41,32.5,41c-0.7-1.4-1.3-2.8-1.8-4.3c0-0.6,0.5-0.8,0.7-1.4c0.2-0.8,0.3-1.5,0.4-2.3c-0.9-1.2-1.2-1-2.2-0.6
	c-0.2,0.9-1,1.5-1.5,2.4c-0.9,1.4-1.6,2.9-2.2,4.4c1.6,1.6,2.8-0.7,4.3,0.5c2.1,0.9,0.6,6.3,0.2,7.7c0.3,0.4,0.8,0.7,1.3,0.8
	c1.8-1.8,3.4-3.8,4.7-6c0.4-0.7,1.4-1.7,2.1-1.7c0.8-0.7,0.6-0.8,0.6-1.5c-0.6-0.5-0.9-0.5-1.5-0.8L37.4,38.1z M23.3,40.5l-0.6-0.7
	c-0.9,0-1.9-0.1-2.8-0.3l-1.4,1.1c-0.1,0.6-0.3,1.1-0.5,1.6c1,0.9,2.3,1.5,3.6,1.7C22.6,43,23.1,41.8,23.3,40.5z M25.1,46
	c0.3,0,0.1,0,0.2,0.2c0.6,0.8,0.5,1.9-0.2,2.6c0,0-0.1,0.1-0.1,0.1c-1.6,0-1.9,0.7-3.7-1.4c0.1-0.2,0.1-0.1,0.1-0.3
	C22.5,46.1,24,45,25.1,46L25.1,46z M28.9,48.6c-0.5,2.2,2.7,4.6,0.6,6.6c-1.4-0.4-1.5,0-2.7-1.5c0.2-1.2,0.2-2.5,0.3-3.6
	c0.1-0.6,0.6-1.2,0.7-1.8C28.4,48,28.4,47.9,28.9,48.6L28.9,48.6z M157.7,44.8c-0.7,0.4-0.8,0.6-0.5,1.3c-0.2,0.1-0.1,0.1-0.3,0
	c-0.5,0.1-1-0.3-1.4-0.7c-0.3,0.4-0.4,0.5-0.3,1c-0.3,0.2-0.7,0.2-1,0c-1,0.9-0.8,0.6-2,1c-0.2-0.2-0.1-0.1-0.3-0.2
	c0.2-0.7,0.5-0.9,0.2-1.8c1-0.4,1.7,0.1,2.6-0.2c0.1-0.4,0.2-0.9,0.1-1.4c0.6-0.4,1.3-0.4,1.9-0.1c0.8-0.5,0.7-0.9,0.5-1.6
	c-0.9-0.1-2.3,0.5-3-0.4c-0.5,0.2-2,1.5-2,2.1c-1.2,0.5-1.2-0.1-2.7,0.9c0-0.3,0-0.4,0-0.7c1.2-0.8,2.4-1.7,3.6-2.6
	c0.4-0.4,0.4-0.5,0.6-0.9l-0.5-0.8c-0.3,0.2-0.6,0.3-0.8,0.5c-0.4,0.3-0.9,0.6-1.4,0.8c-0.2-0.2-0.1-0.1-0.3-0.2
	c0.2-0.5,0.5-1,0.9-1.4c-0.1-0.3-0.1-0.2-0.1-0.4c-0.1-0.2-0.3-0.4-0.5-0.5c-1.4,1.1-2.6,2.4-3.7,3.9c0.1,0.2,0.1,0.5,0.3,0.7
	c0.2,0.1,0,0,0.3,0.2c0.6-0.3,1.4-1.1,2.1-1l0.1-0.1c-0.2,0.7-1.6,1.2-1.8,1.8c-0.9,0-2.7-1.7-3.7-1.8c-0.2-0.5-0.1-0.5,0.1-0.9
	c-0.3-0.6-1.1-0.9-1.8-0.5c-0.3,0.2-0.5,0.4-0.6,0.7l-0.3,0.3c1.1,1.7,3.2,1.8,4.6,2.6c0.6,0.4,0.7,1.3,1.5,1.8
	c0.4,0.2,0.7,0.3,1.1,0.4c0.2,0,0.5-0.2,0.7-0.1c0.6,0.2,0.8,1.4,1.2,1.7c0.2,0.1,0.8,0.1,0.9,0.2c0.3,0.4,0.6,0.9,0.9,1.4l-0.1,0.1
	c-0.4-0.4-0.8-0.7-1.2-1.1l-0.4,0.1c0,0.2-0.1,0.3-0.2,0.5c0.4,1,1.8,3.5,2.8,3.9l0.3,0.3c1.6-1.2,0.5-2.2,0.2-3.7
	c0-0.4,0.2-0.8,0.2-1.2c1-0.8,2.3-1.4,3.6-1.6c0.6,0,1,0.5,1.7,0.4c0.1-0.2,0-0.1,0.2-0.3c-0.6-1.4-1.4-1.6-2.2-2.5L157.7,44.8z
	 M145.5,44.8c1.6,1.2,3.2,2.1,4,4.3l-0.7,0.4c-0.5-0.4-1.2-0.6-1.8-0.3c-0.2,0.8-0.4,0.9,0.3,2c0.5,0.2,0.7,0.8,0.5,1.3
	c-0.1,0.2,0,0.1-0.3,0.3c-0.5-0.2-1-0.4-1.5-0.7c-0.4-0.3-0.6-0.9-1-1.2c-0.3,2.4-5.9,3.1-6.9,1.8c-0.9-0.6-1.4-1.5-1.3-2.6
	c0-0.2,0-0.2,0.1-0.4c0.2-0.1,0.1-0.1,0.3,0c0.5,0,1.6,1.3,2,1.7c1.6-0.4,3-0.2,4.6-1.2l-0.1-0.2c0-0.5-0.8-1.5-1.2-2
	c0.1-0.4,0.4-0.8,0.8-1c0.4,0.8,1.3,1.1,2,1.8c0.7-0.5,0.8-0.8,1.7-1.4c-1-1.4-1.2-0.4-2.1-2.3L145.5,44.8z M119,18.3
	c-1.3-0.5-2.6-0.8-4-0.7l-0.1-0.1c1-1.1,1.8-2.3,2.5-3.6c-0.2-1.1-0.9-2-1.8-2.4c-0.3,0-0.6-0.1-0.8-0.3c-0.6,0.8-0.2,1.6-0.9,2.5
	c-1,1.4-2.4,2.5-4,3.2c-0.4,0.1-0.7,0-1,0.1l-2.9-1.2l-0.1,0.1l-0.1-0.1c-0.5,1.3,1.3,2.4,2.5,3.1v0.1h0.1c-1.6,2.5-5.1,2.5-7.8,1.9
	c-0.2,0.3-0.3,0.3-0.3,0.7c0,0.6,1.7,1.9,2.8,2.1c2.1,0.3,4.2-0.1,6-1.1c0.4-0.3,0.7-1.1,1.2-1.4c0.4-0.3,0.4-0.2,0.8,0
	c0.3,0.8,1,1.2,1.3,1.8c0.2,0.4,0.2,1.1,0.4,1.5c0.5,0.9,0.9,1.9,1.3,2.9c0.2,0.9-0.3,2.5,0.5,2.9c1.3,0.5,2.9-1.8,2.6-2.9
	c-0.3-1.1-4-5.9-5.1-6.9c1.3-1.7,6.8,1.1,8.6,0C121.2,20.1,119.9,18.8,119,18.3z"/>
<path class="st6" d="M8.4,102.8l1.3-0.4v0.6c-0.1,0.6,0,1.2,0.1,1.8c0.1,0.6,0.4,1.2,1,1.5c0.7,0.2,1.5,0.2,2.2-0.1l5.5-1.5l-1-3.6
	l1.2-0.3l1.4,5.1l-5.8,1.5c-0.8,0.2-1.6,0.4-2.4,0.4c-0.5,0-1.1-0.1-1.5-0.3c-0.9-0.5-1.5-1.4-1.7-2.4
	C8.5,104.5,8.4,103.7,8.4,102.8z"/>
<polygon class="st6" points="11.6,114.2 12.8,113.7 13.9,116.3 21.4,113 20.3,110.3 21.4,109.9 24.4,116.6 23.2,117.1 22.1,114.5 
	14.6,117.8 15.7,120.4 14.6,120.9 "/>
<path class="st6" d="M20.9,124.1l2.1,3.3l3.2-4.4L20.9,124.1z M16.1,123.8l11.2-2.2l0.9,1.4l-6.7,9.3l-0.9-1.5l1.7-2.3l-2.6-4.1
	l-2.8,0.6L16.1,123.8z"/>
<polygon class="st6" points="23.4,134.6 31.4,127.6 32.4,128.8 29.8,137.5 29.8,137.5 35.7,132.4 36.5,133.4 28.5,140.5 27.5,139.3 
	30.1,130.5 30.1,130.5 24.3,135.6 "/>
<path class="st6" d="M44.3,140.5l-1,1.2c-0.4-1-1.1-1.8-1.9-2.6c-0.8-0.7-1.8-1-2.9-0.8c-1.1,0.2-2.1,0.8-2.8,1.7
	c-1.5,1.7-1.4,4.3,0.2,5.8c0.1,0.1,0.2,0.2,0.3,0.2c0.3,0.2,0.6,0.4,0.9,0.6l1.8-2.2l-1.5-1.3l0.8-0.9l2.8,2.4l-3.2,3.8
	c-1-0.4-1.9-0.9-2.8-1.6c-1.2-0.9-1.9-2.3-2.1-3.8c-0.1-1.5,0.4-3,1.4-4.1c0.9-1.2,2.3-2,3.8-2.1c1.5-0.1,3,0.4,4.1,1.4
	C43.1,138.9,43.8,139.7,44.3,140.5z"/>
<path class="st6" d="M52.4,145.6l-0.7,1.2c-0.6-0.9-1.4-1.7-2.4-2.3c-1.3-0.8-2.2-0.7-2.7,0.1c-0.2,0.3-0.3,0.7-0.2,1.1
	c0.2,0.5,0.5,1,0.9,1.4L48,148l0.7,0.8c1,0.9,1.2,2.4,0.5,3.6c-0.5,0.8-1.3,1.3-2.2,1.4c-1.1,0-2.2-0.3-3.2-0.9
	c-1-0.7-1.9-1.5-2.7-2.4l0.8-1.4c0.7,1.1,1.5,2,2.6,2.7c0.6,0.4,1.2,0.6,1.9,0.6c0.5,0,1-0.3,1.3-0.7c0.2-0.3,0.3-0.7,0.1-1.1
	c-0.3-0.6-0.6-1.2-1.1-1.6l-0.7-0.9c-0.6-0.7-1-1.4-1.3-2.2c-0.1-0.6,0-1.3,0.3-1.8c0.4-0.8,1.1-1.3,2-1.4c1-0.1,2,0.2,2.8,0.8
	C50.8,144.1,51.6,144.8,52.4,145.6z"/>
<path class="st6" d="M55.3,146.9l1.5,0.6l-2.5,6c-0.4,0.8-0.5,1.6-0.4,2.5c0.2,0.7,0.7,1.2,1.3,1.4c0.6,0.3,1.4,0.3,2,0
	c0.7-0.5,1.2-1.3,1.5-2.1l2.5-5.9l1.3,0.5l-2.4,5.7c-0.3,0.9-0.8,1.8-1.5,2.5c-1.1,0.9-2.5,1.1-3.8,0.4c-1.1-0.3-1.9-1.1-2.4-2.1
	c-0.3-1.2-0.1-2.4,0.4-3.5L55.3,146.9z"/>
<path class="st6" d="M75,152.9l1.6,0.1l-0.6,6.4c-0.1,0.8,0,1.7,0.3,2.5c0.4,0.6,1,0.9,1.7,0.9c0.7,0.1,1.4-0.1,1.9-0.6
	c0.5-0.7,0.8-1.6,0.8-2.4l0.6-6.4l1.4,0.1l-0.5,6.2c0,1-0.3,2-0.7,2.8c-0.7,1.2-2.1,1.8-3.5,1.6c-1.1,0-2.1-0.5-2.9-1.3
	c-0.6-1-0.9-2.3-0.7-3.4L75,152.9z"/>
<polygon class="st6" points="85.9,164.3 85.3,153.6 86.8,153.5 92.2,160.9 92.2,160.9 91.7,153.2 93,153.1 93.7,163.8 92.2,163.9 
	86.8,156.4 86.8,156.4 87.3,164.2 "/>
<polygon class="st6" points="98,163.2 97.8,162 100.6,161.4 98.8,153.4 96,154 95.8,152.8 102.9,151.2 103.2,152.4 100.4,153 
	102.1,161 104.9,160.4 105.2,161.6 "/>
<polygon class="st6" points="112.2,159.3 104.5,150.8 106.1,150.2 112.4,156.9 112.6,147.7 113.9,147.2 113.8,158.7 "/>
<polygon class="st6" points="120.9,155.5 115.6,146.3 121.9,142.7 122.5,143.7 117.6,146.5 119.3,149.3 123.3,147 124,148 
	119.9,150.4 121.7,153.6 126.9,150.7 127.5,151.7 "/>
<path class="st6" d="M128.6,143.9l0.7-0.5c0.6-0.4,1.1-1.1,1.3-1.8c0.2-0.6,0-1.2-0.4-1.7c-0.3-0.4-0.7-0.6-1.2-0.6
	c-0.7,0.2-1.4,0.6-1.9,1.1l-0.8,0.6L128.6,143.9L128.6,143.9z M130.9,149.4l-6.6-8.3l2.4-1.9c0.7-0.6,1.4-1,2.2-1.4
	c1-0.3,2,0,2.6,0.8c0.4,0.5,0.7,1.1,0.7,1.8c0,0.8-0.2,1.5-0.5,2.2l5.9,1.5l-1.6,1.2l-5.4-1.4l-1.2,0.9l2.8,3.5L130.9,149.4z"/>
<path class="st6" d="M137,129.5l1,1c-1,0.5-1.9,1.1-2.7,1.9c-1,1.1-1.2,2-0.4,2.6c0.3,0.3,0.6,0.4,1,0.4c0.6-0.1,1.1-0.3,1.6-0.6
	l1-0.5l0.9-0.5c1.1-0.8,2.5-0.7,3.6,0.2c0.7,0.6,1.1,1.5,0.9,2.5c-0.2,1.1-0.7,2.1-1.5,2.9c-0.9,0.9-1.8,1.6-2.8,2.2l-1.2-1.1
	c1.2-0.4,2.3-1.1,3.2-2c0.5-0.5,0.8-1.1,1-1.7c0.1-0.5-0.1-1-0.4-1.4c-0.3-0.3-0.6-0.4-1-0.3c-0.6,0.1-1.3,0.4-1.8,0.7l-1,0.5
	c-0.8,0.4-1.6,0.7-2.5,0.8c-0.6,0-1.2-0.2-1.7-0.7c-0.7-0.5-1-1.4-1-2.2c0.1-1,0.6-1.9,1.3-2.6C135.2,130.8,136,130.1,137,129.5z"/>
<polygon class="st6" points="147.7,132.7 146.7,132 148.3,129.6 141.5,125.1 139.9,127.4 138.9,126.7 143,120.6 144.1,121.3 
	142.5,123.7 149.2,128.3 150.8,125.9 151.8,126.6 "/>
<polygon class="st6" points="155.4,120 146.8,116 145.1,119.7 144,119.2 148.2,110.3 149.3,110.8 147.5,114.5 156.1,118.5 "/>
<polygon class="st6" points="159.7,108.9 155.6,107.7 148.4,109.8 148.9,108 154.5,106.4 150.7,101.8 151.2,100.3 156,106.1 
	160.2,107.4 "/>
</svg>
