<?xml version="1.0" encoding="utf-8"?>
<!-- Generator: Adobe Illustrator 25.0.1, SVG Export Plug-In . SVG Version: 6.00 Build 0)  -->
<svg version="1.1" id="图层_1" xmlns="http://www.w3.org/2000/svg" xmlns:xlink="http://www.w3.org/1999/xlink" x="0px" y="0px"
	 viewBox="0 0 170.1 170.1" style="enable-background:new 0 0 170.1 170.1;" xml:space="preserve">
<style type="text/css">
	.st0{fill:#00537B;}
	.st1{fill:#FFFFFF;}
	.st2{fill-rule:evenodd;clip-rule:evenodd;fill:#00537B;}
	.st3{fill-rule:evenodd;clip-rule:evenodd;fill:#87933D;}
</style>
<path class="st0" d="M85,170.1c-46.9,0-85-38.1-85-85s38.1-85,85-85s85,38.1,85,85c0,22.5-9,44.1-24.9,60.1
	C129.3,161.2,107.6,170.1,85,170.1z"/>
<path class="st1" d="M85,1.9C39.2,1.9,2,39.2,2,85s37.2,83.1,83.1,83.1s83.1-37.2,83.1-83.1C168.1,39.2,130.9,2,85,1.9L85,1.9z"/>
<path class="st2" d="M73.5,154.9c1.4,0.2,2.9-0.5,4.5,0.1c0,0.5,0,1,0,1.4c-0.3,0.3-0.6,0.5-1,0.6c-0.8-0.8-1.6-0.4-2.8-0.2
	c-1.9,0.4-3.8,0.4-5.6,0.1c-1.1-0.3-3.7-2-1.4-2.1c0.4,0,0.9,0,1.1,0c0.8,0.1,1.6,0.1,2.4,0c0.7-0.2,2.1-1.7,2.6-2.2
	c0.8-0.9,1.6-1.9,2.1-2.9c-1.2-0.1-5.1,0.3-5.4-1.4c1.1-0.4,2.5,0,3.8,0c1.2,0,2.3-0.2,3.4-0.7c0.6-0.3,1.9,1.2,1.8,1.8
	c-0.1,1-2,1.5-2.7,2C75,152.3,74.1,153.5,73.5,154.9z"/>
<path class="st2" d="M62.5,144.8c-2.4,0.2-4.8,0.2-7.1,1.6c0.3-0.1,2.6,0.3,2.3,1.2c-0.2,0.6-1.7,0.3-2.3,0.2
	c-1.6-0.1-3.1-0.4-4.6-0.8c-0.8-0.2-1.6-0.5-2.4-1c-0.5-0.4-1.3-1.8-0.8-2.3c0.7-0.6,2.4,1.5,3.3,1.4c2.7-0.7,5.6-0.3,8.3-1.1
	c-0.7-0.7-1.7-1.1-2.7-1.1c-0.3,0-1,0.1-1.2,0c-0.9-0.6-0.6-2.2,0.2-3c0.8,1.1,1.9,1.1,3.3,1.7c1.3,0.4,2.4,1,3.4,1.9
	C62.6,144,62.5,144.4,62.5,144.8z"/>
<path class="st2" d="M42.9,144.8c2.3-1.2,5-2.5,7.4-3.6c0.2-0.1,0.7-0.6,1-0.2c-0.2,0.4-0.7,0.5-1.1,0.7c-2.1,0.8-4,2.8-6.3,4.1
	c-0.7,0.4-2.1,1.2-2.6,0.8c-1.1-0.8,0.8-2.6,1.7-2.5c1.2-1.2,2.6-2.4,4-3.8c0.6-0.6,1.3-1.2,2-1.7c0.6-0.4,1.6-0.7,2-1.5
	c0.2-0.4-0.2-1.9,0.6-1.7s0.8,2.1,0.5,2.5c-0.2,0.2-0.4,0.4-0.6,0.6c-1.5-0.3-3,0.4-3.8,1.7c-0.7,1-1.1,2.1-2,2.8
	S43.4,143.6,42.9,144.8z"/>
<path class="st2" d="M133.4,115.6c0.7,0.5,0.4,1.3,0.4,1.9s-0.1,1.4-0.2,2c0.4,0.3,0.9-0.1,1.2,0.3c0.6-1,1.2-2.8,2.6-3
	c0,0.1,0.1,0.1,0.1,0.1c0.3,0.9,0.4,1.9,0.3,2.9c-0.1,1.4,0.1,2.9-1.4,3.8c-0.3-0.8,0.6-1.7-0.5-2.9c0.2-0.1,0.4,0,0.6-0.2
	c0.1-0.7,0-1.4-0.1-2.1c-0.7,0.7-1.3,1.6-1.8,2.5c-0.3,0.8,0,1.7-0.1,2.5c0.8-0.1,1.5,0.3,1.8,1c-0.6,0.6-1.3,0.2-1.8-0.1
	c-0.5,0.8,0,2.1-1,2.6c0.1-0.9,0.1-1.9,0.1-2.8c-0.8,1-1.3,2.2-1.3,3.5c0.4,0.5,0.7,1.1,0.5,1.5c-0.3,0.1-0.6,0.1-0.8,0
	c-0.9-0.5-2.2-2.5-2.1-3.2c0.3-0.2,0.6-0.3,1-0.3c0.3,0.3,0.7,0.6,0.6,1c0.4-0.3,0.5-1.1,0.9-1.6c-0.3-0.1-0.6,0-0.9-0.2
	c-0.1-0.6-1-1-1.4-1.8c1-0.6,1.7,0.2,2.5,0.9c0.9-0.7,1.3-1.9,1-3c-0.9,0.3-0.3,1.4-1.1,1.9c-0.1-0.4-0.1-0.8-0.1-1.2
	c-0.5,0.2-0.9,0.3-1.4,0.4c0.4-0.7,1-1.3,1.7-1.7c0.1-1.1-0.4-2.9-0.2-4.1C132.7,115.9,133,115.6,133.4,115.6z"/>
<path class="st2" d="M137.4,127.1c-0.3-0.6,0.4-1.3,0.2-2c-1.5,1.9-2.4,5-3.9,7.5c-0.6,1-1.9,3.4-3.2,1.9c2-2.5,3.8-5.2,5.4-8
	c0.5-0.9,1-1.8,1.5-2.7c0.3-0.4,0.9-0.6,1.2-0.2C139.3,124.5,137.7,126.4,137.4,127.1z"/>
<path class="st2" d="M141.9,125.1c-0.6,1.8-1.5,3.5-2.5,5c0.9,2.1,3.6,4.6,2.6,6.3c-0.8,0.1-1.5-0.1-2.4-0.1c-1.1,0-2.4,0.5-3.3,0
	c1.4-0.3,2.7-0.8,3.9-1.6c-0.4-1.1-1.1-2.3-1.6-3.5c-0.8,0.6-2,1.4-2.9,1.2c0.4-1.2,1-2.4,1.9-3.4c-0.3-0.4-0.4-0.8-0.3-1.2
	c0.4-0.2,0.7,0.1,1.1,0.2C139,127.4,140.4,123.4,141.9,125.1z"/>
<path class="st2" d="M37.2,126.7c-0.6,0.5-1.2,1.1-1.7,1.8c0.6,0.3,1.3,0.5,2,0.5c0.7,0.1,1.4,0.2,2.1,0.3c0.3,0,0.8-0.2,1.1-0.2
	c0.6,0,1.2,0.2,1.8,0.3c0.3,0.1,1.8,0.4,1.4,1c-0.1,0.2-1.6-0.1-2-0.1c-0.8-0.1-1.3-0.2-2-0.2c-1.3,0.6-2.5,1.4-3.6,2.3
	c1.2,0.2,3.5-0.4,4.8,0.3c0.2,0.1,0.6,0.3,0.6,0.7c-0.3,0.5-0.9,0-1.3-0.1c-2-0.6-4.4,0.2-6.3,0.5c-0.3-0.1-0.5-0.5-0.6-0.8
	c1.2-1.7,3.2-2.3,4.7-3.2c-1.2-0.3-2.3-0.5-3.5-0.5c-1.5,1.3-2.8,3.2-4,2c-0.4-0.5-0.5-1.2-1.1-1.6s-1.5,0-2.1-0.2
	c-0.2-0.3-0.2-0.7-0.6-0.8c0.3-0.2,0.4-0.7,0.8-0.9s1.2,0.1,1.6,0.2c1.6,0.1,3.2,0.2,4.7,0.2c0.7-0.5,1.3-1.1,1.8-1.8
	c-1-0.3-1.9-0.4-2.9-0.5c-0.1-0.6-0.4-1.2,0.1-1.8c0.4,0,0.6,0.3,0.9,0.4c1.1,0.3,2.2,0.5,3.4,0.7c1.1-0.7,1.9-2,2.7-2.8
	c0.9,0.4,0.6,1.4,0.7,2.3c0,0.3,0.1,0.6,0.2,0.9c0.1,0.3,0.3,0.7,0.2,0.9c-0.3,0.5-1.3,0.4-1.8,0.4
	C38.4,126.8,37.8,126.6,37.2,126.7z M38.9,125.4c0.3,0.5,0.7,0,1,0.4l0.4-0.3c-0.2-0.2-0.2-0.8-0.3-1.1
	C39.7,124.7,39.3,125,38.9,125.4z M30.4,129.5c0.1,0.3,0.3,0.6,0.6,0.8c0.5-0.3,1-0.4,1.5-0.9C31.8,129.2,31,129.2,30.4,129.5z"/>
<path class="st2" d="M35,117.8c0.7,0.8,0.9,1.8,0.6,2.8c-0.4,0.3-1.1,0.3-1.5,0c-0.3,0-0.8,0.1-1-0.1
	C34.4,119.9,34.4,118.7,35,117.8z"/>
<path class="st2" d="M31,122c0.3,0.6,0.3,1.3,0.2,2c-1.9,0.7-3.7,1.9-5.1,3.4c1-0.4,1.9-1.3,2.8-1.2c-0.2,0.4-0.4,0.2-0.7,0.3
	c-0.9,0.5-1.5,1.6-2.4,1.7c-0.6,0.6-1.4,1-2.2,1.2c-0.4-0.6-0.3-1.4,0.1-2c0.5-0.5,1.7-0.8,2.4-1.2c0.9-0.4,1.7-0.9,2.4-1.5
	c0.9-0.9,1.2-1.9,2.3-2.7L31,122z"/>
<path class="st2" d="M34.2,136.5c1.2-1.2,2.3-1.8,3.5-3c0.6-0.3,1.2,0.1,0.9,0.7c-0.6,0.6-1.3,1.1-2,1.5
	C35.7,136.6,35,137.1,34.2,136.5z"/>
<path class="st2" d="M121.1,137c-0.6,1.2-0.7,2.7-0.3,4c1-0.5,1.5-1.9,2.7-2.2c1.2,1.6-1.9,2.6-2.6,3.8c-0.7,2-0.7,5.1-2.4,6.6
	c-0.8,0.6-1.7,1-2.7,0.9c1.7-1.4,2.9-3.4,3.2-5.5c-0.8,0.5-1.6,1-2.2,1.7c-0.6,0.6-1.4,1.6-2,1.8c-1,0.4-2.1-0.3-3-0.6
	c-0.1-0.3-0.3-0.8-0.2-1c0.5-0.2,1-0.3,1.5-0.4c2.8-0.7,4.6-2.7,6.1-4.2c-0.1-1-0.3-2-0.5-3c-0.4-1.4-1.3-2.8-1.1-4
	c0-0.2,0.4-1.1,0.6-1C119.6,134.5,120.7,135.6,121.1,137z"/>
<path class="st2" d="M122.1,144.3c1.1,0.1,4.2,0.4,4.7,1.8c0.4,1-0.6,1.9-1.8,2.3c-0.1-0.1,0-0.6-0.1-0.9c-0.4-0.6-0.9-1.1-1.4-1.5
	C123,145.4,122.5,144.9,122.1,144.3z"/>
<path class="st2" d="M94.5,144.1c-0.1-0.4,0.5-1.6,0-2.2c-0.2-0.2-0.4-0.3-0.7-0.4c-0.6-1.9,1.8-1.1,2.5-0.6
	c0.7,1.2-0.8,1.7-0.9,2.6C94.9,143.5,95,144.4,94.5,144.1z"/>
<path class="st2" d="M101.2,142c0.1,0.1,0.1,0.4,0.1,0.6c-1.3,1.4-3.2,2.2-4.2,3.8c0.7,0,2.4-1.2,2.7-0.1c0.2,0.8-0.6,0.7-0.5,1.5
	c0.8-0.3,2.1-0.4,2.5,0.5c-0.5,2.9,0.1,6.8,0.1,10.3c-1.1,1.6-4-0.5-4.8-1.4c1,0.1,1.8,0.5,2.8,0.6c0.3-2.4,0.4-4.9,0.3-7.3
	c-0.1-0.6,0.1-1.4-0.4-1.7c-1.6,0.1-2.6,1.2-3.6,2.1c-0.5,0.4-1.1,0.7-1.7,1.1c-0.9,0.6-1.7,1.7-3,1.1c0-0.9,1.1-1.1,1.7-1.4
	c1.9-1,4-2.3,5-4.1c-0.9,0.1-1.8,0.4-2.5,1c-0.7,0.5-1.4,1.2-2.4,1c0.5-1.5,1.9-2.2,3-3.1s2.1-2,3.2-3c-3.4,1.5-6.4,4.2-10.1,5.9
	c-1.1,0.5-2.3,1.2-2.4-0.6c4.1-1.6,8-3.6,11.8-5.8C99.5,142.5,100.3,141.8,101.2,142z"/>
<path class="st2" d="M97.6,151.8c-0.3,0.9-1,1.6-1.3,2.5c0.9,0,1.8,0.3,1.8,0.9c0,0.9-2.4,1.8-2.9,2.3c0.3-0.9,1.4-1.2,1.5-2.2
	c-0.2-0.1-1,0.2-1.2-0.1c0-1,0.7-1.4,0.7-2.4c-0.8,0.1-1.3,1.3-2,0.4C94.7,152.5,96.6,151.2,97.6,151.8z"/>
<path class="st2" d="M91.7,154.1c0.8-0.3,1,1,1,2c0,1.1-0.5,3.2-1.4,3.2c-0.4,0-0.8-0.8-0.7-1.5c0-0.2,0.3-0.7,0.4-1.1
	s0.2-0.8,0.3-1.2C91.3,154.9,91.2,154.2,91.7,154.1z"/>
<path class="st3" d="M40.7,62.6l-0.1-0.2c-0.4-1.1-0.7-2.2-0.8-3.4c-0.1-1.5,0.2-6.1,1.6-8c1.1-1.5,2.7-2.7,4.5-3.3
	c0.6,0.4-0.2,4.5,0,9.1c-0.6,2.6-2,4.8-3.8,5.4c-0.7-0.6,0-5.3,0.8-7.1C42.1,55.7,41.1,56.4,40.7,62.6z"/>
<path class="st3" d="M45.1,60.5c0.6-1,1.1-2.2,1.2-3.4c0-0.2,2.6,1,7.9,0.4c-1.1,2.6-2.4,4-4.5,4.8s-5,1.1-6.5,0.3
	c-0.1-0.1,0.9-0.8,0.9-0.8c1.6-0.2,3.1-0.7,4.5-1.6C47.5,60.1,45.1,60.5,45.1,60.5z"/>
<polygon class="st3" points="41.7,63.6 41.3,62 41.1,66 42.7,62.9 "/>
<path class="st3" d="M39.4,76.3c1.8-1.7,2.6-4.2,2.1-6.7c-0.8-4.1-1.6-3.4-1.6-4.1c-0.3-1.7-0.8-3.4-1.3-5.1
	c-1.4,1.3-2.6,2.9-3.3,4.6c-0.5,2.7-0.3,5.5,0.8,8.1c1.3,3.5,1.9,3.4,2.1,3.8c0.1-0.7-1.2-4.8-1-6.1c0-0.8,0.3-1.6,0.7-2.2
	C37.7,70.8,37.8,74.2,39.4,76.3z"/>
<path class="st3" d="M41.9,69c0.1,1.4,0.1,2.9-0.1,4.3c1.1-0.5,2.2-1.1,3.1-1.8c-1.9,2.6-2.6,2.8-3.7,3.3c-0.5,0.7-0.8,1.2-0.8,1.2
	s8.7-0.8,9.2-9.2C45.6,68.8,45.5,68.5,41.9,69z"/>
<path class="st3" d="M38.6,76.3l0.8,1.3c0.2-0.4,0.4-0.7,0.6-1.1c0,1.3-0.2,2.6-0.2,3.9C39.1,79,38.8,77.7,38.6,76.3z"/>
<path class="st3" d="M41.4,91.3c1.4-2.7,1.2-5.9-0.5-8.3c-2-2-3.8-4.3-5.2-6.8c-1.2,2.1-1.8,4.5-1.6,6.9c0.8,3.9,3.2,7.3,6.6,9.4
	c-0.7-1.5-4.2-5.5-3.1-7.9C38.3,87.1,39.6,89.4,41.4,91.3z"/>
<path class="st3" d="M41.6,83.4c0.8,1.2,1.2,2.6,1.3,4c0.9-0.9,1.8-1.9,2.5-2.9c-0.3,1.8-1.3,3.3-2.6,4.5c-0.1,0.5-0.2,1-0.3,1.4
	c1.2-0.3,4.6-3.2,5.6-5.9c0.8-2.1,1-4.4,0.3-6.6c-0.3,0.3-1.4,1.5-3,3.1C44.1,81.7,42.8,82.5,41.6,83.4z"/>
<path class="st3" d="M40.8,91.5l1.2,0.9c0-0.4,0.1-0.9,0.2-1.3c0.2,1.2,0.6,2.2,0.9,3.7C42.2,93.9,41.4,92.7,40.8,91.5z"/>
<path class="st3" d="M48.8,105.4c0.7-3.1-0.7-6.3-3.3-7.9c-2.7-1.8-4.7-2.7-7.4-4.8c-0.4,0.8-0.8,6.1,1.3,8.4s4.6,5.2,9.2,5.8
	c-4.5-3-5.8-5-5.6-6.5C43.9,101.9,44.4,103.1,48.8,105.4z"/>
<path class="st3" d="M49.4,102.5c0.1,0.6,0.1,1.2,0.1,1.8c1.1-1.2,3.6-5.2,3.7-8.6c0-2.2-0.7-4.4-2-6.2c-0.6,1.6-1.3,3.2-2.2,4.7
	c-0.6,0.6-1.8,2.1-2.7,3.3c1.2,1,2.1,2.2,2.7,3.6c0.6-1.3,1-2.7,1.4-4.1C50.6,101,49.6,102,49.4,102.5z"/>
<path class="st3" d="M51.7,108.4c-1.3-0.6-2.5-1.4-3.6-2.5c0.5,0.2,1,0.3,1.5,0.4c-0.1-0.5-0.2-0.9-0.3-1.4
	C50.2,106.5,51.4,107.5,51.7,108.4z"/>
<path class="st3" d="M61.5,118.8c-3.5,0.6-7.1,0-10.2-1.8c-2.4-1.8-3.9-3.4-4.5-8c2.5,0.8,5.1,1.2,7.7,1.4c2.1,0.4,4.1,1.5,5.5,3.2
	c0.7,1.1,1.2,2.4,1.5,3.7c-3.5-0.5-5.4-1.1-7.5-2.7C55,117.8,60.5,118.1,61.5,118.8z"/>
<path class="st3" d="M56.2,110.4c0.8,0.2,3.4,1.5,3.7,2.5c0.2-1.5,0.2-3,0.1-4.4c0.7,0.7,1.1,2.8,0.9,5.8c0.2,0.5,0.4,1,0.6,1.5
	c1-2.9,1.3-6,1-9.1c-0.6-2.4-2-4.5-4.1-5.9c-0.3,1.2-0.2,3.9-0.7,5.3S56.2,110.4,56.2,110.4z"/>
<path class="st3" d="M60.8,117.8c0.2,0.1,3.2,1.4,4.3,1.2c-0.3-0.6-2.4-1.8-3.3-2.6c0.2,0.5,0.3,0.6,0.7,1.4
	C61.7,117.9,61.4,117.7,60.8,117.8z"/>
<path class="st3" d="M60.1,121.4c0.2,0.7,2.4,5.2,6.4,5.9s8.9-0.5,11-2.2c-2,0.2-4.1,0.3-6.1,0.2c-1-0.1-2-0.6-2.7-1.4
	c3.9,1.1,6,0.2,8.4-0.1c-1.2-2.2-3.4-3.8-5.9-4.2c-4.2,0.1-5.8,1.2-7.1,1.2C62.9,120.9,60.1,121.4,60.1,121.4z"/>
<path class="st3" d="M69.7,119.1c0,0,3-0.1,4.5,1c-0.1-1-1.3-4-1.3-4.4c1.4,1.4,2.3,3.3,2.6,5.3c0.3,0.4,0.7,0.8,1.1,1.2
	c-0.1-5.7-1.8-12.1-7.8-13.3c0.4,1.5,0.7,3.1,0.9,4.6C69.8,115.4,69.8,117.2,69.7,119.1z"/>
<path class="st3" d="M76.8,124.5c2.4,0,4.7,0.5,6.8,1.6c-1.5,1-2.8,2.3-3.9,3.8c1.1,0,1.5,0,2.3,0c0.5-0.9,0.7-1.5,3.2-3.1
	c1.3,0.7,2.4,1.8,3.3,3c0.9,0,1.9,0,2.2,0c-1-1.5-2.3-2.8-3.8-3.7c2.2-1,4.5-1.6,6.9-1.5c-0.4-0.3-0.9-0.5-1.4-0.7
	c0.3-0.4,0.6-0.7,1-1.1c-2.7,1-5.1,1.2-8.1,2.5c-2.1-0.7-4.2-1.4-6.4-1.9c-0.8-0.2-1-0.4-1.7-0.6c0.4,0.3,0.7,0.6,1,1L76.8,124.5z"
	/>
<path class="st3" d="M129.4,63l0.1-0.2c0.4-1.1,0.7-2.2,0.8-3.4c0.1-1.4-0.2-6.1-1.6-8c-1.1-1.5-2.7-2.7-4.5-3.3
	c-0.6,0.4,0.2,4.5,0,9.1c0.6,2.6,2.1,4.8,3.8,5.4c0.7-0.6,0-5.3-0.8-7.1C128,56,129,56.7,129.4,63z"/>
<path class="st3" d="M124.9,60.9c-0.6-1-1.1-2.2-1.2-3.4c0-0.2-2.6,1-7.9,0.4c1.1,2.6,2.4,4,4.5,4.8s5,1.1,6.5,0.3
	c0.1-0.1-0.9-0.8-0.9-0.8c-1.6-0.2-3.1-0.7-4.5-1.6C122.6,60.5,124.9,60.9,124.9,60.9z"/>
<polygon class="st3" points="128.3,63.9 128.8,62.4 129,66.4 127.4,63.2 "/>
<path class="st3" d="M130.7,76.7c-1.8-1.7-2.6-4.2-2.1-6.7c0.8-4.1,1.6-3.4,1.6-4.1c0.3-1.7,0.8-3.4,1.3-5c1.4,1.3,2.6,2.9,3.3,4.6
	c0.5,2.7,0.3,5.5-0.8,8.1c-1.3,3.5-1.9,3.4-2.1,3.8c-0.1-0.7,1.2-4.8,1-6c0-0.8-0.3-1.6-0.7-2.2C132.4,71.2,132.3,74.5,130.7,76.7z"
	/>
<path class="st3" d="M128.1,69.4c-0.1,1.4-0.1,2.9,0.1,4.3c-1.1-0.5-2.2-1.1-3.1-1.8c1.9,2.6,2.6,2.8,3.7,3.3
	c0.5,0.7,0.8,1.2,0.8,1.2s-8.7-0.8-9.2-9.2C124.5,69.2,124.5,68.9,128.1,69.4z"/>
<path class="st3" d="M131.5,76.7l-0.8,1.3c-0.2-0.4-0.4-0.7-0.5-1.1c0,1.3,0.2,2.6,0.2,3.9C130.9,79.4,131.3,78.1,131.5,76.7z"/>
<path class="st3" d="M128.6,91.6c-1.4-2.7-1.2-5.9,0.5-8.3c2-2,3.8-4.3,5.2-6.8c1.2,2.1,1.8,4.5,1.6,6.9c-0.8,3.9-3.2,7.3-6.6,9.4
	c0.7-1.6,4.2-5.6,3.1-7.9C131.8,87.5,130.5,89.8,128.6,91.6z"/>
<path class="st3" d="M128.5,83.8c-0.8,1.2-1.2,2.6-1.3,4c-0.9-0.9-1.8-1.9-2.5-2.9c0.4,1.8,1.3,3.3,2.6,4.5c0.1,0.5,0.2,1,0.3,1.4
	c-1.2-0.3-4.6-3.2-5.6-5.9c-0.8-2.1-1-4.4-0.3-6.6c0.3,0.3,1.4,1.6,3,3.1C126.1,82.1,127.3,82.9,128.5,83.8z"/>
<path class="st3" d="M129.2,91.9l-1.2,0.9c0-0.4-0.1-0.9-0.2-1.3c-0.2,1.2-0.6,2.2-0.9,3.7C127.9,94.2,128.7,93.1,129.2,91.9z"/>
<path class="st3" d="M121.3,105.8c-0.7-3.1,0.7-6.3,3.3-7.9c2.7-1.8,4.7-2.7,7.4-4.8c0.4,0.7,0.8,6.1-1.3,8.4s-4.6,5.2-9.2,5.8
	c4.5-3,5.8-5,5.6-6.5C126.1,102.3,125.6,103.4,121.3,105.8z"/>
<path class="st3" d="M120.7,102.9c-0.1,0.6-0.1,1.2-0.1,1.8c-1.1-1.2-3.6-5.2-3.7-8.6c0-2.2,0.7-4.4,2-6.2c0.6,1.6,1.3,3.2,2.2,4.7
	c0.6,0.6,1.8,2.1,2.7,3.3c-1.2,1-2.1,2.2-2.7,3.6c-0.6-1.3-1-2.7-1.4-4.1C119.5,101.4,120.5,102.4,120.7,102.9z"/>
<path class="st3" d="M118.4,108.8c1.3-0.6,2.6-1.4,3.6-2.5c-0.5,0.2-1,0.3-1.5,0.4c0.1-0.5,0.2-0.9,0.3-1.4
	C119.9,106.9,118.7,107.9,118.4,108.8z"/>
<path class="st3" d="M108.6,119.2c3.5,0.6,7.1,0,10.2-1.8c2.4-1.8,3.9-3.4,4.5-8c-2.5,0.8-5.1,1.2-7.7,1.4c-2.1,0.4-4.1,1.5-5.5,3.2
	c-0.7,1.1-1.2,2.4-1.4,3.7c3.5-0.5,5.4-1.1,7.5-2.7C115,118.1,109.5,118.4,108.6,119.2z"/>
<path class="st3" d="M113.8,110.8c-0.8,0.2-3.4,1.5-3.7,2.5c-0.2-1.5-0.2-3-0.1-4.4c-0.7,0.7-1.1,2.8-0.9,5.9
	c-0.2,0.5-0.4,1-0.6,1.5c-1-2.9-1.3-6-1-9.1c0.6-2.4,2-4.5,4.1-5.9c0.3,1.2,0.2,3.9,0.7,5.3S113.8,110.8,113.8,110.8z"/>
<path class="st3" d="M109.3,118.2c-0.2,0.1-3.2,1.4-4.3,1.2c0.3-0.6,2.4-1.8,3.3-2.6c-0.2,0.5-0.3,0.6-0.7,1.4
	C108.2,118.2,108.7,118.2,109.3,118.2z"/>
<path class="st3" d="M110,121.7c-0.2,0.7-2.4,5.2-6.4,5.9s-8.9-0.5-11-2.2c2.1,0.2,4.1,0.3,6.2,0.3c1-0.1,2-0.6,2.7-1.4
	c-3.9,1.1-6,0.2-8.4-0.1c1.2-2.2,3.4-3.8,5.9-4.3c4.2,0.1,5.8,1.2,7.1,1.2S110,121.7,110,121.7z"/>
<path class="st3" d="M100.4,119.4c0,0-3-0.1-4.5,1c0.1-1,1.3-4,1.3-4.4c-1.4,1.4-2.3,3.3-2.6,5.3c-0.3,0.4-0.7,0.8-1.1,1.2
	c0.1-5.7,1.8-12.1,7.8-13.3c-0.4,1.5-0.7,3.1-0.9,4.6C100.3,115.8,100.3,117.6,100.4,119.4z"/>
<path class="st2" d="M65.5,49.5c0,0,7.2-1,8.3-1.4c4.1-1.4,7.8-3.5,11-6.3c0.4-0.4,2.2,5.5,19.4,7.9c0.5,1.7,0.9,3.4,1.1,5.1
	C90.6,53.8,85,44.6,84.7,45c-6.2,7.8-20,9.7-20,9.7C64.7,53.5,65.5,49.5,65.5,49.5z"/>
<path class="st2" d="M63.2,59.9c8.7-2.2,18.4-6.1,21.2-14.9c0.1-0.3,0.7-0.2,0.7-0.2c3.3,8.3,10.3,11.9,21.1,15.2c0.4,0.1,1,7,0.9,7
	c-19.6-5.6-21.5-16.8-22.1-15.6c-4.4,8.7-12.8,14.6-22.4,15.9C62.2,67.5,63.2,59.9,63.2,59.9z"/>
<path class="st2" d="M62.8,71.7c0,0,15.3-4.4,21.3-13.1c0.4-0.6,0,17.4,0,17.4c-5,4.3-11,7.2-17.5,8.4c-0.3,0.1-0.4,4-0.4,4
	c2.6,0,10.9-1.4,18.2-7.9l-0.1,4.6c0,0-11.9,10.4-23.9,9.9c-0.3,0,1.7-14.7,1.7-14.7s11.3-1.9,18.2-6.9c0.1-1.8,0.2-3.7,0.1-5.6
	c-4.7,4.7-18.1,9.1-18.2,8.4C62.1,76.4,62.6,72.4,62.8,71.7z"/>
<path class="st2" d="M107.8,71.4c-3.1-0.9-15.2-4.4-21.1-13.1c-0.4-0.6-0.3,17.4-0.3,17.4c5.1,4.2,11.2,7.1,17.7,8.4
	c0.3,0.1,0.5,4,0.5,4c-5.2-0.1-10.1-2-14.1-5.2c-0.1-0.5-0.2-0.9-0.1-1.4c-1.9-1.1-3.2-2.2-3.9-2.3c0,0-0.2,5,0,5.9
	c4.7,4.5,16.8,11,24.1,10c0.4-0.1-0.9-13.1-1.5-14.5c0,0-11.6-2.4-18.4-7.4c-0.2-1.8-0.2-3.6-0.1-5.3c2.6,2.6,7.5,5.6,13.6,7.4
	c0,0,0.2,1,0.3,1.3c1.4,1,4.3,1.5,4.3,1.2C108.5,77.8,108.2,72.5,107.8,71.4z"/>
<path class="st0" d="M78.9,106.1h-1.4V102c-0.5,0.4-1.1,0.7-1.8,0.8v-1c0.4-0.1,0.8-0.3,1.2-0.5c0.4-0.2,0.7-0.5,0.9-0.9h1.1V106.1z
	"/>
<path class="st0" d="M80.9,104.8l1.3-0.1c0,0.2,0.1,0.4,0.3,0.5c0.2,0.1,0.3,0.2,0.5,0.2c0.3,0,0.5-0.1,0.7-0.3
	c0.3-0.4,0.4-0.8,0.4-1.3c-0.4,0.3-0.8,0.5-1.3,0.5c-0.5,0-1-0.2-1.4-0.5c-0.4-0.3-0.6-0.8-0.6-1.3c0-0.5,0.2-1,0.6-1.4
	c0.5-0.4,1-0.5,1.6-0.5c0.7,0,1.3,0.2,1.8,0.7c0.9,1.3,0.9,3.1,0,4.4c-0.5,0.5-1.2,0.7-1.9,0.7c-0.5,0-0.9-0.1-1.4-0.4
	C81.3,105.6,81.1,105.2,80.9,104.8L80.9,104.8z M84,102.4c0-0.3-0.1-0.6-0.3-0.8c-0.2-0.2-0.4-0.3-0.7-0.3c-0.2,0-0.5,0.1-0.6,0.2
	c-0.3,0.5-0.3,1.1,0,1.6c0.2,0.2,0.4,0.3,0.7,0.3c0.5,0,0.9-0.4,0.9-0.8C84,102.5,84,102.4,84,102.4L84,102.4z"/>
<path class="st0" d="M90,106.1h-1.4V102c-0.5,0.4-1.1,0.7-1.8,0.8v-1c0.4-0.1,0.8-0.3,1.2-0.5c0.4-0.2,0.7-0.5,0.9-0.9H90V106.1z"/>
<path class="st0" d="M95,106.1h-1.4V102c-0.5,0.4-1.1,0.7-1.8,0.8v-1c0.4-0.1,0.8-0.3,1.2-0.5c0.4-0.2,0.7-0.5,0.9-0.9H95L95,106.1z
	"/>
<path class="st0" d="M22.5,93l1.3,7l-1.1,0.2l-6.5-3.5l-0.5-0.2c-0.3-0.2-0.5-0.3-0.8-0.5l0.9,5l-1.1,0.2l-1.2-6.4l1-0.2l7.1,3.9
	l0.7,0.4l-1-5.7L22.5,93z"/>
<path class="st0" d="M22,84.9l0.1,1.2l-4.3,0.2l0.2,4.7l4.3-0.2l0.1,1.2l-9,0.5l-0.1-1.2l3.7-0.2l-0.2-4.7L13,86.6L13,85.4L22,84.9z
	"/>
<path class="st0" d="M22.6,76.4l-0.5,6.8l-9-0.7l0.5-6.5l1.1,0.1l-0.4,5.3l2.8,0.2l0.4-5l1.1,0.1l-0.4,5l3.1,0.2l0.4-5.6L22.6,76.4z
	"/>
<path class="st0" d="M20.9,70.2c0.8,0.1,1.6,0.5,2.2,1.1c0.4,0.6,0.5,1.3,0.3,2c-0.1,0.7-0.4,1.3-1,1.7c-0.7,0.3-1.4,0.4-2.1,0.2
	l0.1-1.1c0.5,0.1,0.9,0.1,1.4-0.1c0.3-0.2,0.6-0.5,0.6-0.9c0.1-0.3,0-0.7-0.1-0.9c-0.1-0.2-0.3-0.4-0.6-0.5
	c-0.3-0.1-0.6-0.2-0.9-0.2l-6.1-1.2l0.2-1.2L20.9,70.2z"/>
<path class="st0" d="M24.5,67.7l-0.3,1.2l-8.7-2.4l0.3-1.2L24.5,67.7z"/>
<path class="st0" d="M27.7,58.8l-0.5,1.3h-3l-1.3,3.5l2.2,1.9l-0.4,1.2l-7.2-6.5l0.5-1.2L27.7,58.8z M23.2,60.1h-3.6
	c-0.4,0-0.7,0-1.1-0.1l0,0c0.5,0.3,1,0.6,1.4,1l2.2,1.9L23.2,60.1z"/>
<path class="st0" d="M31.4,51.9L30.8,53l-8.5,0.8l0,0l6.2,3.4l-0.5,1l-8-4.3l0.6-1.1l8.5-0.8l0,0l-6.2-3.4l0.5-1L31.4,51.9z"/>
<path class="st0" d="M36.1,43.3c0.1,1.4-0.3,2.7-1.1,3.9c-1.3,2-4.1,2.6-6.1,1.2c-0.1-0.1-0.3-0.2-0.4-0.3c-0.7-0.5-1.2-1.1-1.6-1.9
	c-0.4-0.7-0.5-1.5-0.5-2.3c0.1-0.9,0.5-1.7,1-2.4c0.5-0.7,1.2-1.3,2-1.6c0.8-0.2,1.6-0.2,2.3,0.2l-0.4,1c-0.5-0.3-1.1-0.3-1.7-0.2
	c-0.6,0.2-1.1,0.6-1.4,1.1c-0.6,0.7-0.9,1.7-0.7,2.6c0.2,0.9,0.8,1.7,1.6,2.2c0.5,0.4,1.2,0.7,1.9,0.9c0.6,0.1,1.2,0,1.7-0.2
	c0.5-0.3,1-0.7,1.4-1.1c0.6-0.8,0.9-1.7,0.8-2.7l-1.3-1L32,45l-0.9-0.6l2.3-3.1L36.1,43.3z"/>
<path class="st0" d="M48,32.5c-0.2,1.4-0.9,2.6-2,3.5c-1.8,1.6-4.6,1.5-6.2-0.3c-0.1-0.1-0.2-0.3-0.3-0.4c-0.5-0.6-0.9-1.4-1.1-2.2
	c-0.2-0.8-0.2-1.6,0.1-2.3c0.3-0.8,0.9-1.5,1.6-2c0.7-0.6,1.5-0.9,2.3-1c0.8,0,1.6,0.3,2.2,0.8L44,29.4c-0.5-0.4-1-0.6-1.6-0.6
	c-0.6,0-1.2,0.3-1.6,0.7c-0.8,0.5-1.3,1.4-1.3,2.3c0,0.9,0.4,1.8,1,2.5c0.4,0.6,1,1,1.6,1.3c0.5,0.2,1.1,0.3,1.7,0.2
	c0.6-0.1,1.1-0.4,1.6-0.8c0.7-0.6,1.3-1.4,1.5-2.4l-1.1-1.3l-2.1,1.7l-0.7-0.8l3-2.4L48,32.5z"/>
<path class="st0" d="M48.8,22.7c1-0.6,2.2-0.8,3.3-0.5c1.2,0.4,2.2,1.2,2.8,2.3c0.7,1,0.9,2.3,0.7,3.5c-0.3,1.1-1,2.1-2,2.7
	c-1,0.6-2.3,0.8-3.4,0.4C49,30.8,48.1,30,47.5,29c-0.7-1.1-1-2.4-0.7-3.6C47,24.2,47.8,23.2,48.8,22.7z M53,29.9
	c0.8-0.4,1.3-1.1,1.4-2c0.2-2-0.9-3.9-2.7-4.7c-0.8-0.3-1.7-0.2-2.4,0.3c-0.7,0.4-1.3,1.1-1.5,1.9c-0.1,1,0.1,2.1,0.7,2.9
	c0.4,0.8,1.1,1.4,2,1.8C51.3,30.4,52.2,30.3,53,29.9L53,29.9z"/>
<path class="st0" d="M64.9,25.3l-1.1,0.5l-7-4.8l0,0l2.7,6.6l-1.1,0.4L55,19.5l1.1-0.4l7.1,4.8l0,0l-2.7-6.6l1.1-0.4L64.9,25.3z"/>
<path class="st0" d="M74.1,21.6c-0.8,1.1-2,1.9-3.3,2.2c-2.3,0.7-4.8-0.6-5.5-2.9c0-0.2-0.1-0.3-0.1-0.5c-0.2-0.8-0.2-1.6,0-2.4
	c0.2-0.8,0.5-1.5,1.1-2c0.6-0.6,1.4-1,2.3-1.2c0.8-0.2,1.7-0.2,2.5,0.1c0.7,0.3,1.3,0.9,1.7,1.7l-1,0.5c-0.3-0.5-0.7-1-1.2-1.2
	c-0.6-0.2-1.2-0.2-1.8-0.1c-0.9,0.1-1.8,0.7-2.2,1.5c-0.4,0.9-0.5,1.8-0.2,2.8c0.1,0.7,0.4,1.3,0.9,1.9c0.4,0.4,0.9,0.8,1.4,0.9
	c0.6,0.1,1.2,0.1,1.8,0c0.9-0.2,1.8-0.8,2.4-1.5l-0.4-1.6l-2.6,0.6l-0.2-1l3.7-0.9L74.1,21.6z"/>
<path class="st0" d="M80.6,15.8c-0.1-0.5-0.3-1-0.7-1.2c-0.5-0.3-1.1-0.4-1.6-0.3c-0.5,0-1,0.2-1.5,0.5c-0.4,0.2-0.5,0.6-0.5,1.1
	c0,0.4,0.2,0.7,0.5,0.8c0.6,0.2,1.2,0.4,1.8,0.4c0.6,0.1,1.3,0.2,1.9,0.3c0.5,0.1,0.9,0.4,1.3,0.7c0.4,0.4,0.6,0.9,0.6,1.4
	c0.1,0.7-0.2,1.5-0.8,2c-0.6,0.6-1.5,1-2.3,1c-1,0.2-2.1,0-2.9-0.6c-0.7-0.5-1.1-1.3-1.2-2.1l1.1-0.2c0.1,0.6,0.4,1.2,1,1.5
	c0.6,0.3,1.2,0.4,1.9,0.3c0.6,0,1.1-0.2,1.6-0.6c0.4-0.3,0.6-0.7,0.5-1.2c0-0.5-0.3-0.8-0.8-1c-0.7-0.2-1.5-0.4-2.2-0.5
	c-0.8,0-1.6-0.3-2.3-0.7c-0.5-0.3-0.8-0.9-0.8-1.5c-0.1-0.7,0.2-1.4,0.7-1.9c0.6-0.6,1.4-0.9,2.2-0.9c0.9-0.1,1.7,0,2.5,0.5
	c0.7,0.4,1.1,1.1,1.2,1.9L80.6,15.8z"/>
<path class="st0" d="M91.1,22.3l-1.2-0.1l0.2-4.3l-4.7-0.2l-0.2,4.3H84l0.4-9.1l1.2,0.1l-0.2,3.7l4.7,0.2l0.1-3.7h1.2L91.1,22.3z"/>
<path class="st0" d="M100.2,23.8l-1.3-0.2l-0.6-2.9L94.5,20l-1.5,2.6l-1.2-0.2l5-8.3l1.3,0.2L100.2,23.8z M98.1,19.7
	c-0.4-2.1-0.6-3.2-0.7-3.5s-0.1-0.6-0.1-1.1l0,0c-0.2,0.5-0.5,1.1-0.8,1.6l-1.5,2.5L98.1,19.7z"/>
<path class="st0" d="M107.6,26.2l-1.2-0.4l-2.3-8.2l0,0l-2.2,6.8l-1.1-0.4l2.8-8.6l1.2,0.4l2.3,8.2l0,0l2.2-6.8l1.1,0.4L107.6,26.2z
	"/>
<path class="st0" d="M117,29.2c-1.3,0.4-2.8,0.2-4-0.4c-2.2-0.9-3.3-3.5-2.4-5.7c0.1-0.2,0.2-0.3,0.2-0.5c0.4-0.7,0.9-1.4,1.5-1.9
	c0.6-0.5,1.4-0.8,2.1-0.9c0.9,0,1.7,0.1,2.5,0.6c0.8,0.3,1.5,0.9,1.9,1.7c0.4,0.7,0.5,1.6,0.2,2.4l-1.1-0.2c0.1-0.6,0.1-1.2-0.2-1.7
	c-0.3-0.5-0.8-1-1.3-1.2c-0.8-0.5-1.8-0.5-2.7-0.2c-0.9,0.4-1.5,1.1-1.9,2c-0.3,0.6-0.5,1.3-0.5,2c0,0.6,0.2,1.2,0.5,1.6
	c0.4,0.5,0.8,0.9,1.4,1.1c0.9,0.4,1.8,0.5,2.8,0.3l0.7-1.5l-2.4-1.2l0.5-1l3.4,1.7L117,29.2z"/>
<path class="st0" d="M130.4,36c-0.3,0.3-0.6,0.6-0.9,0.9c-0.3,0.3-0.7,0.5-1.1,0.7c-0.5,0.2-1,0.2-1.5,0.1c-0.7-0.2-1.3-0.5-1.8-1
	c-0.5-0.4-1-0.9-1.3-1.5c-0.2-0.4-0.3-0.9-0.2-1.4c0.1-0.4,0.2-0.8,0.4-1.2c0.3-0.4,0.5-0.8,0.8-1.2l3.4-4l0.9,0.8l-3.3,4
	c-0.3,0.4-0.6,0.7-0.8,1.1c-0.2,0.4-0.3,0.8-0.2,1.2c0.1,0.5,0.4,1,0.9,1.3c0.4,0.4,0.9,0.6,1.4,0.7c0.4,0,0.8-0.1,1.2-0.3
	c0.4-0.3,0.8-0.7,1.1-1.1l3.3-4l0.9,0.8L130.4,36z"/>
<path class="st0" d="M134,45.4l-0.8-0.9l2.1-8.3l0,0L130,41l-0.8-0.8l6.7-6.1l0.8,0.9l-2.1,8.3l0,0l5.3-4.8l0.8,0.9L134,45.4z"/>
<path class="st0" d="M135.9,47.9l-0.7-1l7.3-5.4l0.7,1L135.9,47.9z"/>
<path class="st0" d="M148.6,51l-9.6,1.7l-0.6-1.1l5.9-7.7l0.7,1.1l-4.4,5.4c-0.3,0.4-0.6,0.8-1,1.2l0,0c0.5-0.2,1-0.3,1.5-0.4
	L148,50L148.6,51z"/>
<path class="st0" d="M144,62.7l-2.8-6.2l8.3-3.7l2.7,6l-1,0.4l-2.2-4.9l-2.5,1.1l2.1,4.6l-1,0.4l-2-4.6l-2.8,1.2l2.3,5.1L144,62.7z"
	/>
<path class="st0" d="M146.7,71.7l-0.4-1.4c1.1-1.3,1.8-2.1,2.1-2.4c0.2-0.3,0.4-0.6,0.6-0.9c0.1-0.2,0.2-0.5,0.2-0.8
	c0-0.3-0.1-0.6-0.1-0.8l-0.4-1.3l-3.8,1.1l-0.3-1.1l8.7-2.5l1.1,3.9c0.1,0.4,0.2,0.9,0.3,1.4c0,0.4,0,0.7-0.1,1.1
	c-0.1,0.3-0.4,0.6-0.6,0.9c-0.3,0.2-0.6,0.4-1,0.5c-0.6,0.2-1.2,0.1-1.8-0.2c-0.6-0.4-1-0.9-1.3-1.6l0,0c-0.2,0.8-0.5,1.5-1.1,2.1
	L146.7,71.7z M149.7,63.7l0.7,2.5c0.1,0.4,0.3,0.8,0.5,1.1c0.2,0.3,0.4,0.5,0.7,0.6c0.3,0.1,0.6,0.1,0.9,0c0.4-0.1,0.7-0.4,0.9-0.7
	c0.2-0.5,0.2-1.1,0-1.6l-0.8-2.8L149.7,63.7z"/>
<path class="st0" d="M153.9,76.9c0.5-0.1,0.9-0.4,1.2-0.8c0.2-0.5,0.3-1.1,0.2-1.6c-0.1-0.5-0.3-1-0.6-1.4c-0.3-0.3-0.7-0.5-1.1-0.4
	c-0.4,0-0.7,0.3-0.8,0.6c-0.2,0.6-0.3,1.2-0.3,1.8c0,0.6-0.1,1.3-0.2,1.9c-0.1,0.5-0.3,0.9-0.6,1.3c-0.3,0.4-0.8,0.7-1.4,0.7
	c-0.7,0.1-1.5-0.1-2.1-0.6c-0.6-0.6-1-1.4-1.1-2.3c-0.2-1-0.1-2.1,0.4-3c0.5-0.7,1.2-1.2,2-1.3l0.3,1.1c-0.6,0.1-1.2,0.5-1.4,1.1
	c-0.3,0.6-0.3,1.3-0.2,1.9c0.1,0.6,0.3,1.1,0.6,1.6c0.3,0.4,0.7,0.5,1.2,0.4c0.5,0,0.9-0.4,1-0.8c0.2-0.7,0.3-1.5,0.4-2.3
	c0-0.8,0.2-1.6,0.6-2.3c0.3-0.5,0.9-0.8,1.4-0.9c0.7-0.1,1.4,0.1,1.9,0.6c0.6,0.6,0.9,1.4,1,2.2c0.2,0.9,0.1,1.7-0.3,2.5
	c-0.4,0.7-1.1,1.1-1.9,1.3L153.9,76.9z"/>
<path class="st0" d="M147.9,82l-0.1-1.2l9-0.5l0.1,1.2L147.9,82z"/>
<path class="st0" d="M155.8,90.8l0.1-3l-8-0.3l0.1-1.2l8,0.3l0.1-3h1.1l-0.3,7.2L155.8,90.8z"/>
<path class="st0" d="M155.6,100.1l-4.6-4.4l-3.8-0.6l0.2-1.2l3.8,0.6l5.7-2.7l-0.2,1.4l-3.3,1.5c-0.3,0.1-0.8,0.3-1.3,0.5
	c0.3,0.2,1.6,1.3,3.8,3.4L155.6,100.1z"/>
</svg>
